<svg width="3012" height="890" xmlns="http://www.w3.org/2000/svg" xmlns:xlink="http://www.w3.org/1999/xlink" xml:space="preserve" overflow="hidden"><defs><clipPath id="clip0"><rect x="454" y="5547" width="2940" height="409"/></clipPath><clipPath id="clip1"><rect x="454" y="5547" width="2940" height="409"/></clipPath><clipPath id="clip2"><rect x="454" y="5547" width="2940" height="409"/></clipPath></defs><g transform="translate(-454 -5503)"><rect x="1526" y="5625" width="1933" height="256" stroke="#5B9BD5" stroke-width="13.75" stroke-linejoin="round" stroke-miterlimit="10" fill="none"/><text fill="#344854" font-family="Arial,Arial_MSFontService,sans-serif" font-weight="400" font-size="64" transform="matrix(1 0 0 1 1856.16 6262)">Compare the </text><text fill="#344854" font-family="Arial,Arial_MSFontService,sans-serif" font-weight="400" font-size="64" text-decoration="underline" transform="matrix(1 0 0 1 2243.45 6262)">input gradients of two particles</text><text fill="#344854" font-family="Arial,Arial_MSFontService,sans-serif" font-weight="400" font-size="64" transform="matrix(1 0 0 1 1856.16 6339)">with respect to </text><text fill="#344854" font-family="Arial,Arial_MSFontService,sans-serif" font-weight="400" font-size="64" text-decoration="underline" transform="matrix(1 0 0 1 2286.42 6339)">the same input</text><text fill="#344854" font-family="Arial,Arial_MSFontService,sans-serif" font-weight="400" font-size="64" transform="matrix(1 0 0 1 2705.79 6339)">.</text><path d="M6.875-8.18051e-06 6.87529 241.423-6.87471 241.423-6.875 8.18051e-06ZM34.3753 234.548 0.000360892 303.298-34.3747 234.548Z" fill="#3F6EC3" transform="matrix(1 0 0 -1 2493 6184.3)"/><rect x="1145" y="5510" width="373" height="487" stroke="#ED7D31" stroke-width="13.75" stroke-linejoin="round" stroke-miterlimit="10" fill="none"/><text fill="#344854" font-family="Arial,Arial_MSFontService,sans-serif" font-weight="400" font-size="64" transform="matrix(1 0 0 1 955.917 6262)">Take the average over all </text><text fill="#344854" font-family="Arial,Arial_MSFontService,sans-serif" font-weight="400" font-size="64" transform="matrix(1 0 0 1 955.917 6339)">samples in the mini</text><text fill="#344854" font-family="Arial,Arial_MSFontService,sans-serif" font-weight="400" font-size="64" transform="matrix(1 0 0 1 1503.62 6339)">-</text><text fill="#344854" font-family="Arial,Arial_MSFontService,sans-serif" font-weight="400" font-size="64" transform="matrix(1 0 0 1 1524.82 6339)">batch.</text><path d="M6.875-1.33043e-05 6.87524 124.616-6.87476 124.617-6.875 1.33043e-05ZM34.3752 117.741 0.000360892 186.492-34.3748 117.742Z" fill="#ED7D31" transform="matrix(1 0 0 -1 1331 6183.49)"/><g clip-path="url(#clip0)"><g clip-path="url(#clip1)"><g clip-path="url(#clip2)"><path d="M39.3995-93.8018C39.5398-94.3626 39.8202-95.2038 39.8202-95.9048 39.8202-97.3071 38.4181-97.3071 38.1377-97.3071 37.9974-97.3071 32.9497-96.8864 30.426-96.6059 28.0423-96.4658 25.9392-96.1854 23.4153-96.0451 20.0503-95.7647 19.0688-95.6244 19.0688-93.1006 19.0688-91.6985 20.4709-91.6985 21.8731-91.6985 29.0239-91.6985 29.0239-90.4366 29.0239-89.0345 29.0239-88.4737 29.0239-88.1932 28.3227-85.6695L8.2725-5.46827C7.71165-3.36508 7.71165-3.08466 7.71165-2.24339 7.71165 0.841271 10.0953 1.40212 11.4974 1.40212 15.4233 1.40212 16.2646-1.68254 17.3863-6.02911L23.9762-32.2487C34.0715-31.1271 40.1006-26.9206 40.1006-20.1905 40.1006-19.3492 40.1006-18.7884 39.6799-16.6853 39.1191-14.5821 39.1191-12.8995 39.1191-12.1984 39.1191-4.06614 44.4472 1.40212 51.5979 1.40212 58.0477 1.40212 61.4127-4.48677 62.5344-6.44975 65.4789-11.6376 67.3017-19.4895 67.3017-20.0503 67.3017-20.7513 66.7408-21.3123 65.8996-21.3123 64.6376-21.3123 64.4975-20.7513 63.9366-18.5079 61.9736-11.2169 59.0292-1.40212 51.8784-1.40212 49.0742-1.40212 47.2514-2.80423 47.2514-8.13229 47.2514-10.7963 47.8122-13.881 48.373-15.9842 48.9339-18.5079 48.9339-18.6482 48.9339-20.3307 48.9339-28.6032 41.5027-33.2301 28.6032-34.9128 33.6508-37.9974 38.6985-43.4656 40.6614-45.5689 48.6535-54.5424 54.1217-59.0292 60.5715-59.0292 63.7964-59.0292 64.6376-58.1879 65.6192-57.3466 60.4313-56.7858 58.4684-53.1403 58.4684-50.3361 58.4684-46.971 61.1323-45.8493 63.0954-45.8493 66.8811-45.8493 70.2461-49.0742 70.2461-53.5609 70.2461-57.627 67.0213-61.8334 60.7118-61.8334 53-61.8334 46.6905-56.3652 36.7355-45.1482 35.3334-43.4656 30.1455-38.1377 24.9577-36.1746L39.3995-93.8018Z" fill="#0070C0" transform="matrix(1 0 0 1.00014 454.009 5787.4)"/><path d="M45.5689 34.0715C45.5689 33.6508 45.5689 33.3704 43.1852 30.9868 29.164 16.8254 21.3123-6.30954 21.3123-34.9128 21.3123-62.1139 27.9022-85.5292 44.1668-102.074 45.5689-103.336 45.5689-103.617 45.5689-104.037 45.5689-104.879 44.8677-105.159 44.3069-105.159 42.4842-105.159 30.9868-95.0636 24.1164-81.3229 16.9657-67.1615 13.7408-52.1588 13.7408-34.9128 13.7408-22.4339 15.7037-5.74869 22.9948 9.25398 31.2672 26.0794 42.7647 35.1932 44.3069 35.1932 44.8677 35.1932 45.5689 34.9128 45.5689 34.0715Z" transform="matrix(1 0 0 1.00014 530.113 5787.4)"/><path d="M76.6959-68.7038C76.6959-93.3811 62.1139-98.4287 53.5609-98.4287 42.4842-98.4287 28.463-91.1377 17.9471-72.0689 10.7963-58.889 6.44975-39.8202 6.44975-28.463 6.44975-8.13229 17.1058 1.12169 29.725 1.12169 39.1191 1.12169 51.4578-4.34656 61.1323-18.6482 72.9102-35.8942 76.6959-58.1879 76.6959-68.7038ZM27.7619-52.0186C29.725-60.1509 33.3704-72.9102 37.5768-80.2012 40.8016-85.9499 46.5504-93.3811 53.2805-93.3811 59.1694-93.3811 61.6932-87.2117 61.6932-78.9393 61.6932-70.1059 58.6085-57.9074 57.0662-52.0186L27.7619-52.0186ZM55.3837-45.2884C46.6905-7.71165 34.9128-3.92593 30.0054-3.92593 28.0423-3.92593 25.098-4.48677 23.1349-8.83335 21.4524-12.6191 21.4524-18.0874 21.4524-18.2275 21.4524-26.2197 24.537-39.2593 26.0794-45.2884L55.3837-45.2884Z" fill="#4C72B0" transform="matrix(1 0 0 1.00014 583.3 5787.4)"/><path d="M27.8554-58.3281C27.8554-60.3845 26.3598-61.8801 24.2099-61.8801 21.7796-61.8801 19.0688-59.6367 19.0688-56.8326 19.0688-54.7761 20.5643-53.2805 22.7144-53.2805 25.1447-53.2805 27.8554-55.5239 27.8554-58.3281ZM14.2082-24.023 9.16051-11.1235C8.69313-9.72136 8.22576-8.59966 8.22576-7.01059 8.22576-2.43034 11.7777 0.934745 16.7319 0.934745 25.799 0.934745 29.6315-12.1516 29.6315-13.3669 29.6315-14.3016 28.8836-14.5821 28.2293-14.5821 27.1076-14.5821 26.9206-13.9277 26.6402-12.993 24.4903-5.515 20.6578-1.68254 16.9189-1.68254 15.7972-1.68254 14.6755-2.14992 14.6755-4.67373 14.6755-6.91711 15.3298-8.59966 16.545-11.4974 17.4797-14.0212 18.4145-16.545 19.4427-19.0688L22.3405-26.6402C23.1817-28.7901 24.3034-31.6879 24.3034-33.2769 24.3034-37.9507 20.5643-41.2223 15.7972-41.2223 6.73017-41.2223 2.80423-28.1358 2.80423-26.9206 2.80423-26.0794 3.45856-25.7055 4.20635-25.7055 5.42153-25.7055 5.515-26.2663 5.79542-27.2011 8.41271-36.0811 12.7126-38.605 15.5168-38.605 16.8254-38.605 17.7602-38.1377 17.7602-35.5203 17.7602-34.5856 17.6667-33.2769 16.7319-30.4727L14.2082-24.023Z" fill="#4C72B0" transform="matrix(1 0 0 1.00014 666.558 5808.43)"/><path d="M27.3413 0.560848C27.3413-7.57144 24.6773-13.6005 18.9286-13.6005 14.4418-13.6005 12.1984-9.95504 12.1984-6.87038 12.1984-3.78571 14.3016 0 19.0688 0 20.8916 0 22.4339-0.560848 23.6958-1.82275 23.9762-2.10318 24.1164-2.10318 24.2566-2.10318 24.537-2.10318 24.537-0.140212 24.537 0.560848 24.537 5.18784 23.6958 14.3016 15.5635 23.4153 14.0212 25.098 14.0212 25.3784 14.0212 25.6588 14.0212 26.3598 14.7222 27.0609 15.4233 27.0609 16.545 27.0609 27.3413 16.6853 27.3413 0.560848Z" transform="matrix(1 0 0 1.00014 706.211 5787.4)"/><path d="M76.6959-68.7038C76.6959-93.3811 62.1139-98.4287 53.5609-98.4287 42.4842-98.4287 28.463-91.1377 17.9471-72.0689 10.7963-58.889 6.44975-39.8202 6.44975-28.463 6.44975-8.13229 17.1058 1.12169 29.725 1.12169 39.1191 1.12169 51.4578-4.34656 61.1323-18.6482 72.9102-35.8942 76.6959-58.1879 76.6959-68.7038ZM27.7619-52.0186C29.725-60.1509 33.3704-72.9102 37.5768-80.2012 40.8016-85.9499 46.5504-93.3811 53.2805-93.3811 59.1694-93.3811 61.6932-87.2117 61.6932-78.9393 61.6932-70.1059 58.6085-57.9074 57.0662-52.0186L27.7619-52.0186ZM55.3837-45.2884C46.6905-7.71165 34.9128-3.92593 30.0054-3.92593 28.0423-3.92593 25.098-4.48677 23.1349-8.83335 21.4524-12.6191 21.4524-18.0874 21.4524-18.2275 21.4524-26.2197 24.537-39.2593 26.0794-45.2884L55.3837-45.2884Z" fill="#55A868" transform="matrix(1 0 0 1.00014 767.573 5787.4)"/><path d="M38.605-58.3281C38.605-60.1041 37.2028-61.8801 34.9595-61.8801 32.1553-61.8801 29.725-59.2629 29.725-56.8326 29.725-55.0566 31.1271-53.2805 33.3704-53.2805 36.1746-53.2805 38.605-55.8978 38.605-58.3281ZM19.0688 4.67373C17.6667 10.3757 13.0865 16.4515 7.38449 16.4515 5.8889 16.4515 4.48677 16.0776 4.29983 15.9842 7.19755 14.5821 7.57144 12.0582 7.57144 11.2169 7.57144 8.97356 5.8889 7.75838 3.92593 7.75838 1.21516 7.75838-1.30865 10.0953-1.30865 13.18-1.30865 16.7319 2.14992 19.0688 7.47797 19.0688 13.18 19.0688 23.4621 15.5168 26.2663 4.29983L34.679-29.164C34.9595-30.2858 35.1464-31.0336 35.1464-32.4357 35.1464-37.5768 31.0336-41.2223 25.612-41.2223 15.7037-41.2223 9.9083-28.1358 9.9083-26.9206 9.9083-26.0794 10.5626-25.7055 11.3104-25.7055 12.3386-25.7055 12.4321-25.9859 13.0865-27.388 15.8907-33.8378 20.6578-38.605 25.3316-38.605 27.2945-38.605 28.4162-37.2963 28.4162-34.2117 28.4162-32.903 28.1358-31.5944 27.8554-30.2858L19.0688 4.67373Z" fill="#55A868" transform="matrix(1 0 0 1.00014 850.819 5808.43)"/><path d="M39.5398-34.9128C39.5398-45.5689 38.1377-62.9551 30.2858-79.2197 22.0132-96.0451 10.5159-105.159 8.97356-105.159 8.41271-105.159 7.71165-104.879 7.71165-104.037 7.71165-103.617 7.71165-103.336 10.0953-100.953 24.1164-86.7911 31.9683-63.6562 31.9683-35.0529 31.9683-7.85186 25.3784 15.5635 9.11377 32.1085 7.71165 33.3704 7.71165 33.6508 7.71165 34.0715 7.71165 34.9128 8.41271 35.1932 8.97356 35.1932 10.7963 35.1932 22.2937 25.098 29.164 11.3572 36.3149-2.94445 39.5398-18.0874 39.5398-34.9128Z" transform="matrix(1 0 0 1.00014 902.224 5787.4)"/><path d="M94.643-45.4286C96.6059-45.4286 99.1297-45.4286 99.1297-47.9525 99.1297-50.6165 96.7462-50.6165 94.643-50.6165L12.0582-50.6165C10.0953-50.6165 7.57144-50.6165 7.57144-48.0926 7.57144-45.4286 9.95504-45.4286 12.0582-45.4286L94.643-45.4286ZM94.643-19.3492C96.6059-19.3492 99.1297-19.3492 99.1297-21.8731 99.1297-24.537 96.7462-24.537 94.643-24.537L12.0582-24.537C10.0953-24.537 7.57144-24.537 7.57144-22.0132 7.57144-19.3492 9.95504-19.3492 12.0582-19.3492L94.643-19.3492Z" transform="matrix(1 0 0 1.00014 994.36 5787.4)"/><path d="M40.381-89.8758C40.381-93.1006 40.381-93.2409 37.5768-93.2409 34.2117-89.4552 27.2011-84.2674 12.7593-84.2674L12.7593-80.2012C15.9842-80.2012 22.9948-80.2012 30.7064-83.8467L30.7064-10.7963C30.7064-5.74869 30.2858-4.06614 17.9471-4.06614L13.6005-4.06614 13.6005 0C17.3863-0.280423 30.9868-0.280423 35.6138-0.280423 40.2408-0.280423 53.7011-0.280423 57.4869 0L57.4869-4.06614 53.1403-4.06614C40.8016-4.06614 40.381-5.74869 40.381-10.7963L40.381-89.8758Z" transform="matrix(1 0 0 1.00014 1175.07 5692.52)"/><path d="M1954.8 1138.36 2066.17 1138.36 2066.17 1143.97 1954.8 1143.97Z" transform="matrix(1 0 0 1.00014 -801.089 4611)"/><path d="M51.3175-86.2303C52.5795-91.4181 53.1403-91.6985 58.6085-91.6985L76.8361-91.6985C92.6801-91.6985 92.6801-78.2382 92.6801-76.9763 92.6801-65.6192 81.3229-51.1774 62.815-51.1774L42.6244-51.1774 51.3175-86.2303ZM75.0133-50.0557C90.2964-52.8599 104.177-63.5159 104.177-76.4155 104.177-87.352 94.5027-95.7647 78.6589-95.7647L33.6508-95.7647C30.9868-95.7647 29.725-95.7647 29.725-93.1006 29.725-91.6985 30.9868-91.6985 33.09-91.6985 41.6429-91.6985 41.6429-90.5769 41.6429-89.0345 41.6429-88.7541 41.6429-87.9128 41.082-85.8096L22.1535-10.3757C20.8916-5.46827 20.6111-4.06614 10.7963-4.06614 8.13229-4.06614 6.73017-4.06614 6.73017-1.54233 6.73017 0 7.57144 0 10.3757 0L58.4684 0C79.9208 0 96.4658-16.2646 96.4658-30.426 96.4658-41.9234 86.3705-48.9339 75.0133-50.0557ZM55.1032-4.06614 36.1746-4.06614C34.2117-4.06614 33.9313-4.06614 33.09-4.20635 31.5476-4.34656 31.4075-4.627 31.4075-5.74869 31.4075-6.73017 31.6879-7.57144 31.9683-8.83335L41.7831-48.373 68.1429-48.373C84.6879-48.373 84.6879-32.9497 84.6879-31.8281 84.6879-18.3678 72.4895-4.06614 55.1032-4.06614Z" transform="matrix(1 0 0 1.00014 1153.71 5883.58)"/><path d="M15.7972-7.38449C14.956-3.83246 14.769-3.08466 7.85186-3.08466 6.07584-3.08466 4.95415-3.08466 4.95415-1.30865 4.95415 0 6.16932 0 7.75838 0L42.4374 0C57.8608 0 69.3581-10.9365 69.3581-20.0035 69.3581-26.8272 63.4693-32.3422 54.1217-33.3704 64.9648-35.4268 74.3123-42.5309 74.3123-50.7567 74.3123-57.7673 67.4886-63.8432 55.7109-63.8432L23.0882-63.8432C21.4057-63.8432 20.1905-63.8432 20.1905-62.0671 20.1905-60.7584 21.3123-60.7584 22.9013-60.7584 25.9859-60.7584 28.6966-60.7584 28.6966-59.2629 28.6966-58.889 28.6032-58.7955 28.3227-57.5803L15.7972-7.38449ZM30.3793-34.4921 36.0811-57.2999C36.9224-60.478 37.0159-60.7584 40.8484-60.7584L54.3088-60.7584C63.4693-60.7584 65.5257-54.7761 65.5257-50.9436 65.5257-42.9983 57.0195-34.4921 45.0547-34.4921L30.3793-34.4921ZM23.9295-3.08466C23.0882-3.27161 22.8078-3.27161 22.8078-3.92593 22.8078-4.67373 22.9948-5.42153 23.1817-5.98237L29.725-31.8748 48.7003-31.8748C57.3934-31.8748 60.2911-25.9859 60.2911-20.7513 60.2911-11.5908 51.3175-3.08466 40.1006-3.08466L23.9295-3.08466Z" transform="matrix(1 0 0 1.00014 1363.97 5612.1)"/><path d="M177.508 196.296 194.474 151.429 190.968 151.429C185.5 166.011 170.637 175.546 154.514 179.751 151.569 180.453 137.828 184.098 110.908 184.098L26.3598 184.098 97.7276 100.392C98.7092 99.27 98.9896 98.8493 98.9896 98.1483 98.9896 97.8679 98.9896 97.4472 98.008 96.0451L32.6693 6.73017 109.505 6.73017C128.294 6.73017 141.053 8.69313 142.315 8.97356 149.887 10.0953 162.085 12.4789 173.161 19.4895 176.667 21.7328 186.202 28.0423 190.968 39.3995L194.474 39.3995 177.508 0 11.7777 0C8.55292 0 8.41271 0.140212 7.99208 0.981483 7.85186 1.40212 7.85186 4.06614 7.85186 5.60848L82.0239 107.122 9.39419 192.23C7.99208 193.913 7.99208 194.614 7.99208 194.754 7.99208 196.296 9.25398 196.296 11.7777 196.296L177.508 196.296Z" transform="matrix(1 0 0 1.00014 1302.47 5654.17)"/><path d="M22.8078-62.0671C22.9013-62.254 23.1817-63.4693 23.1817-63.5627 23.1817-64.0301 22.8078-64.8714 21.6861-64.8714 21.3123-64.8714 18.4145-64.591 16.2646-64.404L11.03-64.0301C8.97356-63.8432 8.03882-63.7497 8.03882-62.0671 8.03882-60.7584 9.34745-60.7584 10.4692-60.7584 14.956-60.7584 14.956-60.1976 14.956-59.3563 14.956-58.7955 14.0212-55.0566 13.4604-52.9066L5.32805-20.3774C4.58025-17.1993 4.58025-15.7972 4.58025-14.2082 4.58025-4.58025 10.4692 0.934745 17.6667 0.934745 29.164 0.934745 41.1288-12.3386 41.1288-25.8924 41.1288-35.1464 35.1464-41.2223 27.6684-41.2223 22.4339-41.2223 18.4145-37.8573 16.3581-36.0811L22.8078-62.0671ZM17.6667-1.68254C14.3016-1.68254 10.9365-4.29983 10.9365-11.1235 10.9365-13.6473 11.3104-15.9842 12.4321-20.4709 13.0865-23.1817 13.7408-25.799 14.4886-28.5097 14.956-30.1923 14.956-30.3793 16.0776-31.7814 19.2557-35.7072 23.4621-38.605 27.388-38.605 32.0618-38.605 33.8378-34.0247 33.8378-29.8184 33.8378-26.3598 31.7814-16.3581 28.9771-10.843 26.5468-5.79542 22.06-1.68254 17.6667-1.68254Z" transform="matrix(1 0 0 1.00014 1319.04 5952.81)"/><path d="M68.3299-31.1271C69.732-31.1271 71.6016-31.1271 71.6016-33.2769 71.6016-35.4268 69.3581-35.4268 67.956-35.4268L9.16051-35.4268C7.75838-35.4268 5.515-35.4268 5.515-33.2769 5.515-31.1271 7.38449-31.1271 8.78661-31.1271L68.3299-31.1271ZM67.956-11.3104C69.3581-11.3104 71.6016-11.3104 71.6016-13.4604 71.6016-15.6104 69.732-15.6103 68.3299-15.6103L8.78661-15.6103C7.38449-15.6103 5.515-15.6103 5.515-13.4604 5.515-11.3105 7.75838-11.3104 9.16051-11.3104L67.956-11.3104Z" transform="matrix(1 0 0 1.00014 1361.37 5952.81)"/><path d="M29.3511-59.5433C29.3511-62.0671 29.164-62.1605 26.6402-62.1605 22.8078-58.4216 17.8536-56.1782 8.97356-56.1782L8.97356-53.0935C11.4974-53.0935 16.545-53.0935 21.9666-55.6174L21.9666-7.66491C21.9666-4.20635 21.6861-3.08466 12.8061-3.08466L9.5344-3.08466 9.5344 0C13.3669-0.280423 21.4057-0.280423 25.612-0.280423 29.8183-0.280423 37.9507-0.280423 41.7831 0L41.7831-3.08466 38.5116-3.08466C29.6315-3.08466 29.3511-4.20635 29.3511-7.66491L29.3511-59.5433Z" transform="matrix(1 0 0 1.00014 1438.33 5952.81)"/><path d="M29.8651-35.0529C34.4921-37.5768 39.6799-41.9234 43.1852-44.8677 51.5979-52.1588 54.6827-54.4022 60.0106-56.5053 59.4498-55.6641 59.3097-54.5424 59.3097-53.5609 59.3097-49.7752 62.5344-49.0742 63.9366-49.0742 68.4233-49.0742 70.9473-53.2805 70.9473-55.9445 70.9473-56.7858 70.6667-60.4313 65.7593-60.4313 57.3466-60.4313 49.0742-53.2805 42.9048-48.0926 34.7725-40.9419 30.7064-37.8573 24.9577-36.0345L30.2858-58.3281C30.2858-60.5715 28.463-61.8334 26.6402-61.8334 25.3784-61.8334 22.2937-61.4127 21.172-56.926L8.13229-4.90742C7.71165-3.22487 7.71165-2.94445 7.71165-2.10318 7.71165-0.140212 9.25398 1.40212 11.3572 1.40212 15.5635 1.40212 16.4047-2.24339 17.1058-5.18784 17.9471-8.13229 23.6958-31.5476 23.9762-32.3889 41.7831-31.5476 47.8122-27.0609 47.8122-20.1905 47.8122-19.209 47.8122-18.7884 47.3916-17.2461 46.8308-14.5821 46.8308-13.0397 46.8308-12.1984 46.8308-3.78573 52.299 1.40212 59.1694 1.40212 64.9181 1.40212 68.1429-2.66402 70.2461-6.30954 73.1906-11.7777 75.0133-19.4895 75.0133-20.0503 75.0133-20.7513 74.4524-21.3123 73.6112-21.3123 72.3493-21.3123 72.2091-20.7513 71.6482-18.5079 69.8255-11.7777 66.7408-1.40212 59.5901-1.40212 56.5053-1.40212 54.9631-3.22487 54.9631-8.13229 54.9631-10.7963 55.5239-13.881 56.0848-15.9842 56.3652-17.3863 56.7858-19.0688 56.7858-20.6111 56.7858-33.3704 39.1191-34.6324 29.8651-35.0529Z" fill="#C44E52" transform="matrix(1 0 0 1.00014 1528.37 5787.4)"/><path d="M45.5689 34.0715C45.5689 33.6508 45.5689 33.3704 43.1852 30.9868 29.164 16.8254 21.3123-6.30954 21.3123-34.9128 21.3123-62.1139 27.9022-85.5292 44.1668-102.074 45.5689-103.336 45.5689-103.617 45.5689-104.037 45.5689-104.879 44.8677-105.159 44.3069-105.159 42.4842-105.159 30.9868-95.0636 24.1164-81.3229 16.9657-67.1615 13.7408-52.1588 13.7408-34.9128 13.7408-22.4339 15.7037-5.74869 22.9948 9.25398 31.2672 26.0794 42.7647 35.1932 44.3069 35.1932 44.8677 35.1932 45.5689 34.9128 45.5689 34.0715Z" transform="matrix(1 0 0 1.00014 1607.4 5787.4)"/><path d="M109.365-92.6801C109.646-93.1006 110.066-94.0822 110.066-94.643 110.066-95.6244 109.926-95.7647 106.701-95.7647L9.95504-95.7647C6.73017-95.7647 6.58996-95.6244 6.58996-94.643 6.58996-94.0822 7.01059-93.1006 7.29102-92.6801L54.5424 1.96296C55.5239 3.78573 55.9445 4.627 58.3281 4.627 60.7118 4.627 61.1323 3.78573 62.1139 1.96296L109.365-92.6801ZM23.9762-85.6695 100.953-85.6695 62.5344-8.55292 23.9762-85.6695Z" transform="matrix(1 0 0 1.00014 1660.59 5787.4)"/><path d="M34.7725-22.8078 46.6439-35.0529C48.1394-36.642 50.9436-36.642 55.8043-36.642L55.8043-41.5027C53-41.2223 48.7937-41.2223 46.9243-41.2223 46.083-41.2223 40.6614-41.2223 37.3898-41.5027L37.3898-36.642C38.3246-36.642 39.9137-36.3616 39.9137-35.8007 39.9137-35.5203 39.3528-34.9595 39.2593-34.866L31.314-26.6402 22.06-36.642 24.8642-36.642 24.8642-41.5027C19.4427-41.2223 18.2275-41.2223 13.6473-41.2223 11.9647-41.2223 6.44975-41.2223 3.17814-41.5027L3.17814-36.642 9.72136-36.642 24.9577-20.097 11.9647-6.54322C10.9365-5.515 10.0018-4.86068 4.20635-4.86068L2.61729-4.86068 2.61729 0C5.515-0.280423 9.81483-0.280423 11.4974-0.280423 12.0582-0.280423 17.8536-0.280423 21.1253 0L21.1253-4.86068C19.3492-4.86068 18.8818-5.32805 18.4145-5.70195L28.5097-16.2646 38.9789-4.86068 36.1746-4.86068 36.1746 0C41.5962-0.280423 42.8113-0.280423 47.3916-0.280423 48.7937-0.280423 54.5892-0.280423 57.8608 0L57.8608-4.86068 51.3175-4.86068 34.7725-22.8078Z" transform="matrix(1 0 0 1.00014 1776.99 5808.43)"/><path d="M19.6998-46.5504C19.7699-46.8308 19.91-47.2514 19.91-47.6019 19.91-48.7236 18.5079-48.6535 17.6667-48.5835L9.81483-47.9525C8.62303-47.8823 7.71165-47.8122 7.71165-46.1297 7.71165-45.0781 8.62303-45.0781 9.74472-45.0781 11.7777-45.0781 12.2686-44.8677 13.18-44.5873 13.1098-43.3955 13.1098-43.2554 12.7593-41.8533L9.5344-28.9537C8.97356-26.8505 6.23943-15.7739 5.95901-14.7923 5.60848-13.1098 5.60848-11.9881 5.60848-11.1468 5.60848-3.29497 10.8664 0.701059 16.6151 0.701059 26.0093 0.701059 35.4035-8.97356 35.4035-18.9988 35.4035-26.2197 30.3558-30.9167 24.0463-30.9167 19.7699-30.9167 16.1243-28.2527 14.7923-27.0609L19.6998-46.5504ZM13.5304-22.1535C15.7037-25.168 19.7699-28.6032 23.836-28.6032 27.4115-28.6032 29.4445-25.799 29.4445-21.7328 29.4445-19.2792 28.0423-11.6376 25.4484-7.50133 23.0649-3.6455 19.5596-1.61243 16.6853-1.61243 14.5119-1.61243 10.8664-2.87434 10.8664-8.90345 10.8664-11.0767 11.0767-12.1984 11.9881-15.914 12.4087-17.5265 13.25-20.8916 13.5304-22.1535Z" transform="matrix(1 0 0 1.00014 1837.2 5824.92)"/><path d="M30.426-56.2249 46.4101-56.2249 46.4101-62.254 29.725-62.254 29.725-76.6959C29.725-91.2779 38.9789-93.5213 43.6059-93.5213 45.1482-93.5213 45.4286-93.3811 46.27-93.1006 44.1668-91.6985 42.9048-89.3149 42.9048-86.3705 42.9048-80.7621 47.3916-78.2382 51.0371-78.2382 54.1217-78.2382 59.1694-80.3414 59.1694-86.5107 59.1694-92.2594 54.1217-98.1483 44.1668-98.1483 31.4075-98.1483 15.8439-92.8202 15.8439-76.5556L15.8439-62.254 5.46827-62.254 5.46827-56.2249 15.8439-56.2249 15.8439-6.02911 6.16932-6.02911 6.16932 0C9.39419-0.280423 19.91-0.280423 23.836-0.280423 27.9022-0.280423 39.2593-0.280423 42.6244 0L42.6244-6.02911 30.426-6.02911 30.426-56.2249Z" transform="matrix(1 0 0 1.00014 1887.5 5787.4)"/><path d="M45.5689 34.0715C45.5689 33.6508 45.5689 33.3704 43.1852 30.9868 29.164 16.8254 21.3123-6.30954 21.3123-34.9128 21.3123-62.1139 27.9022-85.5292 44.1668-102.074 45.5689-103.336 45.5689-103.617 45.5689-104.037 45.5689-104.879 44.8677-105.159 44.3069-105.159 42.4842-105.159 30.9868-95.0636 24.1164-81.3229 16.9657-67.1615 13.7408-52.1588 13.7408-34.9128 13.7408-22.4339 15.7037-5.74869 22.9948 9.25398 31.2672 26.0794 42.7647 35.1932 44.3069 35.1932 44.8677 35.1932 45.5689 34.9128 45.5689 34.0715Z" transform="matrix(1 0 0 1.00014 1949.89 5787.4)"/><path d="M47.2514-34.6324 63.5159-53.2805C65.0583-55.1032 66.3201-56.2249 77.9577-56.2249L77.9577-62.254C70.1059-61.9736 69.8255-61.9736 65.0583-61.9736 60.9922-61.9736 54.9631-61.9736 51.0371-62.254L51.0371-56.2249C53.7011-56.2249 56.6456-55.5239 56.6456-54.5424 56.6456-54.262 55.9445-53.2805 55.6641-53L43.4656-39.2593 29.5847-56.2249 35.4736-56.2249 35.4736-62.254C32.2487-61.9736 22.7144-61.9736 18.9286-61.9736 14.7222-61.9736 7.15081-61.9736 3.22487-62.254L3.22487-56.2249 13.18-56.2249 35.0529-29.5847 16.8254-8.97356C15.1429-7.01059 14.1614-6.02911 2.52381-6.02911L2.52381 0C10.9365-0.280423 11.2169-0.280423 15.5635-0.280423 19.6296-0.280423 25.5185-0.280423 29.4445 0L29.4445-6.02911C26.7805-6.02911 23.836-6.73017 23.836-7.71165 23.836-7.85186 23.836-7.99208 24.8174-9.11377L38.8387-24.9577 54.4022-6.02911 48.5133-6.02911 48.5133 0C51.8784-0.280423 61.2726-0.280423 65.1985-0.280423 69.4049-0.280423 76.8361-0.280423 80.7621 0L80.7621-6.02911 70.9473-6.02911 47.2514-34.6324Z" transform="matrix(1 0 0 1.00014 2003.09 5787.4)"/><path d="M22.8078-62.0671C22.9013-62.254 23.1817-63.4693 23.1817-63.5627 23.1817-64.0301 22.8078-64.8714 21.6861-64.8714 21.3123-64.8714 18.4145-64.591 16.2646-64.404L11.03-64.0301C8.97356-63.8432 8.03882-63.7497 8.03882-62.0671 8.03882-60.7584 9.34745-60.7584 10.4692-60.7584 14.956-60.7584 14.956-60.1976 14.956-59.3563 14.956-58.7955 14.0212-55.0566 13.4604-52.9066L5.32805-20.3774C4.58025-17.1993 4.58025-15.7972 4.58025-14.2082 4.58025-4.58025 10.4692 0.934745 17.6667 0.934745 29.164 0.934745 41.1288-12.3386 41.1288-25.8924 41.1288-35.1464 35.1464-41.2223 27.6684-41.2223 22.4339-41.2223 18.4145-37.8573 16.3581-36.0811L22.8078-62.0671ZM17.6667-1.68254C14.3016-1.68254 10.9365-4.29983 10.9365-11.1235 10.9365-13.6473 11.3104-15.9842 12.4321-20.4709 13.0865-23.1817 13.7408-25.799 14.4886-28.5097 14.956-30.1923 14.956-30.3793 16.0776-31.7814 19.2557-35.7072 23.4621-38.605 27.388-38.605 32.0618-38.605 33.8378-34.0247 33.8378-29.8184 33.8378-26.3598 31.7814-16.3581 28.9771-10.843 26.5468-5.79542 22.06-1.68254 17.6667-1.68254Z" transform="matrix(1 0 0 1.00014 2086.01 5808.43)"/><path d="M25.799-53.7011C25.799-57.4869 22.5741-60.4313 19.0688-60.4313 15.0026-60.4313 12.1984-57.2064 12.1984-53.7011 12.1984-49.4947 15.7037-46.8308 18.9286-46.8308 22.7144-46.8308 25.799-49.7752 25.799-53.7011ZM23.4153-1.40212C23.4153 3.50529 23.4153 13.4604 14.8625 23.9762 14.0212 25.098 14.0212 25.3784 14.0212 25.6588 14.0212 26.3598 14.7222 27.0609 15.4233 27.0609 16.4047 27.0609 26.2197 16.6853 26.2197 0.280423 26.2197-4.90742 25.799-13.6005 18.9286-13.6005 14.8625-13.6005 12.1984-10.5159 12.1984-6.87038 12.1984-3.08466 14.8625 0 19.0688 0 21.7328 0 22.7144-0.841271 23.4153-1.40212Z" transform="matrix(1 0 0 1.00014 2134.35 5787.4)"/><path d="M76.6959-68.7038C76.6959-93.3811 62.1139-98.4287 53.5609-98.4287 42.4842-98.4287 28.463-91.1377 17.9471-72.0689 10.7963-58.889 6.44975-39.8202 6.44975-28.463 6.44975-8.13229 17.1058 1.12169 29.725 1.12169 39.1191 1.12169 51.4578-4.34656 61.1323-18.6482 72.9102-35.8942 76.6959-58.1879 76.6959-68.7038ZM27.7619-52.0186C29.725-60.1509 33.3704-72.9102 37.5768-80.2012 40.8016-85.9499 46.5504-93.3811 53.2805-93.3811 59.1694-93.3811 61.6932-87.2117 61.6932-78.9393 61.6932-70.1059 58.6085-57.9074 57.0662-52.0186L27.7619-52.0186ZM55.3837-45.2884C46.6905-7.71165 34.9128-3.92593 30.0054-3.92593 28.0423-3.92593 25.098-4.48677 23.1349-8.83335 21.4524-12.6191 21.4524-18.0874 21.4524-18.2275 21.4524-26.2197 24.537-39.2593 26.0794-45.2884L55.3837-45.2884Z" fill="#4C72B0" transform="matrix(1 0 0 1.00014 2195.71 5787.4)"/><path d="M27.8554-58.3281C27.8554-60.3845 26.3598-61.8801 24.2099-61.8801 21.7796-61.8801 19.0688-59.6367 19.0688-56.8326 19.0688-54.7761 20.5643-53.2805 22.7144-53.2805 25.1447-53.2805 27.8554-55.5239 27.8554-58.3281ZM14.2082-24.023 9.16051-11.1235C8.69313-9.72136 8.22576-8.59966 8.22576-7.01059 8.22576-2.43034 11.7777 0.934745 16.7319 0.934745 25.799 0.934745 29.6315-12.1516 29.6315-13.3669 29.6315-14.3016 28.8836-14.5821 28.2293-14.5821 27.1076-14.5821 26.9206-13.9277 26.6402-12.993 24.4903-5.515 20.6578-1.68254 16.9189-1.68254 15.7972-1.68254 14.6755-2.14992 14.6755-4.67373 14.6755-6.91711 15.3298-8.59966 16.545-11.4974 17.4797-14.0212 18.4145-16.545 19.4427-19.0688L22.3405-26.6402C23.1817-28.7901 24.3034-31.6879 24.3034-33.2769 24.3034-37.9507 20.5643-41.2223 15.7972-41.2223 6.73017-41.2223 2.80423-28.1358 2.80423-26.9206 2.80423-26.0794 3.45856-25.7055 4.20635-25.7055 5.42153-25.7055 5.515-26.2663 5.79542-27.2011 8.41271-36.0811 12.7126-38.605 15.5168-38.605 16.8254-38.605 17.7602-38.1377 17.7602-35.5203 17.7602-34.5856 17.6667-33.2769 16.7319-30.4727L14.2082-24.023Z" fill="#4C72B0" transform="matrix(1 0 0 1.00014 2278.95 5808.43)"/><path d="M39.5398-34.9128C39.5398-45.5689 38.1377-62.9551 30.2858-79.2197 22.0132-96.0451 10.5159-105.159 8.97356-105.159 8.41271-105.159 7.71165-104.879 7.71165-104.037 7.71165-103.617 7.71165-103.336 10.0953-100.953 24.1164-86.7911 31.9683-63.6562 31.9683-35.0529 31.9683-7.85186 25.3784 15.5635 9.11377 32.1085 7.71165 33.3704 7.71165 33.6508 7.71165 34.0715 7.71165 34.9128 8.41271 35.1932 8.97356 35.1932 10.7963 35.1932 22.2937 25.098 29.164 11.3572 36.3149-2.94445 39.5398-18.0874 39.5398-34.9128Z" transform="matrix(1 0 0 1.00014 2318.62 5787.4)"/><path d="M48.4198-35.2399C48.7937-36.5485 48.7937-36.7355 48.7937-37.3898 48.7937-39.7267 46.9243-40.2876 45.8025-40.2876 45.3351-40.2876 43.1852-40.1941 41.9701-37.7638 41.7831-37.2963 40.9419-33.9313 40.4745-31.9683L34.866-9.5344C34.7725-9.25398 30.7532-1.68254 23.9295-1.68254 19.3492-1.68254 17.7602-5.04763 17.7602-9.25398 17.7602-14.6755 20.9384-22.9948 23.0882-28.4162 24.023-30.7532 24.3034-31.5944 24.3034-33.2769 24.3034-38.4181 20.1905-41.2223 15.8907-41.2223 6.63669-41.2223 2.80423-28.0423 2.80423-26.9206 2.80423-26.0794 3.45856-25.7055 4.20635-25.7055 5.42153-25.7055 5.515-26.2663 5.79542-27.2011 8.22576-35.3334 12.2451-38.605 15.6103-38.605 17.0124-38.605 17.8536-37.6703 17.8536-35.5203 17.8536-33.5574 17.1058-31.4075 16.4515-29.725 12.6191-19.8166 11.03-15.0494 11.03-10.6561 11.03-1.4956 17.9471 0.934745 23.4621 0.934745 27.8554 0.934745 31.0336-1.02822 33.2769-3.17814 31.9683 2.05643 31.0336 5.70195 27.4815 10.1887 24.3969 14.0212 20.6578 16.4515 16.4515 16.4515 14.8625 16.4515 11.3104 16.1711 9.44093 13.3669 14.3951 12.993 14.769 8.78661 14.769 8.22576 14.769 5.98237 13.0865 4.76721 11.1235 4.76721 9.06703 4.76721 5.79542 6.35627 5.79542 10.9365 5.79542 15.3298 9.81483 19.0688 16.4515 19.0688 25.9859 19.0688 36.7355 11.4039 39.5398 0.0934745L48.4198-35.2399Z" transform="matrix(1 0 0 1.00014 2371.81 5808.43)"/><path d="M19.6998-46.5504C19.7699-46.8308 19.91-47.2514 19.91-47.6019 19.91-48.7236 18.5079-48.6535 17.6667-48.5835L9.81483-47.9525C8.62303-47.8823 7.71165-47.8122 7.71165-46.1297 7.71165-45.0781 8.62303-45.0781 9.74472-45.0781 11.7777-45.0781 12.2686-44.8677 13.18-44.5873 13.1098-43.3955 13.1098-43.2554 12.7593-41.8533L9.5344-28.9537C8.97356-26.8505 6.23943-15.7739 5.95901-14.7923 5.60848-13.1098 5.60848-11.9881 5.60848-11.1468 5.60848-3.29497 10.8664 0.701059 16.6151 0.701059 26.0093 0.701059 35.4035-8.97356 35.4035-18.9988 35.4035-26.2197 30.3558-30.9167 24.0463-30.9167 19.7699-30.9167 16.1243-28.2527 14.7923-27.0609L19.6998-46.5504ZM13.5304-22.1535C15.7037-25.168 19.7699-28.6032 23.836-28.6032 27.4115-28.6032 29.4445-25.799 29.4445-21.7328 29.4445-19.2792 28.0423-11.6376 25.4484-7.50133 23.0649-3.6455 19.5596-1.61243 16.6853-1.61243 14.5119-1.61243 10.8664-2.87434 10.8664-8.90345 10.8664-11.0767 11.0767-12.1984 11.9881-15.914 12.4087-17.5265 13.25-20.8916 13.5304-22.1535Z" transform="matrix(1 0 0 1.00014 2420.71 5824.92)"/><path d="M27.3413 0.560848C27.3413-7.57144 24.6773-13.6005 18.9286-13.6005 14.4418-13.6005 12.1984-9.95504 12.1984-6.87038 12.1984-3.78571 14.3016 0 19.0688 0 20.8916 0 22.4339-0.560848 23.6958-1.82275 23.9762-2.10318 24.1164-2.10318 24.2566-2.10318 24.537-2.10318 24.537-0.140212 24.537 0.560848 24.537 5.18784 23.6958 14.3016 15.5635 23.4153 14.0212 25.098 14.0212 25.3784 14.0212 25.6588 14.0212 26.3598 14.7222 27.0609 15.4233 27.0609 16.545 27.0609 27.3413 16.6853 27.3413 0.560848Z" transform="matrix(1 0 0 1.00014 2470.98 5787.4)"/><path d="M109.365-92.6801C109.646-93.1006 110.066-94.0822 110.066-94.643 110.066-95.6244 109.926-95.7647 106.701-95.7647L9.95504-95.7647C6.73017-95.7647 6.58996-95.6244 6.58996-94.643 6.58996-94.0822 7.01059-93.1006 7.29102-92.6801L54.5424 1.96296C55.5239 3.78573 55.9445 4.627 58.3281 4.627 60.7118 4.627 61.1323 3.78573 62.1139 1.96296L109.365-92.6801ZM23.9762-85.6695 100.953-85.6695 62.5344-8.55292 23.9762-85.6695Z" transform="matrix(1 0 0 1.00014 2532.34 5787.4)"/><path d="M34.7725-22.8078 46.6439-35.0529C48.1394-36.642 50.9436-36.642 55.8043-36.642L55.8043-41.5027C53-41.2223 48.7937-41.2223 46.9243-41.2223 46.083-41.2223 40.6614-41.2223 37.3898-41.5027L37.3898-36.642C38.3246-36.642 39.9137-36.3616 39.9137-35.8007 39.9137-35.5203 39.3528-34.9595 39.2593-34.866L31.314-26.6402 22.06-36.642 24.8642-36.642 24.8642-41.5027C19.4427-41.2223 18.2275-41.2223 13.6473-41.2223 11.9647-41.2223 6.44975-41.2223 3.17814-41.5027L3.17814-36.642 9.72136-36.642 24.9577-20.097 11.9647-6.54322C10.9365-5.515 10.0018-4.86068 4.20635-4.86068L2.61729-4.86068 2.61729 0C5.515-0.280423 9.81483-0.280423 11.4974-0.280423 12.0582-0.280423 17.8536-0.280423 21.1253 0L21.1253-4.86068C19.3492-4.86068 18.8818-5.32805 18.4145-5.70195L28.5097-16.2646 38.9789-4.86068 36.1746-4.86068 36.1746 0C41.5962-0.280423 42.8113-0.280423 47.3916-0.280423 48.7937-0.280423 54.5892-0.280423 57.8608 0L57.8608-4.86068 51.3175-4.86068 34.7725-22.8078Z" transform="matrix(1 0 0 1.00014 2648.74 5808.43)"/><path d="M19.6998-46.5504C19.7699-46.8308 19.91-47.2514 19.91-47.6019 19.91-48.7236 18.5079-48.6535 17.6667-48.5835L9.81483-47.9525C8.62303-47.8823 7.71165-47.8122 7.71165-46.1297 7.71165-45.0781 8.62303-45.0781 9.74472-45.0781 11.7777-45.0781 12.2686-44.8677 13.18-44.5873 13.1098-43.3955 13.1098-43.2554 12.7593-41.8533L9.5344-28.9537C8.97356-26.8505 6.23943-15.7739 5.95901-14.7923 5.60848-13.1098 5.60848-11.9881 5.60848-11.1468 5.60848-3.29497 10.8664 0.701059 16.6151 0.701059 26.0093 0.701059 35.4035-8.97356 35.4035-18.9988 35.4035-26.2197 30.3558-30.9167 24.0463-30.9167 19.7699-30.9167 16.1243-28.2527 14.7923-27.0609L19.6998-46.5504ZM13.5304-22.1535C15.7037-25.168 19.7699-28.6032 23.836-28.6032 27.4115-28.6032 29.4445-25.799 29.4445-21.7328 29.4445-19.2792 28.0423-11.6376 25.4484-7.50133 23.0649-3.6455 19.5596-1.61243 16.6853-1.61243 14.5119-1.61243 10.8664-2.87434 10.8664-8.90345 10.8664-11.0767 11.0767-12.1984 11.9881-15.914 12.4087-17.5265 13.25-20.8916 13.5304-22.1535Z" transform="matrix(1 0 0 1.00014 2708.95 5824.92)"/><path d="M30.426-56.2249 46.4101-56.2249 46.4101-62.254 29.725-62.254 29.725-76.6959C29.725-91.2779 38.9789-93.5213 43.6059-93.5213 45.1482-93.5213 45.4286-93.3811 46.27-93.1006 44.1668-91.6985 42.9048-89.3149 42.9048-86.3705 42.9048-80.7621 47.3916-78.2382 51.0371-78.2382 54.1217-78.2382 59.1694-80.3414 59.1694-86.5107 59.1694-92.2594 54.1217-98.1483 44.1668-98.1483 31.4075-98.1483 15.8439-92.8202 15.8439-76.5556L15.8439-62.254 5.46827-62.254 5.46827-56.2249 15.8439-56.2249 15.8439-6.02911 6.16932-6.02911 6.16932 0C9.39419-0.280423 19.91-0.280423 23.836-0.280423 27.9022-0.280423 39.2593-0.280423 42.6244 0L42.6244-6.02911 30.426-6.02911 30.426-56.2249Z" transform="matrix(1 0 0 1.00014 2759.26 5787.4)"/><path d="M45.5689 34.0715C45.5689 33.6508 45.5689 33.3704 43.1852 30.9868 29.164 16.8254 21.3123-6.30954 21.3123-34.9128 21.3123-62.1139 27.9022-85.5292 44.1668-102.074 45.5689-103.336 45.5689-103.617 45.5689-104.037 45.5689-104.879 44.8677-105.159 44.3069-105.159 42.4842-105.159 30.9868-95.0636 24.1164-81.3229 16.9657-67.1615 13.7408-52.1588 13.7408-34.9128 13.7408-22.4339 15.7037-5.74869 22.9948 9.25398 31.2672 26.0794 42.7647 35.1932 44.3069 35.1932 44.8677 35.1932 45.5689 34.9128 45.5689 34.0715Z" transform="matrix(1 0 0 1.00014 2821.64 5787.4)"/><path d="M47.2514-34.6324 63.5159-53.2805C65.0583-55.1032 66.3201-56.2249 77.9577-56.2249L77.9577-62.254C70.1059-61.9736 69.8255-61.9736 65.0583-61.9736 60.9922-61.9736 54.9631-61.9736 51.0371-62.254L51.0371-56.2249C53.7011-56.2249 56.6456-55.5239 56.6456-54.5424 56.6456-54.262 55.9445-53.2805 55.6641-53L43.4656-39.2593 29.5847-56.2249 35.4736-56.2249 35.4736-62.254C32.2487-61.9736 22.7144-61.9736 18.9286-61.9736 14.7222-61.9736 7.15081-61.9736 3.22487-62.254L3.22487-56.2249 13.18-56.2249 35.0529-29.5847 16.8254-8.97356C15.1429-7.01059 14.1614-6.02911 2.52381-6.02911L2.52381 0C10.9365-0.280423 11.2169-0.280423 15.5635-0.280423 19.6296-0.280423 25.5185-0.280423 29.4445 0L29.4445-6.02911C26.7805-6.02911 23.836-6.73017 23.836-7.71165 23.836-7.85186 23.836-7.99208 24.8174-9.11377L38.8387-24.9577 54.4022-6.02911 48.5133-6.02911 48.5133 0C51.8784-0.280423 61.2726-0.280423 65.1985-0.280423 69.4049-0.280423 76.8361-0.280423 80.7621 0L80.7621-6.02911 70.9473-6.02911 47.2514-34.6324Z" transform="matrix(1 0 0 1.00014 2874.84 5787.4)"/><path d="M22.8078-62.0671C22.9013-62.254 23.1817-63.4693 23.1817-63.5627 23.1817-64.0301 22.8078-64.8714 21.6861-64.8714 21.3123-64.8714 18.4145-64.591 16.2646-64.404L11.03-64.0301C8.97356-63.8432 8.03882-63.7497 8.03882-62.0671 8.03882-60.7584 9.34745-60.7584 10.4692-60.7584 14.956-60.7584 14.956-60.1976 14.956-59.3563 14.956-58.7955 14.0212-55.0566 13.4604-52.9066L5.32805-20.3774C4.58025-17.1993 4.58025-15.7972 4.58025-14.2082 4.58025-4.58025 10.4692 0.934745 17.6667 0.934745 29.164 0.934745 41.1288-12.3386 41.1288-25.8924 41.1288-35.1464 35.1464-41.2223 27.6684-41.2223 22.4339-41.2223 18.4145-37.8573 16.3581-36.0811L22.8078-62.0671ZM17.6667-1.68254C14.3016-1.68254 10.9365-4.29983 10.9365-11.1235 10.9365-13.6473 11.3104-15.9842 12.4321-20.4709 13.0865-23.1817 13.7408-25.799 14.4886-28.5097 14.956-30.1923 14.956-30.3793 16.0776-31.7814 19.2557-35.7072 23.4621-38.605 27.388-38.605 32.0618-38.605 33.8378-34.0247 33.8378-29.8184 33.8378-26.3598 31.7814-16.3581 28.9771-10.843 26.5468-5.79542 22.06-1.68254 17.6667-1.68254Z" transform="matrix(1 0 0 1.00014 2957.77 5808.43)"/><path d="M25.799-53.7011C25.799-57.4869 22.5741-60.4313 19.0688-60.4313 15.0026-60.4313 12.1984-57.2064 12.1984-53.7011 12.1984-49.4947 15.7037-46.8308 18.9286-46.8308 22.7144-46.8308 25.799-49.7752 25.799-53.7011ZM23.4153-1.40212C23.4153 3.50529 23.4153 13.4604 14.8625 23.9762 14.0212 25.098 14.0212 25.3784 14.0212 25.6588 14.0212 26.3598 14.7222 27.0609 15.4233 27.0609 16.4047 27.0609 26.2197 16.6853 26.2197 0.280423 26.2197-4.90742 25.799-13.6005 18.9286-13.6005 14.8625-13.6005 12.1984-10.5159 12.1984-6.87038 12.1984-3.08466 14.8625 0 19.0688 0 21.7328 0 22.7144-0.841271 23.4153-1.40212Z" transform="matrix(1 0 0 1.00014 3006.1 5787.4)"/><path d="M76.6959-68.7038C76.6959-93.3811 62.1139-98.4287 53.5609-98.4287 42.4842-98.4287 28.463-91.1377 17.9471-72.0689 10.7963-58.889 6.44975-39.8202 6.44975-28.463 6.44975-8.13229 17.1058 1.12169 29.725 1.12169 39.1191 1.12169 51.4578-4.34656 61.1323-18.6482 72.9102-35.8942 76.6959-58.1879 76.6959-68.7038ZM27.7619-52.0186C29.725-60.1509 33.3704-72.9102 37.5768-80.2012 40.8016-85.9499 46.5504-93.3811 53.2805-93.3811 59.1694-93.3811 61.6932-87.2117 61.6932-78.9393 61.6932-70.1059 58.6085-57.9074 57.0662-52.0186L27.7619-52.0186ZM55.3837-45.2884C46.6905-7.71165 34.9128-3.92593 30.0054-3.92593 28.0423-3.92593 25.098-4.48677 23.1349-8.83335 21.4524-12.6191 21.4524-18.0874 21.4524-18.2275 21.4524-26.2197 24.537-39.2593 26.0794-45.2884L55.3837-45.2884Z" fill="#55A868" transform="matrix(1 0 0 1.00014 3067.46 5787.4)"/><path d="M38.605-58.3281C38.605-60.1041 37.2028-61.8801 34.9595-61.8801 32.1553-61.8801 29.725-59.2629 29.725-56.8326 29.725-55.0566 31.1271-53.2805 33.3704-53.2805 36.1746-53.2805 38.605-55.8978 38.605-58.3281ZM19.0688 4.67373C17.6667 10.3757 13.0865 16.4515 7.38449 16.4515 5.8889 16.4515 4.48677 16.0776 4.29983 15.9842 7.19755 14.5821 7.57144 12.0582 7.57144 11.2169 7.57144 8.97356 5.8889 7.75838 3.92593 7.75838 1.21516 7.75838-1.30865 10.0953-1.30865 13.18-1.30865 16.7319 2.14992 19.0688 7.47797 19.0688 13.18 19.0688 23.4621 15.5168 26.2663 4.29983L34.679-29.164C34.9595-30.2858 35.1464-31.0336 35.1464-32.4357 35.1464-37.5768 31.0336-41.2223 25.612-41.2223 15.7037-41.2223 9.9083-28.1358 9.9083-26.9206 9.9083-26.0794 10.5626-25.7055 11.3104-25.7055 12.3386-25.7055 12.4321-25.9859 13.0865-27.388 15.8907-33.8378 20.6578-38.605 25.3316-38.605 27.2945-38.605 28.4162-37.2963 28.4162-34.2117 28.4162-32.903 28.1358-31.5944 27.8554-30.2858L19.0688 4.67373Z" fill="#55A868" transform="matrix(1 0 0 1.00014 3150.71 5808.43)"/><path d="M39.5398-34.9128C39.5398-45.5689 38.1377-62.9551 30.2858-79.2197 22.0132-96.0451 10.5159-105.159 8.97356-105.159 8.41271-105.159 7.71165-104.879 7.71165-104.037 7.71165-103.617 7.71165-103.336 10.0953-100.953 24.1164-86.7911 31.9683-63.6562 31.9683-35.0529 31.9683-7.85186 25.3784 15.5635 9.11377 32.1085 7.71165 33.3704 7.71165 33.6508 7.71165 34.0715 7.71165 34.9128 8.41271 35.1932 8.97356 35.1932 10.7963 35.1932 22.2937 25.098 29.164 11.3572 36.3149-2.94445 39.5398-18.0874 39.5398-34.9128Z" transform="matrix(1 0 0 1.00014 3202.11 5787.4)"/><path d="M48.4198-35.2399C48.7937-36.5485 48.7937-36.7355 48.7937-37.3898 48.7937-39.7267 46.9243-40.2876 45.8025-40.2876 45.3351-40.2876 43.1852-40.1941 41.9701-37.7638 41.7831-37.2963 40.9419-33.9313 40.4745-31.9683L34.866-9.5344C34.7725-9.25398 30.7532-1.68254 23.9295-1.68254 19.3492-1.68254 17.7602-5.04763 17.7602-9.25398 17.7602-14.6755 20.9384-22.9948 23.0882-28.4162 24.023-30.7532 24.3034-31.5944 24.3034-33.2769 24.3034-38.4181 20.1905-41.2223 15.8907-41.2223 6.63669-41.2223 2.80423-28.0423 2.80423-26.9206 2.80423-26.0794 3.45856-25.7055 4.20635-25.7055 5.42153-25.7055 5.515-26.2663 5.79542-27.2011 8.22576-35.3334 12.2451-38.605 15.6103-38.605 17.0124-38.605 17.8536-37.6703 17.8536-35.5203 17.8536-33.5574 17.1058-31.4075 16.4515-29.725 12.6191-19.8166 11.03-15.0494 11.03-10.6561 11.03-1.4956 17.9471 0.934745 23.4621 0.934745 27.8554 0.934745 31.0336-1.02822 33.2769-3.17814 31.9683 2.05643 31.0336 5.70195 27.4815 10.1887 24.3969 14.0212 20.6578 16.4515 16.4515 16.4515 14.8625 16.4515 11.3104 16.1711 9.44093 13.3669 14.3951 12.993 14.769 8.78661 14.769 8.22576 14.769 5.98237 13.0865 4.76721 11.1235 4.76721 9.06703 4.76721 5.79542 6.35627 5.79542 10.9365 5.79542 15.3298 9.81483 19.0688 16.4515 19.0688 25.9859 19.0688 36.7355 11.4039 39.5398 0.0934745L48.4198-35.2399Z" transform="matrix(1 0 0 1.00014 3255.3 5808.43)"/><path d="M19.6998-46.5504C19.7699-46.8308 19.91-47.2514 19.91-47.6019 19.91-48.7236 18.5079-48.6535 17.6667-48.5835L9.81483-47.9525C8.62303-47.8823 7.71165-47.8122 7.71165-46.1297 7.71165-45.0781 8.62303-45.0781 9.74472-45.0781 11.7777-45.0781 12.2686-44.8677 13.18-44.5873 13.1098-43.3955 13.1098-43.2554 12.7593-41.8533L9.5344-28.9537C8.97356-26.8505 6.23943-15.7739 5.95901-14.7923 5.60848-13.1098 5.60848-11.9881 5.60848-11.1468 5.60848-3.29497 10.8664 0.701059 16.6151 0.701059 26.0093 0.701059 35.4035-8.97356 35.4035-18.9988 35.4035-26.2197 30.3558-30.9167 24.0463-30.9167 19.7699-30.9167 16.1243-28.2527 14.7923-27.0609L19.6998-46.5504ZM13.5304-22.1535C15.7037-25.168 19.7699-28.6032 23.836-28.6032 27.4115-28.6032 29.4445-25.799 29.4445-21.7328 29.4445-19.2792 28.0423-11.6376 25.4484-7.50133 23.0649-3.6455 19.5596-1.61243 16.6853-1.61243 14.5119-1.61243 10.8664-2.87434 10.8664-8.90345 10.8664-11.0767 11.0767-12.1984 11.9881-15.914 12.4087-17.5265 13.25-20.8916 13.5304-22.1535Z" transform="matrix(1 0 0 1.00014 3304.2 5824.92)"/><path d="M39.5398-34.9128C39.5398-45.5689 38.1377-62.9551 30.2858-79.2197 22.0132-96.0451 10.5159-105.159 8.97356-105.159 8.41271-105.159 7.71165-104.879 7.71165-104.037 7.71165-103.617 7.71165-103.336 10.0953-100.953 24.1164-86.7911 31.9683-63.6562 31.9683-35.0529 31.9683-7.85186 25.3784 15.5635 9.11377 32.1085 7.71165 33.3704 7.71165 33.6508 7.71165 34.0715 7.71165 34.9128 8.41271 35.1932 8.97356 35.1932 10.7963 35.1932 22.2937 25.098 29.164 11.3572 36.3149-2.94445 39.5398-18.0874 39.5398-34.9128Z" transform="matrix(1 0 0 1.00014 3354.47 5787.4)"/></g></g></g></g></svg>