<svg width="3465" height="1104" xmlns="http://www.w3.org/2000/svg" xmlns:xlink="http://www.w3.org/1999/xlink" xml:space="preserve" overflow="hidden"><defs><clipPath id="clip0"><rect x="12026" y="5659" width="3465" height="1104"/></clipPath><clipPath id="clip1"><rect x="12026" y="6629" width="419" height="134"/></clipPath><clipPath id="clip2"><rect x="12026" y="6629" width="419" height="134"/></clipPath><clipPath id="clip3"><rect x="12026" y="6629" width="419" height="134"/></clipPath><clipPath id="clip4"><rect x="13137" y="6658" width="87" height="80"/></clipPath><clipPath id="clip5"><rect x="13137" y="6658" width="87" height="80"/></clipPath><clipPath id="clip6"><rect x="13137" y="6658" width="87" height="80"/></clipPath><clipPath id="clip7"><rect x="13510" y="6658" width="46" height="80"/></clipPath><clipPath id="clip8"><rect x="13510" y="6658" width="46" height="80"/></clipPath><clipPath id="clip9"><rect x="13510" y="6658" width="46" height="80"/></clipPath><clipPath id="clip10"><rect x="14247" y="6658" width="88" height="80"/></clipPath><clipPath id="clip11"><rect x="14247" y="6658" width="88" height="80"/></clipPath><clipPath id="clip12"><rect x="14247" y="6658" width="88" height="80"/></clipPath><clipPath id="clip13"><rect x="14626" y="6658" width="46" height="80"/></clipPath><clipPath id="clip14"><rect x="14626" y="6658" width="46" height="80"/></clipPath><clipPath id="clip15"><rect x="14626" y="6658" width="46" height="80"/></clipPath><clipPath id="clip16"><rect x="15358" y="6658" width="86" height="80"/></clipPath><clipPath id="clip17"><rect x="15358" y="6658" width="86" height="80"/></clipPath><clipPath id="clip18"><rect x="15358" y="6658" width="86" height="80"/></clipPath></defs><g clip-path="url(#clip0)" transform="translate(-12026 -5659)"><g><g><g><path d="M0 0 3403.27 0 3403.27 1029 0 1029Z" fill="#FFFFFF" transform="matrix(1.00039 0 0 -1 12084.7 6688)"/><path d="M303.665 219.38 1132.48 219.38 1132.48 794.411 303.665 794.411Z" fill="#FFFFFF" transform="matrix(1.00039 0 0 -1 12084.7 6688)"/><g><path d="M341.338 219.38 341.338 794.411" stroke="#CCCCCC" stroke-width="4.05579" stroke-linecap="round" stroke-linejoin="round" stroke-miterlimit="10" fill="none" transform="matrix(1.00039 0 0 -1 12084.7 6688)"/></g><text fill="#262626" font-family="Arial,Arial_MSFontService,sans-serif" font-weight="400" font-size="17" transform="matrix(4.05738 0 0 4.05579 12372.9 6558)">0</text><text fill="#262626" font-family="Arial,Arial_MSFontService,sans-serif" font-weight="400" font-size="17" transform="matrix(4.05738 0 0 4.05579 12415.5 6558)">.</text><text fill="#262626" font-family="Arial,Arial_MSFontService,sans-serif" font-weight="400" font-size="17" transform="matrix(4.05738 0 0 4.05579 12436.8 6558)">0</text><g><path d="M718.073 219.38 718.073 794.411" stroke="#CCCCCC" stroke-width="4.05579" stroke-linecap="round" stroke-linejoin="round" stroke-miterlimit="10" fill="none" transform="matrix(1.00039 0 0 -1 12084.7 6688)"/></g><text fill="#262626" font-family="Arial,Arial_MSFontService,sans-serif" font-weight="400" font-size="17" transform="matrix(4.05738 0 0 4.05579 12749.8 6558)">0</text><text fill="#262626" font-family="Arial,Arial_MSFontService,sans-serif" font-weight="400" font-size="17" transform="matrix(4.05738 0 0 4.05579 12792.4 6558)">.</text><text fill="#262626" font-family="Arial,Arial_MSFontService,sans-serif" font-weight="400" font-size="17" transform="matrix(4.05738 0 0 4.05579 12813.7 6558)">5</text><g><path d="M1094.81 219.38 1094.81 794.411" stroke="#CCCCCC" stroke-width="4.05579" stroke-linecap="round" stroke-linejoin="round" stroke-miterlimit="10" fill="none" transform="matrix(1.00039 0 0 -1 12084.7 6688)"/></g><text fill="#262626" font-family="Arial,Arial_MSFontService,sans-serif" font-weight="400" font-size="17" transform="matrix(4.05738 0 0 4.05579 13126.7 6558)">1</text><text fill="#262626" font-family="Arial,Arial_MSFontService,sans-serif" font-weight="400" font-size="17" transform="matrix(4.05738 0 0 4.05579 13169.3 6558)">.</text><text fill="#262626" font-family="Arial,Arial_MSFontService,sans-serif" font-weight="400" font-size="17" transform="matrix(4.05738 0 0 4.05579 13190.5 6558)">0</text><g><path d="M29.8587 18.5431 29.9317 26.7925C29.9317 32.3409 27.8146 35.188 23.5804 35.261 20.3682 35.261 17.813 33.947 15.9149 31.3188 13.4328 28.0336 11.7537 24.2374 10.9506 19.9301 9.92857 14.6738 10.0016 10.8046 11.3157 8.32248 12.6297 5.76733 14.7468 4.52626 17.667 4.52626 20.8062 4.52626 23.7264 7.0084 26.4275 12.1187ZM24.6754 40.8093C32.1218 40.9554 35.7721 37.1591 35.6991 29.4937 35.6991 29.4937 37.5242 32.9249 41.2474 39.9333L47.0877 39.9333 35.553 18.2511 35.48 10.5126C35.48 9.34454 35.7721 8.24947 36.4291 7.30042 37.1591 6.13235 37.8892 5.54832 38.6922 5.54832L41.8314 5.54832 40.8093 0 36.7941 0C34.531 0 32.6329 0.949055 31.0268 2.99317 30.2967 4.01523 29.8587 5.54832 29.8587 7.59244 28.2526 5.03729 26.2085 2.70116 23.5804 0.584034 22.2663-0.365021 19.9301-0.803046 16.572-0.803046 11.0236-0.730042 7.22742 1.02206 5.1833 4.52626 3.13918 8.17647 2.70116 13.3598 4.01523 19.9301 5.32931 26.9386 7.88445 32.1218 11.5347 35.334 15.5499 38.9112 19.9301 40.7363 24.6754 40.8093Z" fill="#262626" transform="matrix(1.00039 0 0 -1 12778.7 6639.98)"/></g><g><path d="M303.665 357.534 1132.48 357.534" stroke="#CCCCCC" stroke-width="4.05579" stroke-linecap="round" stroke-linejoin="round" stroke-miterlimit="10" fill="none" transform="matrix(1.00039 0 0 -1 12084.7 6688)"/></g><text fill="#262626" font-family="Arial,Arial_MSFontService,sans-serif" font-weight="400" font-size="17" transform="matrix(4.05738 0 0 4.05579 12200.8 6356)">8</text><text fill="#262626" font-family="Arial,Arial_MSFontService,sans-serif" font-weight="400" font-size="17" transform="matrix(4.05738 0 0 4.05579 12243.4 6356)">1</text><text fill="#262626" font-family="Arial,Arial_MSFontService,sans-serif" font-weight="400" font-size="17" transform="matrix(4.05738 0 0 4.05579 12286 6356)">.</text><text fill="#262626" font-family="Arial,Arial_MSFontService,sans-serif" font-weight="400" font-size="17" transform="matrix(4.05738 0 0 4.05579 12307.3 6356)">5</text><g><path d="M303.665 624.247 1132.48 624.247" stroke="#CCCCCC" stroke-width="4.05579" stroke-linecap="round" stroke-linejoin="round" stroke-miterlimit="10" fill="none" transform="matrix(1.00039 0 0 -1 12084.7 6688)"/></g><text fill="#262626" font-family="Arial,Arial_MSFontService,sans-serif" font-weight="400" font-size="17" transform="matrix(4.05738 0 0 4.05579 12200.8 6089)">8</text><text fill="#262626" font-family="Arial,Arial_MSFontService,sans-serif" font-weight="400" font-size="17" transform="matrix(4.05738 0 0 4.05579 12243.4 6089)">2</text><text fill="#262626" font-family="Arial,Arial_MSFontService,sans-serif" font-weight="400" font-size="17" transform="matrix(4.05738 0 0 4.05579 12286 6089)">.</text><text fill="#262626" font-family="Arial,Arial_MSFontService,sans-serif" font-weight="400" font-size="17" transform="matrix(4.05738 0 0 4.05579 12307.3 6089)">0</text><text fill="#262626" font-family="Arial,Arial_MSFontService,sans-serif" font-weight="400" font-size="18" transform="matrix(2.48443e-16 -4.05579 4.05738 2.48345e-16 12169.4 6422)">A</text><text fill="#262626" font-family="Arial,Arial_MSFontService,sans-serif" font-weight="400" font-size="18" transform="matrix(2.48443e-16 -4.05579 4.05738 2.48345e-16 12169.4 6374)">c</text><text fill="#262626" font-family="Arial,Arial_MSFontService,sans-serif" font-weight="400" font-size="18" transform="matrix(2.48443e-16 -4.05579 4.05738 2.48345e-16 12169.4 6334)">c</text><text fill="#262626" font-family="Arial,Arial_MSFontService,sans-serif" font-weight="400" font-size="18" transform="matrix(2.48443e-16 -4.05579 4.05738 2.48345e-16 12169.4 6293)">u</text><text fill="#262626" font-family="Arial,Arial_MSFontService,sans-serif" font-weight="400" font-size="18" transform="matrix(2.48443e-16 -4.05579 4.05738 2.48345e-16 12169.4 6247)">r</text><text fill="#262626" font-family="Arial,Arial_MSFontService,sans-serif" font-weight="400" font-size="18" transform="matrix(2.48443e-16 -4.05579 4.05738 2.48345e-16 12169.4 6217)">a</text><text fill="#262626" font-family="Arial,Arial_MSFontService,sans-serif" font-weight="400" font-size="18" transform="matrix(2.48443e-16 -4.05579 4.05738 2.48345e-16 12169.4 6172)">c</text><text fill="#262626" font-family="Arial,Arial_MSFontService,sans-serif" font-weight="400" font-size="18" transform="matrix(2.48443e-16 -4.05579 4.05738 2.48345e-16 12169.4 6132)">y</text><text fill="#262626" font-family="Arial,Arial_MSFontService,sans-serif" font-weight="400" font-size="18" transform="matrix(2.48443e-16 -4.05579 4.05738 2.48345e-16 12169.4 6089)"> </text><text fill="#262626" font-family="Arial,Arial_MSFontService,sans-serif" font-weight="400" font-size="18" transform="matrix(2.48443e-16 -4.05579 4.05738 2.48345e-16 12169.4 6066)">(</text><text fill="#262626" font-family="Arial,Arial_MSFontService,sans-serif" font-weight="400" font-size="18" transform="matrix(2.48443e-16 -4.05579 4.05738 2.48345e-16 12169.4 6037)">%</text><text fill="#262626" font-family="Arial,Arial_MSFontService,sans-serif" font-weight="400" font-size="18" transform="matrix(2.48443e-16 -4.05579 4.05738 2.48345e-16 12169.4 5968)">)</text><g><path d="M341.338 666.922 341.338 661.588 416.684 581.576 492.032 576.238 642.725 587.976 944.111 256.185 1094.81 245.518 1094.81 373.539 1094.81 373.539 944.111 416.213 642.725 744.801 492.032 704.263 416.684 768.272Z" stroke="#4C72B0" stroke-width="4.05579" stroke-linejoin="round" stroke-miterlimit="10" stroke-opacity="0.2" fill="#4C72B0" fill-opacity="0.2" transform="matrix(1.00039 0 0 -1 12084.7 6688)"/></g><g><path d="M341.338 665.145 416.684 659.812 492.032 640.251 642.725 659.455 944.111 359.314 1094.81 327.309" stroke="#4C72B0" stroke-width="6.08368" stroke-linecap="round" stroke-linejoin="round" stroke-miterlimit="10" fill="none" transform="matrix(1.00039 0 0 -1 12084.7 6688)"/><g><path d="M0-12.1674C3.22682-12.1674 6.32192-10.8853 8.60363-8.60363 10.8853-6.32192 12.1674-3.22682 12.1674 0 12.1674 3.22682 10.8853 6.32192 8.60363 8.60363 6.32192 10.8853 3.22682 12.1674 0 12.1674-3.22682 12.1674-6.32192 10.8853-8.60363 8.60363-10.8853 6.32192-12.1674 3.22682-12.1674 0-12.1674-3.22682-10.8853-6.32192-8.60363-8.60363-6.32192-10.8853-3.22682-12.1674 0-12.1674Z" stroke="#FFFFFF" stroke-width="3.04184" stroke-linejoin="round" stroke-miterlimit="10" fill="#4C72B0" transform="matrix(1.00039 0 0 -1 12426.2 6022.85)"/></g><g><path d="M0-12.1674C3.22682-12.1674 6.32192-10.8853 8.60363-8.60363 10.8853-6.32192 12.1674-3.22682 12.1674 0 12.1674 3.22682 10.8853 6.32192 8.60363 8.60363 6.32192 10.8853 3.22682 12.1674 0 12.1674-3.22682 12.1674-6.32192 10.8853-8.60363 8.60363-10.8853 6.32192-12.1674 3.22682-12.1674 0-12.1674-3.22682-10.8853-6.32192-8.60363-8.60363-6.32192-10.8853-3.22682-12.1674 0-12.1674Z" stroke="#FFFFFF" stroke-width="3.04184" stroke-linejoin="round" stroke-miterlimit="10" fill="#4C72B0" transform="matrix(1.00039 0 0 -1 12501.5 6028.19)"/></g><g><path d="M0-12.1674C3.22682-12.1674 6.32192-10.8853 8.60363-8.60363 10.8853-6.32192 12.1674-3.22682 12.1674 0 12.1674 3.22682 10.8853 6.32192 8.60363 8.60363 6.32192 10.8853 3.22682 12.1674 0 12.1674-3.22682 12.1674-6.32192 10.8853-8.60363 8.60363-10.8853 6.32192-12.1674 3.22682-12.1674 0-12.1674-3.22682-10.8853-6.32192-8.60363-8.60363-6.32192-10.8853-3.22682-12.1674 0-12.1674Z" stroke="#FFFFFF" stroke-width="3.04184" stroke-linejoin="round" stroke-miterlimit="10" fill="#4C72B0" transform="matrix(1.00039 0 0 -1 12576.9 6047.75)"/></g><g><path d="M0-12.1674C3.22682-12.1674 6.32192-10.8853 8.60363-8.60363 10.8853-6.32192 12.1674-3.22682 12.1674 0 12.1674 3.22682 10.8853 6.32192 8.60363 8.60363 6.32192 10.8853 3.22682 12.1674 0 12.1674-3.22682 12.1674-6.32192 10.8853-8.60363 8.60363-10.8853 6.32192-12.1674 3.22682-12.1674 0-12.1674-3.22682-10.8853-6.32192-8.60363-8.60363-6.32192-10.8853-3.22682-12.1674 0-12.1674Z" stroke="#FFFFFF" stroke-width="3.04184" stroke-linejoin="round" stroke-miterlimit="10" fill="#4C72B0" transform="matrix(1.00039 0 0 -1 12727.7 6028.55)"/></g><g><path d="M0-12.1674C3.22682-12.1674 6.32192-10.8853 8.60363-8.60363 10.8853-6.32192 12.1674-3.22682 12.1674 0 12.1674 3.22682 10.8853 6.32192 8.60363 8.60363 6.32192 10.8853 3.22682 12.1674 0 12.1674-3.22682 12.1674-6.32192 10.8853-8.60363 8.60363-10.8853 6.32192-12.1674 3.22682-12.1674 0-12.1674-3.22682-10.8853-6.32192-8.60363-8.60363-6.32192-10.8853-3.22682-12.1674 0-12.1674Z" stroke="#FFFFFF" stroke-width="3.04184" stroke-linejoin="round" stroke-miterlimit="10" fill="#4C72B0" transform="matrix(1.00039 0 0 -1 13029.2 6328.69)"/></g><g><path d="M0-12.1674C3.22682-12.1674 6.32192-10.8853 8.60363-8.60363 10.8853-6.32192 12.1674-3.22682 12.1674 0 12.1674 3.22682 10.8853 6.32192 8.60363 8.60363 6.32192 10.8853 3.22682 12.1674 0 12.1674-3.22682 12.1674-6.32192 10.8853-8.60363 8.60363-10.8853 6.32192-12.1674 3.22682-12.1674 0-12.1674-3.22682-10.8853-6.32192-8.60363-8.60363-6.32192-10.8853-3.22682-12.1674 0-12.1674Z" stroke="#FFFFFF" stroke-width="3.04184" stroke-linejoin="round" stroke-miterlimit="10" fill="#4C72B0" transform="matrix(1.00039 0 0 -1 13179.9 6360.69)"/></g></g><g><path d="M341.338 481.556 1094.81 481.556" stroke="#DD8452" stroke-width="6.08368" stroke-linejoin="round" stroke-miterlimit="10" stroke-dasharray="22.5096 9.73389" fill="none" transform="matrix(1.00039 0 0 -1 12084.7 6688)"/></g><path d="M303.665 219.38 303.665 794.411" stroke="#CCCCCC" stroke-width="5.06974" stroke-linecap="square" stroke-miterlimit="10" fill="none" transform="matrix(1.00039 0 0 -1 12084.7 6688)"/><path d="M1132.48 219.38 1132.48 794.411" stroke="#CCCCCC" stroke-width="5.06974" stroke-linecap="square" stroke-miterlimit="10" fill="none" transform="matrix(1.00039 0 0 -1 12084.7 6688)"/><path d="M303.665 219.38 1132.48 219.38" stroke="#CCCCCC" stroke-width="5.06974" stroke-linecap="square" stroke-miterlimit="10" fill="none" transform="matrix(1.00039 0 0 -1 12084.7 6688)"/><path d="M303.665 794.411 1132.48 794.411" stroke="#CCCCCC" stroke-width="5.06974" stroke-linecap="square" stroke-miterlimit="10" fill="none" transform="matrix(1.00039 0 0 -1 12084.7 6688)"/><text fill="#262626" font-family="Arial,Arial_MSFontService,sans-serif" font-weight="400" font-size="18" transform="matrix(4.05738 0 0 4.05579 12605.6 5869)">C</text><text fill="#262626" font-family="Arial,Arial_MSFontService,sans-serif" font-weight="400" font-size="18" transform="matrix(4.05738 0 0 4.05579 12656.5 5869)">l</text><text fill="#262626" font-family="Arial,Arial_MSFontService,sans-serif" font-weight="400" font-size="18" transform="matrix(4.05738 0 0 4.05579 12676.8 5869)">e</text><text fill="#262626" font-family="Arial,Arial_MSFontService,sans-serif" font-weight="400" font-size="18" transform="matrix(4.05738 0 0 4.05579 12721.8 5869)">a</text><text fill="#262626" font-family="Arial,Arial_MSFontService,sans-serif" font-weight="400" font-size="18" transform="matrix(4.05738 0 0 4.05579 12766.5 5869)">n</text><text fill="#262626" font-family="Arial,Arial_MSFontService,sans-serif" font-weight="400" font-size="18" transform="matrix(4.05738 0 0 4.05579 12812.8 5869)"> </text><text fill="#262626" font-family="Arial,Arial_MSFontService,sans-serif" font-weight="400" font-size="18" transform="matrix(4.05738 0 0 4.05579 12836.1 5869)">d</text><text fill="#262626" font-family="Arial,Arial_MSFontService,sans-serif" font-weight="400" font-size="18" transform="matrix(4.05738 0 0 4.05579 12882.4 5869)">a</text><text fill="#262626" font-family="Arial,Arial_MSFontService,sans-serif" font-weight="400" font-size="18" transform="matrix(4.05738 0 0 4.05579 12927.2 5869)">t</text><text fill="#262626" font-family="Arial,Arial_MSFontService,sans-serif" font-weight="400" font-size="18" transform="matrix(4.05738 0 0 4.05579 12955.8 5869)">a</text><path d="M1416.68 219.38 2245.5 219.38 2245.5 794.411 1416.68 794.411Z" fill="#FFFFFF" transform="matrix(1.00039 0 0 -1 12084.7 6688)"/><g><path d="M1454.35 219.38 1454.35 794.411" stroke="#CCCCCC" stroke-width="4.05579" stroke-linecap="round" stroke-linejoin="round" stroke-miterlimit="10" fill="none" transform="matrix(1.00039 0 0 -1 12084.7 6688)"/></g><text fill="#262626" font-family="Arial,Arial_MSFontService,sans-serif" font-weight="400" font-size="17" transform="matrix(4.05738 0 0 4.05579 13486.4 6558)">0</text><text fill="#262626" font-family="Arial,Arial_MSFontService,sans-serif" font-weight="400" font-size="17" transform="matrix(4.05738 0 0 4.05579 13528.9 6558)">.</text><text fill="#262626" font-family="Arial,Arial_MSFontService,sans-serif" font-weight="400" font-size="17" transform="matrix(4.05738 0 0 4.05579 13550.2 6558)">0</text><g><path d="M1831.09 219.38 1831.09 794.411" stroke="#CCCCCC" stroke-width="4.05579" stroke-linecap="round" stroke-linejoin="round" stroke-miterlimit="10" fill="none" transform="matrix(1.00039 0 0 -1 12084.7 6688)"/></g><text fill="#262626" font-family="Arial,Arial_MSFontService,sans-serif" font-weight="400" font-size="17" transform="matrix(4.05738 0 0 4.05579 13863.2 6558)">0</text><text fill="#262626" font-family="Arial,Arial_MSFontService,sans-serif" font-weight="400" font-size="17" transform="matrix(4.05738 0 0 4.05579 13905.8 6558)">.</text><text fill="#262626" font-family="Arial,Arial_MSFontService,sans-serif" font-weight="400" font-size="17" transform="matrix(4.05738 0 0 4.05579 13927.1 6558)">5</text><g><path d="M2207.82 219.38 2207.82 794.411" stroke="#CCCCCC" stroke-width="4.05579" stroke-linecap="round" stroke-linejoin="round" stroke-miterlimit="10" fill="none" transform="matrix(1.00039 0 0 -1 12084.7 6688)"/></g><text fill="#262626" font-family="Arial,Arial_MSFontService,sans-serif" font-weight="400" font-size="17" transform="matrix(4.05738 0 0 4.05579 14240.1 6558)">1</text><text fill="#262626" font-family="Arial,Arial_MSFontService,sans-serif" font-weight="400" font-size="17" transform="matrix(4.05738 0 0 4.05579 14282.7 6558)">.</text><text fill="#262626" font-family="Arial,Arial_MSFontService,sans-serif" font-weight="400" font-size="17" transform="matrix(4.05738 0 0 4.05579 14304 6558)">0</text><g><path d="M29.8587 18.5431 29.9317 26.7925C29.9317 32.3409 27.8146 35.188 23.5804 35.261 20.3682 35.261 17.813 33.947 15.9149 31.3188 13.4328 28.0336 11.7537 24.2374 10.9506 19.9301 9.92857 14.6738 10.0016 10.8046 11.3157 8.32248 12.6297 5.76733 14.7468 4.52626 17.667 4.52626 20.8062 4.52626 23.7264 7.0084 26.4275 12.1187ZM24.6754 40.8093C32.1218 40.9554 35.7721 37.1591 35.6991 29.4937 35.6991 29.4937 37.5242 32.9249 41.2474 39.9333L47.0877 39.9333 35.553 18.2511 35.48 10.5126C35.48 9.34454 35.7721 8.24947 36.4291 7.30042 37.1591 6.13235 37.8892 5.54832 38.6922 5.54832L41.8314 5.54832 40.8093 0 36.7941 0C34.531 0 32.6329 0.949055 31.0268 2.99317 30.2967 4.01523 29.8587 5.54832 29.8587 7.59244 28.2526 5.03729 26.2085 2.70116 23.5804 0.584034 22.2663-0.365021 19.9301-0.803046 16.572-0.803046 11.0236-0.730042 7.22742 1.02206 5.1833 4.52626 3.13918 8.17647 2.70116 13.3598 4.01523 19.9301 5.32931 26.9386 7.88445 32.1218 11.5347 35.334 15.5499 38.9112 19.9301 40.7363 24.6754 40.8093Z" fill="#262626" transform="matrix(1.00039 0 0 -1 13892.2 6639.98)"/></g><g><path d="M1416.68 352.343 2245.5 352.343" stroke="#CCCCCC" stroke-width="4.05579" stroke-linecap="round" stroke-linejoin="round" stroke-miterlimit="10" fill="none" transform="matrix(1.00039 0 0 -1 12084.7 6688)"/></g><text fill="#262626" font-family="Arial,Arial_MSFontService,sans-serif" font-weight="400" font-size="17" transform="matrix(4.05738 0 0 4.05579 13314.3 6361)">6</text><text fill="#262626" font-family="Arial,Arial_MSFontService,sans-serif" font-weight="400" font-size="17" transform="matrix(4.05738 0 0 4.05579 13356.9 6361)">2</text><text fill="#262626" font-family="Arial,Arial_MSFontService,sans-serif" font-weight="400" font-size="17" transform="matrix(4.05738 0 0 4.05579 13399.4 6361)">.</text><text fill="#262626" font-family="Arial,Arial_MSFontService,sans-serif" font-weight="400" font-size="17" transform="matrix(4.05738 0 0 4.05579 13420.7 6361)">5</text><g><path d="M1416.68 506.73 2245.5 506.73" stroke="#CCCCCC" stroke-width="4.05579" stroke-linecap="round" stroke-linejoin="round" stroke-miterlimit="10" fill="none" transform="matrix(1.00039 0 0 -1 12084.7 6688)"/></g><text fill="#262626" font-family="Arial,Arial_MSFontService,sans-serif" font-weight="400" font-size="17" transform="matrix(4.05738 0 0 4.05579 13314.3 6207)">6</text><text fill="#262626" font-family="Arial,Arial_MSFontService,sans-serif" font-weight="400" font-size="17" transform="matrix(4.05738 0 0 4.05579 13356.9 6207)">3</text><text fill="#262626" font-family="Arial,Arial_MSFontService,sans-serif" font-weight="400" font-size="17" transform="matrix(4.05738 0 0 4.05579 13399.4 6207)">.</text><text fill="#262626" font-family="Arial,Arial_MSFontService,sans-serif" font-weight="400" font-size="17" transform="matrix(4.05738 0 0 4.05579 13420.7 6207)">0</text><g><path d="M1416.68 661.122 2245.5 661.122" stroke="#CCCCCC" stroke-width="4.05579" stroke-linecap="round" stroke-linejoin="round" stroke-miterlimit="10" fill="none" transform="matrix(1.00039 0 0 -1 12084.7 6688)"/></g><text fill="#262626" font-family="Arial,Arial_MSFontService,sans-serif" font-weight="400" font-size="17" transform="matrix(4.05738 0 0 4.05579 13314.3 6052)">6</text><text fill="#262626" font-family="Arial,Arial_MSFontService,sans-serif" font-weight="400" font-size="17" transform="matrix(4.05738 0 0 4.05579 13356.9 6052)">3</text><text fill="#262626" font-family="Arial,Arial_MSFontService,sans-serif" font-weight="400" font-size="17" transform="matrix(4.05738 0 0 4.05579 13399.4 6052)">.</text><text fill="#262626" font-family="Arial,Arial_MSFontService,sans-serif" font-weight="400" font-size="17" transform="matrix(4.05738 0 0 4.05579 13420.7 6052)">5</text><g><path d="M1454.35 311.282 1454.35 245.518 1529.7 263.611 1605.05 327.642 1755.74 472.909 2057.13 647.089 2207.82 717.189 2207.82 768.272 2207.82 768.272 2057.13 711.771 1755.74 528.555 1605.05 368.216 1529.7 350.448Z" stroke="#4C72B0" stroke-width="4.05579" stroke-linejoin="round" stroke-miterlimit="10" stroke-opacity="0.2" fill="#4C72B0" fill-opacity="0.2" transform="matrix(1.00039 0 0 -1 12084.7 6688)"/></g><g><path d="M1454.35 273.416 1529.7 321.105 1605.05 351.765 1755.74 497.406 2057.13 669.408 2207.82 740.104" stroke="#4C72B0" stroke-width="6.08368" stroke-linecap="round" stroke-linejoin="round" stroke-miterlimit="10" fill="none" transform="matrix(1.00039 0 0 -1 12084.7 6688)"/><g><path d="M0-12.1674C3.22682-12.1674 6.32192-10.8853 8.60363-8.60363 10.8853-6.32192 12.1674-3.22682 12.1674 0 12.1674 3.22682 10.8853 6.32192 8.60363 8.60363 6.32192 10.8853 3.22682 12.1674 0 12.1674-3.22682 12.1674-6.32192 10.8853-8.60363 8.60363-10.8853 6.32192-12.1674 3.22682-12.1674 0-12.1674-3.22682-10.8853-6.32192-8.60363-8.60363-6.32192-10.8853-3.22682-12.1674 0-12.1674Z" stroke="#FFFFFF" stroke-width="3.04184" stroke-linejoin="round" stroke-miterlimit="10" fill="#4C72B0" transform="matrix(1.00039 0 0 -1 13539.6 6414.58)"/></g><g><path d="M0-12.1674C3.22682-12.1674 6.32192-10.8853 8.60363-8.60363 10.8853-6.32192 12.1674-3.22682 12.1674 0 12.1674 3.22682 10.8853 6.32192 8.60363 8.60363 6.32192 10.8853 3.22682 12.1674 0 12.1674-3.22682 12.1674-6.32192 10.8853-8.60363 8.60363-10.8853 6.32192-12.1674 3.22682-12.1674 0-12.1674-3.22682-10.8853-6.32192-8.60363-8.60363-6.32192-10.8853-3.22682-12.1674 0-12.1674Z" stroke="#FFFFFF" stroke-width="3.04184" stroke-linejoin="round" stroke-miterlimit="10" fill="#4C72B0" transform="matrix(1.00039 0 0 -1 13615 6366.9)"/></g><g><path d="M0-12.1674C3.22682-12.1674 6.32192-10.8853 8.60363-8.60363 10.8853-6.32192 12.1674-3.22682 12.1674 0 12.1674 3.22682 10.8853 6.32192 8.60363 8.60363 6.32192 10.8853 3.22682 12.1674 0 12.1674-3.22682 12.1674-6.32192 10.8853-8.60363 8.60363-10.8853 6.32192-12.1674 3.22682-12.1674 0-12.1674-3.22682-10.8853-6.32192-8.60363-8.60363-6.32192-10.8853-3.22682-12.1674 0-12.1674Z" stroke="#FFFFFF" stroke-width="3.04184" stroke-linejoin="round" stroke-miterlimit="10" fill="#4C72B0" transform="matrix(1.00039 0 0 -1 13690.4 6336.23)"/></g><g><path d="M0-12.1674C3.22682-12.1674 6.32192-10.8853 8.60363-8.60363 10.8853-6.32192 12.1674-3.22682 12.1674 0 12.1674 3.22682 10.8853 6.32192 8.60363 8.60363 6.32192 10.8853 3.22682 12.1674 0 12.1674-3.22682 12.1674-6.32192 10.8853-8.60363 8.60363-10.8853 6.32192-12.1674 3.22682-12.1674 0-12.1674-3.22682-10.8853-6.32192-8.60363-8.60363-6.32192-10.8853-3.22682-12.1674 0-12.1674Z" stroke="#FFFFFF" stroke-width="3.04184" stroke-linejoin="round" stroke-miterlimit="10" fill="#4C72B0" transform="matrix(1.00039 0 0 -1 13841.1 6190.6)"/></g><g><path d="M0-12.1674C3.22682-12.1674 6.32192-10.8853 8.60363-8.60363 10.8853-6.32192 12.1674-3.22682 12.1674 0 12.1674 3.22682 10.8853 6.32192 8.60363 8.60363 6.32192 10.8853 3.22682 12.1674 0 12.1674-3.22682 12.1674-6.32192 10.8853-8.60363 8.60363-10.8853 6.32192-12.1674 3.22682-12.1674 0-12.1674-3.22682-10.8853-6.32192-8.60363-8.60363-6.32192-10.8853-3.22682-12.1674 0-12.1674Z" stroke="#FFFFFF" stroke-width="3.04184" stroke-linejoin="round" stroke-miterlimit="10" fill="#4C72B0" transform="matrix(1.00039 0 0 -1 14142.6 6018.59)"/></g><g><path d="M0-12.1674C3.22682-12.1674 6.32192-10.8853 8.60363-8.60363 10.8853-6.32192 12.1674-3.22682 12.1674 0 12.1674 3.22682 10.8853 6.32192 8.60363 8.60363 6.32192 10.8853 3.22682 12.1674 0 12.1674-3.22682 12.1674-6.32192 10.8853-8.60363 8.60363-10.8853 6.32192-12.1674 3.22682-12.1674 0-12.1674-3.22682-10.8853-6.32192-8.60363-8.60363-6.32192-10.8853-3.22682-12.1674 0-12.1674Z" stroke="#FFFFFF" stroke-width="3.04184" stroke-linejoin="round" stroke-miterlimit="10" fill="#4C72B0" transform="matrix(1.00039 0 0 -1 14293.4 5947.9)"/></g></g><g><path d="M1454.35 290.588 2207.82 290.588" stroke="#DD8452" stroke-width="6.08368" stroke-linejoin="round" stroke-miterlimit="10" stroke-dasharray="22.5096 9.73389" fill="none" transform="matrix(1.00039 0 0 -1 12084.7 6688)"/></g><path d="M1416.68 219.38 1416.68 794.411" stroke="#CCCCCC" stroke-width="5.06974" stroke-linecap="square" stroke-miterlimit="10" fill="none" transform="matrix(1.00039 0 0 -1 12084.7 6688)"/><path d="M2245.5 219.38 2245.5 794.411" stroke="#CCCCCC" stroke-width="5.06974" stroke-linecap="square" stroke-miterlimit="10" fill="none" transform="matrix(1.00039 0 0 -1 12084.7 6688)"/><path d="M1416.68 219.38 2245.5 219.38" stroke="#CCCCCC" stroke-width="5.06974" stroke-linecap="square" stroke-miterlimit="10" fill="none" transform="matrix(1.00039 0 0 -1 12084.7 6688)"/><path d="M1416.68 794.411 2245.5 794.411" stroke="#CCCCCC" stroke-width="5.06974" stroke-linecap="square" stroke-miterlimit="10" fill="none" transform="matrix(1.00039 0 0 -1 12084.7 6688)"/><text fill="#262626" font-family="Arial,Arial_MSFontService,sans-serif" font-weight="400" font-size="18" transform="matrix(4.05738 0 0 4.05579 13539.5 5869)">S</text><text fill="#262626" font-family="Arial,Arial_MSFontService,sans-serif" font-weight="400" font-size="18" transform="matrix(4.05738 0 0 4.05579 13585.9 5869)">e</text><text fill="#262626" font-family="Arial,Arial_MSFontService,sans-serif" font-weight="400" font-size="18" transform="matrix(4.05738 0 0 4.05579 13630.8 5869)">v</text><text fill="#262626" font-family="Arial,Arial_MSFontService,sans-serif" font-weight="400" font-size="18" transform="matrix(4.05738 0 0 4.05579 13674 5869)">e</text><text fill="#262626" font-family="Arial,Arial_MSFontService,sans-serif" font-weight="400" font-size="18" transform="matrix(4.05738 0 0 4.05579 13718.9 5869)">r</text><text fill="#262626" font-family="Arial,Arial_MSFontService,sans-serif" font-weight="400" font-size="18" transform="matrix(4.05738 0 0 4.05579 13748.9 5869)">i</text><text fill="#262626" font-family="Arial,Arial_MSFontService,sans-serif" font-weight="400" font-size="18" transform="matrix(4.05738 0 0 4.05579 13769.2 5869)">t</text><text fill="#262626" font-family="Arial,Arial_MSFontService,sans-serif" font-weight="400" font-size="18" transform="matrix(4.05738 0 0 4.05579 13797.9 5869)">y</text><text fill="#262626" font-family="Arial,Arial_MSFontService,sans-serif" font-weight="400" font-size="18" transform="matrix(4.05738 0 0 4.05579 13841.1 5869)"> </text><text fill="#262626" font-family="Arial,Arial_MSFontService,sans-serif" font-weight="400" font-size="18" transform="matrix(4.05738 0 0 4.05579 13864.3 5869)">l</text><text fill="#262626" font-family="Arial,Arial_MSFontService,sans-serif" font-weight="400" font-size="18" transform="matrix(4.05738 0 0 4.05579 13884.6 5869)">e</text><text fill="#262626" font-family="Arial,Arial_MSFontService,sans-serif" font-weight="400" font-size="18" transform="matrix(4.05738 0 0 4.05579 13929.5 5869)">v</text><text fill="#262626" font-family="Arial,Arial_MSFontService,sans-serif" font-weight="400" font-size="18" transform="matrix(4.05738 0 0 4.05579 13972.8 5869)">e</text><text fill="#262626" font-family="Arial,Arial_MSFontService,sans-serif" font-weight="400" font-size="18" transform="matrix(4.05738 0 0 4.05579 14017.7 5869)">l</text><text fill="#262626" font-family="Arial,Arial_MSFontService,sans-serif" font-weight="400" font-size="18" transform="matrix(4.05738 0 0 4.05579 14038 5869)"> </text><text fill="#262626" font-family="Arial,Arial_MSFontService,sans-serif" font-weight="400" font-size="18" transform="matrix(4.05738 0 0 4.05579 14061.2 5869)">1</text><text fill="#262626" font-family="Arial,Arial_MSFontService,sans-serif" font-weight="400" font-size="18" transform="matrix(4.05738 0 0 4.05579 14107.7 5869)">,</text><text fill="#262626" font-family="Arial,Arial_MSFontService,sans-serif" font-weight="400" font-size="18" transform="matrix(4.05738 0 0 4.05579 14130.9 5869)"> </text><text fill="#262626" font-family="Arial,Arial_MSFontService,sans-serif" font-weight="400" font-size="18" transform="matrix(4.05738 0 0 4.05579 14154.1 5869)">2</text><text fill="#262626" font-family="Arial,Arial_MSFontService,sans-serif" font-weight="400" font-size="18" transform="matrix(4.05738 0 0 4.05579 14200.6 5869)">,</text><text fill="#262626" font-family="Arial,Arial_MSFontService,sans-serif" font-weight="400" font-size="18" transform="matrix(4.05738 0 0 4.05579 14223.8 5869)"> </text><text fill="#262626" font-family="Arial,Arial_MSFontService,sans-serif" font-weight="400" font-size="18" transform="matrix(4.05738 0 0 4.05579 14247 5869)">3</text><path d="M2529.7 219.38 3358.51 219.38 3358.51 794.411 2529.7 794.411Z" fill="#FFFFFF" transform="matrix(1.00039 0 0 -1 12084.7 6688)"/><g><path d="M2567.37 219.38 2567.37 794.411" stroke="#CCCCCC" stroke-width="4.05579" stroke-linecap="round" stroke-linejoin="round" stroke-miterlimit="10" fill="none" transform="matrix(1.00039 0 0 -1 12084.7 6688)"/></g><text fill="#262626" font-family="Arial,Arial_MSFontService,sans-serif" font-weight="400" font-size="17" transform="matrix(4.05738 0 0 4.05579 14599.8 6558)">0</text><text fill="#262626" font-family="Arial,Arial_MSFontService,sans-serif" font-weight="400" font-size="17" transform="matrix(4.05738 0 0 4.05579 14642.4 6558)">.</text><text fill="#262626" font-family="Arial,Arial_MSFontService,sans-serif" font-weight="400" font-size="17" transform="matrix(4.05738 0 0 4.05579 14663.7 6558)">0</text><g><path d="M2944.11 219.38 2944.11 794.411" stroke="#CCCCCC" stroke-width="4.05579" stroke-linecap="round" stroke-linejoin="round" stroke-miterlimit="10" fill="none" transform="matrix(1.00039 0 0 -1 12084.7 6688)"/></g><text fill="#262626" font-family="Arial,Arial_MSFontService,sans-serif" font-weight="400" font-size="17" transform="matrix(4.05738 0 0 4.05579 14976.7 6558)">0</text><text fill="#262626" font-family="Arial,Arial_MSFontService,sans-serif" font-weight="400" font-size="17" transform="matrix(4.05738 0 0 4.05579 15019.3 6558)">.</text><text fill="#262626" font-family="Arial,Arial_MSFontService,sans-serif" font-weight="400" font-size="17" transform="matrix(4.05738 0 0 4.05579 15040.6 6558)">5</text><g><path d="M3320.84 219.38 3320.84 794.411" stroke="#CCCCCC" stroke-width="4.05579" stroke-linecap="round" stroke-linejoin="round" stroke-miterlimit="10" fill="none" transform="matrix(1.00039 0 0 -1 12084.7 6688)"/></g><text fill="#262626" font-family="Arial,Arial_MSFontService,sans-serif" font-weight="400" font-size="17" transform="matrix(4.05738 0 0 4.05579 15353.6 6558)">1</text><text fill="#262626" font-family="Arial,Arial_MSFontService,sans-serif" font-weight="400" font-size="17" transform="matrix(4.05738 0 0 4.05579 15396.2 6558)">.</text><text fill="#262626" font-family="Arial,Arial_MSFontService,sans-serif" font-weight="400" font-size="17" transform="matrix(4.05738 0 0 4.05579 15417.5 6558)">0</text><g><path d="M29.8587 18.5431 29.9317 26.7925C29.9317 32.3409 27.8146 35.188 23.5804 35.261 20.3682 35.261 17.813 33.947 15.9149 31.3188 13.4328 28.0336 11.7537 24.2374 10.9506 19.9301 9.92857 14.6738 10.0016 10.8046 11.3157 8.32248 12.6297 5.76733 14.7468 4.52626 17.667 4.52626 20.8062 4.52626 23.7264 7.0084 26.4275 12.1187ZM24.6754 40.8093C32.1218 40.9554 35.7721 37.1591 35.6991 29.4937 35.6991 29.4937 37.5242 32.9249 41.2474 39.9333L47.0877 39.9333 35.553 18.2511 35.48 10.5126C35.48 9.34454 35.7721 8.24947 36.4291 7.30042 37.1591 6.13235 37.8892 5.54832 38.6922 5.54832L41.8314 5.54832 40.8093 0 36.7941 0C34.531 0 32.6329 0.949055 31.0268 2.99317 30.2967 4.01523 29.8587 5.54832 29.8587 7.59244 28.2526 5.03729 26.2085 2.70116 23.5804 0.584034 22.2663-0.365021 19.9301-0.803046 16.572-0.803046 11.0236-0.730042 7.22742 1.02206 5.1833 4.52626 3.13918 8.17647 2.70116 13.3598 4.01523 19.9301 5.32931 26.9386 7.88445 32.1218 11.5347 35.334 15.5499 38.9112 19.9301 40.7363 24.6754 40.8093Z" fill="#262626" transform="matrix(1.00039 0 0 -1 15005.6 6639.98)"/></g><g><path d="M2529.7 255.651 3358.51 255.651" stroke="#CCCCCC" stroke-width="4.05579" stroke-linecap="round" stroke-linejoin="round" stroke-miterlimit="10" fill="none" transform="matrix(1.00039 0 0 -1 12084.7 6688)"/></g><text fill="#262626" font-family="Arial,Arial_MSFontService,sans-serif" font-weight="400" font-size="17" transform="matrix(4.05738 0 0 4.05579 14427.7 6458)">4</text><text fill="#262626" font-family="Arial,Arial_MSFontService,sans-serif" font-weight="400" font-size="17" transform="matrix(4.05738 0 0 4.05579 14470.3 6458)">3</text><text fill="#262626" font-family="Arial,Arial_MSFontService,sans-serif" font-weight="400" font-size="17" transform="matrix(4.05738 0 0 4.05579 14512.9 6458)">.</text><text fill="#262626" font-family="Arial,Arial_MSFontService,sans-serif" font-weight="400" font-size="17" transform="matrix(4.05738 0 0 4.05579 14534.2 6458)">0</text><g><path d="M2529.7 392.196 3358.51 392.196" stroke="#CCCCCC" stroke-width="4.05579" stroke-linecap="round" stroke-linejoin="round" stroke-miterlimit="10" fill="none" transform="matrix(1.00039 0 0 -1 12084.7 6688)"/></g><text fill="#262626" font-family="Arial,Arial_MSFontService,sans-serif" font-weight="400" font-size="17" transform="matrix(4.05738 0 0 4.05579 14427.7 6321)">4</text><text fill="#262626" font-family="Arial,Arial_MSFontService,sans-serif" font-weight="400" font-size="17" transform="matrix(4.05738 0 0 4.05579 14470.3 6321)">3</text><text fill="#262626" font-family="Arial,Arial_MSFontService,sans-serif" font-weight="400" font-size="17" transform="matrix(4.05738 0 0 4.05579 14512.9 6321)">.</text><text fill="#262626" font-family="Arial,Arial_MSFontService,sans-serif" font-weight="400" font-size="17" transform="matrix(4.05738 0 0 4.05579 14534.2 6321)">5</text><g><path d="M2529.7 528.741 3358.51 528.741" stroke="#CCCCCC" stroke-width="4.05579" stroke-linecap="round" stroke-linejoin="round" stroke-miterlimit="10" fill="none" transform="matrix(1.00039 0 0 -1 12084.7 6688)"/></g><text fill="#262626" font-family="Arial,Arial_MSFontService,sans-serif" font-weight="400" font-size="17" transform="matrix(4.05738 0 0 4.05579 14427.7 6185)">4</text><text fill="#262626" font-family="Arial,Arial_MSFontService,sans-serif" font-weight="400" font-size="17" transform="matrix(4.05738 0 0 4.05579 14470.3 6185)">4</text><text fill="#262626" font-family="Arial,Arial_MSFontService,sans-serif" font-weight="400" font-size="17" transform="matrix(4.05738 0 0 4.05579 14512.9 6185)">.</text><text fill="#262626" font-family="Arial,Arial_MSFontService,sans-serif" font-weight="400" font-size="17" transform="matrix(4.05738 0 0 4.05579 14534.2 6185)">0</text><g><path d="M2529.7 665.287 3358.51 665.287" stroke="#CCCCCC" stroke-width="4.05579" stroke-linecap="round" stroke-linejoin="round" stroke-miterlimit="10" fill="none" transform="matrix(1.00039 0 0 -1 12084.7 6688)"/></g><text fill="#262626" font-family="Arial,Arial_MSFontService,sans-serif" font-weight="400" font-size="17" transform="matrix(4.05738 0 0 4.05579 14427.7 6048)">4</text><text fill="#262626" font-family="Arial,Arial_MSFontService,sans-serif" font-weight="400" font-size="17" transform="matrix(4.05738 0 0 4.05579 14470.3 6048)">4</text><text fill="#262626" font-family="Arial,Arial_MSFontService,sans-serif" font-weight="400" font-size="17" transform="matrix(4.05738 0 0 4.05579 14512.9 6048)">.</text><text fill="#262626" font-family="Arial,Arial_MSFontService,sans-serif" font-weight="400" font-size="17" transform="matrix(4.05738 0 0 4.05579 14534.2 6048)">5</text><g><path d="M2567.37 364.385 2567.37 245.518 2642.72 286.841 2718.06 340.165 2868.76 465.146 3170.15 600.61 3320.84 687.424 3320.84 768.272 3320.84 768.272 3170.15 693.171 2868.76 538.288 2718.06 400.389 2642.72 412.608Z" stroke="#4C72B0" stroke-width="4.05579" stroke-linejoin="round" stroke-miterlimit="10" stroke-opacity="0.2" fill="#4C72B0" fill-opacity="0.2" transform="matrix(1.00039 0 0 -1 12084.7 6688)"/></g><g><path d="M2567.37 299.633 2642.72 349.221 2718.06 372.553 2868.76 504.382 3170.15 638.795 3320.84 722.255" stroke="#4C72B0" stroke-width="6.08368" stroke-linecap="round" stroke-linejoin="round" stroke-miterlimit="10" fill="none" transform="matrix(1.00039 0 0 -1 12084.7 6688)"/><g><path d="M0-12.1674C3.22682-12.1674 6.32192-10.8853 8.60363-8.60363 10.8853-6.32192 12.1674-3.22682 12.1674 0 12.1674 3.22682 10.8853 6.32192 8.60363 8.60363 6.32192 10.8853 3.22682 12.1674 0 12.1674-3.22682 12.1674-6.32192 10.8853-8.60363 8.60363-10.8853 6.32192-12.1674 3.22682-12.1674 0-12.1674-3.22682-10.8853-6.32192-8.60363-8.60363-6.32192-10.8853-3.22682-12.1674 0-12.1674Z" stroke="#FFFFFF" stroke-width="3.04184" stroke-linejoin="round" stroke-miterlimit="10" fill="#4C72B0" transform="matrix(1.00039 0 0 -1 14653.1 6388.37)"/></g><g><path d="M0-12.1674C3.22682-12.1674 6.32192-10.8853 8.60363-8.60363 10.8853-6.32192 12.1674-3.22682 12.1674 0 12.1674 3.22682 10.8853 6.32192 8.60363 8.60363 6.32192 10.8853 3.22682 12.1674 0 12.1674-3.22682 12.1674-6.32192 10.8853-8.60363 8.60363-10.8853 6.32192-12.1674 3.22682-12.1674 0-12.1674-3.22682-10.8853-6.32192-8.60363-8.60363-6.32192-10.8853-3.22682-12.1674 0-12.1674Z" stroke="#FFFFFF" stroke-width="3.04184" stroke-linejoin="round" stroke-miterlimit="10" fill="#4C72B0" transform="matrix(1.00039 0 0 -1 14728.4 6338.78)"/></g><g><path d="M0-12.1674C3.22682-12.1674 6.32192-10.8853 8.60363-8.60363 10.8853-6.32192 12.1674-3.22682 12.1674 0 12.1674 3.22682 10.8853 6.32192 8.60363 8.60363 6.32192 10.8853 3.22682 12.1674 0 12.1674-3.22682 12.1674-6.32192 10.8853-8.60363 8.60363-10.8853 6.32192-12.1674 3.22682-12.1674 0-12.1674-3.22682-10.8853-6.32192-8.60363-8.60363-6.32192-10.8853-3.22682-12.1674 0-12.1674Z" stroke="#FFFFFF" stroke-width="3.04184" stroke-linejoin="round" stroke-miterlimit="10" fill="#4C72B0" transform="matrix(1.00039 0 0 -1 14803.8 6315.45)"/></g><g><path d="M0-12.1674C3.22682-12.1674 6.32192-10.8853 8.60363-8.60363 10.8853-6.32192 12.1674-3.22682 12.1674 0 12.1674 3.22682 10.8853 6.32192 8.60363 8.60363 6.32192 10.8853 3.22682 12.1674 0 12.1674-3.22682 12.1674-6.32192 10.8853-8.60363 8.60363-10.8853 6.32192-12.1674 3.22682-12.1674 0-12.1674-3.22682-10.8853-6.32192-8.60363-8.60363-6.32192-10.8853-3.22682-12.1674 0-12.1674Z" stroke="#FFFFFF" stroke-width="3.04184" stroke-linejoin="round" stroke-miterlimit="10" fill="#4C72B0" transform="matrix(1.00039 0 0 -1 14954.6 6183.62)"/></g><g><path d="M0-12.1674C3.22682-12.1674 6.32192-10.8853 8.60363-8.60363 10.8853-6.32192 12.1674-3.22682 12.1674 0 12.1674 3.22682 10.8853 6.32192 8.60363 8.60363 6.32192 10.8853 3.22682 12.1674 0 12.1674-3.22682 12.1674-6.32192 10.8853-8.60363 8.60363-10.8853 6.32192-12.1674 3.22682-12.1674 0-12.1674-3.22682-10.8853-6.32192-8.60363-8.60363-6.32192-10.8853-3.22682-12.1674 0-12.1674Z" stroke="#FFFFFF" stroke-width="3.04184" stroke-linejoin="round" stroke-miterlimit="10" fill="#4C72B0" transform="matrix(1.00039 0 0 -1 15256.1 6049.21)"/></g><g><path d="M0-12.1674C3.22682-12.1674 6.32192-10.8853 8.60363-8.60363 10.8853-6.32192 12.1674-3.22682 12.1674 0 12.1674 3.22682 10.8853 6.32192 8.60363 8.60363 6.32192 10.8853 3.22682 12.1674 0 12.1674-3.22682 12.1674-6.32192 10.8853-8.60363 8.60363-10.8853 6.32192-12.1674 3.22682-12.1674 0-12.1674-3.22682-10.8853-6.32192-8.60363-8.60363-6.32192-10.8853-3.22682-12.1674 0-12.1674Z" stroke="#FFFFFF" stroke-width="3.04184" stroke-linejoin="round" stroke-miterlimit="10" fill="#4C72B0" transform="matrix(1.00039 0 0 -1 15406.8 5965.75)"/></g></g><g><path d="M2567.37 310.269 3320.84 310.269" stroke="#DD8452" stroke-width="6.08368" stroke-linejoin="round" stroke-miterlimit="10" stroke-dasharray="22.5096 9.73389" fill="none" transform="matrix(1.00039 0 0 -1 12084.7 6688)"/></g><path d="M2529.7 219.38 2529.7 794.411" stroke="#CCCCCC" stroke-width="5.06974" stroke-linecap="square" stroke-miterlimit="10" fill="none" transform="matrix(1.00039 0 0 -1 12084.7 6688)"/><path d="M3358.51 219.38 3358.51 794.411" stroke="#CCCCCC" stroke-width="5.06974" stroke-linecap="square" stroke-miterlimit="10" fill="none" transform="matrix(1.00039 0 0 -1 12084.7 6688)"/><path d="M2529.7 219.38 3358.51 219.38" stroke="#CCCCCC" stroke-width="5.06974" stroke-linecap="square" stroke-miterlimit="10" fill="none" transform="matrix(1.00039 0 0 -1 12084.7 6688)"/><path d="M2529.7 794.411 3358.51 794.411" stroke="#CCCCCC" stroke-width="5.06974" stroke-linecap="square" stroke-miterlimit="10" fill="none" transform="matrix(1.00039 0 0 -1 12084.7 6688)"/><text fill="#262626" font-family="Arial,Arial_MSFontService,sans-serif" font-weight="400" font-size="18" transform="matrix(4.05738 0 0 4.05579 14699.4 5869)">S</text><text fill="#262626" font-family="Arial,Arial_MSFontService,sans-serif" font-weight="400" font-size="18" transform="matrix(4.05738 0 0 4.05579 14745.7 5869)">e</text><text fill="#262626" font-family="Arial,Arial_MSFontService,sans-serif" font-weight="400" font-size="18" transform="matrix(4.05738 0 0 4.05579 14790.7 5869)">v</text><text fill="#262626" font-family="Arial,Arial_MSFontService,sans-serif" font-weight="400" font-size="18" transform="matrix(4.05738 0 0 4.05579 14833.9 5869)">e</text><text fill="#262626" font-family="Arial,Arial_MSFontService,sans-serif" font-weight="400" font-size="18" transform="matrix(4.05738 0 0 4.05579 14878.8 5869)">r</text><text fill="#262626" font-family="Arial,Arial_MSFontService,sans-serif" font-weight="400" font-size="18" transform="matrix(4.05738 0 0 4.05579 14908.8 5869)">i</text><text fill="#262626" font-family="Arial,Arial_MSFontService,sans-serif" font-weight="400" font-size="18" transform="matrix(4.05738 0 0 4.05579 14929.1 5869)">t</text><text fill="#262626" font-family="Arial,Arial_MSFontService,sans-serif" font-weight="400" font-size="18" transform="matrix(4.05738 0 0 4.05579 14957.8 5869)">y</text><text fill="#262626" font-family="Arial,Arial_MSFontService,sans-serif" font-weight="400" font-size="18" transform="matrix(4.05738 0 0 4.05579 15001 5869)"> </text><text fill="#262626" font-family="Arial,Arial_MSFontService,sans-serif" font-weight="400" font-size="18" transform="matrix(4.05738 0 0 4.05579 15024.2 5869)">l</text><text fill="#262626" font-family="Arial,Arial_MSFontService,sans-serif" font-weight="400" font-size="18" transform="matrix(4.05738 0 0 4.05579 15044.5 5869)">e</text><text fill="#262626" font-family="Arial,Arial_MSFontService,sans-serif" font-weight="400" font-size="18" transform="matrix(4.05738 0 0 4.05579 15089.4 5869)">v</text><text fill="#262626" font-family="Arial,Arial_MSFontService,sans-serif" font-weight="400" font-size="18" transform="matrix(4.05738 0 0 4.05579 15132.7 5869)">e</text><text fill="#262626" font-family="Arial,Arial_MSFontService,sans-serif" font-weight="400" font-size="18" transform="matrix(4.05738 0 0 4.05579 15177.6 5869)">l</text><text fill="#262626" font-family="Arial,Arial_MSFontService,sans-serif" font-weight="400" font-size="18" transform="matrix(4.05738 0 0 4.05579 15197.9 5869)"> </text><text fill="#262626" font-family="Arial,Arial_MSFontService,sans-serif" font-weight="400" font-size="18" transform="matrix(4.05738 0 0 4.05579 15221.1 5869)">4</text><text fill="#262626" font-family="Arial,Arial_MSFontService,sans-serif" font-weight="400" font-size="18" transform="matrix(4.05738 0 0 4.05579 15267.6 5869)">,</text><text fill="#262626" font-family="Arial,Arial_MSFontService,sans-serif" font-weight="400" font-size="18" transform="matrix(4.05738 0 0 4.05579 15290.8 5869)"> </text><text fill="#262626" font-family="Arial,Arial_MSFontService,sans-serif" font-weight="400" font-size="18" transform="matrix(4.05738 0 0 4.05579 15314 5869)">5</text><text fill="#262626" font-family="Arial,Arial_MSFontService,sans-serif" font-weight="400" font-size="22" transform="matrix(4.05738 0 0 4.05579 13311.7 5755)">R</text><text fill="#262626" font-family="Arial,Arial_MSFontService,sans-serif" font-weight="400" font-size="22" transform="matrix(4.05738 0 0 4.05579 13368.7 5755)">e</text><text fill="#262626" font-family="Arial,Arial_MSFontService,sans-serif" font-weight="400" font-size="22" transform="matrix(4.05738 0 0 4.05579 13422.6 5755)">s</text><text fill="#262626" font-family="Arial,Arial_MSFontService,sans-serif" font-weight="400" font-size="22" transform="matrix(4.05738 0 0 4.05579 13468.2 5755)">N</text><text fill="#262626" font-family="Arial,Arial_MSFontService,sans-serif" font-weight="400" font-size="22" transform="matrix(4.05738 0 0 4.05579 13533.8 5755)">e</text><text fill="#262626" font-family="Arial,Arial_MSFontService,sans-serif" font-weight="400" font-size="22" transform="matrix(4.05738 0 0 4.05579 13587.7 5755)">t</text><text fill="#262626" font-family="Arial,Arial_MSFontService,sans-serif" font-weight="400" font-size="22" transform="matrix(4.05738 0 0 4.05579 13622.1 5755)">1</text><text fill="#262626" font-family="Arial,Arial_MSFontService,sans-serif" font-weight="400" font-size="22" transform="matrix(4.05738 0 0 4.05579 13677.8 5755)">8</text><text fill="#262626" font-family="Arial,Arial_MSFontService,sans-serif" font-weight="400" font-size="22" transform="matrix(4.05738 0 0 4.05579 13733.5 5755)"> </text><text fill="#262626" font-family="Arial,Arial_MSFontService,sans-serif" font-weight="400" font-size="22" transform="matrix(4.05738 0 0 4.05579 13761.4 5755)">/</text><text fill="#262626" font-family="Arial,Arial_MSFontService,sans-serif" font-weight="400" font-size="22" transform="matrix(4.05738 0 0 4.05579 13790.9 5755)"> </text><text fill="#262626" font-family="Arial,Arial_MSFontService,sans-serif" font-weight="400" font-size="22" transform="matrix(4.05738 0 0 4.05579 13818.8 5755)">C</text><text fill="#262626" font-family="Arial,Arial_MSFontService,sans-serif" font-weight="400" font-size="22" transform="matrix(4.05738 0 0 4.05579 13880 5755)">I</text><text fill="#262626" font-family="Arial,Arial_MSFontService,sans-serif" font-weight="400" font-size="22" transform="matrix(4.05738 0 0 4.05579 13905.8 5755)">F</text><text fill="#262626" font-family="Arial,Arial_MSFontService,sans-serif" font-weight="400" font-size="22" transform="matrix(4.05738 0 0 4.05579 13948.2 5755)">A</text><text fill="#262626" font-family="Arial,Arial_MSFontService,sans-serif" font-weight="400" font-size="22" transform="matrix(4.05738 0 0 4.05579 14008.2 5755)">R</text><text fill="#262626" font-family="Arial,Arial_MSFontService,sans-serif" font-weight="400" font-size="22" transform="matrix(4.05738 0 0 4.05579 14065.5 5755)">-</text><text fill="#262626" font-family="Arial,Arial_MSFontService,sans-serif" font-weight="400" font-size="22" transform="matrix(4.05738 0 0 4.05579 14097.2 5755)">1</text><text fill="#262626" font-family="Arial,Arial_MSFontService,sans-serif" font-weight="400" font-size="22" transform="matrix(4.05738 0 0 4.05579 14152.9 5755)">0</text><text fill="#262626" font-family="Arial,Arial_MSFontService,sans-serif" font-weight="400" font-size="22" transform="matrix(4.05738 0 0 4.05579 14208.7 5755)">0</text></g></g></g><g clip-path="url(#clip1)"><g clip-path="url(#clip2)"><g clip-path="url(#clip3)"><path d="M54.6526-38.732C55.6031-39.6825 55.9594-39.9202 55.9594-40.7518 55.9594-41.1082 55.9594-41.3459 55.009-42.5339L28.2768-76.3947 53.5833-76.3947C70.8107-76.3947 81.5036-73.4245 83.9986-53.3456L88.9886-53.3456 85.5431-81.5036 10.8117-81.5036C7.48503-81.5036 7.36621-81.0283 7.36621-77.7017L41.7022-34.2173 8.67312-3.80191C8.19789-3.32668 7.36621-2.49501 7.36621-1.78215 7.36621 0 9.26717 0 10.8117 0L85.5431 0 88.9886-30.1777 83.9986-30.1777C81.6224-9.62361 69.979-7.12859 53.108-7.12859L20.3165-7.12859 54.6526-38.732Z" fill="#0070C0" transform="matrix(1.00207 0 0 1 12029 6732.84)"/><path d="M55.3654-17.9799C56.6327-17.9799 58.3752-17.9799 58.3752-19.8017 58.3752-21.6234 56.6327-21.6234 55.3654-21.6234L9.97999-21.6234C8.71272-21.6234 6.97018-21.6234 6.97018-19.8017 6.97018-17.9799 8.71272-17.9799 9.97999-17.9799L55.3654-17.9799Z" fill="#0070C0" transform="matrix(1.00207 0 0 1 12125.7 6682.67)"/><path d="M24.8709-50.4546C24.8709-52.5931 24.7124-52.6723 22.5739-52.6723 19.3264-49.5041 15.1284-47.6032 7.60384-47.6032L7.60384-44.9893C9.74241-44.9893 14.0196-44.9893 18.6136-47.128L18.6136-6.49494C18.6136-3.5643 18.376-2.61382 10.8514-2.61382L8.07907-2.61382 8.07907 0C11.3266-0.237619 18.1384-0.237619 21.7026-0.237619 25.2668-0.237619 32.1579-0.237619 35.4054 0L35.4054-2.61382 32.6332-2.61382C25.1085-2.61382 24.8709-3.5643 24.8709-6.49494L24.8709-50.4546Z" fill="#0070C0" transform="matrix(1.00207 0 0 1 12191.1 6682.67)"/><path d="M40.3954-11.089C47.7616-19.168 50.3754-29.4648 50.3754-30.0985 50.3754-30.8113 49.9002-31.1282 49.1873-31.1282 48.1576-31.1282 48.0784-30.8113 47.6032-29.148 45.3853-21.069 40.633-14.8908 40.3954-14.8908 40.237-14.8908 40.237-16.871 40.237-18.1384 40.0786-32.0787 31.049-34.9301 25.663-34.9301 14.4948-34.9301 3.48509-24.0788 3.48509-12.9107 3.48509-5.06922 8.95035 0.792066 17.3462 0.792066 22.8907 0.792066 28.752-1.1881 35.0093-5.86129 36.7518 0.396033 41.3459 0.792066 42.7716 0.792066 47.2864 0.792066 49.9002-3.24748 49.9002-4.7524 49.9002-5.70288 48.9497-5.70288 48.7121-5.70288 47.8408-5.70288 47.6824-5.46526 47.4448-4.91081 46.1775-1.58413 43.4844-1.42572 43.0884-1.42572 41.9795-1.42572 40.7122-1.42572 40.3954-11.089ZM34.4549-8.47511C28.8312-3.40589 22.1778-1.42572 17.5838-1.42572 13.4651-1.42572 9.90083-3.80191 9.90083-10.1384 9.90083-12.9107 11.1682-21.069 14.8908-26.3758 18.0592-30.8113 22.3362-32.7124 25.5838-32.7124 29.9401-32.7124 32.3955-29.6233 33.4252-24.7917 34.6133-19.4056 33.9797-13.0691 34.4549-8.47511Z" fill="#0070C0" transform="matrix(1.00207 0 0 1 12125.7 6762.21)"/><path d="M80.1967-38.4944C81.86-38.4944 83.9986-38.4944 83.9986-40.633 83.9986-42.8904 81.9789-42.8904 80.1967-42.8904L10.2176-42.8904C8.55431-42.8904 6.41573-42.8904 6.41573-40.7518 6.41573-38.4944 8.4355-38.4944 10.2176-38.4944L80.1967-38.4944ZM80.1967-16.3957C81.86-16.3957 83.9986-16.3957 83.9986-18.5344 83.9986-20.7917 81.9789-20.7917 80.1967-20.7917L10.2176-20.7917C8.55431-20.7917 6.41573-20.7917 6.41573-18.6531 6.41573-16.3957 8.4355-16.3957 10.2176-16.3957L80.1967-16.3957Z" transform="matrix(1.00207 0 0 1 12271.5 6732.84)"/><path d="M32.6727-76.3947 45.9794-76.3947 45.9794-81.5036C41.7022-81.2659 29.8213-81.2659 24.8313-81.2659 19.8412-81.2659 7.96026-81.2659 3.6831-81.5036L3.6831-76.3947 16.9898-76.3947 16.9898-5.10882 3.6831-5.10882 3.6831 0C7.96026-0.237619 19.8412-0.237619 24.8313-0.237619 29.8213-0.237619 41.7022-0.237619 45.9794 0L45.9794-5.10882 32.6727-5.10882 32.6727-76.3947Z" transform="matrix(1.00207 0 0 1 12394.9 6732.84)"/></g></g></g><g clip-path="url(#clip4)"><g clip-path="url(#clip5)"><g clip-path="url(#clip6)"><path d="M48.6854-77.371C47.9997-79.3139 47.6569-79.9995 44.914-79.9995 42.1711-79.9995 41.8283-79.3139 41.1426-77.371L14.9714-7.65709C14.2857-5.71425 13.9428-4.91425 4.34283-4.91425L4.34283 0C9.25709-0.22857 10.5143-0.22857 16.6856-0.22857 19.8856-0.22857 27.7713-0.22857 30.3998 0L30.3998-4.91425C28.1141-4.91425 23.1999-4.91425 20.1142-6.17139 20.1142-6.39996 20.5713-7.42853 20.6856-7.77138L39.6569-58.514 59.771-4.91425 48.914-4.91425 48.914 0C52.5711-0.22857 63.6568-0.22857 67.9996-0.22857 71.5425-0.22857 82.7424-0.22857 85.4852 0L85.4852-4.91425 75.8853-4.91425 48.6854-77.371Z" fill="#0070C0" transform="matrix(1.00334 0 0 1 13137.1 6738)"/></g></g></g><path d="M12444.5 6694.78 13113.7 6696.44 13113.7 6699.88 12444.5 6698.22ZM13109.1 6684.4 13136.6 6698.21 13109.1 6711.9Z"/><g clip-path="url(#clip7)"><g clip-path="url(#clip8)"><g clip-path="url(#clip9)"><path d="M31.5688-73.8135 44.4259-73.8135 44.4259-78.7498C40.2932-78.5201 28.8137-78.5201 23.9923-78.5201 19.1708-78.5201 7.6913-78.5201 3.55866-78.7498L3.55866-73.8135 16.4158-73.8135 16.4158-4.93621 3.55866-4.93621 3.55866 0C7.6913-0.229591 19.1708-0.229591 23.9923-0.229591 28.8137-0.229591 40.2932-0.229591 44.4259 0L44.4259-4.93621 31.5688-4.93621 31.5688-73.8135Z" transform="matrix(1 0 0 1.01587 13510.3 6738)"/></g></g></g><g clip-path="url(#clip10)"><g clip-path="url(#clip11)"><g clip-path="url(#clip12)"><path d="M48.6854-77.371C47.9997-79.3139 47.6569-79.9995 44.914-79.9995 42.1711-79.9995 41.8283-79.3139 41.1426-77.371L14.9714-7.65709C14.2857-5.71425 13.9428-4.91425 4.34283-4.91425L4.34283 0C9.25709-0.22857 10.5143-0.22857 16.6856-0.22857 19.8856-0.22857 27.7713-0.22857 30.3998 0L30.3998-4.91425C28.1141-4.91425 23.1999-4.91425 20.1142-6.17139 20.1142-6.39996 20.5713-7.42853 20.6856-7.77138L39.6569-58.514 59.771-4.91425 48.914-4.91425 48.914 0C52.5711-0.22857 63.6568-0.22857 67.9996-0.22857 71.5425-0.22857 82.7424-0.22857 85.4852 0L85.4852-4.91425 75.8853-4.91425 48.6854-77.371Z" fill="#0070C0" transform="matrix(1.015 0 0 1 14247.1 6738)"/></g></g></g><path d="M13555.5 6696.78 14224.7 6696.78 14224.7 6700.22 13555.5 6700.22ZM14220.1 6684.75 14247.6 6698.5 14220.1 6712.25Z"/><g clip-path="url(#clip13)"><g clip-path="url(#clip14)"><g clip-path="url(#clip15)"><path d="M31.5688-73.8135 44.4259-73.8135 44.4259-78.7498C40.2932-78.5201 28.8137-78.5201 23.9923-78.5201 19.1708-78.5201 7.6913-78.5201 3.55866-78.7498L3.55866-73.8135 16.4158-73.8135 16.4158-4.93621 3.55866-4.93621 3.55866 0C7.6913-0.229591 19.1708-0.229591 23.9923-0.229591 28.8137-0.229591 40.2932-0.229591 44.4259 0L44.4259-4.93621 31.5688-4.93621 31.5688-73.8135Z" transform="matrix(1 0 0 1.01587 14627.3 6738)"/></g></g></g><g clip-path="url(#clip16)"><g clip-path="url(#clip17)"><g clip-path="url(#clip18)"><path d="M48.6854-77.371C47.9997-79.3139 47.6569-79.9995 44.914-79.9995 42.1711-79.9995 41.8283-79.3139 41.1426-77.371L14.9714-7.65709C14.2857-5.71425 13.9428-4.91425 4.34283-4.91425L4.34283 0C9.25709-0.22857 10.5143-0.22857 16.6856-0.22857 19.8856-0.22857 27.7713-0.22857 30.3998 0L30.3998-4.91425C28.1141-4.91425 23.1999-4.91425 20.1142-6.17139 20.1142-6.39996 20.5713-7.42853 20.6856-7.77138L39.6569-58.514 59.771-4.91425 48.914-4.91425 48.914 0C52.5711-0.22857 63.6568-0.22857 67.9996-0.22857 71.5425-0.22857 82.7424-0.22857 85.4852 0L85.4852-4.91425 75.8853-4.91425 48.6854-77.371Z" fill="#0070C0" transform="matrix(1.00334 0 0 1 15358.1 6738)"/></g></g></g><path d="M14672.5 6696.78 15335.6 6696.78 15335.6 6700.22 14672.5 6700.22ZM15331.1 6684.75 15358.6 6698.5 15331.1 6712.25Z"/></g></svg>