<svg width="1008" height="90" xmlns="http://www.w3.org/2000/svg" xmlns:xlink="http://www.w3.org/1999/xlink" xml:space="preserve" overflow="hidden"><defs><clipPath id="clip0"><rect x="3520" y="1353" width="1008" height="90"/></clipPath></defs><g clip-path="url(#clip0)" transform="translate(-3520 -1353)"><path d="M7.96339-9.3467C9.19715-10.0197 10.5805-11.1787 11.5151-11.9638 13.7583-13.9079 14.5809-14.5061 16.0016-15.0669 15.852-14.8426 15.8146-14.5435 15.8146-14.2818 15.8146-13.2723 16.6745-13.0854 17.0484-13.0854 18.2448-13.0854 18.9178-14.207 18.9178-14.9173 18.9178-15.1417 18.8429-16.1137 17.5344-16.1137 15.2912-16.1137 13.0854-14.207 11.4404-12.8237 9.27193-10.917 8.18771-10.0945 6.65486-9.60842L8.07557-15.5529C8.07557-16.1511 7.58953-16.4876 7.10349-16.4876 6.76703-16.4876 5.9445-16.3754 5.64541-15.1791L2.16844-1.30854C2.05627-0.859897 2.05627-0.785125 2.05627-0.560804 2.05627-0.0373869 2.46753 0.373869 3.02833 0.373869 4.14993 0.373869 4.37424-0.59819 4.56119-1.38331 4.78551-2.16844 6.31836-8.41203 6.39314-8.63634 11.1413-8.41203 12.7489-7.21567 12.7489-5.38369 12.7489-5.122 12.7489-5.00983 12.6368-4.59859 12.4872-3.88824 12.4872-3.47697 12.4872-3.25266 12.4872-1.00945 13.9453 0.373869 15.7772 0.373869 17.3101 0.373869 18.17-0.710349 18.7308-1.68241 19.5159-3.14048 20.0019-5.19677 20.0019-5.34632 20.0019-5.53324 19.8524-5.68281 19.6281-5.68281 19.2916-5.68281 19.2542-5.53324 19.1047-4.93505 18.6186-3.14048 17.7961-0.373869 15.8894-0.373869 15.0669-0.373869 14.6556-0.859897 14.6556-2.16844 14.6556-2.87879 14.8052-3.70129 14.9547-4.2621 15.0295-4.63596 15.1417-5.0846 15.1417-5.49586 15.1417-8.89806 10.4309-9.23456 7.96339-9.3467Z" fill="#C44E52" transform="matrix(1.00486 0 0 1 3520 1407.37)"/><path d="M5.95698-7.77644 10.4932-7.77644C13.559-7.77644 16.525-9.74549 16.525-12.3626 16.525-14.8052 13.883-17.0235 10.2939-17.0235L1.14653-17.0235 1.14653-16.201 1.69487-16.201C3.61407-16.201 3.66392-15.9268 3.66392-15.0046L3.66392-2.01889C3.66392-1.09668 3.61407-0.822511 1.69487-0.822511L1.14653-0.822511 1.14653 0C3.2651-0.0747735 3.31495-0.0747735 4.81043-0.0747735 6.30592-0.0747735 6.35577-0.0747735 8.47435 0L8.47435-0.822511 7.92602-0.822511C6.00683-0.822511 5.95698-1.09668 5.95698-2.01889L5.95698-7.77644ZM5.88221-8.5242 5.88221-15.1791C5.88221-16.0265 5.93205-16.201 7.07857-16.201L9.67072-16.201C13.9328-16.201 13.9328-13.4842 13.9328-12.3626 13.9328-11.2659 13.9328-8.5242 9.67072-8.5242L5.88221-8.5242Z" fill="#C44E52" transform="matrix(1.00486 0 0 1 3541.1 1412.97)"/><path d="M17.6217-16.8989C17.6217-17.2976 17.6217-17.5469 17.2976-17.5469 17.1232-17.5469 17.0983-17.522 16.8739-17.1979L15.6028-15.3535C14.7055-16.3256 13.0605-17.5469 10.6677-17.5469 5.65789-17.5469 1.47055-13.534 1.47055-8.5242 1.47055-3.48945 5.63296 0.523414 10.6926 0.523414 14.88 0.523414 17.6217-2.79155 17.6217-5.83236 17.6217-6.0816 17.6217-6.30592 17.2229-6.30592 16.9487-6.30592 16.8739-6.1813 16.849-5.93205 16.6496-2.09366 13.559-0.299094 10.917-0.299094 8.79837-0.299094 4.06271-1.59517 4.06271-8.5242 4.06271-15.2289 8.54913-16.7244 10.917-16.7244 13.2599-16.7244 16.1511-15.0544 16.7992-10.7674 16.8241-10.568 16.849-10.3935 17.1979-10.3935 17.6217-10.3935 17.6217-10.568 17.6217-11.0416L17.6217-16.8989Z" fill="#C44E52" transform="matrix(1.00486 0 0 1 3559.13 1412.97)"/><path d="M10.5431-17.2478C10.4185-17.5718 10.3437-17.7961 9.91996-17.7961 9.47132-17.7961 9.39655-17.5967 9.27193-17.2478L3.71377-2.56723C3.46453-1.89427 2.9411-0.822511 0.897284-0.822511L0.897284 0C1.69487-0.0747735 3.01587-0.0747735 3.46453-0.0747735 4.2621-0.0747735 5.00983-0.0747735 6.23114 0L6.23114-0.822511C5.13445-0.847435 4.48642-1.34593 4.48642-2.06874 4.48642-2.24321 4.48642-2.29306 4.61104-2.59215L5.78251-5.70774 12.562-5.70774 13.9577-2.01889C14.0824-1.71979 14.0824-1.62009 14.0824-1.57025 14.0824-0.822511 12.7863-0.822511 12.0884-0.822511L12.0884 0C14.207-0.0747735 14.2568-0.0747735 15.6277-0.0747735 17.0235-0.0747735 17.4721-0.0747735 18.9178 0L18.9178-0.822511 18.494-0.822511C16.9238-0.822511 16.6745-1.04683 16.3754-1.84442L10.5431-17.2478ZM9.17223-14.6806 12.238-6.53023 6.0816-6.53023 9.17223-14.6806Z" fill="#C44E52" transform="matrix(1.00486 0 0 1 3578.27 1412.97)"/><path d="M12.1507 9.08501C12.1507 8.97284 12.1507 8.89806 11.5151 8.26248 7.77644 4.48642 5.68281-1.68241 5.68281-9.30933 5.68281-16.5624 7.43998-22.806 11.7769-27.2176 12.1507-27.5541 12.1507-27.6289 12.1507-27.741 12.1507-27.9654 11.9638-28.0401 11.8142-28.0401 11.3282-28.0401 8.26248-25.3483 6.43054-21.6844 4.52382-17.9083 3.66392-13.9079 3.66392-9.30933 3.66392-5.9819 4.18733-1.53286 6.13145 2.46753 8.33725 6.95395 11.403 9.3841 11.8142 9.3841 11.9638 9.3841 12.1507 9.30933 12.1507 9.08501Z" transform="matrix(1.00486 0 0 1 3599.99 1407.37)"/><path d="M14.0948-15.9642C14.0948-16.6745 14.0948-16.9362 13.534-16.9362 13.3097-16.9362 13.2349-16.9362 12.6741-16.5997 12.5246-16.4876 12.1133-16.2259 11.9264-16.1137 10.8796-16.7119 9.49625-16.9362 8.15034-16.9362 7.02872-16.9362 1.4207-16.9362 1.4207-12.0759 1.4207-8.15034 6.05667-7.32781 7.21567-7.14089 8.22511-6.95395 9.45888-6.72963 9.60842-6.72963 11.1039-6.39314 12.5994-5.45846 12.5994-3.88824 12.5994-1.00945 9.19715-1.00945 8.41203-1.00945 6.50531-1.00945 4.14993-1.60763 3.10311-5.23414 2.87879-5.9819 2.8414-6.01927 2.20582-6.01927 1.4207-6.01927 1.4207-5.90713 1.4207-5.04723L1.4207-0.747735C1.4207-0.0373869 1.4207 0.224321 1.9815 0.224321 2.24321 0.224321 2.31798 0.224321 3.06572-0.373869L4.03778-1.08422C5.72018 0.224321 7.73907 0.224321 8.41203 0.224321 10.4683 0.224321 15.1417-0.224321 15.1417-5.19677 15.1417-6.99135 14.1696-8.22511 13.4219-8.89806 11.889-10.1692 10.6179-10.3935 8.59897-10.7674 6.20622-11.1787 3.96301-11.5899 3.96301-13.3845 3.96301-15.8146 7.29044-15.8146 8.07557-15.8146 12.2255-15.8146 12.4498-13.1975 12.5246-12.2629 12.562-11.7769 12.8611-11.7769 13.3097-11.7769 14.0948-11.7769 14.0948-11.889 14.0948-12.7489L14.0948-15.9642Z" transform="matrix(1.00486 0 0 1 3614.24 1407.37)"/><path d="M7.29044 0.149547C7.29044-2.01889 6.58008-3.62652 5.04723-3.62652 3.85084-3.62652 3.25266-2.65446 3.25266-1.83195 3.25266-1.00944 3.81347 0 5.0846 0 5.57064 0 5.9819-0.149547 6.31836-0.486028 6.39314-0.560804 6.43054-0.560804 6.46791-0.560804 6.54268-0.560804 6.54268-0.0373869 6.54268 0.149547 6.54268 1.38331 6.31836 3.81347 4.14993 6.24359 3.73869 6.69226 3.73869 6.76703 3.73869 6.8418 3.73869 7.02872 3.92561 7.21567 4.11256 7.21567 4.41165 7.21567 7.29044 4.44905 7.29044 0.149547Z" transform="matrix(1.00486 0 0 1 3630.85 1407.37)"/><path d="M14.0948-15.9642C14.0948-16.6745 14.0948-16.9362 13.534-16.9362 13.3097-16.9362 13.2349-16.9362 12.6741-16.5997 12.5246-16.4876 12.1133-16.2259 11.9264-16.1137 10.8796-16.7119 9.49625-16.9362 8.15034-16.9362 7.02872-16.9362 1.4207-16.9362 1.4207-12.0759 1.4207-8.15034 6.05667-7.32781 7.21567-7.14089 8.22511-6.95395 9.45888-6.72963 9.60842-6.72963 11.1039-6.39314 12.5994-5.45846 12.5994-3.88824 12.5994-1.00945 9.19715-1.00945 8.41203-1.00945 6.50531-1.00945 4.14993-1.60763 3.10311-5.23414 2.87879-5.9819 2.8414-6.01927 2.20582-6.01927 1.4207-6.01927 1.4207-5.90713 1.4207-5.04723L1.4207-0.747735C1.4207-0.0373869 1.4207 0.224321 1.9815 0.224321 2.24321 0.224321 2.31798 0.224321 3.06572-0.373869L4.03778-1.08422C5.72018 0.224321 7.73907 0.224321 8.41203 0.224321 10.4683 0.224321 15.1417-0.224321 15.1417-5.19677 15.1417-6.99135 14.1696-8.22511 13.4219-8.89806 11.889-10.1692 10.6179-10.3935 8.59897-10.7674 6.20622-11.1787 3.96301-11.5899 3.96301-13.3845 3.96301-15.8146 7.29044-15.8146 8.07557-15.8146 12.2255-15.8146 12.4498-13.1975 12.5246-12.2629 12.562-11.7769 12.8611-11.7769 13.3097-11.7769 14.0948-11.7769 14.0948-11.889 14.0948-12.7489L14.0948-15.9642Z" transform="matrix(1.00486 0 0 1 3647.29 1407.37)"/><path d="M6.60501-11.8142C6.72963-12.1382 6.82932-12.3127 6.82932-12.562 6.82932-13.3845 6.0816-13.9328 5.38369-13.9328 4.38672-13.9328 4.11256-13.0605 4.01286-12.7115L0.847435-1.96904C0.747735-1.66995 0.747735-1.59517 0.747735-1.57025 0.747735-1.34593 0.897284-1.29608 1.14653-1.2213 1.59517-1.02191 1.64502-1.02191 1.69487-1.02191 1.76964-1.02191 1.91919-1.02191 2.09366-1.44563L6.60501-11.8142Z" transform="matrix(1.00486 0 0 1 3663.9 1391.93)"/><path d="M6.87917-14.3192C6.87917-15.3286 6.01927-16.1137 5.0846-16.1137 4.00038-16.1137 3.25266-15.2538 3.25266-14.3192 3.25266-13.1975 4.18733-12.4872 5.04723-12.4872 6.05667-12.4872 6.87917-13.2723 6.87917-14.3192ZM6.24359-0.373869C6.24359 0.93467 6.24359 3.58915 3.96301 6.39314 3.73869 6.69226 3.73869 6.76703 3.73869 6.8418 3.73869 7.02872 3.92561 7.21567 4.11256 7.21567 4.37424 7.21567 6.99135 4.44905 6.99135 0.0747735 6.99135-1.30854 6.87917-3.62652 5.04723-3.62652 3.96301-3.62652 3.25266-2.80401 3.25266-1.83195 3.25266-0.822511 3.96301 0 5.0846 0 5.79495 0 6.05667-0.224321 6.24359-0.373869Z" transform="matrix(1.00486 0 0 1 3672.68 1407.37)"/><path d="M17.1979-12.1881C17.497-12.4872 17.6092-12.562 17.6092-12.8237 17.6092-12.9358 17.6092-13.0106 17.3101-13.3845L8.89806-24.0397 16.8615-24.0397C22.2825-24.0397 25.6474-23.105 26.4325-16.7867L28.0027-16.7867 26.9185-25.6474 3.4022-25.6474C2.35537-25.6474 2.31798-25.4978 2.31798-24.451L13.1228-10.7674 2.72924-1.19638C2.57969-1.04683 2.31798-0.785125 2.31798-0.560804 2.31798 0 2.91617 0 3.4022 0L26.9185 0 28.0027-9.49625 26.4325-9.49625C25.6847-3.02833 22.0208-2.24321 16.7119-2.24321L6.39314-2.24321 17.1979-12.1881Z" fill="#0070C0" transform="matrix(1.00486 0 0 1 3689.13 1407.37)"/><path d="M12.7115-3.48945C15.0295-6.03175 15.852-9.27193 15.852-9.47132 15.852-9.69564 15.7025-9.79534 15.4781-9.79534 15.1541-9.79534 15.1292-9.69564 14.9797-9.17223 14.2818-6.62993 12.7863-4.68581 12.7115-4.68581 12.6617-4.68581 12.6617-5.30892 12.6617-5.70774 12.6118-10.0945 9.77041-10.9917 8.07557-10.9917 4.56119-10.9917 1.09668-7.57705 1.09668-4.06271 1.09668-1.59517 2.81648 0.249245 5.45846 0.249245 7.20319 0.249245 9.04761-0.373869 11.0167-1.84442 11.565 0.124623 13.0106 0.249245 13.4593 0.249245 14.88 0.249245 15.7025-1.02191 15.7025-1.49547 15.7025-1.79457 15.4034-1.79457 15.3286-1.79457 15.0544-1.79457 15.0046-1.71979 14.9298-1.54532 14.531-0.49849 13.6836-0.448642 13.559-0.448642 13.21-0.448642 12.8112-0.448642 12.7115-3.48945ZM10.8422-2.66693C9.07253-1.07176 6.97887-0.448642 5.53324-0.448642 4.23718-0.448642 3.11557-1.19638 3.11557-3.19033 3.11557-4.06271 3.51437-6.62993 4.68581-8.29988 5.68281-9.69564 7.02872-10.2939 8.05064-10.2939 9.42147-10.2939 10.1942-9.32178 10.5182-7.8014 10.892-6.10652 10.6926-4.11256 10.8422-2.66693Z" fill="#0070C0" transform="matrix(1.00486 0 0 1 3719.65 1412.97)"/><path d="M10.5431-9.30933C10.5431-12.1507 10.1692-16.7867 8.07557-21.1236 5.86973-25.61 2.80401-28.0401 2.39276-28.0401 2.24321-28.0401 2.05627-27.9654 2.05627-27.741 2.05627-27.6289 2.05627-27.5541 2.69185-26.9185 6.43054-23.1424 8.5242-16.9736 8.5242-9.3467 8.5242-2.09366 6.76703 4.14993 2.43014 8.56157 2.05627 8.89806 2.05627 8.97284 2.05627 9.08501 2.05627 9.30933 2.24321 9.3841 2.39276 9.3841 2.87879 9.3841 5.9445 6.69226 7.77644 3.02833 9.68319-0.785125 10.5431-4.82291 10.5431-9.30933Z" transform="matrix(1.00486 0 0 1 3738.31 1407.37)"/><path d="M25.2361-12.1133C25.7595-12.1133 26.4325-12.1133 26.4325-12.7863 26.4325-13.4967 25.7969-13.4967 25.2361-13.4967L3.21525-13.4967C2.69185-13.4967 2.01889-13.4967 2.01889-12.8237 2.01889-12.1133 2.65446-12.1133 3.21525-12.1133L25.2361-12.1133ZM25.2361-5.15937C25.7595-5.15937 26.4325-5.15937 26.4325-5.83236 26.4325-6.54268 25.7969-6.54268 25.2361-6.54268L3.21525-6.54268C2.69185-6.54268 2.01889-6.54268 2.01889-5.86973 2.01889-5.15937 2.65446-5.15937 3.21525-5.15937L25.2361-5.15937Z" transform="matrix(1.00486 0 0 1 3762.99 1407.37)"/><path d="M14.3192-8.67375C15.1417-8.67375 15.2164-8.67375 15.2164-9.3841 15.2164-13.1602 13.1975-16.6745 8.67375-16.6745 4.41165-16.6745 1.1216-12.8237 1.1216-8.18771 1.1216-3.25266 4.93505 0.373869 9.08501 0.373869 13.534 0.373869 15.2164-3.66392 15.2164-4.44905 15.2164-4.67337 15.0295-4.82291 14.8052-4.82291 14.5061-4.82291 14.4313-4.63596 14.3565-4.44905 13.3845-1.30854 10.8796-0.448642 9.30933-0.448642 7.73911-0.448642 3.96301-1.49547 3.96301-7.96339L3.96301-8.67375 14.3192-8.67375ZM4.00038-9.3841C4.29947-15.2538 7.58953-15.9268 8.63634-15.9268 12.6368-15.9268 12.8611-10.6552 12.8984-9.3841L4.00038-9.3841Z" transform="matrix(1.00486 0 0 1 3801.94 1407.37)"/><path d="M10.4683-8.82329C11.5525-10.244 13.1228-12.2629 13.8331-13.048 15.366-14.7678 17.1232-15.0295 18.3195-15.0295L18.3195-16.1137C16.7119-16.039 16.6371-16.039 15.1791-16.039 13.7583-16.039 13.6836-16.039 11.8142-16.1137L11.8142-15.0295C12.3003-14.9547 12.8984-14.7304 12.8984-13.8705 12.8984-13.2349 12.562-12.8237 12.3377-12.5246L9.94488-9.49625 7.02872-13.3471C6.91658-13.4967 6.69226-13.8331 6.69226-14.0948 6.69226-14.3192 6.87917-14.9921 8.00079-15.0295L8.00079-16.1137C7.06612-16.039 5.15937-16.039 4.14993-16.039 2.91617-16.039 2.8414-16.039 0.560804-16.1137L0.560804-15.0295C2.46753-15.0295 3.17788-14.9547 3.96301-13.9453L8.33725-8.22511C8.41203-8.15034 8.56157-7.92602 8.56157-7.81385 8.56157-7.70167 5.64541-4.03778 5.27155-3.55175 3.62652-1.53286 1.9815-1.1216 0.373869-1.08422L0.373869 0C1.79457-0.0747735 1.86934-0.0747735 3.47697-0.0747735 4.89768-0.0747735 4.97246-0.0747735 6.8418 0L6.8418-1.08422C5.9445-1.19638 5.79495-1.75718 5.79495-2.2806 5.79495-2.87879 6.05667-3.17788 6.43054-3.66392 6.99135-4.44905 8.22511-5.9819 9.12238-7.14089L12.1881-3.14048C12.8237-2.31798 12.8237-2.24321 12.8237-2.01889 12.8237-1.71979 12.5246-1.1216 11.5151-1.08422L11.5151 0C12.4872-0.0747735 14.3192-0.0747735 15.366-0.0747735 16.5997-0.0747735 16.6745-0.0747735 18.9178 0L18.9178-1.08422C16.9362-1.08422 16.2633-1.15899 15.366-2.35537L10.4683-8.82329Z" transform="matrix(1.00486 0 0 1 3818.22 1407.37)"/><path d="M9.15978 6.16882C6.76703 6.16882 6.31836 6.16882 6.31836 4.48642L6.31836-2.01889C6.99135-1.08422 8.5242 0.373869 10.917 0.373869 15.2164 0.373869 18.9925-3.25266 18.9925-8.07557 18.9925-12.8237 15.4781-16.4876 11.403-16.4876 8.11294-16.4876 6.35577-14.1322 6.24359-13.9827L6.24359-16.4876 1.04683-16.0763 1.04683-14.9921C3.66392-14.9921 3.88824-14.7304 3.88824-13.0854L3.88824 4.48642C3.88824 6.16882 3.47697 6.16882 1.04683 6.16882L1.04683 7.25304C2.01889 7.17826 4.03778 7.17826 5.0846 7.17826 6.16882 7.17826 8.18771 7.17826 9.15978 7.25304L9.15978 6.16882ZM6.31836-11.9264C6.31836-12.6368 6.31836-12.6741 6.72963-13.2723 7.85125-14.9547 9.68319-15.6651 11.1039-15.6651 13.9079-15.6651 16.1511-12.2629 16.1511-8.07557 16.1511-3.62652 13.6088-0.373869 10.73-0.373869 9.57102-0.373869 8.4868-0.859897 7.73907-1.57025 6.87917-2.43014 6.31836-3.17788 6.31836-4.2247L6.31836-11.9264Z" transform="matrix(1.00486 0 0 1 3837.57 1407.37)"/><path d="M26.1708 87.8217C26.1708 87.6722 26.096 87.5975 26.0212 87.4852 24.6379 86.102 22.133 83.5971 19.6281 79.5592 13.6088 69.9135 10.8796 57.7625 10.8796 43.3687 10.8796 33.3118 12.2255 20.3384 18.3943 9.19715 21.3479 3.88824 24.4136 0.822511 26.0586-0.822511 26.1708-0.93467 26.1708-1.00945 26.1708-1.1216 26.1708-1.49547 25.9091-1.49547 25.3857-1.49547 24.8623-1.49547 24.7875-1.49547 24.2267-0.93467 11.7021 10.4683 7.77644 27.5915 7.77644 43.3312 7.77644 58.0243 11.1413 72.8296 20.6375 84.0083 21.3853 84.868 22.806 86.401 24.3388 87.7469 24.7875 88.1954 24.8623 88.1954 25.3857 88.1954 25.9091 88.1954 26.1708 88.1954 26.1708 87.8217Z" transform="matrix(1.00486 0 0 1 3864.4 1354.65)"/><path d="M24.6379-8.59897C25.2735-8.59897 25.9465-8.59897 25.9465-9.3467 25.9465-10.0944 25.2735-10.0945 24.6379-10.0945L4.41165-10.0945C3.77606-10.0945 3.10311-10.0945 3.10311-9.3467 3.10311-8.59894 3.77606-8.59897 4.41165-8.59897L24.6379-8.59897Z" transform="matrix(1.00486 0 0 1 3892.05 1407.37)"/><path d="M10.7674-23.9649C10.7674-24.8248 10.7674-24.8623 10.0197-24.8623 9.12238-23.8528 7.25304-22.4695 3.4022-22.4695L3.4022-21.3853C4.2621-21.3853 6.13145-21.3853 8.18771-22.3573L8.18771-2.87879C8.18771-1.53286 8.07557-1.08422 4.78551-1.08422L3.62652-1.08422 3.62652 0C4.63596-0.0747735 8.26248-0.0747735 9.49625-0.0747735 10.73-0.0747735 14.3192-0.0747735 15.3286 0L15.3286-1.08422 14.1696-1.08422C10.8796-1.08422 10.7674-1.53286 10.7674-2.87879L10.7674-23.9649Z" transform="matrix(1.00486 0 0 1 3935.51 1382.07)"/><path d="M625.932 290.247 665.309 290.247 665.309 291.742 625.932 291.742Z" transform="matrix(1.00486 0 0 1 3295.95 1107.02)"/><path d="M16.4502-6.28099 15.6277-6.28099C15.5155-5.64541 15.2164-3.58915 14.8426-2.99094 14.5809-2.65446 12.4498-2.65446 11.3282-2.65446L4.41165-2.65446C5.42109-3.51437 7.70167-5.90713 8.67375-6.8044 14.3565-12.0385 16.4502-13.9827 16.4502-17.684 16.4502-21.9835 13.048-24.8623 8.71112-24.8623 4.37424-24.8623 1.83195-21.161 1.83195-17.9457 1.83195-16.039 3.47697-16.039 3.58915-16.039 4.37424-16.039 5.34632-16.5997 5.34632-17.7961 5.34632-18.8429 4.63596-19.5533 3.58915-19.5533 3.25266-19.5533 3.17788-19.5533 3.06572-19.5159 3.77606-22.0582 5.79495-23.778 8.22511-23.778 11.403-23.778 13.3471-21.1236 13.3471-17.684 13.3471-14.5061 11.5151-11.7395 9.3841-9.3467L1.83195-0.897284 1.83195 0 15.4781 0 16.4502-6.28099Z" transform="matrix(1.00486 0 0 1 3924.92 1433.01)"/><path d="M10.5057-25.0118C10.5431-25.1613 10.6179-25.3857 10.6179-25.5726 10.6179-25.9465 10.244-25.9465 10.1692-25.9465 10.1318-25.9465 8.29988-25.7969 8.11294-25.7595 7.47735-25.7221 6.91658-25.6474 6.24359-25.61 5.30892-25.5352 5.04723-25.4978 5.04723-24.8248 5.04723-24.451 5.34632-24.451 5.86973-24.451 7.70167-24.451 7.73907-24.1145 7.73907-23.7406 7.73907-23.5163 7.6643-23.2172 7.6269-23.105L2.20582-1.45809C2.05627-0.897284 2.05627-0.822511 2.05627-0.59819 2.05627 0.224321 2.69185 0.373869 3.06572 0.373869 3.70129 0.373869 4.18733-0.11216 4.37424-0.523414L6.05667-7.29044C6.24359-8.11294 6.46791-8.89806 6.65486-9.72056 7.06612-11.2908 7.06612-11.3282 7.77644-12.4124 8.48677-13.4967 10.1692-15.7399 13.048-15.7399 14.5435-15.7399 15.0669-14.6182 15.0669-13.1228 15.0669-11.0291 13.6088-6.95395 12.7863-4.71074 12.4498-3.81347 12.2629-3.32743 12.2629-2.65446 12.2629-0.972056 13.4219 0.373869 15.2164 0.373869 18.6934 0.373869 20.0019-5.122 20.0019-5.34632 20.0019-5.53324 19.8524-5.68281 19.6281-5.68281 19.2916-5.68281 19.2542-5.57064 19.0673-4.93505 18.2074-1.94412 16.8241-0.373869 15.3286-0.373869 14.9547-0.373869 14.3565-0.411256 14.3565-1.60763 14.3565-2.57969 14.8052-3.77606 14.9547-4.18733 15.6277-5.9819 17.3101-10.3935 17.3101-12.562 17.3101-14.8052 16.0016-16.4876 13.1602-16.4876 11.0291-16.4876 9.15978-15.4781 7.6269-13.534L10.5057-25.0118Z" fill="#006464" transform="matrix(1.00486 0 0 1 3943.24 1433.01)"/><path d="M12.1507 9.08501C12.1507 8.97284 12.1507 8.89806 11.5151 8.26248 7.77644 4.48642 5.68281-1.68241 5.68281-9.30933 5.68281-16.5624 7.43998-22.806 11.7769-27.2176 12.1507-27.5541 12.1507-27.6289 12.1507-27.741 12.1507-27.9654 11.9638-28.0401 11.8142-28.0401 11.3282-28.0401 8.26248-25.3483 6.43054-21.6844 4.52382-17.9083 3.66392-13.9079 3.66392-9.30933 3.66392-5.9819 4.18733-1.53286 6.13145 2.46753 8.33725 6.95395 11.403 9.3841 11.8142 9.3841 11.9638 9.3841 12.1507 9.30933 12.1507 9.08501Z" transform="matrix(1.00486 0 0 1 3968.24 1407.37)"/><path d="M26.9185-22.9181C26.9185-23.7406 26.9559-23.778 27.928-23.9276 28.6009-24.0023 29.3487-24.0397 30.0216-24.0397L30.8815-24.0397 30.8815-25.6474C30.0216-25.5726 27.1055-25.5726 26.0586-25.5726 25.0118-25.5726 22.0956-25.5726 21.2357-25.6474L21.2357-24.0397 22.0956-24.0397C23.105-24.0397 23.1798-24.0397 24.0771-23.9276 25.1613-23.778 25.1987-23.7406 25.1987-22.9181L25.1987-8.67375C25.1987-3.32743 21.4226-1.15899 17.011-1.15899 10.4683-1.15899 10.3188-6.16882 10.3188-8.33725L10.3188-24.0397 14.2818-24.0397 14.2818-25.6474C13.1975-25.5726 9.19715-25.5726 7.85125-25.5726 6.50534-25.5726 2.50492-25.5726 1.4207-25.6474L1.4207-24.0397 5.38369-24.0397 5.38369-8.59897C5.38369-3.66392 9.3467 0.448642 16.8615 0.448642 23.778 0.448642 26.9185-3.85084 26.9185-8.56157L26.9185-22.9181Z" fill="#FF0000" transform="matrix(1.00486 0 0 1 3982.5 1407.37)"/><path d="M10.8671-16.1511 18.17-16.1511C18.5688-16.1511 19.1171-16.1511 19.1171-16.7244 19.1171-17.2977 18.5688-17.2976 18.17-17.2976L2.44261-17.2976C2.01889-17.2976 1.47055-17.2976 1.47055-16.7244 1.47055-16.1511 2.01889-16.1511 2.44261-16.1511L9.72056-16.1511 9.72056-0.972056C9.72056-0.548339 9.72056 0 10.2939 0 10.8671 0 10.8671-0.548339 10.8671-0.947132L10.8671-16.1511Z" fill="#FF0000" transform="matrix(1.00486 0 0 1 4014.86 1391.93)"/><path d="M14.0948-15.9642C14.0948-16.6745 14.0948-16.9362 13.534-16.9362 13.3097-16.9362 13.2349-16.9362 12.6741-16.5997 12.5246-16.4876 12.1133-16.2259 11.9264-16.1137 10.8796-16.7119 9.49625-16.9362 8.15034-16.9362 7.02872-16.9362 1.4207-16.9362 1.4207-12.0759 1.4207-8.15034 6.05667-7.32781 7.21567-7.14089 8.22511-6.95395 9.45888-6.72963 9.60842-6.72963 11.1039-6.39314 12.5994-5.45846 12.5994-3.88824 12.5994-1.00945 9.19715-1.00945 8.41203-1.00945 6.50531-1.00945 4.14993-1.60763 3.10311-5.23414 2.87879-5.9819 2.8414-6.01927 2.20582-6.01927 1.4207-6.01927 1.4207-5.90713 1.4207-5.04723L1.4207-0.747735C1.4207-0.0373869 1.4207 0.224321 1.9815 0.224321 2.24321 0.224321 2.31798 0.224321 3.06572-0.373869L4.03778-1.08422C5.72018 0.224321 7.73907 0.224321 8.41203 0.224321 10.4683 0.224321 15.1417-0.224321 15.1417-5.19677 15.1417-6.99135 14.1696-8.22511 13.4219-8.89806 11.889-10.1692 10.6179-10.3935 8.59897-10.7674 6.20622-11.1787 3.96301-11.5899 3.96301-13.3845 3.96301-15.8146 7.29044-15.8146 8.07557-15.8146 12.2255-15.8146 12.4498-13.1975 12.5246-12.2629 12.562-11.7769 12.8611-11.7769 13.3097-11.7769 14.0948-11.7769 14.0948-11.889 14.0948-12.7489L14.0948-15.9642Z" transform="matrix(1.00486 0 0 1 4037.24 1407.37)"/><path d="M24.6379-8.59897C25.2735-8.59897 25.9465-8.59897 25.9465-9.3467 25.9465-10.0944 25.2735-10.0945 24.6379-10.0945L4.41165-10.0945C3.77606-10.0945 3.10311-10.0945 3.10311-9.3467 3.10311-8.59894 3.77606-8.59897 4.41165-8.59897L24.6379-8.59897Z" transform="matrix(1.00486 0 0 1 4062.2 1407.37)"/><path d="M26.9185-22.9181C26.9185-23.7406 26.9559-23.778 27.928-23.9276 28.6009-24.0023 29.3487-24.0397 30.0216-24.0397L30.8815-24.0397 30.8815-25.6474C30.0216-25.5726 27.1055-25.5726 26.0586-25.5726 25.0118-25.5726 22.0956-25.5726 21.2357-25.6474L21.2357-24.0397 22.0956-24.0397C23.105-24.0397 23.1798-24.0397 24.0771-23.9276 25.1613-23.778 25.1987-23.7406 25.1987-22.9181L25.1987-8.67375C25.1987-3.32743 21.4226-1.15899 17.011-1.15899 10.4683-1.15899 10.3188-6.16882 10.3188-8.33725L10.3188-24.0397 14.2818-24.0397 14.2818-25.6474C13.1975-25.5726 9.19715-25.5726 7.85125-25.5726 6.50534-25.5726 2.50492-25.5726 1.4207-25.6474L1.4207-24.0397 5.38369-24.0397 5.38369-8.59897C5.38369-3.66392 9.3467 0.448642 16.8615 0.448642 23.778 0.448642 26.9185-3.85084 26.9185-8.56157L26.9185-22.9181Z" fill="#FF0000" transform="matrix(1.00486 0 0 1 4099.65 1407.37)"/><path d="M10.8671-16.1511 18.17-16.1511C18.5688-16.1511 19.1171-16.1511 19.1171-16.7244 19.1171-17.2977 18.5688-17.2976 18.17-17.2976L2.44261-17.2976C2.01889-17.2976 1.47055-17.2976 1.47055-16.7244 1.47055-16.1511 2.01889-16.1511 2.44261-16.1511L9.72056-16.1511 9.72056-0.972056C9.72056-0.548339 9.72056 0 10.2939 0 10.8671 0 10.8671-0.548339 10.8671-0.947132L10.8671-16.1511Z" fill="#FF0000" transform="matrix(1.00486 0 0 1 4132.02 1391.93)"/><path d="M14.0948-15.9642C14.0948-16.6745 14.0948-16.9362 13.534-16.9362 13.3097-16.9362 13.2349-16.9362 12.6741-16.5997 12.5246-16.4876 12.1133-16.2259 11.9264-16.1137 10.8796-16.7119 9.49625-16.9362 8.15034-16.9362 7.02872-16.9362 1.4207-16.9362 1.4207-12.0759 1.4207-8.15034 6.05667-7.32781 7.21567-7.14089 8.22511-6.95395 9.45888-6.72963 9.60842-6.72963 11.1039-6.39314 12.5994-5.45846 12.5994-3.88824 12.5994-1.00945 9.19715-1.00945 8.41203-1.00945 6.50531-1.00945 4.14993-1.60763 3.10311-5.23414 2.87879-5.9819 2.8414-6.01927 2.20582-6.01927 1.4207-6.01927 1.4207-5.90713 1.4207-5.04723L1.4207-0.747735C1.4207-0.0373869 1.4207 0.224321 1.9815 0.224321 2.24321 0.224321 2.31798 0.224321 3.06572-0.373869L4.03778-1.08422C5.72018 0.224321 7.73907 0.224321 8.41203 0.224321 10.4683 0.224321 15.1417-0.224321 15.1417-5.19677 15.1417-6.99135 14.1696-8.22511 13.4219-8.89806 11.889-10.1692 10.6179-10.3935 8.59897-10.7674 6.20622-11.1787 3.96301-11.5899 3.96301-13.3845 3.96301-15.8146 7.29044-15.8146 8.07557-15.8146 12.2255-15.8146 12.4498-13.1975 12.5246-12.2629 12.562-11.7769 12.8611-11.7769 13.3097-11.7769 14.0948-11.7769 14.0948-11.889 14.0948-12.7489L14.0948-15.9642Z" transform="matrix(1.00486 0 0 1 4154.4 1407.37)"/><path d="M6.60501-11.8142C6.72963-12.1382 6.82932-12.3127 6.82932-12.562 6.82932-13.3845 6.0816-13.9328 5.38369-13.9328 4.38672-13.9328 4.11256-13.0605 4.01286-12.7115L0.847435-1.96904C0.747735-1.66995 0.747735-1.59517 0.747735-1.57025 0.747735-1.34593 0.897284-1.29608 1.14653-1.2213 1.59517-1.02191 1.64502-1.02191 1.69487-1.02191 1.76964-1.02191 1.91919-1.02191 2.09366-1.44563L6.60501-11.8142Z" transform="matrix(1.00486 0 0 1 4171.01 1391.93)"/><path d="M10.5431-9.30933C10.5431-12.1507 10.1692-16.7867 8.07557-21.1236 5.86973-25.61 2.80401-28.0401 2.39276-28.0401 2.24321-28.0401 2.05627-27.9654 2.05627-27.741 2.05627-27.6289 2.05627-27.5541 2.69185-26.9185 6.43054-23.1424 8.5242-16.9736 8.5242-9.3467 8.5242-2.09366 6.76703 4.14993 2.43014 8.56157 2.05627 8.89806 2.05627 8.97284 2.05627 9.08501 2.05627 9.30933 2.24321 9.3841 2.39276 9.3841 2.87879 9.3841 5.9445 6.69226 7.77644 3.02833 9.68319-0.785125 10.5431-4.82291 10.5431-9.30933Z" transform="matrix(1.00486 0 0 1 4179.79 1407.37)"/><path d="M10.8671-16.1511 18.17-16.1511C18.5688-16.1511 19.1171-16.1511 19.1171-16.7244 19.1171-17.2977 18.5688-17.2976 18.17-17.2976L2.44261-17.2976C2.01889-17.2976 1.47055-17.2976 1.47055-16.7244 1.47055-16.1511 2.01889-16.1511 2.44261-16.1511L9.72056-16.1511 9.72056-0.972056C9.72056-0.548339 9.72056 0 10.2939 0 10.8671 0 10.8671-0.548339 10.8671-0.947132L10.8671-16.1511Z" transform="matrix(1.00486 0 0 1 4194.04 1391.93)"/><path d="M17.1979-12.1881C17.497-12.4872 17.6092-12.562 17.6092-12.8237 17.6092-12.9358 17.6092-13.0106 17.3101-13.3845L8.89806-24.0397 16.8615-24.0397C22.2825-24.0397 25.6474-23.105 26.4325-16.7867L28.0027-16.7867 26.9185-25.6474 3.4022-25.6474C2.35537-25.6474 2.31798-25.4978 2.31798-24.451L13.1228-10.7674 2.72924-1.19638C2.57969-1.04683 2.31798-0.785125 2.31798-0.560804 2.31798 0 2.91617 0 3.4022 0L26.9185 0 28.0027-9.49625 26.4325-9.49625C25.6847-3.02833 22.0208-2.24321 16.7119-2.24321L6.39314-2.24321 17.1979-12.1881Z" fill="#0070C0" transform="matrix(1.00486 0 0 1 4216.31 1407.37)"/><path d="M17.4223-5.65789C17.8211-5.65789 18.3694-5.65789 18.3694-6.23114 18.3694-6.8044 17.8211-6.8044 17.4223-6.8044L3.14048-6.8044C2.7417-6.8044 2.19336-6.8044 2.19336-6.23114 2.19336-5.65789 2.7417-5.65789 3.14048-5.65789L17.4223-5.65789Z" fill="#0070C0" transform="matrix(1.00486 0 0 1 4246.83 1391.58)"/><path d="M7.82632-15.8769C7.82632-16.5499 7.77644-16.5748 7.10349-16.5748 6.0816-15.5778 4.76058-14.9797 2.39276-14.9797L2.39276-14.1571C3.06572-14.1571 4.41165-14.1571 5.85728-14.8301L5.85728-2.04381C5.85728-1.1216 5.78251-0.822511 3.41468-0.822511L2.5423-0.822511 2.5423 0C3.56422-0.0747735 5.70774-0.0747735 6.82932-0.0747735 7.95091-0.0747735 10.1194-0.0747735 11.1413 0L11.1413-0.822511 10.2689-0.822511C7.9011-0.822511 7.82632-1.1216 7.82632-2.04381L7.82632-15.8769Z" fill="#0070C0" transform="matrix(1.00486 0 0 1 4267.45 1391.58)"/><path d="M12.7115-3.48945C15.0295-6.03175 15.852-9.27193 15.852-9.47132 15.852-9.69564 15.7025-9.79534 15.4781-9.79534 15.1541-9.79534 15.1292-9.69564 14.9797-9.17223 14.2818-6.62993 12.7863-4.68581 12.7115-4.68581 12.6617-4.68581 12.6617-5.30892 12.6617-5.70774 12.6118-10.0945 9.77041-10.9917 8.07557-10.9917 4.56119-10.9917 1.09668-7.57705 1.09668-4.06271 1.09668-1.59517 2.81648 0.249245 5.45846 0.249245 7.20319 0.249245 9.04761-0.373869 11.0167-1.84442 11.565 0.124623 13.0106 0.249245 13.4593 0.249245 14.88 0.249245 15.7025-1.02191 15.7025-1.49547 15.7025-1.79457 15.4034-1.79457 15.3286-1.79457 15.0544-1.79457 15.0046-1.71979 14.9298-1.54532 14.531-0.49849 13.6836-0.448642 13.559-0.448642 13.21-0.448642 12.8112-0.448642 12.7115-3.48945ZM10.8422-2.66693C9.07253-1.07176 6.97887-0.448642 5.53324-0.448642 4.23718-0.448642 3.11557-1.19638 3.11557-3.19033 3.11557-4.06271 3.51437-6.62993 4.68581-8.29988 5.68281-9.69564 7.02872-10.2939 8.05064-10.2939 9.42147-10.2939 10.1942-9.32178 10.5182-7.8014 10.892-6.10652 10.6926-4.11256 10.8422-2.66693Z" fill="#0070C0" transform="matrix(1.00486 0 0 1 4246.83 1416.61)"/><path d="M12.1507 9.08501C12.1507 8.97284 12.1507 8.89806 11.5151 8.26248 7.77644 4.48642 5.68281-1.68241 5.68281-9.30933 5.68281-16.5624 7.43998-22.806 11.7769-27.2176 12.1507-27.5541 12.1507-27.6289 12.1507-27.741 12.1507-27.9654 11.9638-28.0401 11.8142-28.0401 11.3282-28.0401 8.26248-25.3483 6.43054-21.6844 4.52382-17.9083 3.66392-13.9079 3.66392-9.30933 3.66392-5.9819 4.18733-1.53286 6.13145 2.46753 8.33725 6.95395 11.403 9.3841 11.8142 9.3841 11.9638 9.3841 12.1507 9.30933 12.1507 9.08501Z" transform="matrix(1.00486 0 0 1 4282.4 1407.37)"/><path d="M26.9185-22.9181C26.9185-23.7406 26.9559-23.778 27.928-23.9276 28.6009-24.0023 29.3487-24.0397 30.0216-24.0397L30.8815-24.0397 30.8815-25.6474C30.0216-25.5726 27.1055-25.5726 26.0586-25.5726 25.0118-25.5726 22.0956-25.5726 21.2357-25.6474L21.2357-24.0397 22.0956-24.0397C23.105-24.0397 23.1798-24.0397 24.0771-23.9276 25.1613-23.778 25.1987-23.7406 25.1987-22.9181L25.1987-8.67375C25.1987-3.32743 21.4226-1.15899 17.011-1.15899 10.4683-1.15899 10.3188-6.16882 10.3188-8.33725L10.3188-24.0397 14.2818-24.0397 14.2818-25.6474C13.1975-25.5726 9.19715-25.5726 7.85125-25.5726 6.50534-25.5726 2.50492-25.5726 1.4207-25.6474L1.4207-24.0397 5.38369-24.0397 5.38369-8.59897C5.38369-3.66392 9.3467 0.448642 16.8615 0.448642 23.778 0.448642 26.9185-3.85084 26.9185-8.56157L26.9185-22.9181Z" fill="#FF0000" transform="matrix(1.00486 0 0 1 4296.65 1407.37)"/><path d="M10.8671-16.1511 18.17-16.1511C18.5688-16.1511 19.1171-16.1511 19.1171-16.7244 19.1171-17.2977 18.5688-17.2976 18.17-17.2976L2.44261-17.2976C2.01889-17.2976 1.47055-17.2976 1.47055-16.7244 1.47055-16.1511 2.01889-16.1511 2.44261-16.1511L9.72056-16.1511 9.72056-0.972056C9.72056-0.548339 9.72056 0 10.2939 0 10.8671 0 10.8671-0.548339 10.8671-0.947132L10.8671-16.1511Z" fill="#FF0000" transform="matrix(1.00486 0 0 1 4329.01 1391.93)"/><path d="M14.0948-15.9642C14.0948-16.6745 14.0948-16.9362 13.534-16.9362 13.3097-16.9362 13.2349-16.9362 12.6741-16.5997 12.5246-16.4876 12.1133-16.2259 11.9264-16.1137 10.8796-16.7119 9.49625-16.9362 8.15034-16.9362 7.02872-16.9362 1.4207-16.9362 1.4207-12.0759 1.4207-8.15034 6.05667-7.32781 7.21567-7.14089 8.22511-6.95395 9.45888-6.72963 9.60842-6.72963 11.1039-6.39314 12.5994-5.45846 12.5994-3.88824 12.5994-1.00945 9.19715-1.00945 8.41203-1.00945 6.50531-1.00945 4.14993-1.60763 3.10311-5.23414 2.87879-5.9819 2.8414-6.01927 2.20582-6.01927 1.4207-6.01927 1.4207-5.90713 1.4207-5.04723L1.4207-0.747735C1.4207-0.0373869 1.4207 0.224321 1.9815 0.224321 2.24321 0.224321 2.31798 0.224321 3.06572-0.373869L4.03778-1.08422C5.72018 0.224321 7.73907 0.224321 8.41203 0.224321 10.4683 0.224321 15.1417-0.224321 15.1417-5.19677 15.1417-6.99135 14.1696-8.22511 13.4219-8.89806 11.889-10.1692 10.6179-10.3935 8.59897-10.7674 6.20622-11.1787 3.96301-11.5899 3.96301-13.3845 3.96301-15.8146 7.29044-15.8146 8.07557-15.8146 12.2255-15.8146 12.4498-13.1975 12.5246-12.2629 12.562-11.7769 12.8611-11.7769 13.3097-11.7769 14.0948-11.7769 14.0948-11.889 14.0948-12.7489L14.0948-15.9642Z" transform="matrix(1.00486 0 0 1 4351.4 1407.37)"/><path d="M24.6379-8.59897C25.2735-8.59897 25.9465-8.59897 25.9465-9.3467 25.9465-10.0944 25.2735-10.0945 24.6379-10.0945L4.41165-10.0945C3.77606-10.0945 3.10311-10.0945 3.10311-9.3467 3.10311-8.59894 3.77606-8.59897 4.41165-8.59897L24.6379-8.59897Z" transform="matrix(1.00486 0 0 1 4376.35 1407.37)"/><path d="M26.9185-22.9181C26.9185-23.7406 26.9559-23.778 27.928-23.9276 28.6009-24.0023 29.3487-24.0397 30.0216-24.0397L30.8815-24.0397 30.8815-25.6474C30.0216-25.5726 27.1055-25.5726 26.0586-25.5726 25.0118-25.5726 22.0956-25.5726 21.2357-25.6474L21.2357-24.0397 22.0956-24.0397C23.105-24.0397 23.1798-24.0397 24.0771-23.9276 25.1613-23.778 25.1987-23.7406 25.1987-22.9181L25.1987-8.67375C25.1987-3.32743 21.4226-1.15899 17.011-1.15899 10.4683-1.15899 10.3188-6.16882 10.3188-8.33725L10.3188-24.0397 14.2818-24.0397 14.2818-25.6474C13.1975-25.5726 9.19715-25.5726 7.85125-25.5726 6.50534-25.5726 2.50492-25.5726 1.4207-25.6474L1.4207-24.0397 5.38369-24.0397 5.38369-8.59897C5.38369-3.66392 9.3467 0.448642 16.8615 0.448642 23.778 0.448642 26.9185-3.85084 26.9185-8.56157L26.9185-22.9181Z" fill="#FF0000" transform="matrix(1.00486 0 0 1 4413.81 1407.37)"/><path d="M10.8671-16.1511 18.17-16.1511C18.5688-16.1511 19.1171-16.1511 19.1171-16.7244 19.1171-17.2977 18.5688-17.2976 18.17-17.2976L2.44261-17.2976C2.01889-17.2976 1.47055-17.2976 1.47055-16.7244 1.47055-16.1511 2.01889-16.1511 2.44261-16.1511L9.72056-16.1511 9.72056-0.972056C9.72056-0.548339 9.72056 0 10.2939 0 10.8671 0 10.8671-0.548339 10.8671-0.947132L10.8671-16.1511Z" fill="#FF0000" transform="matrix(1.00486 0 0 1 4446.17 1391.93)"/><path d="M14.0948-15.9642C14.0948-16.6745 14.0948-16.9362 13.534-16.9362 13.3097-16.9362 13.2349-16.9362 12.6741-16.5997 12.5246-16.4876 12.1133-16.2259 11.9264-16.1137 10.8796-16.7119 9.49625-16.9362 8.15034-16.9362 7.02872-16.9362 1.4207-16.9362 1.4207-12.0759 1.4207-8.15034 6.05667-7.32781 7.21567-7.14089 8.22511-6.95395 9.45888-6.72963 9.60842-6.72963 11.1039-6.39314 12.5994-5.45846 12.5994-3.88824 12.5994-1.00945 9.19715-1.00945 8.41203-1.00945 6.50531-1.00945 4.14993-1.60763 3.10311-5.23414 2.87879-5.9819 2.8414-6.01927 2.20582-6.01927 1.4207-6.01927 1.4207-5.90713 1.4207-5.04723L1.4207-0.747735C1.4207-0.0373869 1.4207 0.224321 1.9815 0.224321 2.24321 0.224321 2.31798 0.224321 3.06572-0.373869L4.03778-1.08422C5.72018 0.224321 7.73907 0.224321 8.41203 0.224321 10.4683 0.224321 15.1417-0.224321 15.1417-5.19677 15.1417-6.99135 14.1696-8.22511 13.4219-8.89806 11.889-10.1692 10.6179-10.3935 8.59897-10.7674 6.20622-11.1787 3.96301-11.5899 3.96301-13.3845 3.96301-15.8146 7.29044-15.8146 8.07557-15.8146 12.2255-15.8146 12.4498-13.1975 12.5246-12.2629 12.562-11.7769 12.8611-11.7769 13.3097-11.7769 14.0948-11.7769 14.0948-11.889 14.0948-12.7489L14.0948-15.9642Z" transform="matrix(1.00486 0 0 1 4468.56 1407.37)"/><path d="M6.60501-11.8142C6.72963-12.1382 6.82932-12.3127 6.82932-12.562 6.82932-13.3845 6.0816-13.9328 5.38369-13.9328 4.38672-13.9328 4.11256-13.0605 4.01286-12.7115L0.847435-1.96904C0.747735-1.66995 0.747735-1.59517 0.747735-1.57025 0.747735-1.34593 0.897284-1.29608 1.14653-1.2213 1.59517-1.02191 1.64502-1.02191 1.69487-1.02191 1.76964-1.02191 1.91919-1.02191 2.09366-1.44563L6.60501-11.8142Z" transform="matrix(1.00486 0 0 1 4485.17 1391.93)"/><path d="M10.5431-9.30933C10.5431-12.1507 10.1692-16.7867 8.07557-21.1236 5.86973-25.61 2.80401-28.0401 2.39276-28.0401 2.24321-28.0401 2.05627-27.9654 2.05627-27.741 2.05627-27.6289 2.05627-27.5541 2.69185-26.9185 6.43054-23.1424 8.5242-16.9736 8.5242-9.3467 8.5242-2.09366 6.76703 4.14993 2.43014 8.56157 2.05627 8.89806 2.05627 8.97284 2.05627 9.08501 2.05627 9.30933 2.24321 9.3841 2.39276 9.3841 2.87879 9.3841 5.9445 6.69226 7.77644 3.02833 9.68319-0.785125 10.5431-4.82291 10.5431-9.30933Z" transform="matrix(1.00486 0 0 1 4493.95 1407.37)"/><path d="M19.7028 43.3687C19.7028 28.6757 16.338 13.8705 6.8418 2.69185 6.09405 1.83195 4.67337 0.299094 3.14048-1.04683 2.69185-1.49547 2.61708-1.49547 2.09366-1.49547 1.64502-1.49547 1.30854-1.49547 1.30854-1.1216 1.30854-0.972056 1.45809-0.822511 1.53286-0.747735 2.8414 0.59819 5.34632 3.10311 7.85125 7.14089 13.8705 16.7867 16.5997 28.9374 16.5997 43.3312 16.5997 53.3885 15.2538 66.3615 9.08501 77.503 6.13145 82.8118 3.02833 85.915 1.45809 87.4852 1.38331 87.5975 1.30854 87.7094 1.30854 87.8217 1.30854 88.1954 1.64502 88.1954 2.09366 88.1954 2.61708 88.1954 2.69185 88.1954 3.25266 87.6347 15.7772 76.2318 19.7028 59.1085 19.7028 43.3687Z" transform="matrix(1.00486 0 0 1 4508.2 1354.65)"/></g></svg>