<svg width="3469" height="674" xmlns="http://www.w3.org/2000/svg" xmlns:xlink="http://www.w3.org/1999/xlink" xml:space="preserve" overflow="hidden"><g transform="translate(-349 -6944)"><rect x="2804.5" y="6947.5" width="1010" height="355" stroke="#7030A0" stroke-width="6.875" stroke-linejoin="round" stroke-miterlimit="10" fill="none"/><text fill="#344854" font-family="Arial,Arial_MSFontService,sans-serif" font-weight="400" font-size="64" transform="matrix(1 0 0 1 2837.21 7487)">Normalize input gradients to unit </text><text fill="#344854" font-family="Arial,Arial_MSFontService,sans-serif" font-weight="400" font-size="64" transform="matrix(1 0 0 1 2837.21 7564)">vectors.</text><path d="M3306.24 7408.76 3306.1 7325.42 3312.98 7325.41 3313.12 7408.75ZM3295.8 7330.02 3309.5 7302.5 3323.3 7329.98Z" fill="#7030A0"/><rect x="1337.5" y="7124.5" width="139" height="109" stroke="#006464" stroke-width="6.875" stroke-linejoin="round" stroke-miterlimit="10" fill="none"/><text fill="#344854" font-family="Arial,Arial_MSFontService,sans-serif" font-weight="400" font-size="64" transform="matrix(1 0 0 1 443.459 7487)">A scalar adaptively adjusted </text><text fill="#344854" font-family="Arial,Arial_MSFontService,sans-serif" font-weight="400" font-size="64" transform="matrix(1 0 0 1 443.459 7564)">to prevent kernel vanishing.</text><rect x="1920.5" y="7030.5" width="87" height="137" stroke="#4472C4" stroke-width="6.875" stroke-linejoin="round" stroke-miterlimit="10" fill="none"/><text fill="#344854" font-family="Arial,Arial_MSFontService,sans-serif" font-weight="400" font-size="64" transform="matrix(1 0 0 1 1576.02 7487)">Diagonal matrix containing </text><text fill="#344854" font-family="Arial,Arial_MSFontService,sans-serif" font-weight="400" font-size="64" transform="matrix(1 0 0 1 1576.02 7564)">the </text><text fill="#344854" font-family="Arial,Arial_MSFontService,sans-serif" font-weight="400" font-size="64" transform="matrix(1 0 0 1 1682.59 7564)">lengthscales</text><text fill="#344854" font-family="Arial,Arial_MSFontService,sans-serif" font-weight="400" font-size="64" transform="matrix(1 0 0 1 2038.37 7564)">.</text><path d="M3.4375-5.13963e-06 3.43783 218.456-3.43717 218.456-3.4375 5.13963e-06ZM13.7503 213.873 0.000360892 241.373-13.7497 213.873Z" fill="#4472C4" transform="matrix(1 0 0 -1 1963.5 7408.87)"/><rect x="961.5" y="6947.5" width="1606" height="355" stroke="#ED7D31" stroke-width="6.875" stroke-linejoin="round" stroke-miterlimit="10" fill="none"/><g><g><g><path d="M23.0661-27.0728C26.6397-29.0221 30.6464-32.3792 33.3537-34.6532 39.8512-40.2844 42.2337-42.0171 46.3487-43.6414 45.9155-42.9917 45.8073-42.1253 45.8073-41.3673 45.8073-38.4434 48.2979-37.902 49.3809-37.902 52.8462-37.902 54.7955-41.1507 54.7955-43.2082 54.7955-43.858 54.5788-46.6736 50.7886-46.6736 44.2911-46.6736 37.902-41.1507 33.1371-37.1439 26.8562-31.6211 23.7158-29.2387 19.2759-27.8309L23.391-45.0492C23.391-46.7818 21.9832-47.7565 20.5753-47.7565 19.6008-47.7565 17.2183-47.4316 16.352-43.9663L6.2809-3.7902C5.95602-2.4907 5.95602-2.27412 5.95602-1.62437 5.95602-0.108292 7.14723 1.08292 8.7716 1.08292 12.0203 1.08292 12.67-1.73266 13.2115-4.00678 13.8613-6.2809 18.3012-24.3655 18.5178-25.0153 32.2708-24.3655 36.9273-20.9003 36.9273-15.5939 36.9273-14.8359 36.9273-14.511 36.6025-13.3199 36.1693-11.2623 36.1693-10.0711 36.1693-9.42135 36.1693-2.92387 40.3927 1.08292 45.6989 1.08292 50.1389 1.08292 52.6296-2.05753 54.254-4.87312 56.5281-9.09644 57.9358-15.0525 57.9358-15.4857 57.9358-16.0271 57.5027-16.4603 56.8529-16.4603 55.8784-16.4603 55.77-16.0271 55.3369-14.2944 53.9291-9.09644 51.5467-1.08292 46.0239-1.08292 43.6414-1.08292 42.4502-2.4907 42.4502-6.2809 42.4502-8.33844 42.8834-10.7208 43.3166-12.3452 43.5331-13.4281 43.858-14.7276 43.858-15.9188 43.858-25.7733 30.2133-26.748 23.0661-27.0728Z" fill="#C44E52" transform="matrix(1 0 0 1.00275 358.349 7133.46)"/><path d="M35.1947 26.3148C35.1947 25.9899 35.1947 25.7733 33.3537 23.9324 22.5246 12.995 16.4603-4.87312 16.4603-26.9646 16.4603-47.9731 21.55-66.0577 34.1118-78.8361 35.1947-79.8107 35.1947-80.0273 35.1947-80.3521 35.1947-81.002 34.6532-81.2186 34.22-81.2186 32.8123-81.2186 23.9324-73.4215 18.6261-62.809 13.1033-51.8716 10.6126-40.2844 10.6126-26.9646 10.6126-17.3266 12.1286-4.43995 17.7598 7.14723 24.1489 20.1422 33.0289 27.1812 34.22 27.1812 34.6532 27.1812 35.1947 26.9646 35.1947 26.3148Z" transform="matrix(1 0 0 1.00275 419.387 7133.46)"/><path d="M40.8259-46.2404C40.8259-48.2979 40.8259-49.056 39.2015-49.056 38.5517-49.056 38.3351-49.056 36.7108-48.0813 36.2776-47.7565 35.0864-46.9984 34.545-46.6736 31.5127-48.4062 27.506-49.056 23.6075-49.056 20.3588-49.056 4.11507-49.056 4.11507-34.9781 4.11507-23.6075 17.5432-21.2251 20.9003-20.6837 23.8241-20.1422 27.3977-19.4924 27.8309-19.4924 32.1625-18.5178 36.4942-15.8105 36.4942-11.2623 36.4942-2.92387 26.6397-2.92387 24.3655-2.92387 18.8427-2.92387 12.0203-4.65653 8.98818-15.1608 8.33844-17.3266 8.23015-17.4349 6.38919-17.4349 4.11507-17.4349 4.11507-17.1101 4.11507-14.6194L4.11507-2.16582C4.11507-0.108292 4.11507 0.649748 5.73944 0.649748 6.49748 0.649748 6.71406 0.649748 8.87989-1.08292L11.6955-3.14045C16.5686 0.649748 22.4163 0.649748 24.3655 0.649748 30.3216 0.649748 43.858-0.649748 43.858-15.0525 43.858-20.2505 41.0424-23.8241 38.8766-25.7733 34.4366-29.4553 30.7548-30.105 24.907-31.1879 17.9764-32.3792 11.4789-33.5703 11.4789-38.7683 11.4789-45.8073 21.1168-45.8073 23.391-45.8073 35.4113-45.8073 36.061-38.2268 36.2776-35.5196 36.3859-34.1118 37.2522-34.1118 38.5517-34.1118 40.8259-34.1118 40.8259-34.4366 40.8259-36.9273L40.8259-46.2404Z" transform="matrix(1 0 0 1.00275 460.469 7133.46)"/><path d="M21.5139-45.0492C21.5139-46.6375 20.3588-47.7925 18.6983-47.7925 16.8213-47.7925 14.7276-46.0599 14.7276-43.8941 14.7276-42.3059 15.8827-41.1507 17.5432-41.1507 19.4202-41.1507 21.5139-42.8834 21.5139-45.0492ZM10.9736-18.5539 7.07504-8.59111C6.71406-7.5082 6.35309-6.64187 6.35309-5.41456 6.35309-1.87705 9.09644 0.721942 12.9228 0.721942 19.9256 0.721942 22.8856-9.38521 22.8856-10.3238 22.8856-11.0457 22.308-11.2623 21.8026-11.2623 20.9363-11.2623 20.7919-10.757 20.5753-10.035 18.9149-4.25946 15.9549-1.2995 13.0672-1.2995 12.2008-1.2995 11.3345-1.66047 11.3345-3.60972 11.3345-5.34237 11.8399-6.64187 12.7784-8.87989 13.5003-10.8292 14.2222-12.7784 15.0164-14.7276L17.2545-20.5753C17.9042-22.2358 18.7705-24.4739 18.7705-25.7011 18.7705-29.3109 15.8827-31.8377 12.2008-31.8377 5.19798-31.8377 2.16582-21.7304 2.16582-20.7919 2.16582-20.1422 2.67119-19.8534 3.24874-19.8534 4.18727-19.8534 4.25946-20.2866 4.47604-21.0085 6.49748-27.8669 9.81846-29.8163 11.9843-29.8163 12.995-29.8163 13.7169-29.4553 13.7169-27.4338 13.7169-26.7119 13.6447-25.7011 12.9228-23.5354L10.9736-18.5539Z" transform="matrix(1 0 0 1.00275 508.344 7149.74)"/><path d="M21.1168 0.433166C21.1168-5.84773 19.0593-10.5042 14.6194-10.5042 11.154-10.5042 9.42135-7.68869 9.42135-5.30627 9.42135-2.92386 11.0457 0 14.7276 0 16.1354 0 17.3266-0.433166 18.3012-1.40779 18.5178-1.62437 18.6261-1.62437 18.7344-1.62437 18.9509-1.62437 18.9509-0.108292 18.9509 0.433166 18.9509 4.00678 18.3012 11.0457 12.0203 18.0846 10.8292 19.3842 10.8292 19.6008 10.8292 19.8174 10.8292 20.3588 11.3706 20.9003 11.9121 20.9003 12.7784 20.9003 21.1168 12.8867 21.1168 0.433166Z" transform="matrix(1 0 0 1.00275 538.972 7133.46)"/><path d="M40.8259-46.2404C40.8259-48.2979 40.8259-49.056 39.2015-49.056 38.5517-49.056 38.3351-49.056 36.7108-48.0813 36.2776-47.7565 35.0864-46.9984 34.545-46.6736 31.5127-48.4062 27.506-49.056 23.6075-49.056 20.3588-49.056 4.11507-49.056 4.11507-34.9781 4.11507-23.6075 17.5432-21.2251 20.9003-20.6837 23.8241-20.1422 27.3977-19.4924 27.8309-19.4924 32.1625-18.5178 36.4942-15.8105 36.4942-11.2623 36.4942-2.92387 26.6397-2.92387 24.3655-2.92387 18.8427-2.92387 12.0203-4.65653 8.98818-15.1608 8.33844-17.3266 8.23015-17.4349 6.38919-17.4349 4.11507-17.4349 4.11507-17.1101 4.11507-14.6194L4.11507-2.16582C4.11507-0.108292 4.11507 0.649748 5.73944 0.649748 6.49748 0.649748 6.71406 0.649748 8.87989-1.08292L11.6955-3.14045C16.5686 0.649748 22.4163 0.649748 24.3655 0.649748 30.3216 0.649748 43.858-0.649748 43.858-15.0525 43.858-20.2505 41.0424-23.8241 38.8766-25.7733 34.4366-29.4553 30.7548-30.105 24.907-31.1879 17.9764-32.3792 11.4789-33.5703 11.4789-38.7683 11.4789-45.8073 21.1168-45.8073 23.391-45.8073 35.4113-45.8073 36.061-38.2268 36.2776-35.5196 36.3859-34.1118 37.2522-34.1118 38.5517-34.1118 40.8259-34.1118 40.8259-34.4366 40.8259-36.9273L40.8259-46.2404Z" transform="matrix(1 0 0 1.00275 586.364 7133.46)"/><path d="M29.8163-45.0492C29.8163-46.4209 28.7333-47.7925 27.0006-47.7925 24.8348-47.7925 22.9578-45.7711 22.9578-43.8941 22.9578-42.5224 24.0407-41.1507 25.7733-41.1507 27.9391-41.1507 29.8163-43.1722 29.8163-45.0492ZM14.7276 3.60972C13.6447 8.01356 10.1072 12.7062 5.70335 12.7062 4.54824 12.7062 3.46532 12.4174 3.32093 12.3452 5.55896 11.2623 5.84773 9.31302 5.84773 8.6633 5.84773 6.93065 4.54824 5.99212 3.03216 5.99212 0.938521 5.99212-1.01072 7.79698-1.01072 10.1794-1.01072 12.9228 1.66047 14.7276 5.77554 14.7276 10.1794 14.7276 18.1208 11.9843 20.2866 3.32093L26.784-22.5246C27.0006-23.391 27.145-23.9685 27.145-25.0514 27.145-29.0221 23.9685-31.8377 19.7812-31.8377 12.1286-31.8377 7.65259-21.7304 7.65259-20.7919 7.65259-20.1422 8.15795-19.8534 8.73551-19.8534 9.5296-19.8534 9.60179-20.07 10.1072-21.1529 12.273-26.1343 15.9549-29.8163 19.5646-29.8163 21.0807-29.8163 21.947-28.8055 21.947-26.4231 21.947-25.4124 21.7304-24.4017 21.5139-23.391L14.7276 3.60972Z" transform="matrix(1 0 0 1.00275 634.239 7149.74)"/><path d="M19.9256-41.4756C19.9256-44.3995 17.4349-46.6736 14.7276-46.6736 11.5871-46.6736 9.42135-44.1829 9.42135-41.4756 9.42135-38.2268 12.1286-36.1693 14.6194-36.1693 17.5432-36.1693 19.9256-38.4434 19.9256-41.4756ZM18.0846-1.08292C18.0846 2.70728 18.0846 10.396 11.4789 18.5178 10.8292 19.3842 10.8292 19.6008 10.8292 19.8174 10.8292 20.3588 11.3706 20.9003 11.9121 20.9003 12.67 20.9003 20.2505 12.8867 20.2505 0.216582 20.2505-3.7902 19.9256-10.5042 14.6194-10.5042 11.4789-10.5042 9.42135-8.12185 9.42135-5.30627 9.42135-2.38241 11.4789 0 14.7276 0 16.7852 0 17.5432-0.649748 18.0846-1.08292Z" transform="matrix(1 0 0 1.00275 673.933 7133.46)"/><path d="M49.814-35.3029C50.6804-36.1693 51.0052-36.3859 51.0052-37.1439 51.0052-37.4688 51.0052-37.6854 50.1389-38.7683L25.7733-69.6313 48.8394-69.6313C64.5416-69.6313 74.2879-66.924 76.562-48.6228L81.1102-48.6228 77.9698-74.2879 9.85451-74.2879C6.82236-74.2879 6.71406-73.8547 6.71406-70.8225L38.0102-31.1879 7.90527-3.46532C7.47211-3.03216 6.71406-2.27412 6.71406-1.62437 6.71406 0 8.44672 0 9.85451 0L77.9698 0 81.1102-27.506 76.562-27.506C74.3962-8.7716 63.7836-6.49748 48.4062-6.49748L18.5178-6.49748 49.814-35.3029Z" fill="#0070C0" transform="matrix(1 0 0 1.00275 721.325 7133.46)"/><path d="M30.5382-26.9646C30.5382-35.1947 29.4553-48.6228 23.391-61.1846 17.0017-74.1796 8.12185-81.2186 6.93065-81.2186 6.49748-81.2186 5.95602-81.002 5.95602-80.3521 5.95602-80.0273 5.95602-79.8107 7.79698-77.9698 18.6261-67.0324 24.6904-49.1643 24.6904-27.0728 24.6904-6.06431 19.6008 12.0203 7.03894 24.7987 5.95602 25.7733 5.95602 25.9899 5.95602 26.3148 5.95602 26.9646 6.49748 27.1812 6.93065 27.1812 8.33844 27.1812 17.2183 19.3842 22.5246 8.7716 28.0475-2.27412 30.5382-13.9696 30.5382-26.9646Z" transform="matrix(1 0 0 1.00275 809.312 7133.46)"/><path d="M73.0967-35.0864C74.6127-35.0864 76.562-35.0864 76.562-37.0357 76.562-39.0932 74.7211-39.0932 73.0967-39.0932L9.31302-39.0932C7.79698-39.0932 5.84773-39.0932 5.84773-37.1439 5.84773-35.0864 7.68869-35.0864 9.31302-35.0864L73.0967-35.0864ZM73.0967-14.9442C74.6127-14.9442 76.562-14.9442 76.562-16.8935 76.562-18.9509 74.7211-18.9509 73.0967-18.9509L9.31302-18.9509C7.79698-18.9509 5.84773-18.9509 5.84773-17.0017 5.84773-14.9442 7.68869-14.9442 9.31302-14.9442L73.0967-14.9442Z" transform="matrix(1 0 0 1.00275 880.477 7133.46)"/><path d="M41.4756-25.1236C43.858-25.1236 44.0746-25.1236 44.0746-27.1812 44.0746-38.1186 38.2268-48.2979 25.1236-48.2979 12.7784-48.2979 3.24874-37.1439 3.24874-23.7158 3.24874-9.42135 14.2944 1.08292 26.3148 1.08292 39.2015 1.08292 44.0746-10.6126 44.0746-12.8867 44.0746-13.5365 43.5331-13.9696 42.8834-13.9696 42.0171-13.9696 41.8004-13.4281 41.5838-12.8867 38.7683-3.7902 31.5127-1.2995 26.9646-1.2995 22.4164-1.2995 11.4789-4.33166 11.4789-23.0661L11.4789-25.1236 41.4756-25.1236ZM11.5871-27.1812C12.4535-44.1829 21.9832-46.1321 25.0153-46.1321 36.6025-46.1321 37.2522-30.863 37.3605-27.1812L11.5871-27.1812Z" transform="matrix(1 0 0 1.00275 992.716 7133.46)"/><path d="M30.3216-25.5568C33.4621-29.6719 38.0102-35.5196 40.0678-37.7936 44.5077-42.7751 49.5975-43.5331 53.0627-43.5331L53.0627-46.6736C48.4062-46.457 48.1897-46.457 43.9663-46.457 39.8512-46.457 39.6346-46.457 34.22-46.6736L34.22-43.5331C35.6279-43.3166 37.3605-42.6668 37.3605-40.1761 37.3605-38.3351 36.3859-37.1439 35.7362-36.2776L28.8055-27.506 20.3588-38.6601C20.0339-39.0932 19.3842-40.0678 19.3842-40.8259 19.3842-41.4756 19.9256-43.4248 23.1744-43.5331L23.1744-46.6736C20.4671-46.457 14.9442-46.457 12.0203-46.457 8.44672-46.457 8.23015-46.457 1.62437-46.6736L1.62437-43.5331C7.14723-43.5331 9.20477-43.3166 11.4789-40.3927L24.1489-23.8241C24.3655-23.6075 24.7987-22.9578 24.7987-22.6329 24.7987-22.308 16.352-11.6955 15.2691-10.2877 10.5042-4.43995 5.73944-3.24874 1.08292-3.14045L1.08292 0C5.19798-0.216582 5.41456-0.216582 10.0711-0.216582 14.1862-0.216582 14.4028-0.216582 19.8174 0L19.8174-3.14045C17.2183-3.46532 16.7852-5.08969 16.7852-6.60577 16.7852-8.33844 17.5432-9.20477 18.6261-10.6126 20.2505-12.8867 23.8241-17.3266 26.4231-20.6837L35.3029-9.09644C37.1439-6.71406 37.1439-6.49748 37.1439-5.84773 37.1439-4.9814 36.2776-3.24874 33.3537-3.14045L33.3537 0C36.1693-0.216582 41.4756-0.216582 44.5077-0.216582 48.0813-0.216582 48.2979-0.216582 54.7955 0L54.7955-3.14045C49.056-3.14045 47.1068-3.35703 44.5077-6.82236L30.3216-25.5568Z" transform="matrix(1 0 0 1.00275 1039.66 7133.46)"/><path d="M26.5314 17.868C19.6008 17.868 18.3012 17.868 18.3012 12.995L18.3012-5.84773C20.2505-3.14045 24.6904 1.08292 31.6211 1.08292 44.0746 1.08292 55.012-9.42135 55.012-23.391 55.012-37.1439 44.8326-47.7565 33.0289-47.7565 23.4992-47.7565 18.4095-40.9341 18.0846-40.5009L18.0846-47.7565 3.03216-46.5653 3.03216-43.4248C10.6126-43.4248 11.2623-42.6668 11.2623-37.902L11.2623 12.995C11.2623 17.868 10.0711 17.868 3.03216 17.868L3.03216 21.0085C5.84773 20.7919 11.6955 20.7919 14.7276 20.7919 17.868 20.7919 23.7158 20.7919 26.5314 21.0085L26.5314 17.868ZM18.3012-34.545C18.3012-36.6025 18.3012-36.7108 19.4924-38.4434 22.7412-43.3166 28.0475-45.3741 32.1625-45.3741 40.2844-45.3741 46.7818-35.5196 46.7818-23.391 46.7818-10.5042 39.418-1.08292 31.0796-1.08292 27.7226-1.08292 24.5821-2.4907 22.4163-4.54824 19.9256-7.03894 18.3012-9.20477 18.3012-12.2369L18.3012-34.545Z" transform="matrix(1 0 0 1.00275 1095.42 7133.46)"/><path d="M75.804 254.376C75.804 253.944 75.5874 253.727 75.3708 253.402 71.364 249.395 64.1085 242.14 56.8529 230.444 39.418 202.505 31.5127 167.31 31.5127 125.618 31.5127 96.488 35.4113 58.9105 53.2793 26.6397 61.8344 11.2623 70.7142 2.38241 75.4791-2.38241 75.804-2.70728 75.804-2.92387 75.804-3.24874 75.804-4.33166 75.0459-4.33166 73.5298-4.33166 72.0138-4.33166 71.7972-4.33166 70.1728-2.70728 33.8952 30.3216 22.5246 79.919 22.5246 125.509 22.5246 168.068 32.2708 210.952 59.7768 243.331 61.9427 245.821 66.0577 250.261 70.4976 254.16 71.7972 255.459 72.0138 255.459 73.5298 255.459 75.0459 255.459 75.804 255.459 75.804 254.376Z" transform="matrix(1 0 0 1.00275 1172.76 6980.34)"/><path d="M71.364-24.907C73.2049-24.907 75.1542-24.907 75.1542-27.0728 75.1542-29.2386 73.2049-29.2387 71.364-29.2387L12.7784-29.2387C10.9374-29.2387 8.98818-29.2387 8.98818-27.0728 8.98818-24.9069 10.9374-24.907 12.7784-24.907L71.364-24.907Z" transform="matrix(1 0 0 1.00275 1252.48 7133.46)"/><path d="M31.1879-69.4147C31.1879-71.9054 31.1879-72.0138 29.0221-72.0138 26.4231-69.0899 21.0085-65.0831 9.85451-65.0831L9.85451-61.9427C12.3452-61.9427 17.7598-61.9427 23.7158-64.7582L23.7158-8.33844C23.7158-4.43995 23.391-3.14045 13.8613-3.14045L10.5042-3.14045 10.5042 0C13.4281-0.216582 23.9324-0.216582 27.506-0.216582 31.0796-0.216582 41.4756-0.216582 44.3995 0L44.3995-3.14045 41.0424-3.14045C31.5127-3.14045 31.1879-4.43995 31.1879-8.33844L31.1879-69.4147Z" transform="matrix(1 0 0 1.00275 1377.74 7059.99)"/><path d="M1390.58 840.703 1504.64 840.703 1504.64 845.035 1390.58 845.035Z" transform="matrix(1 0 0 1.00275 -43.3696 6261.12)"/><path d="M47.6482-18.193 45.2658-18.193C44.9409-16.352 44.0746-10.396 42.9917-8.6633 42.2337-7.68869 36.061-7.68869 32.8123-7.68869L12.7784-7.68869C15.7023-10.1794 22.308-17.1101 25.1236-19.709 41.5838-34.8698 47.6482-40.5009 47.6482-51.2218 47.6482-63.6753 37.7936-72.0138 25.2318-72.0138 12.67-72.0138 5.30627-61.293 5.30627-51.9798 5.30627-46.457 10.0711-46.457 10.396-46.457 12.67-46.457 15.4857-48.0813 15.4857-51.5467 15.4857-54.5788 13.4281-56.6364 10.396-56.6364 9.42135-56.6364 9.20477-56.6364 8.87989-56.5281 10.9374-63.8919 16.7852-68.8733 23.8241-68.8733 33.0289-68.8733 38.6601-61.1846 38.6601-51.2218 38.6601-42.0171 33.3537-34.0035 27.1812-27.0728L5.30627-2.59899 5.30627 0 44.8326 0 47.6482-18.193Z" transform="matrix(1 0 0 1.00275 1347.21 7207.95)"/><path d="M30.4299-72.4469C30.5382-72.8801 30.7548-73.5298 30.7548-74.0712 30.7548-75.1542 29.6719-75.1542 29.4553-75.1542 29.347-75.1542 24.0407-74.7211 23.4992-74.6127 21.6582-74.5045 20.0339-74.2879 18.0846-74.1796 15.3773-73.963 14.6194-73.8547 14.6194-71.9054 14.6194-70.8225 15.4857-70.8225 17.0017-70.8225 22.308-70.8225 22.4163-69.8479 22.4163-68.765 22.4163-68.1153 22.1997-67.2489 22.0914-66.924L6.38919-4.22337C5.95602-2.59899 5.95602-2.38241 5.95602-1.73266 5.95602 0.649748 7.79698 1.08292 8.87989 1.08292 10.7208 1.08292 12.1286-0.324874 12.67-1.51608L17.5432-21.1168C18.0846-23.4992 18.7344-25.7733 19.2759-28.1557 20.4671-32.704 20.4671-32.8123 22.5246-35.9528 24.582-39.0932 29.4553-45.5907 37.7936-45.5907 42.1253-45.5907 43.6414-42.3419 43.6414-38.0102 43.6414-31.9459 39.418-20.1422 37.0357-13.6447 36.061-11.0457 35.5196-9.63793 35.5196-7.68869 35.5196-2.81557 38.8766 1.08292 44.0746 1.08292 54.1456 1.08292 57.9358-14.8359 57.9358-15.4857 57.9358-16.0271 57.5027-16.4603 56.8529-16.4603 55.8784-16.4603 55.77-16.1354 55.2286-14.2944 52.7379-5.63115 48.7311-1.08292 44.3995-1.08292 43.3166-1.08292 41.5838-1.19121 41.5838-4.65653 41.5838-7.47211 42.8834-10.9374 43.3166-12.1286 45.2658-17.3266 50.1389-30.105 50.1389-36.3859 50.1389-42.8834 46.3487-47.7565 38.1186-47.7565 31.9459-47.7565 26.5314-44.8326 22.0914-39.2015L30.4299-72.4469Z" fill="#006464" transform="matrix(1 0 0 1.00275 1400.03 7207.95)"/><path d="M35.1947 26.3148C35.1947 25.9899 35.1947 25.7733 33.3537 23.9324 22.5246 12.995 16.4603-4.87312 16.4603-26.9646 16.4603-47.9731 21.55-66.0577 34.1118-78.8361 35.1947-79.8107 35.1947-80.0273 35.1947-80.3521 35.1947-81.002 34.6532-81.2186 34.22-81.2186 32.8123-81.2186 23.9324-73.4215 18.6261-62.809 13.1033-51.8716 10.6126-40.2844 10.6126-26.9646 10.6126-17.3266 12.1286-4.43995 17.7598 7.14723 24.1489 20.1422 33.0289 27.1812 34.22 27.1812 34.6532 27.1812 35.1947 26.9646 35.1947 26.3148Z" transform="matrix(1 0 0 1.00275 1472.1 7133.46)"/><path d="M40.8259-46.2404C40.8259-48.2979 40.8259-49.056 39.2015-49.056 38.5517-49.056 38.3351-49.056 36.7108-48.0813 36.2776-47.7565 35.0864-46.9984 34.545-46.6736 31.5127-48.4062 27.506-49.056 23.6075-49.056 20.3588-49.056 4.11507-49.056 4.11507-34.9781 4.11507-23.6075 17.5432-21.2251 20.9003-20.6837 23.8241-20.1422 27.3977-19.4924 27.8309-19.4924 32.1625-18.5178 36.4942-15.8105 36.4942-11.2623 36.4942-2.92387 26.6397-2.92387 24.3655-2.92387 18.8427-2.92387 12.0203-4.65653 8.98818-15.1608 8.33844-17.3266 8.23015-17.4349 6.38919-17.4349 4.11507-17.4349 4.11507-17.1101 4.11507-14.6194L4.11507-2.16582C4.11507-0.108292 4.11507 0.649748 5.73944 0.649748 6.49748 0.649748 6.71406 0.649748 8.87989-1.08292L11.6955-3.14045C16.5686 0.649748 22.4163 0.649748 24.3655 0.649748 30.3216 0.649748 43.858-0.649748 43.858-15.0525 43.858-20.2505 41.0424-23.8241 38.8766-25.7733 34.4366-29.4553 30.7548-30.105 24.907-31.1879 17.9764-32.3792 11.4789-33.5703 11.4789-38.7683 11.4789-45.8073 21.1168-45.8073 23.391-45.8073 35.4113-45.8073 36.061-38.2268 36.2776-35.5196 36.3859-34.1118 37.2522-34.1118 38.5517-34.1118 40.8259-34.1118 40.8259-34.4366 40.8259-36.9273L40.8259-46.2404Z" transform="matrix(1 0 0 1.00275 1513.19 7133.46)"/><path d="M21.5139-45.0492C21.5139-46.6375 20.3588-47.7925 18.6983-47.7925 16.8213-47.7925 14.7276-46.0599 14.7276-43.8941 14.7276-42.3059 15.8827-41.1507 17.5432-41.1507 19.4202-41.1507 21.5139-42.8834 21.5139-45.0492ZM10.9736-18.5539 7.07504-8.59111C6.71406-7.5082 6.35309-6.64187 6.35309-5.41456 6.35309-1.87705 9.09644 0.721942 12.9228 0.721942 19.9256 0.721942 22.8856-9.38521 22.8856-10.3238 22.8856-11.0457 22.308-11.2623 21.8026-11.2623 20.9363-11.2623 20.7919-10.757 20.5753-10.035 18.9149-4.25946 15.9549-1.2995 13.0672-1.2995 12.2008-1.2995 11.3345-1.66047 11.3345-3.60972 11.3345-5.34237 11.8399-6.64187 12.7784-8.87989 13.5003-10.8292 14.2222-12.7784 15.0164-14.7276L17.2545-20.5753C17.9042-22.2358 18.7705-24.4739 18.7705-25.7011 18.7705-29.3109 15.8827-31.8377 12.2008-31.8377 5.19798-31.8377 2.16582-21.7304 2.16582-20.7919 2.16582-20.1422 2.67119-19.8534 3.24874-19.8534 4.18727-19.8534 4.25946-20.2866 4.47604-21.0085 6.49748-27.8669 9.81846-29.8163 11.9843-29.8163 12.995-29.8163 13.7169-29.4553 13.7169-27.4338 13.7169-26.7119 13.6447-25.7011 12.9228-23.5354L10.9736-18.5539Z" transform="matrix(1 0 0 1.00275 1561.06 7149.74)"/><path d="M71.364-24.907C73.2049-24.907 75.1542-24.907 75.1542-27.0728 75.1542-29.2386 73.2049-29.2387 71.364-29.2387L12.7784-29.2387C10.9374-29.2387 8.98818-29.2387 8.98818-27.0728 8.98818-24.9069 10.9374-24.907 12.7784-24.907L71.364-24.907Z" transform="matrix(1 0 0 1.00275 1615.75 7133.46)"/><path d="M40.8259-46.2404C40.8259-48.2979 40.8259-49.056 39.2015-49.056 38.5517-49.056 38.3351-49.056 36.7108-48.0813 36.2776-47.7565 35.0864-46.9984 34.545-46.6736 31.5127-48.4062 27.506-49.056 23.6075-49.056 20.3588-49.056 4.11507-49.056 4.11507-34.9781 4.11507-23.6075 17.5432-21.2251 20.9003-20.6837 23.8241-20.1422 27.3977-19.4924 27.8309-19.4924 32.1625-18.5178 36.4942-15.8105 36.4942-11.2623 36.4942-2.92387 26.6397-2.92387 24.3655-2.92387 18.8427-2.92387 12.0203-4.65653 8.98818-15.1608 8.33844-17.3266 8.23015-17.4349 6.38919-17.4349 4.11507-17.4349 4.11507-17.1101 4.11507-14.6194L4.11507-2.16582C4.11507-0.108292 4.11507 0.649748 5.73944 0.649748 6.49748 0.649748 6.71406 0.649748 8.87989-1.08292L11.6955-3.14045C16.5686 0.649748 22.4163 0.649748 24.3655 0.649748 30.3216 0.649748 43.858-0.649748 43.858-15.0525 43.858-20.2505 41.0424-23.8241 38.8766-25.7733 34.4366-29.4553 30.7548-30.105 24.907-31.1879 17.9764-32.3792 11.4789-33.5703 11.4789-38.7683 11.4789-45.8073 21.1168-45.8073 23.391-45.8073 35.4113-45.8073 36.061-38.2268 36.2776-35.5196 36.3859-34.1118 37.2522-34.1118 38.5517-34.1118 40.8259-34.1118 40.8259-34.4366 40.8259-36.9273L40.8259-46.2404Z" transform="matrix(1 0 0 1.00275 1723.72 7133.46)"/><path d="M29.8163-45.0492C29.8163-46.4209 28.7333-47.7925 27.0006-47.7925 24.8348-47.7925 22.9578-45.7711 22.9578-43.8941 22.9578-42.5224 24.0407-41.1507 25.7733-41.1507 27.9391-41.1507 29.8163-43.1722 29.8163-45.0492ZM14.7276 3.60972C13.6447 8.01356 10.1072 12.7062 5.70335 12.7062 4.54824 12.7062 3.46532 12.4174 3.32093 12.3452 5.55896 11.2623 5.84773 9.31302 5.84773 8.6633 5.84773 6.93065 4.54824 5.99212 3.03216 5.99212 0.938521 5.99212-1.01072 7.79698-1.01072 10.1794-1.01072 12.9228 1.66047 14.7276 5.77554 14.7276 10.1794 14.7276 18.1208 11.9843 20.2866 3.32093L26.784-22.5246C27.0006-23.391 27.145-23.9685 27.145-25.0514 27.145-29.0221 23.9685-31.8377 19.7812-31.8377 12.1286-31.8377 7.65259-21.7304 7.65259-20.7919 7.65259-20.1422 8.15795-19.8534 8.73551-19.8534 9.5296-19.8534 9.60179-20.07 10.1072-21.1529 12.273-26.1343 15.9549-29.8163 19.5646-29.8163 21.0807-29.8163 21.947-28.8055 21.947-26.4231 21.947-25.4124 21.7304-24.4017 21.5139-23.391L14.7276 3.60972Z" transform="matrix(1 0 0 1.00275 1771.61 7149.74)"/><path d="M30.5382-26.9646C30.5382-35.1947 29.4553-48.6228 23.391-61.1846 17.0017-74.1796 8.12185-81.2186 6.93065-81.2186 6.49748-81.2186 5.95602-81.002 5.95602-80.3521 5.95602-80.0273 5.95602-79.8107 7.79698-77.9698 18.6261-67.0324 24.6904-49.1643 24.6904-27.0728 24.6904-6.06431 19.6008 12.0203 7.03894 24.7987 5.95602 25.7733 5.95602 25.9899 5.95602 26.3148 5.95602 26.9646 6.49748 27.1812 6.93065 27.1812 8.33844 27.1812 17.2183 19.3842 22.5246 8.7716 28.0475-2.27412 30.5382-13.9696 30.5382-26.9646Z" transform="matrix(1 0 0 1.00275 1811.3 7133.46)"/><path d="M31.4767-46.7818 52.6296-46.7818C53.7847-46.7818 55.373-46.7818 55.373-48.4424 55.373-50.1029 53.7847-50.1028 52.6296-50.1028L7.07504-50.1028C5.84773-50.1028 4.25946-50.1028 4.25946-48.4424 4.25946-46.7819 5.84773-46.7818 7.07504-46.7818L28.1557-46.7818 28.1557-2.81557C28.1557-1.58827 28.1557 0 29.8163 0 31.4768 0 31.4767-1.58827 31.4767-2.74338L31.4767-46.7818Z" transform="matrix(1 0 0 1.00275 1852.38 7088.62)"/><path d="M49.814-35.3029C50.6804-36.1693 51.0052-36.3859 51.0052-37.1439 51.0052-37.4688 51.0052-37.6854 50.1389-38.7683L25.7733-69.6313 48.8394-69.6313C64.5416-69.6313 74.2879-66.924 76.562-48.6228L81.1102-48.6228 77.9698-74.2879 9.85451-74.2879C6.82236-74.2879 6.71406-73.8547 6.71406-70.8225L38.0102-31.1879 7.90527-3.46532C7.47211-3.03216 6.71406-2.27412 6.71406-1.62437 6.71406 0 8.44672 0 9.85451 0L77.9698 0 81.1102-27.506 76.562-27.506C74.3962-8.7716 63.7836-6.49748 48.4062-6.49748L18.5178-6.49748 49.814-35.3029Z" fill="#0070C0" transform="matrix(1 0 0 1.00275 1916.55 7133.46)"/><path d="M50.4638-16.3881C51.6189-16.3881 53.2071-16.3881 53.2071-18.0486 53.2071-19.709 51.6189-19.709 50.4638-19.709L9.09644-19.709C7.94136-19.709 6.35309-19.709 6.35309-18.0486 6.35309-16.3881 7.94136-16.3881 9.09644-16.3881L50.4638-16.3881Z" transform="matrix(1 0 0 1.00275 2004.54 7088.62)"/><path d="M22.669-45.9877C22.669-47.9369 22.5246-48.0091 20.5753-48.0091 17.6154-45.1214 13.7891-43.3888 6.93065-43.3888L6.93065-41.0063C8.87989-41.0063 12.7784-41.0063 16.9657-42.9556L16.9657-5.91993C16.9657-3.24874 16.7491-2.38241 9.89065-2.38241L7.36381-2.38241 7.36381 0C10.3238-0.216582 16.5325-0.216582 19.7812-0.216582 23.0299-0.216582 29.3109-0.216582 32.2708 0L32.2708-2.38241 29.7441-2.38241C22.8856-2.38241 22.669-3.24874 22.669-5.91993L22.669-45.9877Z" transform="matrix(1 0 0 1.00275 2063.98 7088.62)"/><path d="M35.1947 26.3148C35.1947 25.9899 35.1947 25.7733 33.3537 23.9324 22.5246 12.995 16.4603-4.87312 16.4603-26.9646 16.4603-47.9731 21.55-66.0577 34.1118-78.8361 35.1947-79.8107 35.1947-80.0273 35.1947-80.3521 35.1947-81.002 34.6532-81.2186 34.22-81.2186 32.8123-81.2186 23.9324-73.4215 18.6261-62.809 13.1033-51.8716 10.6126-40.2844 10.6126-26.9646 10.6126-17.3266 12.1286-4.43995 17.7598 7.14723 24.1489 20.1422 33.0289 27.1812 34.22 27.1812 34.6532 27.1812 35.1947 26.9646 35.1947 26.3148Z" transform="matrix(1 0 0 1.00275 2107.06 7133.46)"/><path d="M40.8259-46.2404C40.8259-48.2979 40.8259-49.056 39.2015-49.056 38.5517-49.056 38.3351-49.056 36.7108-48.0813 36.2776-47.7565 35.0864-46.9984 34.545-46.6736 31.5127-48.4062 27.506-49.056 23.6075-49.056 20.3588-49.056 4.11507-49.056 4.11507-34.9781 4.11507-23.6075 17.5432-21.2251 20.9003-20.6837 23.8241-20.1422 27.3977-19.4924 27.8309-19.4924 32.1625-18.5178 36.4942-15.8105 36.4942-11.2623 36.4942-2.92387 26.6397-2.92387 24.3655-2.92387 18.8427-2.92387 12.0203-4.65653 8.98818-15.1608 8.33844-17.3266 8.23015-17.4349 6.38919-17.4349 4.11507-17.4349 4.11507-17.1101 4.11507-14.6194L4.11507-2.16582C4.11507-0.108292 4.11507 0.649748 5.73944 0.649748 6.49748 0.649748 6.71406 0.649748 8.87989-1.08292L11.6955-3.14045C16.5686 0.649748 22.4163 0.649748 24.3655 0.649748 30.3216 0.649748 43.858-0.649748 43.858-15.0525 43.858-20.2505 41.0424-23.8241 38.8766-25.7733 34.4366-29.4553 30.7548-30.105 24.907-31.1879 17.9764-32.3792 11.4789-33.5703 11.4789-38.7683 11.4789-45.8073 21.1168-45.8073 23.391-45.8073 35.4113-45.8073 36.061-38.2268 36.2776-35.5196 36.3859-34.1118 37.2522-34.1118 38.5517-34.1118 40.8259-34.1118 40.8259-34.4366 40.8259-36.9273L40.8259-46.2404Z" transform="matrix(1 0 0 1.00275 2148.15 7133.46)"/><path d="M21.5139-45.0492C21.5139-46.6375 20.3588-47.7925 18.6983-47.7925 16.8213-47.7925 14.7276-46.0599 14.7276-43.8941 14.7276-42.3059 15.8827-41.1507 17.5432-41.1507 19.4202-41.1507 21.5139-42.8834 21.5139-45.0492ZM10.9736-18.5539 7.07504-8.59111C6.71406-7.5082 6.35309-6.64187 6.35309-5.41456 6.35309-1.87705 9.09644 0.721942 12.9228 0.721942 19.9256 0.721942 22.8856-9.38521 22.8856-10.3238 22.8856-11.0457 22.308-11.2623 21.8026-11.2623 20.9363-11.2623 20.7919-10.757 20.5753-10.035 18.9149-4.25946 15.9549-1.2995 13.0672-1.2995 12.2008-1.2995 11.3345-1.66047 11.3345-3.60972 11.3345-5.34237 11.8399-6.64187 12.7784-8.87989 13.5003-10.8292 14.2222-12.7784 15.0164-14.7276L17.2545-20.5753C17.9042-22.2358 18.7705-24.4739 18.7705-25.7011 18.7705-29.3109 15.8827-31.8377 12.2008-31.8377 5.19798-31.8377 2.16582-21.7304 2.16582-20.7919 2.16582-20.1422 2.67119-19.8534 3.24874-19.8534 4.18727-19.8534 4.25946-20.2866 4.47604-21.0085 6.49748-27.8669 9.81846-29.8163 11.9843-29.8163 12.995-29.8163 13.7169-29.4553 13.7169-27.4338 13.7169-26.7119 13.6447-25.7011 12.9228-23.5354L10.9736-18.5539Z" transform="matrix(1 0 0 1.00275 2196.02 7149.74)"/><path d="M71.364-24.907C73.2049-24.907 75.1542-24.907 75.1542-27.0728 75.1542-29.2386 73.2049-29.2387 71.364-29.2387L12.7784-29.2387C10.9374-29.2387 8.98818-29.2387 8.98818-27.0728 8.98818-24.9069 10.9374-24.907 12.7784-24.907L71.364-24.907Z" transform="matrix(1 0 0 1.00275 2250.72 7133.46)"/><path d="M40.8259-46.2404C40.8259-48.2979 40.8259-49.056 39.2015-49.056 38.5517-49.056 38.3351-49.056 36.7108-48.0813 36.2776-47.7565 35.0864-46.9984 34.545-46.6736 31.5127-48.4062 27.506-49.056 23.6075-49.056 20.3588-49.056 4.11507-49.056 4.11507-34.9781 4.11507-23.6075 17.5432-21.2251 20.9003-20.6837 23.8241-20.1422 27.3977-19.4924 27.8309-19.4924 32.1625-18.5178 36.4942-15.8105 36.4942-11.2623 36.4942-2.92387 26.6397-2.92387 24.3655-2.92387 18.8427-2.92387 12.0203-4.65653 8.98818-15.1608 8.33844-17.3266 8.23015-17.4349 6.38919-17.4349 4.11507-17.4349 4.11507-17.1101 4.11507-14.6194L4.11507-2.16582C4.11507-0.108292 4.11507 0.649748 5.73944 0.649748 6.49748 0.649748 6.71406 0.649748 8.87989-1.08292L11.6955-3.14045C16.5686 0.649748 22.4163 0.649748 24.3655 0.649748 30.3216 0.649748 43.858-0.649748 43.858-15.0525 43.858-20.2505 41.0424-23.8241 38.8766-25.7733 34.4366-29.4553 30.7548-30.105 24.907-31.1879 17.9764-32.3792 11.4789-33.5703 11.4789-38.7683 11.4789-45.8073 21.1168-45.8073 23.391-45.8073 35.4113-45.8073 36.061-38.2268 36.2776-35.5196 36.3859-34.1118 37.2522-34.1118 38.5517-34.1118 40.8259-34.1118 40.8259-34.4366 40.8259-36.9273L40.8259-46.2404Z" transform="matrix(1 0 0 1.00275 2358.69 7133.46)"/><path d="M29.8163-45.0492C29.8163-46.4209 28.7333-47.7925 27.0006-47.7925 24.8348-47.7925 22.9578-45.7711 22.9578-43.8941 22.9578-42.5224 24.0407-41.1507 25.7733-41.1507 27.9391-41.1507 29.8163-43.1722 29.8163-45.0492ZM14.7276 3.60972C13.6447 8.01356 10.1072 12.7062 5.70335 12.7062 4.54824 12.7062 3.46532 12.4174 3.32093 12.3452 5.55896 11.2623 5.84773 9.31302 5.84773 8.6633 5.84773 6.93065 4.54824 5.99212 3.03216 5.99212 0.938521 5.99212-1.01072 7.79698-1.01072 10.1794-1.01072 12.9228 1.66047 14.7276 5.77554 14.7276 10.1794 14.7276 18.1208 11.9843 20.2866 3.32093L26.784-22.5246C27.0006-23.391 27.145-23.9685 27.145-25.0514 27.145-29.0221 23.9685-31.8377 19.7812-31.8377 12.1286-31.8377 7.65259-21.7304 7.65259-20.7919 7.65259-20.1422 8.15795-19.8534 8.73551-19.8534 9.5296-19.8534 9.60179-20.07 10.1072-21.1529 12.273-26.1343 15.9549-29.8163 19.5646-29.8163 21.0807-29.8163 21.947-28.8055 21.947-26.4231 21.947-25.4124 21.7304-24.4017 21.5139-23.391L14.7276 3.60972Z" transform="matrix(1 0 0 1.00275 2406.57 7149.74)"/><path d="M30.5382-26.9646C30.5382-35.1947 29.4553-48.6228 23.391-61.1846 17.0017-74.1796 8.12185-81.2186 6.93065-81.2186 6.49748-81.2186 5.95602-81.002 5.95602-80.3521 5.95602-80.0273 5.95602-79.8107 7.79698-77.9698 18.6261-67.0324 24.6904-49.1643 24.6904-27.0728 24.6904-6.06431 19.6008 12.0203 7.03894 24.7987 5.95602 25.7733 5.95602 25.9899 5.95602 26.3148 5.95602 26.9646 6.49748 27.1812 6.93065 27.1812 8.33844 27.1812 17.2183 19.3842 22.5246 8.7716 28.0475-2.27412 30.5382-13.9696 30.5382-26.9646Z" transform="matrix(1 0 0 1.00275 2446.26 7133.46)"/><path d="M57.0695 125.618C57.0695 83.0594 47.3233 40.1761 19.8174 7.79698 17.6515 5.30627 13.5365 0.86633 9.09644-3.03216 7.79698-4.33166 7.5804-4.33166 6.06431-4.33166 4.76482-4.33166 3.7902-4.33166 3.7902-3.24874 3.7902-2.81557 4.22337-2.38241 4.43995-2.16582 8.23015 1.73266 15.4857 8.98818 22.7412 20.6837 40.1761 48.6228 48.0813 83.8175 48.0813 125.509 48.0813 154.64 44.1829 192.217 26.3148 224.488 17.7598 239.865 8.7716 248.854 4.22337 253.402 4.00678 253.727 3.7902 254.051 3.7902 254.376 3.7902 255.459 4.76482 255.459 6.06431 255.459 7.5804 255.459 7.79698 255.459 9.42135 253.835 45.6989 220.806 57.0695 171.208 57.0695 125.618Z" transform="matrix(1 0 0 1.00275 2487.34 6980.34)"/><path d="M21.1168 0.433166C21.1168-5.84773 19.0593-10.5042 14.6194-10.5042 11.154-10.5042 9.42135-7.68869 9.42135-5.30627 9.42135-2.92386 11.0457 0 14.7276 0 16.1354 0 17.3266-0.433166 18.3012-1.40779 18.5178-1.62437 18.6261-1.62437 18.7344-1.62437 18.9509-1.62437 18.9509-0.108292 18.9509 0.433166 18.9509 4.00678 18.3012 11.0457 12.0203 18.0846 10.8292 19.3842 10.8292 19.6008 10.8292 19.8174 10.8292 20.3588 11.3706 20.9003 11.9121 20.9003 12.7784 20.9003 21.1168 12.8867 21.1168 0.433166Z" transform="matrix(1 0 0 1.00275 2587.38 7133.46)"/><path d="M40.8259-46.2404C40.8259-48.2979 40.8259-49.056 39.2015-49.056 38.5517-49.056 38.3351-49.056 36.7108-48.0813 36.2776-47.7565 35.0864-46.9984 34.545-46.6736 31.5127-48.4062 27.506-49.056 23.6075-49.056 20.3588-49.056 4.11507-49.056 4.11507-34.9781 4.11507-23.6075 17.5432-21.2251 20.9003-20.6837 23.8241-20.1422 27.3977-19.4924 27.8309-19.4924 32.1625-18.5178 36.4942-15.8105 36.4942-11.2623 36.4942-2.92387 26.6397-2.92387 24.3655-2.92387 18.8427-2.92387 12.0203-4.65653 8.98818-15.1608 8.33844-17.3266 8.23015-17.4349 6.38919-17.4349 4.11507-17.4349 4.11507-17.1101 4.11507-14.6194L4.11507-2.16582C4.11507-0.108292 4.11507 0.649748 5.73944 0.649748 6.49748 0.649748 6.71406 0.649748 8.87989-1.08292L11.6955-3.14045C16.5686 0.649748 22.4163 0.649748 24.3655 0.649748 30.3216 0.649748 43.858-0.649748 43.858-15.0525 43.858-20.2505 41.0424-23.8241 38.8766-25.7733 34.4366-29.4553 30.7548-30.105 24.907-31.1879 17.9764-32.3792 11.4789-33.5703 11.4789-38.7683 11.4789-45.8073 21.1168-45.8073 23.391-45.8073 35.4113-45.8073 36.061-38.2268 36.2776-35.5196 36.3859-34.1118 37.2522-34.1118 38.5517-34.1118 40.8259-34.1118 40.8259-34.4366 40.8259-36.9273L40.8259-46.2404Z" transform="matrix(1 0 0 1.00275 2846.84 7133.46)"/><path d="M21.5139-45.0492C21.5139-46.6375 20.3588-47.7925 18.6983-47.7925 16.8213-47.7925 14.7276-46.0599 14.7276-43.8941 14.7276-42.3059 15.8827-41.1507 17.5432-41.1507 19.4202-41.1507 21.5139-42.8834 21.5139-45.0492ZM10.9736-18.5539 7.07504-8.59111C6.71406-7.5082 6.35309-6.64187 6.35309-5.41456 6.35309-1.87705 9.09644 0.721942 12.9228 0.721942 19.9256 0.721942 22.8856-9.38521 22.8856-10.3238 22.8856-11.0457 22.308-11.2623 21.8026-11.2623 20.9363-11.2623 20.7919-10.757 20.5753-10.035 18.9149-4.25946 15.9549-1.2995 13.0672-1.2995 12.2008-1.2995 11.3345-1.66047 11.3345-3.60972 11.3345-5.34237 11.8399-6.64187 12.7784-8.87989 13.5003-10.8292 14.2222-12.7784 15.0164-14.7276L17.2545-20.5753C17.9042-22.2358 18.7705-24.4739 18.7705-25.7011 18.7705-29.3109 15.8827-31.8377 12.2008-31.8377 5.19798-31.8377 2.16582-21.7304 2.16582-20.7919 2.16582-20.1422 2.67119-19.8534 3.24874-19.8534 4.18727-19.8534 4.25946-20.2866 4.47604-21.0085 6.49748-27.8669 9.81846-29.8163 11.9843-29.8163 12.995-29.8163 13.7169-29.4553 13.7169-27.4338 13.7169-26.7119 13.6447-25.7011 12.9228-23.5354L10.9736-18.5539Z" transform="matrix(1 0 0 1.00275 2894.72 7149.74)"/><path d="M73.0967-35.0864C74.6127-35.0864 76.562-35.0864 76.562-37.0357 76.562-39.0932 74.7211-39.0932 73.0967-39.0932L9.31302-39.0932C7.79698-39.0932 5.84773-39.0932 5.84773-37.1439 5.84773-35.0864 7.68869-35.0864 9.31302-35.0864L73.0967-35.0864ZM73.0967-14.9442C74.6127-14.9442 76.562-14.9442 76.562-16.8935 76.562-18.9509 74.7211-18.9509 73.0967-18.9509L9.31302-18.9509C7.79698-18.9509 5.84773-18.9509 5.84773-17.0017 5.84773-14.9442 7.68869-14.9442 9.31302-14.9442L73.0967-14.9442Z" transform="matrix(1 0 0 1.00275 2955.43 7133.46)"/><path d="M84.4672-71.5806C84.6838-71.9054 85.0087-72.6635 85.0087-73.0967 85.0087-73.8547 84.9004-73.963 82.4097-73.963L7.68869-73.963C5.19798-73.963 5.08969-73.8547 5.08969-73.0967 5.08969-72.6635 5.41456-71.9054 5.63115-71.5806L42.1253 1.51608C42.8834 2.92387 43.2082 3.57362 45.0492 3.57362 46.8902 3.57362 47.215 2.92387 47.9731 1.51608L84.4672-71.5806ZM18.5178-66.166 77.9698-66.166 48.2979-6.60577 18.5178-66.166Z" transform="matrix(1 0 0 1.00275 3160.1 7059.99)"/><path d="M26.8562-17.6154 36.025-27.0728C37.1801-28.3001 39.3458-28.3001 43.1-28.3001L43.1-32.0542C40.9341-31.8377 37.6854-31.8377 36.2415-31.8377 35.5918-31.8377 31.4045-31.8377 28.8777-32.0542L28.8777-28.3001C29.5997-28.3001 30.827-28.0835 30.827-27.6504 30.827-27.4338 30.3938-27.0006 30.3216-26.9284L24.1851-20.5753 17.0379-28.3001 19.2037-28.3001 19.2037-32.0542C15.0164-31.8377 14.0779-31.8377 10.5404-31.8377 9.24082-31.8377 4.9814-31.8377 2.45461-32.0542L2.45461-28.3001 7.5082-28.3001 19.2759-15.5217 9.24082-5.0536C8.44672-4.25946 7.72478-3.7541 3.24874-3.7541L2.02144-3.7541 2.02144 0C4.25946-0.216582 7.5804-0.216582 8.87989-0.216582 9.31302-0.216582 13.7891-0.216582 16.3159 0L16.3159-3.7541C14.9442-3.7541 14.5832-4.11507 14.2222-4.40385L22.0192-12.5618 30.105-3.7541 27.9391-3.7541 27.9391 0C32.1264-0.216582 33.0649-0.216582 36.6025-0.216582 37.6854-0.216582 42.1615-0.216582 44.6882 0L44.6882-3.7541 39.6346-3.7541 26.8562-17.6154Z" transform="matrix(1 0 0 1.00275 3250 7076.28)"/><path d="M23.4992-43.4248 35.8444-43.4248 35.8444-48.0813 22.9578-48.0813 22.9578-59.2354C22.9578-70.4976 30.105-72.2304 33.6786-72.2304 34.8698-72.2304 35.0864-72.122 35.7362-71.9054 34.1118-70.8225 33.1371-68.9816 33.1371-66.7074 33.1371-62.3759 36.6025-60.4265 39.418-60.4265 41.8004-60.4265 45.6989-62.0509 45.6989-66.8158 45.6989-71.2557 41.8004-75.804 34.1118-75.804 24.2573-75.804 12.2369-71.6889 12.2369-59.1271L12.2369-48.0813 4.22337-48.0813 4.22337-43.4248 12.2369-43.4248 12.2369-4.65653 4.76482-4.65653 4.76482 0C7.25552-0.216582 15.3773-0.216582 18.4095-0.216582 21.55-0.216582 30.3216-0.216582 32.9206 0L32.9206-4.65653 23.4992-4.65653 23.4992-43.4248Z" transform="matrix(1 0 0 1.00275 3301.19 7059.99)"/><path d="M35.1947 26.3148C35.1947 25.9899 35.1947 25.7733 33.3537 23.9324 22.5246 12.995 16.4603-4.87312 16.4603-26.9646 16.4603-47.9731 21.55-66.0577 34.1118-78.8361 35.1947-79.8107 35.1947-80.0273 35.1947-80.3521 35.1947-81.002 34.6532-81.2186 34.22-81.2186 32.8123-81.2186 23.9324-73.4215 18.6261-62.809 13.1033-51.8716 10.6126-40.2844 10.6126-26.9646 10.6126-17.3266 12.1286-4.43995 17.7598 7.14723 24.1489 20.1422 33.0289 27.1812 34.22 27.1812 34.6532 27.1812 35.1947 26.9646 35.1947 26.3148Z" transform="matrix(1 0 0 1.00275 3349.37 7059.99)"/><path d="M36.4942-26.748 49.056-41.1507C50.2472-42.5585 51.2218-43.4248 60.21-43.4248L60.21-48.0813C54.1456-47.8647 53.9291-47.8647 50.2472-47.8647 47.1068-47.8647 42.4502-47.8647 39.418-48.0813L39.418-43.4248C41.4756-43.4248 43.7497-42.8834 43.7497-42.1253 43.7497-41.9088 43.2082-41.1507 42.9917-40.9341L33.5703-30.3216 22.8495-43.4248 27.3977-43.4248 27.3977-48.0813C24.907-47.8647 17.5432-47.8647 14.6194-47.8647 11.3706-47.8647 5.52286-47.8647 2.4907-48.0813L2.4907-43.4248 10.1794-43.4248 27.0728-22.8495 12.995-6.93065C11.6955-5.41456 10.9374-4.65653 1.94924-4.65653L1.94924 0C8.44672-0.216582 8.6633-0.216582 12.0203-0.216582 15.1608-0.216582 19.709-0.216582 22.7412 0L22.7412-4.65653C20.6837-4.65653 18.4095-5.19798 18.4095-5.95602 18.4095-6.06431 18.4095-6.17261 19.1675-7.03894L29.9967-19.2759 42.0171-4.65653 37.4688-4.65653 37.4688 0C40.0678-0.216582 47.3233-0.216582 50.3555-0.216582 53.6042-0.216582 59.3436-0.216582 62.3759 0L62.3759-4.65653 54.7955-4.65653 36.4942-26.748Z" transform="matrix(1 0 0 1.00275 3390.45 7059.99)"/><path d="M19.9256-41.4756C19.9256-44.3995 17.4349-46.6736 14.7276-46.6736 11.5871-46.6736 9.42135-44.1829 9.42135-41.4756 9.42135-38.2268 12.1286-36.1693 14.6194-36.1693 17.5432-36.1693 19.9256-38.4434 19.9256-41.4756ZM18.0846-1.08292C18.0846 2.70728 18.0846 10.396 11.4789 18.5178 10.8292 19.3842 10.8292 19.6008 10.8292 19.8174 10.8292 20.3588 11.3706 20.9003 11.9121 20.9003 12.67 20.9003 20.2505 12.8867 20.2505 0.216582 20.2505-3.7902 19.9256-10.5042 14.6194-10.5042 11.4789-10.5042 9.42135-8.12185 9.42135-5.30627 9.42135-2.38241 11.4789 0 14.7276 0 16.7852 0 17.5432-0.649748 18.0846-1.08292Z" transform="matrix(1 0 0 1.00275 3454.51 7059.99)"/><path d="M59.2354-53.0627C59.2354-72.122 47.9731-76.0206 41.3673-76.0206 32.8123-76.0206 21.9832-70.3894 13.8613-55.6618 8.33844-45.4824 4.9814-30.7548 4.9814-21.9832 4.9814-6.2809 13.2115 0.86633 22.9578 0.86633 30.2133 0.86633 39.743-3.35703 47.215-14.4028 56.3115-27.7226 59.2354-44.9409 59.2354-53.0627ZM21.4417-40.1761C22.9578-46.457 25.7733-56.3115 29.0221-61.9427 31.5127-66.3826 35.9528-72.122 41.1507-72.122 45.6989-72.122 47.6482-67.3572 47.6482-60.968 47.6482-54.1456 45.2658-44.7243 44.0746-40.1761L21.4417-40.1761ZM42.7751-34.9781C36.061-5.95602 26.9646-3.03216 23.1744-3.03216 21.6582-3.03216 19.3842-3.46532 17.868-6.82236 16.5686-9.74627 16.5686-13.9696 16.5686-14.0779 16.5686-20.2505 18.9509-30.3216 20.1422-34.9781L42.7751-34.9781Z" transform="matrix(1 0 0 1.00275 3501.9 7059.99)"/><path d="M21.5139-45.0492C21.5139-46.6375 20.3588-47.7925 18.6983-47.7925 16.8213-47.7925 14.7276-46.0599 14.7276-43.8941 14.7276-42.3059 15.8827-41.1507 17.5432-41.1507 19.4202-41.1507 21.5139-42.8834 21.5139-45.0492ZM10.9736-18.5539 7.07504-8.59111C6.71406-7.5082 6.35309-6.64187 6.35309-5.41456 6.35309-1.87705 9.09644 0.721942 12.9228 0.721942 19.9256 0.721942 22.8856-9.38521 22.8856-10.3238 22.8856-11.0457 22.308-11.2623 21.8026-11.2623 20.9363-11.2623 20.7919-10.757 20.5753-10.035 18.9149-4.25946 15.9549-1.2995 13.0672-1.2995 12.2008-1.2995 11.3345-1.66047 11.3345-3.60972 11.3345-5.34237 11.8399-6.64187 12.7784-8.87989 13.5003-10.8292 14.2222-12.7784 15.0164-14.7276L17.2545-20.5753C17.9042-22.2358 18.7705-24.4739 18.7705-25.7011 18.7705-29.3109 15.8827-31.8377 12.2008-31.8377 5.19798-31.8377 2.16582-21.7304 2.16582-20.7919 2.16582-20.1422 2.67119-19.8534 3.24874-19.8534 4.18727-19.8534 4.25946-20.2866 4.47604-21.0085 6.49748-27.8669 9.81846-29.8163 11.9843-29.8163 12.995-29.8163 13.7169-29.4553 13.7169-27.4338 13.7169-26.7119 13.6447-25.7011 12.9228-23.5354L10.9736-18.5539Z" transform="matrix(1 0 0 1.00275 3566.19 7076.28)"/><path d="M30.5382-26.9646C30.5382-35.1947 29.4553-48.6228 23.391-61.1846 17.0017-74.1796 8.12185-81.2186 6.93065-81.2186 6.49748-81.2186 5.95602-81.002 5.95602-80.3521 5.95602-80.0273 5.95602-79.8107 7.79698-77.9698 18.6261-67.0324 24.6904-49.1643 24.6904-27.0728 24.6904-6.06431 19.6008 12.0203 7.03894 24.7987 5.95602 25.7733 5.95602 25.9899 5.95602 26.3148 5.95602 26.9646 6.49748 27.1812 6.93065 27.1812 8.33844 27.1812 17.2183 19.3842 22.5246 8.7716 28.0475-2.27412 30.5382-13.9696 30.5382-26.9646Z" transform="matrix(1 0 0 1.00275 3596.83 7059.99)"/><path d="M37.3966-27.2172C37.6854-28.2279 37.6854-28.3723 37.6854-28.8777 37.6854-30.6826 36.2415-31.1157 35.3751-31.1157 35.0142-31.1157 33.3537-31.0435 32.4152-29.1665 32.2708-28.8055 31.6211-26.2065 31.2601-24.6904L26.9284-7.36381C26.8562-7.14723 23.7519-1.2995 18.4817-1.2995 14.9442-1.2995 13.7169-3.89849 13.7169-7.14723 13.7169-11.3345 16.1716-17.7598 17.832-21.947 18.5539-23.7519 18.7705-24.4017 18.7705-25.7011 18.7705-29.6719 15.5939-31.8377 12.273-31.8377 5.12579-31.8377 2.16582-21.6582 2.16582-20.7919 2.16582-20.1422 2.67119-19.8534 3.24874-19.8534 4.18727-19.8534 4.25946-20.2866 4.47604-21.0085 6.35309-27.2894 9.4574-29.8163 12.0564-29.8163 13.1393-29.8163 13.7891-29.0943 13.7891-27.4338 13.7891-25.9177 13.2115-24.2573 12.7062-22.9578 9.74627-15.3051 8.51892-11.6233 8.51892-8.23015 8.51892-1.15511 13.8613 0.721942 18.1208 0.721942 21.5139 0.721942 23.9685-0.794136 25.7011-2.45461 24.6904 1.58827 23.9685 4.40385 21.2251 7.86917 18.8427 10.8292 15.9549 12.7062 12.7062 12.7062 11.4789 12.7062 8.73551 12.4896 7.29162 10.3238 11.1179 10.035 11.4067 6.78626 11.4067 6.35309 11.4067 4.62043 10.1072 3.68191 8.59111 3.68191 7.00284 3.68191 4.47604 4.90921 4.47604 8.44672 4.47604 11.8399 7.5804 14.7276 12.7062 14.7276 20.07 14.7276 28.3723 8.8077 30.5382 0.0721942L37.3966-27.2172Z" transform="matrix(1 0 0 1.00275 3637.91 7076.28)"/><path d="M3121.87 840.703 3809.02 840.703 3809.02 845.035 3121.87 845.035Z" transform="matrix(1 0 0 1.00275 -43.3696 6261.12)"/><path d="M17.2183-77.32C17.2183-79.2692 17.2183-81.2186 15.0525-81.2186 12.8867-81.2186 12.8867-79.2692 12.8867-77.32L12.8867 23.1744C12.8867 25.1236 12.8867 27.0728 15.0525 27.0728 17.2183 27.0728 17.2183 25.1236 17.2183 23.1744L17.2183-77.32Z" transform="matrix(1 0 0 1.00275 3078.5 7207.95)"/><path d="M17.2183-77.32C17.2183-79.2692 17.2183-81.2186 15.0525-81.2186 12.8867-81.2186 12.8867-79.2692 12.8867-77.32L12.8867 23.1744C12.8867 25.1236 12.8867 27.0728 15.0525 27.0728 17.2183 27.0728 17.2183 25.1236 17.2183 23.1744L17.2183-77.32Z" transform="matrix(1 0 0 1.00275 3108.47 7207.95)"/><path d="M84.4672-71.5806C84.6838-71.9054 85.0087-72.6635 85.0087-73.0967 85.0087-73.8547 84.9004-73.963 82.4097-73.963L7.68869-73.963C5.19798-73.963 5.08969-73.8547 5.08969-73.0967 5.08969-72.6635 5.41456-71.9054 5.63115-71.5806L42.1253 1.51608C42.8834 2.92387 43.2082 3.57362 45.0492 3.57362 46.8902 3.57362 47.215 2.92387 47.9731 1.51608L84.4672-71.5806ZM18.5178-66.166 77.9698-66.166 48.2979-6.60577 18.5178-66.166Z" transform="matrix(1 0 0 1.00275 3138.44 7207.95)"/><path d="M26.8562-17.6154 36.025-27.0728C37.1801-28.3001 39.3458-28.3001 43.1-28.3001L43.1-32.0542C40.9341-31.8377 37.6854-31.8377 36.2415-31.8377 35.5918-31.8377 31.4045-31.8377 28.8777-32.0542L28.8777-28.3001C29.5997-28.3001 30.827-28.0835 30.827-27.6504 30.827-27.4338 30.3938-27.0006 30.3216-26.9284L24.1851-20.5753 17.0379-28.3001 19.2037-28.3001 19.2037-32.0542C15.0164-31.8377 14.0779-31.8377 10.5404-31.8377 9.24082-31.8377 4.9814-31.8377 2.45461-32.0542L2.45461-28.3001 7.5082-28.3001 19.2759-15.5217 9.24082-5.0536C8.44672-4.25946 7.72478-3.7541 3.24874-3.7541L2.02144-3.7541 2.02144 0C4.25946-0.216582 7.5804-0.216582 8.87989-0.216582 9.31302-0.216582 13.7891-0.216582 16.3159 0L16.3159-3.7541C14.9442-3.7541 14.5832-4.11507 14.2222-4.40385L22.0192-12.5618 30.105-3.7541 27.9391-3.7541 27.9391 0C32.1264-0.216582 33.0649-0.216582 36.6025-0.216582 37.6854-0.216582 42.1615-0.216582 44.6882 0L44.6882-3.7541 39.6346-3.7541 26.8562-17.6154Z" transform="matrix(1 0 0 1.00275 3228.34 7224.23)"/><path d="M23.4992-43.4248 35.8444-43.4248 35.8444-48.0813 22.9578-48.0813 22.9578-59.2354C22.9578-70.4976 30.105-72.2304 33.6786-72.2304 34.8698-72.2304 35.0864-72.122 35.7362-71.9054 34.1118-70.8225 33.1371-68.9816 33.1371-66.7074 33.1371-62.3759 36.6025-60.4265 39.418-60.4265 41.8004-60.4265 45.6989-62.0509 45.6989-66.8158 45.6989-71.2557 41.8004-75.804 34.1118-75.804 24.2573-75.804 12.2369-71.6889 12.2369-59.1271L12.2369-48.0813 4.22337-48.0813 4.22337-43.4248 12.2369-43.4248 12.2369-4.65653 4.76482-4.65653 4.76482 0C7.25552-0.216582 15.3773-0.216582 18.4095-0.216582 21.55-0.216582 30.3216-0.216582 32.9206 0L32.9206-4.65653 23.4992-4.65653 23.4992-43.4248Z" transform="matrix(1 0 0 1.00275 3279.53 7207.95)"/><path d="M35.1947 26.3148C35.1947 25.9899 35.1947 25.7733 33.3537 23.9324 22.5246 12.995 16.4603-4.87312 16.4603-26.9646 16.4603-47.9731 21.55-66.0577 34.1118-78.8361 35.1947-79.8107 35.1947-80.0273 35.1947-80.3521 35.1947-81.002 34.6532-81.2186 34.22-81.2186 32.8123-81.2186 23.9324-73.4215 18.6261-62.809 13.1033-51.8716 10.6126-40.2844 10.6126-26.9646 10.6126-17.3266 12.1286-4.43995 17.7598 7.14723 24.1489 20.1422 33.0289 27.1812 34.22 27.1812 34.6532 27.1812 35.1947 26.9646 35.1947 26.3148Z" transform="matrix(1 0 0 1.00275 3327.71 7207.95)"/><path d="M36.4942-26.748 49.056-41.1507C50.2472-42.5585 51.2218-43.4248 60.21-43.4248L60.21-48.0813C54.1456-47.8647 53.9291-47.8647 50.2472-47.8647 47.1068-47.8647 42.4502-47.8647 39.418-48.0813L39.418-43.4248C41.4756-43.4248 43.7497-42.8834 43.7497-42.1253 43.7497-41.9088 43.2082-41.1507 42.9917-40.9341L33.5703-30.3216 22.8495-43.4248 27.3977-43.4248 27.3977-48.0813C24.907-47.8647 17.5432-47.8647 14.6194-47.8647 11.3706-47.8647 5.52286-47.8647 2.4907-48.0813L2.4907-43.4248 10.1794-43.4248 27.0728-22.8495 12.995-6.93065C11.6955-5.41456 10.9374-4.65653 1.94924-4.65653L1.94924 0C8.44672-0.216582 8.6633-0.216582 12.0203-0.216582 15.1608-0.216582 19.709-0.216582 22.7412 0L22.7412-4.65653C20.6837-4.65653 18.4095-5.19798 18.4095-5.95602 18.4095-6.06431 18.4095-6.17261 19.1675-7.03894L29.9967-19.2759 42.0171-4.65653 37.4688-4.65653 37.4688 0C40.0678-0.216582 47.3233-0.216582 50.3555-0.216582 53.6042-0.216582 59.3436-0.216582 62.3759 0L62.3759-4.65653 54.7955-4.65653 36.4942-26.748Z" transform="matrix(1 0 0 1.00275 3368.79 7207.95)"/><path d="M19.9256-41.4756C19.9256-44.3995 17.4349-46.6736 14.7276-46.6736 11.5871-46.6736 9.42135-44.1829 9.42135-41.4756 9.42135-38.2268 12.1286-36.1693 14.6194-36.1693 17.5432-36.1693 19.9256-38.4434 19.9256-41.4756ZM18.0846-1.08292C18.0846 2.70728 18.0846 10.396 11.4789 18.5178 10.8292 19.3842 10.8292 19.6008 10.8292 19.8174 10.8292 20.3588 11.3706 20.9003 11.9121 20.9003 12.67 20.9003 20.2505 12.8867 20.2505 0.216582 20.2505-3.7902 19.9256-10.5042 14.6194-10.5042 11.4789-10.5042 9.42135-8.12185 9.42135-5.30627 9.42135-2.38241 11.4789 0 14.7276 0 16.7852 0 17.5432-0.649748 18.0846-1.08292Z" transform="matrix(1 0 0 1.00275 3432.85 7207.95)"/><path d="M59.2354-53.0627C59.2354-72.122 47.9731-76.0206 41.3673-76.0206 32.8123-76.0206 21.9832-70.3894 13.8613-55.6618 8.33844-45.4824 4.9814-30.7548 4.9814-21.9832 4.9814-6.2809 13.2115 0.86633 22.9578 0.86633 30.2133 0.86633 39.743-3.35703 47.215-14.4028 56.3115-27.7226 59.2354-44.9409 59.2354-53.0627ZM21.4417-40.1761C22.9578-46.457 25.7733-56.3115 29.0221-61.9427 31.5127-66.3826 35.9528-72.122 41.1507-72.122 45.6989-72.122 47.6482-67.3572 47.6482-60.968 47.6482-54.1456 45.2658-44.7243 44.0746-40.1761L21.4417-40.1761ZM42.7751-34.9781C36.061-5.95602 26.9646-3.03216 23.1744-3.03216 21.6582-3.03216 19.3842-3.46532 17.868-6.82236 16.5686-9.74627 16.5686-13.9696 16.5686-14.0779 16.5686-20.2505 18.9509-30.3216 20.1422-34.9781L42.7751-34.9781Z" transform="matrix(1 0 0 1.00275 3480.24 7207.95)"/><path d="M21.5139-45.0492C21.5139-46.6375 20.3588-47.7925 18.6983-47.7925 16.8213-47.7925 14.7276-46.0599 14.7276-43.8941 14.7276-42.3059 15.8827-41.1507 17.5432-41.1507 19.4202-41.1507 21.5139-42.8834 21.5139-45.0492ZM10.9736-18.5539 7.07504-8.59111C6.71406-7.5082 6.35309-6.64187 6.35309-5.41456 6.35309-1.87705 9.09644 0.721942 12.9228 0.721942 19.9256 0.721942 22.8856-9.38521 22.8856-10.3238 22.8856-11.0457 22.308-11.2623 21.8026-11.2623 20.9363-11.2623 20.7919-10.757 20.5753-10.035 18.9149-4.25946 15.9549-1.2995 13.0672-1.2995 12.2008-1.2995 11.3345-1.66047 11.3345-3.60972 11.3345-5.34237 11.8399-6.64187 12.7784-8.87989 13.5003-10.8292 14.2222-12.7784 15.0164-14.7276L17.2545-20.5753C17.9042-22.2358 18.7705-24.4739 18.7705-25.7011 18.7705-29.3109 15.8827-31.8377 12.2008-31.8377 5.19798-31.8377 2.16582-21.7304 2.16582-20.7919 2.16582-20.1422 2.67119-19.8534 3.24874-19.8534 4.18727-19.8534 4.25946-20.2866 4.47604-21.0085 6.49748-27.8669 9.81846-29.8163 11.9843-29.8163 12.995-29.8163 13.7169-29.4553 13.7169-27.4338 13.7169-26.7119 13.6447-25.7011 12.9228-23.5354L10.9736-18.5539Z" transform="matrix(1 0 0 1.00275 3544.54 7224.23)"/><path d="M30.5382-26.9646C30.5382-35.1947 29.4553-48.6228 23.391-61.1846 17.0017-74.1796 8.12185-81.2186 6.93065-81.2186 6.49748-81.2186 5.95602-81.002 5.95602-80.3521 5.95602-80.0273 5.95602-79.8107 7.79698-77.9698 18.6261-67.0324 24.6904-49.1643 24.6904-27.0728 24.6904-6.06431 19.6008 12.0203 7.03894 24.7987 5.95602 25.7733 5.95602 25.9899 5.95602 26.3148 5.95602 26.9646 6.49748 27.1812 6.93065 27.1812 8.33844 27.1812 17.2183 19.3842 22.5246 8.7716 28.0475-2.27412 30.5382-13.9696 30.5382-26.9646Z" transform="matrix(1 0 0 1.00275 3575.17 7207.95)"/><path d="M37.3966-27.2172C37.6854-28.2279 37.6854-28.3723 37.6854-28.8777 37.6854-30.6826 36.2415-31.1157 35.3751-31.1157 35.0142-31.1157 33.3537-31.0435 32.4152-29.1665 32.2708-28.8055 31.6211-26.2065 31.2601-24.6904L26.9284-7.36381C26.8562-7.14723 23.7519-1.2995 18.4817-1.2995 14.9442-1.2995 13.7169-3.89849 13.7169-7.14723 13.7169-11.3345 16.1716-17.7598 17.832-21.947 18.5539-23.7519 18.7705-24.4017 18.7705-25.7011 18.7705-29.6719 15.5939-31.8377 12.273-31.8377 5.12579-31.8377 2.16582-21.6582 2.16582-20.7919 2.16582-20.1422 2.67119-19.8534 3.24874-19.8534 4.18727-19.8534 4.25946-20.2866 4.47604-21.0085 6.35309-27.2894 9.4574-29.8163 12.0564-29.8163 13.1393-29.8163 13.7891-29.0943 13.7891-27.4338 13.7891-25.9177 13.2115-24.2573 12.7062-22.9578 9.74627-15.3051 8.51892-11.6233 8.51892-8.23015 8.51892-1.15511 13.8613 0.721942 18.1208 0.721942 21.5139 0.721942 23.9685-0.794136 25.7011-2.45461 24.6904 1.58827 23.9685 4.40385 21.2251 7.86917 18.8427 10.8292 15.9549 12.7062 12.7062 12.7062 11.4789 12.7062 8.73551 12.4896 7.29162 10.3238 11.1179 10.035 11.4067 6.78626 11.4067 6.35309 11.4067 4.62043 10.1072 3.68191 8.59111 3.68191 7.00284 3.68191 4.47604 4.90921 4.47604 8.44672 4.47604 11.8399 7.5804 14.7276 12.7062 14.7276 20.07 14.7276 28.3723 8.8077 30.5382 0.0721942L37.3966-27.2172Z" transform="matrix(1 0 0 1.00275 3616.25 7224.23)"/><path d="M17.2183-77.32C17.2183-79.2692 17.2183-81.2186 15.0525-81.2186 12.8867-81.2186 12.8867-79.2692 12.8867-77.32L12.8867 23.1744C12.8867 25.1236 12.8867 27.0728 15.0525 27.0728 17.2183 27.0728 17.2183 25.1236 17.2183 23.1744L17.2183-77.32Z" transform="matrix(1 0 0 1.00275 3661.27 7207.95)"/><path d="M17.2183-77.32C17.2183-79.2692 17.2183-81.2186 15.0525-81.2186 12.8867-81.2186 12.8867-79.2692 12.8867-77.32L12.8867 23.1744C12.8867 25.1236 12.8867 27.0728 15.0525 27.0728 17.2183 27.0728 17.2183 25.1236 17.2183 23.1744L17.2183-77.32Z" transform="matrix(1 0 0 1.00275 3691.23 7207.95)"/><path d="M20.3588-14.7276C21.5139-15.8105 24.5461-18.193 25.7011-19.2037 30.1772-23.3188 34.4366-27.2894 34.4366-33.8591 34.4366-42.4502 27.2172-48.0091 18.193-48.0091 9.5296-48.0091 3.8263-41.4395 3.8263-35.0142 3.8263-31.4767 6.64187-30.9713 7.65259-30.9713 9.16863-30.9713 11.4067-32.0542 11.4067-34.7976 11.4067-38.5517 7.79698-38.5517 6.93065-38.5517 9.02428-43.8219 13.8613-45.6268 17.3988-45.6268 24.1129-45.6268 27.5782-39.9234 27.5782-33.8591 27.5782-26.3509 22.308-20.8641 13.7891-12.1286L4.69262-2.74338C3.8263-1.94924 3.8263-1.80486 3.8263 0L32.343 0 34.4366-12.9228 32.1986-12.9228C31.982-11.4789 31.4045-7.86917 30.5382-6.49748 30.105-5.91993 24.6182-5.91993 23.4632-5.91993L10.6126-5.91993 20.3588-14.7276Z" transform="matrix(1 0 0 1.00275 3721.2 7224.23)"/></g></g></g></g></svg>