<svg width="1008" height="178" xmlns="http://www.w3.org/2000/svg" xmlns:xlink="http://www.w3.org/1999/xlink" xml:space="preserve" overflow="hidden"><defs><clipPath id="clip0"><rect x="102" y="826" width="1008" height="178"/></clipPath></defs><g clip-path="url(#clip0)" transform="translate(-102 -826)"><path d="M20.6373-18.4868C20.6373-25.127 16.7136-26.4852 14.4121-26.4852 11.4316-26.4852 7.65882-24.5233 4.8292-19.3923 2.90507-15.8458 1.7355-10.7148 1.7355-7.65882 1.7355-2.18823 4.60283 0.301825 7.99838 0.301825 10.5262 0.301825 13.8462-1.16957 16.4495-5.01785 19.6187-9.6584 20.6373-15.6572 20.6373-18.4868ZM7.47017-13.9972C7.99838-16.1854 8.9793-19.6187 10.1112-21.5805 10.9789-23.1274 12.5258-25.127 14.3367-25.127 15.9213-25.127 16.6004-23.4669 16.6004-21.241 16.6004-18.8641 15.7704-15.5817 15.3554-13.9972L7.47017-13.9972ZM14.9026-12.1862C12.5635-2.07505 9.39432-1.05639 8.07384-1.05639 7.54562-1.05639 6.75336-1.2073 6.22514-2.37688 5.77241-3.39555 5.77241-4.86694 5.77241-4.90466 5.77241-7.05518 6.60241-10.5639 7.01743-12.1862L14.9026-12.1862Z" transform="matrix(1 0 0 1.00184 102.301 901.894)"/><path d="M8.37566 6.28803C8.57687 6.28803 8.8787 6.28803 8.8787 5.98621 8.8787 5.88561 8.85354 5.86045 8.52657 5.53345 5.08072 2.28884 4.22556-2.38945 4.22556-6.28803 4.22556-13.5318 7.21865-16.9274 8.50142-18.0844 8.85354-18.4113 8.8787-18.4365 8.8787-18.5622 8.8787-18.688 8.77809-18.8641 8.52657-18.8641 8.12414-18.8641 6.86652-17.5813 6.66531-17.355 3.29491-13.8337 2.59067-9.30628 2.59067-6.28803 2.59067-0.653955 4.95496 3.87343 8.37566 6.28803Z" transform="matrix(1 0 0 1.00184 124.702 882.576)"/><path d="M5.5586-10.0105 8.02354-10.0105C8.50142-10.0105 8.80324-10.0105 8.80324-10.4884 8.80324-10.8406 8.47627-10.8406 8.04869-10.8406L5.75985-10.8406 6.66531-14.4121C6.76592-14.7895 6.76592-14.9152 6.76592-14.9404 6.76592-15.4685 6.36349-15.7201 5.93591-15.7201 5.08072-15.7201 4.90466-15.041 4.62799-13.9091L3.84828-10.8406 1.43367-10.8406C0.955779-10.8406 0.628803-10.8406 0.628803-10.3627 0.628803-10.0105 0.955779-10.0105 1.38337-10.0105L3.64707-10.0105 2.13793-3.97404C1.98702-3.34521 1.76065-2.46491 1.76065-2.11278 1.76065-0.603652 2.9931 0.251521 4.32617 0.251521 7.01743 0.251521 8.55172-3.29491 8.55172-3.59676 8.55172-3.87343 8.32536-3.92374 8.17445-3.92374 7.89778-3.92374 7.87263-3.82313 7.69653-3.44585 7.1935-2.23854 5.93591-0.452738 4.40162-0.452738 3.87343-0.452738 3.57161-0.804869 3.57161-1.63489 3.57161-2.11278 3.64707-2.38945 3.72252-2.71643L5.5586-10.0105Z" transform="matrix(1 0 0 1.00184 135.056 882.576)"/><path d="M10.9663-5.70954 18.361-5.70954C18.7132-5.70954 19.2665-5.70954 19.2665-6.28803 19.2665-6.86652 18.7132-6.86652 18.361-6.86652L10.9663-6.86652 10.9663-14.2864C10.9663-14.6385 10.9663-15.1919 10.3878-15.1919 9.80934-15.1919 9.80931-14.6385 9.80931-14.2864L9.80931-6.86652 2.38945-6.86652C2.03732-6.86652 1.48398-6.86652 1.48398-6.28803 1.48398-5.70954 2.03732-5.70954 2.38945-5.70954L9.80931-5.70954 9.80931 1.71034C9.80931 2.06247 9.80931 2.61582 10.3878 2.61582 10.9664 2.61582 10.9663 2.06247 10.9663 1.71034L10.9663-5.70954Z" transform="matrix(1 0 0 1.00184 144.671 882.576)"/><path d="M7.89778-16.0219C7.89778-16.701 7.84744-16.7261 7.16834-16.7261 6.13712-15.7201 4.80405-15.1164 2.4146-15.1164L2.4146-14.2864C3.09371-14.2864 4.45192-14.2864 5.91076-14.9655L5.91076-2.06247C5.91076-1.13184 5.8353-0.83002 3.44585-0.83002L2.56551-0.83002 2.56551 0C3.59676-0.0754562 5.75985-0.0754562 6.89168-0.0754562 8.0235-0.0754562 10.2118-0.0754562 11.243 0L11.243-0.83002 10.3627-0.83002C7.97323-0.83002 7.89778-1.13184 7.89778-2.06247L7.89778-16.0219Z" transform="matrix(1 0 0 1.00184 165.379 882.576)"/><path d="M7.77199-6.28803C7.77199-8.67748 7.36956-11.5448 5.81015-14.5128 4.57768-16.8267 2.28884-18.8641 1.8361-18.8641 1.58458-18.8641 1.50913-18.688 1.50913-18.5622 1.50913-18.4616 1.50913-18.4113 1.81095-18.1095 5.33224-14.7643 6.13712-10.1615 6.13712-6.28803 6.13712 0.930628 3.14401 4.35132 1.86126 5.5083 1.53428 5.8353 1.50913 5.86045 1.50913 5.98621 1.50913 6.11197 1.58458 6.28803 1.8361 6.28803 2.23854 6.28803 3.49616 5.00526 3.69737 4.7789 7.06774 1.25761 7.77199-3.26976 7.77199-6.28803Z" transform="matrix(1 0 0 1.00184 178.691 882.576)"/><path d="M7.49532-15.6949C7.49532-16.2483 7.09289-16.6507 6.5144-16.6507 5.86045-16.6507 5.13102-16.047 5.13102-15.2925 5.13102-14.7391 5.53345-14.3367 6.11197-14.3367 6.76592-14.3367 7.49532-14.9404 7.49532-15.6949ZM3.82313-6.4641 2.46491-2.9931C2.33914-2.61582 2.21339-2.31399 2.21339-1.88641 2.21339-0.653955 3.16915 0.251521 4.50223 0.251521 6.94198 0.251521 7.97323-3.26976 7.97323-3.59676 7.97323-3.84828 7.77199-3.92374 7.59592-3.92374 7.2941-3.92374 7.2438-3.74767 7.16834-3.49616 6.58985-1.48398 5.5586-0.452738 4.55253-0.452738 4.25071-0.452738 3.94889-0.5785 3.94889-1.25761 3.94889-1.86126 4.12495-2.31399 4.45192-3.09371 4.70344-3.77283 4.95496-4.45192 5.23163-5.13102L6.01136-7.16834C6.23773-7.74684 6.53955-8.52657 6.53955-8.95415 6.53955-10.2118 5.53345-11.0921 4.25071-11.0921 1.81095-11.0921 0.754562-7.57077 0.754562-7.2438 0.754562-7.01743 0.930628-6.91683 1.13184-6.91683 1.45882-6.91683 1.48398-7.06774 1.55943-7.31926 2.26369-9.7087 3.4207-10.3878 4.17525-10.3878 4.52738-10.3878 4.7789-10.2621 4.7789-9.55779 4.7789-9.30628 4.75375-8.95415 4.50223-8.1996L3.82313-6.4641Z" transform="matrix(1 0 0 1.00184 124.702 911.582)"/><path d="M25.4665-12.2239C25.9947-12.2239 26.6738-12.2239 26.6738-12.903 26.6738-13.6199 26.0324-13.6199 25.4665-13.6199L3.24461-13.6199C2.71643-13.6199 2.03732-13.6199 2.03732-12.9408 2.03732-12.2239 2.6787-12.2239 3.24461-12.2239L25.4665-12.2239ZM25.4665-5.20648C25.9947-5.20648 26.6738-5.20648 26.6738-5.88561 26.6738-6.60241 26.0324-6.60241 25.4665-6.60241L3.24461-6.60241C2.71643-6.60241 2.03732-6.60241 2.03732-5.92332 2.03732-5.20648 2.6787-5.20648 3.24461-5.20648L25.4665-5.20648Z" transform="matrix(1 0 0 1.00184 201.338 901.894)"/><path d="M20.6373-18.4868C20.6373-25.127 16.7136-26.4852 14.4121-26.4852 11.4316-26.4852 7.65882-24.5233 4.8292-19.3923 2.90507-15.8458 1.7355-10.7148 1.7355-7.65882 1.7355-2.18823 4.60283 0.301825 7.99838 0.301825 10.5262 0.301825 13.8462-1.16957 16.4495-5.01785 19.6187-9.6584 20.6373-15.6572 20.6373-18.4868ZM7.47017-13.9972C7.99838-16.1854 8.9793-19.6187 10.1112-21.5805 10.9789-23.1274 12.5258-25.127 14.3367-25.127 15.9213-25.127 16.6004-23.4669 16.6004-21.241 16.6004-18.8641 15.7704-15.5817 15.3554-13.9972L7.47017-13.9972ZM14.9026-12.1862C12.5635-2.07505 9.39432-1.05639 8.07384-1.05639 7.54562-1.05639 6.75336-1.2073 6.22514-2.37688 5.77241-3.39555 5.77241-4.86694 5.77241-4.90466 5.77241-7.05518 6.60241-10.5639 7.01743-12.1862L14.9026-12.1862Z" transform="matrix(1 0 0 1.00184 240.442 901.894)"/><path d="M8.37566 6.28803C8.57687 6.28803 8.8787 6.28803 8.8787 5.98621 8.8787 5.88561 8.85354 5.86045 8.52657 5.53345 5.08072 2.28884 4.22556-2.38945 4.22556-6.28803 4.22556-13.5318 7.21865-16.9274 8.50142-18.0844 8.85354-18.4113 8.8787-18.4365 8.8787-18.5622 8.8787-18.688 8.77809-18.8641 8.52657-18.8641 8.12414-18.8641 6.86652-17.5813 6.66531-17.355 3.29491-13.8337 2.59067-9.30628 2.59067-6.28803 2.59067-0.653955 4.95496 3.87343 8.37566 6.28803Z" transform="matrix(1 0 0 1.00184 262.845 882.576)"/><path d="M5.5586-10.0105 8.02354-10.0105C8.50142-10.0105 8.80324-10.0105 8.80324-10.4884 8.80324-10.8406 8.47627-10.8406 8.04869-10.8406L5.75985-10.8406 6.66531-14.4121C6.76592-14.7895 6.76592-14.9152 6.76592-14.9404 6.76592-15.4685 6.36349-15.7201 5.93591-15.7201 5.08072-15.7201 4.90466-15.041 4.62799-13.9091L3.84828-10.8406 1.43367-10.8406C0.955779-10.8406 0.628803-10.8406 0.628803-10.3627 0.628803-10.0105 0.955779-10.0105 1.38337-10.0105L3.64707-10.0105 2.13793-3.97404C1.98702-3.34521 1.76065-2.46491 1.76065-2.11278 1.76065-0.603652 2.9931 0.251521 4.32617 0.251521 7.01743 0.251521 8.55172-3.29491 8.55172-3.59676 8.55172-3.87343 8.32536-3.92374 8.17445-3.92374 7.89778-3.92374 7.87263-3.82313 7.69653-3.44585 7.1935-2.23854 5.93591-0.452738 4.40162-0.452738 3.87343-0.452738 3.57161-0.804869 3.57161-1.63489 3.57161-2.11278 3.64707-2.38945 3.72252-2.71643L5.5586-10.0105Z" transform="matrix(1 0 0 1.00184 273.199 882.576)"/><path d="M7.77199-6.28803C7.77199-8.67748 7.36956-11.5448 5.81015-14.5128 4.57768-16.8267 2.28884-18.8641 1.8361-18.8641 1.58458-18.8641 1.50913-18.688 1.50913-18.5622 1.50913-18.4616 1.50913-18.4113 1.81095-18.1095 5.33224-14.7643 6.13712-10.1615 6.13712-6.28803 6.13712 0.930628 3.14401 4.35132 1.86126 5.5083 1.53428 5.8353 1.50913 5.86045 1.50913 5.98621 1.50913 6.11197 1.58458 6.28803 1.8361 6.28803 2.23854 6.28803 3.49616 5.00526 3.69737 4.7789 7.06774 1.25761 7.77199-3.26976 7.77199-6.28803Z" transform="matrix(1 0 0 1.00184 282.812 882.576)"/><path d="M7.49532-15.6949C7.49532-16.2483 7.09289-16.6507 6.5144-16.6507 5.86045-16.6507 5.13102-16.047 5.13102-15.2925 5.13102-14.7391 5.53345-14.3367 6.11197-14.3367 6.76592-14.3367 7.49532-14.9404 7.49532-15.6949ZM3.82313-6.4641 2.46491-2.9931C2.33914-2.61582 2.21339-2.31399 2.21339-1.88641 2.21339-0.653955 3.16915 0.251521 4.50223 0.251521 6.94198 0.251521 7.97323-3.26976 7.97323-3.59676 7.97323-3.84828 7.77199-3.92374 7.59592-3.92374 7.2941-3.92374 7.2438-3.74767 7.16834-3.49616 6.58985-1.48398 5.5586-0.452738 4.55253-0.452738 4.25071-0.452738 3.94889-0.5785 3.94889-1.25761 3.94889-1.86126 4.12495-2.31399 4.45192-3.09371 4.70344-3.77283 4.95496-4.45192 5.23163-5.13102L6.01136-7.16834C6.23773-7.74684 6.53955-8.52657 6.53955-8.95415 6.53955-10.2118 5.53345-11.0921 4.25071-11.0921 1.81095-11.0921 0.754562-7.57077 0.754562-7.2438 0.754562-7.01743 0.930628-6.91683 1.13184-6.91683 1.45882-6.91683 1.48398-7.06774 1.55943-7.31926 2.26369-9.7087 3.4207-10.3878 4.17525-10.3878 4.52738-10.3878 4.7789-10.2621 4.7789-9.55779 4.7789-9.30628 4.75375-8.95415 4.50223-8.1996L3.82313-6.4641Z" transform="matrix(1 0 0 1.00184 262.845 911.582)"/><path d="M15.0535-8.71519 25.4665-8.71519C25.9947-8.71519 26.6738-8.71519 26.6738-9.39432 26.6738-10.1112 26.0324-10.1112 25.4665-10.1112L15.0535-10.1112 15.0535-20.5241C15.0535-21.0523 15.0535-21.7314 14.3744-21.7314 13.6576-21.7314 13.6576-21.09 13.6576-20.5241L13.6576-10.1112 3.24461-10.1112C2.71643-10.1112 2.03732-10.1112 2.03732-9.43203 2.03732-8.71519 2.6787-8.71519 3.24461-8.71519L13.6576-8.71519 13.6576 1.69777C13.6576 2.22596 13.6576 2.90507 14.3367 2.90507 15.0535 2.90507 15.0535 2.26369 15.0535 1.69777L15.0535-8.71519Z" transform="matrix(1 0 0 1.00184 303.236 901.894)"/><path d="M17.9209-10.4507C18.1095-11.2052 18.2227-11.658 18.2227-12.6767 18.2227-14.9404 16.9022-16.6381 14.0349-16.6381 10.6771-16.6381 8.90385-14.2612 8.22475-13.318 8.11155-15.4685 6.5647-16.6381 4.90466-16.6381 3.81054-16.6381 2.9428-16.1099 2.22596-14.6763 1.54685-13.318 1.01866-11.0166 1.01866-10.8657 1.01866-10.7148 1.16957-10.5262 1.43367-10.5262 1.7355-10.5262 1.77322-10.5639 1.99959-11.4316 2.56551-13.6576 3.28235-15.8836 4.79149-15.8836 5.65924-15.8836 5.96106-15.2799 5.96106-14.1481 5.96106-13.318 5.58375-11.8466 5.31968-10.6771L4.26327-6.60241C4.11236-5.88561 3.69737-4.18781 3.50872-3.50872 3.24461-2.52779 2.82961-0.754562 2.82961-0.565924 2.82961-0.0377283 3.24461 0.377283 3.81054 0.377283 4.26327 0.377283 4.79149 0.150913 5.09331-0.41501 5.16876-0.603652 5.5083-1.92414 5.69695-2.6787L6.52696-6.07423 7.77199-11.0543C7.84744-11.2807 8.79065-13.1671 10.1866-14.3744 11.1675-15.2799 12.4503-15.8836 13.9217-15.8836 15.4308-15.8836 15.959-14.7517 15.959-13.2426 15.959-12.1485 15.8081-11.5448 15.6195-10.828L11.243 6.52696C11.2052 6.71561 11.1298 6.94198 11.1298 7.16834 11.1298 7.73427 11.5826 8.11155 12.1485 8.11155 12.488 8.11155 13.2803 7.96064 13.5821 6.82881L17.9209-10.4507Z" transform="matrix(1 0 0 1.00184 340.244 901.894)"/><path d="M5.5586-10.0105 8.02354-10.0105C8.50142-10.0105 8.80324-10.0105 8.80324-10.4884 8.80324-10.8406 8.47627-10.8406 8.04869-10.8406L5.75985-10.8406 6.66531-14.4121C6.76592-14.7895 6.76592-14.9152 6.76592-14.9404 6.76592-15.4685 6.36349-15.7201 5.93591-15.7201 5.08072-15.7201 4.90466-15.041 4.62799-13.9091L3.84828-10.8406 1.43367-10.8406C0.955779-10.8406 0.628803-10.8406 0.628803-10.3627 0.628803-10.0105 0.955779-10.0105 1.38337-10.0105L3.64707-10.0105 2.13793-3.97404C1.98702-3.34521 1.76065-2.46491 1.76065-2.11278 1.76065-0.603652 2.9931 0.251521 4.32617 0.251521 7.01743 0.251521 8.55172-3.29491 8.55172-3.59676 8.55172-3.87343 8.32536-3.92374 8.17445-3.92374 7.89778-3.92374 7.87263-3.82313 7.69653-3.44585 7.1935-2.23854 5.93591-0.452738 4.40162-0.452738 3.87343-0.452738 3.57161-0.804869 3.57161-1.63489 3.57161-2.11278 3.64707-2.38945 3.72252-2.71643L5.5586-10.0105Z" transform="matrix(1 0 0 1.00184 358.403 907.563)"/><path d="M26.4097 88.6235C26.4097 88.4726 26.3343 88.3972 26.2588 88.2839 24.8629 86.8881 22.3351 84.3603 19.8073 80.2855 13.733 70.5518 10.9789 58.2899 10.9789 43.7647 10.9789 33.6159 12.3371 20.5241 18.5622 9.28112 21.5428 3.92374 24.6365 0.83002 26.2965-0.83002 26.4097-0.943203 26.4097-1.01866 26.4097-1.13184 26.4097-1.50913 26.1456-1.50913 25.6174-1.50913 25.0892-1.50913 25.0138-1.50913 24.4479-0.943203 11.8089 10.5639 7.84744 27.8434 7.84744 43.7268 7.84744 58.554 11.243 73.4946 20.8259 84.7753 21.5805 85.6428 23.0142 87.1898 24.561 88.5481 25.0138 89.0006 25.0892 89.0006 25.6174 89.0006 26.1456 89.0006 26.4097 89.0006 26.4097 88.6235Z" transform="matrix(1 0 0 1.00184 369.625 848.599)"/><path d="M29.428-24.9383C29.5034-25.0515 29.6166-25.3156 29.6166-25.4665 29.6166-25.7306 29.5789-25.7683 28.7111-25.7683L2.6787-25.7683C1.81095-25.7683 1.77322-25.7306 1.77322-25.4665 1.77322-25.3156 1.88641-25.0515 1.96187-24.9383L14.6763 0.528193C14.9404 1.01866 15.0535 1.24503 15.6949 1.24503 16.3363 1.24503 16.4495 1.01866 16.7136 0.528193L29.428-24.9383ZM6.4515-23.0519 27.1643-23.0519 16.8267-2.30142 6.4515-23.0519Z" fill="#FF0000" transform="matrix(1 0 0 1.00184 397.399 901.894)"/><path d="M14.4876-12.1736C14.4876-16.4746 11.9472-17.6819 9.98537-17.6819 8.1996-17.6819 5.785-16.6758 3.89859-13.884 1.7355-10.6645 1.23245-6.69046 1.23245-5.25678 1.23245-1.53428 3.26976 0.226369 5.75985 0.226369 7.36956 0.226369 9.6081-0.5785 11.4945-3.09371 13.7582-6.08682 14.4876-10.2118 14.4876-12.1736ZM5.23163-9.38173C5.73469-11.4191 6.23773-13.0791 7.14319-14.5379 7.74684-15.5189 8.82839-16.6255 9.93507-16.6255 11.243-16.6255 11.5951-15.1416 11.5951-13.9343 11.5951-12.6012 11.2178-10.9915 10.8406-9.38173L5.23163-9.38173ZM10.5136-8.07384C10.1112-6.53955 9.6081-4.65314 8.80324-3.29491 7.79714-1.55943 6.69046-0.83002 5.785-0.83002 4.95496-0.83002 4.1501-1.45882 4.1501-3.54646 4.1501-4.98011 4.50223-6.43894 4.90466-8.07384L10.5136-8.07384Z" fill="#FF0000" transform="matrix(1 0 0 1.00184 428.72 916.454)"/><path d="M7.50791 4.26327C5.43284 2.6787 3.73508-0.301825 3.73508-4.71603 3.73508-9.07363 5.39513-12.0919 7.50791-13.6953 7.50791-13.7142 7.56449-13.7896 7.56449-13.884 7.56449-13.9972 7.48904-14.1481 7.26267-14.1481 6.92311-14.1481 2.37688-11.1864 2.37688-4.71603 2.37688 1.7355 6.90427 4.71603 7.26267 4.71603 7.48904 4.71603 7.56449 4.56512 7.56449 4.45192 7.56449 4.3576 7.50791 4.28214 7.50791 4.26327Z" fill="#FF0000" transform="matrix(1 0 0 1.00184 444.484 903.048)"/><path d="M5.07444-7.37587 7.13063-7.37587C7.50791-7.37587 7.77199-7.37587 7.77199-7.84744 7.77199-8.13042 7.52678-8.13042 7.18722-8.13042L5.26309-8.13042 5.92332-10.7337C5.99877-11.0166 5.99877-11.1298 5.99877-11.1487 5.99877-11.6014 5.64037-11.7901 5.33855-11.7901 5.11218-11.7901 4.62171-11.658 4.45192-11.0543L3.71621-8.13042 1.6789-8.13042C1.28276-8.13042 1.26389-8.11155 1.18844-8.05497 1.09412-7.97951 1.01866-7.73427 1.01866-7.63995 1.07525-7.37587 1.24503-7.37587 1.62231-7.37587L3.52759-7.37587 2.4146-2.92393C2.30142-2.49006 2.15051-1.84868 2.15051-1.62231 2.15051-0.528193 3.13144 0.188641 4.28214 0.188641 6.4515 0.188641 7.73427-2.39574 7.73427-2.71643 7.73427-2.77302 7.69653-2.98052 7.37587-2.98052 7.13063-2.98052 7.09289-2.8862 6.99856-2.65983 6.35721-1.24503 5.28193-0.433873 4.3576-0.433873 3.65963-0.433873 3.64076-1.13184 3.64076-1.37708 3.64076-1.64118 3.64076-1.6789 3.73508-2.03732L5.07444-7.37587Z" fill="#FF0000" transform="matrix(1 0 0 1.00184 453.534 903.048)"/><path d="M6.67787-4.71603C6.67787-11.1675 2.15051-14.1481 1.79209-14.1481 1.56572-14.1481 1.50913-13.9783 1.50913-13.884 1.50913-13.7708 1.52799-13.7519 1.86754-13.4501 3.5653-11.9975 5.31968-9.20567 5.31968-4.71603 5.31968-0.716834 3.92374 2.28255 1.79209 4.07465 1.52799 4.31989 1.50913 4.33873 1.50913 4.45192 1.50913 4.54625 1.56572 4.71603 1.79209 4.71603 2.13164 4.71603 6.67787 1.75436 6.67787-4.71603Z" fill="#FF0000" transform="matrix(1 0 0 1.00184 462.497 903.048)"/><path d="M6.5647-11.7712C6.5647-12.2239 6.22514-12.5258 5.79128-12.5258 5.28193-12.5258 4.73487-12.0353 4.73487-11.4882 4.73487-11.0166 5.07444-10.7337 5.48946-10.7337 6.0931-10.7337 6.5647-11.2996 6.5647-11.7712ZM5.43284-5.18764C5.5083-5.37626 5.67808-5.82899 5.75354-5.99877 5.81015-6.16855 5.88561-6.35721 5.88561-6.67787 5.88561-7.73427 4.9424-8.31905 3.99919-8.31905 2.07505-8.31905 1.15071-5.82899 1.15071-5.414 1.15071-5.31968 1.22617-5.14989 1.49026-5.14989 1.75436-5.14989 1.81095-5.26309 1.86754-5.43284 2.39574-7.26267 3.39555-7.69653 3.92374-7.69653 4.30101-7.69653 4.43305-7.45133 4.43305-7.01743 4.43305-6.64016 4.31989-6.35721 4.28214-6.22514L3.30122-3.81054C3.07484-3.26348 3.07484-3.22577 2.82961-2.58438 2.58438-2.01846 2.49006-1.77322 2.49006-1.45253 2.49006-0.490466 3.35781 0.188641 4.39534 0.188641 6.30059 0.188641 7.2438-2.30142 7.2438-2.71643 7.2438-2.75415 7.22493-2.98052 6.8854-2.98052 6.62129-2.98052 6.60241-2.8862 6.48925-2.52779 6.18743-1.56572 5.414-0.433873 4.45192-0.433873 4.11236-0.433873 3.94261-0.660241 3.94261-1.11298 3.94261-1.49026 4.05578-1.77322 4.30101-2.35801L5.43284-5.18764Z" fill="#FF0000" transform="matrix(1 0 0 1.00184 444.484 924.832)"/><path d="M6.48925-26.1834 1.24503-25.7683 1.24503-24.6742C3.81054-24.6742 4.11236-24.4101 4.11236-22.5614L4.11236-2.79188C4.11236-1.09412 3.69737-1.09412 1.24503-1.09412L1.24503 0C2.30142-0.0754562 4.1501-0.0754562 5.28193-0.0754562 6.41376-0.0754562 8.30021-0.0754562 9.35658 0L9.35658-1.09412C6.94198-1.09412 6.48925-1.09412 6.48925-2.79188L6.48925-26.1834Z" fill="#FF0000" transform="matrix(1 0 0 1.00184 481.078 901.894)"/><path d="M17.3172-8.07384C17.3172-12.9408 13.6199-16.8267 9.24341-16.8267 4.71603-16.8267 1.13184-12.8276 1.13184-8.07384 1.13184-3.24461 4.90466 0.377283 9.20567 0.377283 13.6576 0.377283 17.3172-3.32006 17.3172-8.07384ZM9.24341-0.452738C7.84744-0.452738 6.14968-1.05639 5.05557-2.90507 4.0369-4.60283 3.99919-6.82881 3.99919-8.41337 3.99919-9.84705 3.99919-12.1485 5.16876-13.8462 6.22514-15.4685 7.88519-16.0722 9.20567-16.0722 10.6771-16.0722 12.2617-15.3931 13.2803-13.9217 14.4499-12.1862 14.4499-9.80931 14.4499-8.41337 14.4499-7.09289 14.4499-4.75375 13.469-2.98052 12.4126-1.16957 10.6771-0.452738 9.24341-0.452738Z" fill="#FF0000" transform="matrix(1 0 0 1.00184 491.3 901.894)"/><path d="M4.48967-6.82881C6.26288-5.65924 7.77199-5.65924 8.18701-5.65924 11.5826-5.65924 14.1103-8.22475 14.1103-11.1298 14.1103-12.1485 13.8085-13.5821 12.6012-14.7895 14.0726-16.2986 15.8458-16.2986 16.0345-16.2986 16.1854-16.2986 16.374-16.2986 16.5249-16.2231 16.1476-16.0722 15.959-15.6949 15.959-15.2799 15.959-14.7517 16.3363-14.299 16.9399-14.299 17.2418-14.299 17.9209-14.4876 17.9209-15.3176 17.9209-15.9967 17.3927-17.0531 16.0722-17.0531 14.1103-17.0531 12.6389-15.8458 12.1107-15.2799 10.9789-16.1476 9.6584-16.6381 8.22475-16.6381 4.8292-16.6381 2.30142-14.0726 2.30142-11.1675 2.30142-9.01705 3.62192-7.62108 3.99919-7.28154 3.54646-6.71561 2.86734-5.6215 2.86734-4.1501 2.86734-1.96187 4.18781-1.01866 4.48967-0.83002 2.75415-0.339555 1.01866 1.01866 1.01866 2.98052 1.01866 5.58375 4.56512 7.73427 9.20567 7.73427 13.6953 7.73427 17.4304 5.73469 17.4304 2.90507 17.4304 1.96187 17.1663-0.264097 14.9026-1.43367 12.9785-2.4146 11.0921-2.4146 7.84744-2.4146 5.54604-2.4146 5.28193-2.4146 4.60283-3.13144 4.22556-3.50872 3.88599-4.22556 3.88599-5.01785 3.88599-5.65924 4.11236-6.30059 4.48967-6.82881ZM8.22475-6.4515C4.90466-6.4515 4.90466-10.2621 4.90466-11.1298 4.90466-11.8089 4.90466-13.3558 5.54604-14.3744 6.26288-15.4685 7.39471-15.8458 8.18701-15.8458 11.5071-15.8458 11.5071-12.0353 11.5071-11.1675 11.5071-10.4884 11.5071-8.94156 10.8657-7.92293 10.1489-6.82881 9.01705-6.4515 8.22475-6.4515ZM9.24341 6.94198C5.6215 6.94198 2.86734 5.09331 2.86734 2.9428 2.86734 2.64097 2.9428 1.16957 4.37647 0.188641 5.20648-0.339555 5.54604-0.339555 8.18701-0.339555 11.3184-0.339555 15.5817-0.339555 15.5817 2.9428 15.5817 5.16876 12.7144 6.94198 9.24341 6.94198Z" fill="#FF0000" transform="matrix(1 0 0 1.00184 509.701 901.894)"/><path d="M1.62231 4.79149C1.35821 5.92332 1.2073 6.22514-0.339555 6.22514-0.792293 6.22514-1.16957 6.22514-1.16957 6.94198-1.16957 7.01743-1.13184 7.31926-0.716834 7.31926-0.226369 7.31926 0.301825 7.2438 0.792293 7.2438L2.4146 7.2438C3.2069 7.2438 5.13102 7.31926 5.92332 7.31926 6.14968 7.31926 6.60241 7.31926 6.60241 6.64016 6.60241 6.22514 6.33834 6.22514 5.69695 6.22514 3.96145 6.22514 3.84828 5.96106 3.84828 5.65924 3.84828 5.20648 5.54604-1.28276 5.77241-2.15051 6.18743-1.09412 7.20609 0.377283 9.16796 0.377283 13.4312 0.377283 18.0341-5.16876 18.0341-10.7148 18.0341-14.1858 16.0722-16.6381 13.2426-16.6381 10.828-16.6381 8.79065-14.299 8.37566-13.7708 8.07384-15.6572 6.60241-16.6381 5.09331-16.6381 3.99919-16.6381 3.13144-16.1099 2.4146-14.6763 1.7355-13.318 1.2073-11.0166 1.2073-10.8657 1.2073-10.7148 1.35821-10.5262 1.62231-10.5262 1.92414-10.5262 1.96187-10.5639 2.18823-11.4316 2.75415-13.6576 3.47101-15.8836 4.98011-15.8836 5.84786-15.8836 6.14968-15.2799 6.14968-14.1481 6.14968-13.2426 6.03652-12.8653 5.88561-12.1862L1.62231 4.79149ZM8.14929-11.7712C8.41337-12.8276 9.46978-13.9217 10.0734-14.4499 10.4884-14.8272 11.7335-15.8836 13.1671-15.8836 14.8272-15.8836 15.5817-14.2235 15.5817-12.2617 15.5817-10.4507 14.5253-6.18743 13.5821-4.22556 12.6389-2.18823 10.9034-0.377283 9.16796-0.377283 6.60241-0.377283 6.18743-3.62192 6.18743-3.77283 6.18743-3.88599 6.26288-4.18781 6.30059-4.37647L8.14929-11.7712Z" fill="#FF0000" transform="matrix(1 0 0 1.00184 535.08 901.894)"/><path d="M12.2617 9.16796C12.2617 9.05476 12.2617 8.9793 11.6203 8.33792 7.84744 4.52738 5.73469-1.69777 5.73469-9.39432 5.73469-16.7136 7.50791-23.0142 11.8844-27.4661 12.2617-27.8057 12.2617-27.8811 12.2617-27.9943 12.2617-28.2207 12.073-28.2961 11.9221-28.2961 11.4316-28.2961 8.33792-25.5797 6.48925-21.8823 4.56512-18.0718 3.69737-14.0349 3.69737-9.39432 3.69737-6.03652 4.22556-1.54685 6.18743 2.49006 8.41337 7.01743 11.5071 9.46978 11.9221 9.46978 12.073 9.46978 12.2617 9.39432 12.2617 9.16796Z" fill="#FF0000" transform="matrix(1 0 0 1.00184 553.555 901.894)"/><path d="M20.6373-18.4868C20.6373-25.127 16.7136-26.4852 14.4121-26.4852 11.4316-26.4852 7.65882-24.5233 4.8292-19.3923 2.90507-15.8458 1.7355-10.7148 1.7355-7.65882 1.7355-2.18823 4.60283 0.301825 7.99838 0.301825 10.5262 0.301825 13.8462-1.16957 16.4495-5.01785 19.6187-9.6584 20.6373-15.6572 20.6373-18.4868ZM7.47017-13.9972C7.99838-16.1854 8.9793-19.6187 10.1112-21.5805 10.9789-23.1274 12.5258-25.127 14.3367-25.127 15.9213-25.127 16.6004-23.4669 16.6004-21.241 16.6004-18.8641 15.7704-15.5817 15.3554-13.9972L7.47017-13.9972ZM14.9026-12.1862C12.5635-2.07505 9.39432-1.05639 8.07384-1.05639 7.54562-1.05639 6.75336-1.2073 6.22514-2.37688 5.77241-3.39555 5.77241-4.86694 5.77241-4.90466 5.77241-7.05518 6.60241-10.5639 7.01743-12.1862L14.9026-12.1862Z" fill="#FF0000" transform="matrix(1 0 0 1.00184 567.866 901.894)"/><path d="M8.37566 6.28803C8.57687 6.28803 8.8787 6.28803 8.8787 5.98621 8.8787 5.88561 8.85354 5.86045 8.52657 5.53345 5.08072 2.28884 4.22556-2.38945 4.22556-6.28803 4.22556-13.5318 7.21865-16.9274 8.50142-18.0844 8.85354-18.4113 8.8787-18.4365 8.8787-18.5622 8.8787-18.688 8.77809-18.8641 8.52657-18.8641 8.12414-18.8641 6.86652-17.5813 6.66531-17.355 3.29491-13.8337 2.59067-9.30628 2.59067-6.28803 2.59067-0.653955 4.95496 3.87343 8.37566 6.28803Z" fill="#FF0000" transform="matrix(1 0 0 1.00184 590.266 882.576)"/><path d="M5.5586-10.0105 8.02354-10.0105C8.50142-10.0105 8.80324-10.0105 8.80324-10.4884 8.80324-10.8406 8.47627-10.8406 8.04869-10.8406L5.75985-10.8406 6.66531-14.4121C6.76592-14.7895 6.76592-14.9152 6.76592-14.9404 6.76592-15.4685 6.36349-15.7201 5.93591-15.7201 5.08072-15.7201 4.90466-15.041 4.62799-13.9091L3.84828-10.8406 1.43367-10.8406C0.955779-10.8406 0.628803-10.8406 0.628803-10.3627 0.628803-10.0105 0.955779-10.0105 1.38337-10.0105L3.64707-10.0105 2.13793-3.97404C1.98702-3.34521 1.76065-2.46491 1.76065-2.11278 1.76065-0.603652 2.9931 0.251521 4.32617 0.251521 7.01743 0.251521 8.55172-3.29491 8.55172-3.59676 8.55172-3.87343 8.32536-3.92374 8.17445-3.92374 7.89778-3.92374 7.87263-3.82313 7.69653-3.44585 7.1935-2.23854 5.93591-0.452738 4.40162-0.452738 3.87343-0.452738 3.57161-0.804869 3.57161-1.63489 3.57161-2.11278 3.64707-2.38945 3.72252-2.71643L5.5586-10.0105Z" fill="#FF0000" transform="matrix(1 0 0 1.00184 600.62 882.576)"/><path d="M7.77199-6.28803C7.77199-8.67748 7.36956-11.5448 5.81015-14.5128 4.57768-16.8267 2.28884-18.8641 1.8361-18.8641 1.58458-18.8641 1.50913-18.688 1.50913-18.5622 1.50913-18.4616 1.50913-18.4113 1.81095-18.1095 5.33224-14.7643 6.13712-10.1615 6.13712-6.28803 6.13712 0.930628 3.14401 4.35132 1.86126 5.5083 1.53428 5.8353 1.50913 5.86045 1.50913 5.98621 1.50913 6.11197 1.58458 6.28803 1.8361 6.28803 2.23854 6.28803 3.49616 5.00526 3.69737 4.7789 7.06774 1.25761 7.77199-3.26976 7.77199-6.28803Z" fill="#FF0000" transform="matrix(1 0 0 1.00184 610.236 882.576)"/><path d="M7.49532-15.6949C7.49532-16.2483 7.09289-16.6507 6.5144-16.6507 5.86045-16.6507 5.13102-16.047 5.13102-15.2925 5.13102-14.7391 5.53345-14.3367 6.11197-14.3367 6.76592-14.3367 7.49532-14.9404 7.49532-15.6949ZM3.82313-6.4641 2.46491-2.9931C2.33914-2.61582 2.21339-2.31399 2.21339-1.88641 2.21339-0.653955 3.16915 0.251521 4.50223 0.251521 6.94198 0.251521 7.97323-3.26976 7.97323-3.59676 7.97323-3.84828 7.77199-3.92374 7.59592-3.92374 7.2941-3.92374 7.2438-3.74767 7.16834-3.49616 6.58985-1.48398 5.5586-0.452738 4.55253-0.452738 4.25071-0.452738 3.94889-0.5785 3.94889-1.25761 3.94889-1.86126 4.12495-2.31399 4.45192-3.09371 4.70344-3.77283 4.95496-4.45192 5.23163-5.13102L6.01136-7.16834C6.23773-7.74684 6.53955-8.52657 6.53955-8.95415 6.53955-10.2118 5.53345-11.0921 4.25071-11.0921 1.81095-11.0921 0.754562-7.57077 0.754562-7.2438 0.754562-7.01743 0.930628-6.91683 1.13184-6.91683 1.45882-6.91683 1.48398-7.06774 1.55943-7.31926 2.26369-9.7087 3.4207-10.3878 4.17525-10.3878 4.52738-10.3878 4.7789-10.2621 4.7789-9.55779 4.7789-9.30628 4.75375-8.95415 4.50223-8.1996L3.82313-6.4641Z" fill="#FF0000" transform="matrix(1 0 0 1.00184 590.266 911.582)"/><path d="M5.99877-26.9379C5.99877-27.617 5.99877-28.2961 5.24422-28.2961 4.48967-28.2961 4.48967-27.617 4.48967-26.9379L4.48967 8.07384C4.48967 8.75294 4.48967 9.43203 5.24422 9.43203 5.99877 9.43203 5.99877 8.75294 5.99877 8.07384L5.99877-26.9379Z" fill="#FF0000" transform="matrix(1 0 0 1.00184 628.562 901.894)"/><path d="M7.69653 0C16.4872 0 28.8998-6.71561 28.8998-17.0154 28.8998-20.3732 27.3152-22.486 25.4665-23.6556 22.2219-25.7683 18.7509-25.7683 15.1667-25.7683 11.9221-25.7683 9.69614-25.7683 6.52696-24.4101 1.50913-22.1842 0.792293-19.0527 0.792293-18.7509 0.792293-18.5245 0.943203-18.4491 1.16957-18.4491 1.77322-18.4491 2.64097-18.9773 2.9428-19.1659 3.73508-19.6941 3.84828-19.9205 4.07465-20.6373 4.60283-22.1464 5.65924-23.4669 10.413-23.6933 9.80931-15.8081 7.88519-8.60203 5.24422-1.99959 3.84828-1.50913 2.9428-0.641379 2.9428-0.264097 2.9428-0.0377283 2.98052 0 3.81054 0L7.69653 0ZM7.88519-2.07505C12.1862-12.6012 12.9785-19.1659 13.5067-23.6933 16.0345-23.6933 25.6929-23.6933 25.6929-15.3931 25.6929-7.99838 19.0527-2.07505 9.92251-2.07505L7.88519-2.07505Z" fill="#FF0000" transform="matrix(1 0 0 1.00184 645.291 901.894)"/><path d="M10.6394-9.39432C10.6394-12.2617 10.2621-16.9399 8.14929-21.3164 5.92332-25.8438 2.82961-28.2961 2.4146-28.2961 2.26369-28.2961 2.07505-28.2207 2.07505-27.9943 2.07505-27.8811 2.07505-27.8057 2.71643-27.1643 6.48925-23.3537 8.60203-17.1286 8.60203-9.43203 8.60203-2.11278 6.82881 4.18781 2.45233 8.63974 2.07505 8.9793 2.07505 9.05476 2.07505 9.16796 2.07505 9.39432 2.26369 9.46978 2.4146 9.46978 2.90507 9.46978 5.99877 6.75336 7.84744 3.05598 9.7716-0.792293 10.6394-4.86694 10.6394-9.39432Z" fill="#FF0000" transform="matrix(1 0 0 1.00184 675.334 901.894)"/><path d="M17.355-3.47101C17.355-4.33873 17.355-4.52738 16.8267-4.52738 14.5253-4.56512 10.7903-4.86694 7.39471-6.52696 3.32006-8.56428 1.77322-10.9412 0.83002-12.4126 0.716834-12.6012 0.490466-12.6012 0-12.6012-0.867748-12.6012-0.905476-12.5635-0.905476-11.6203L-0.905476-11.0166C4.22556-1.77322 12.7144 0 16.5627 0 17.355 0 17.355-0.0377283 17.355-1.05639L17.355-3.47101Z" fill="#FF0000" transform="matrix(1 0 0 1.00184 397.399 938.816)"/><path d="M17.8832 6.48925C12.7521-2.75415 4.26327-4.52738 0.41501-4.52738-0.377283-4.52738-0.377283-4.48967-0.377283-3.47101L-0.377283-1.05639C-0.377283-0.188641-0.377283 0 0.150913 0 2.45233 0.0377283 6.18743 0.339555 9.58294 1.99959 13.6576 4.0369 15.2044 6.41379 16.1476 7.88519 16.2608 8.07384 16.4872 8.07384 16.9777 8.07384 17.8454 8.07384 17.8832 8.0361 17.8832 7.09289L17.8832 6.48925Z" fill="#FF0000" transform="matrix(1 0 0 1.00184 526.702 938.816)"/><path d="M17.355-3.47101C17.355-4.48967 17.355-4.52738 16.5627-4.52738 12.7144-4.52738 4.22556-2.71643-0.905476 6.48925L-0.905476 7.09289C-0.905476 8.0361-0.867748 8.07384 0 8.07384 0.716834 8.07384 0.754562 8.0361 0.943203 7.77199 4.0369 2.82961 9.24341 0.150913 16.9022 0 17.355 0 17.355-0.264097 17.355-1.05639L17.355-3.47101Z" fill="#FF0000" transform="matrix(1 0 0 1.00184 543.617 938.816)"/><path d="M17.8832-11.6203C17.8832-12.5635 17.8454-12.6012 16.9777-12.6012 16.2608-12.6012 16.2231-12.5635 16.0345-12.2994 12.9408-7.357 7.73427-4.67829 0.0754562-4.52738-0.377283-4.52738-0.377283-4.26327-0.377283-3.47101L-0.377283-1.05639C-0.377283-0.0377283-0.377283 0 0.41501 0 4.26327 0 12.7521-1.81095 17.8832-11.0166L17.8832-11.6203Z" fill="#FF0000" transform="matrix(1 0 0 1.00184 672.92 938.816)"/><path d="M1.157-17.1789 1.157-16.3489 1.71034-16.3489C3.64707-16.3489 3.69737-16.0722 3.69737-15.1416L3.69737-2.03732C3.69737-1.10669 3.64707-0.83002 1.71034-0.83002L1.157-0.83002 1.157 0 10.7148 0C15.2422 0 18.8892-3.77283 18.8892-8.42596 18.8892-13.2803 15.217-17.1789 10.7148-17.1789L1.157-17.1789ZM7.14319-0.83002C5.98621-0.83002 5.93591-1.00608 5.93591-1.86126L5.93591-15.3176C5.93591-16.1728 5.98621-16.3489 7.14319-16.3489L10.0357-16.3489C11.9975-16.3489 13.6324-15.544 14.7391-14.2864 16.3489-12.3749 16.3489-9.68355 16.3489-8.45112 16.3489-7.16834 16.3489-4.70344 14.7643-2.84219 13.884-1.81095 12.2742-0.83002 10.0357-0.83002L7.14319-0.83002Z" fill="#FF0000" transform="matrix(1 0 0 1.00184 467.452 972.063)"/><path d="M4.62799-5.73469C4.62799-7.62108 5.40769-10.3375 7.82229-10.3878 7.67138-10.2872 7.41986-10.086 7.41986-9.50749 7.41986-8.72779 8.02354-8.37566 8.52657-8.37566 9.13021-8.37566 9.6584-8.77809 9.6584-9.50749 9.6584-10.3878 8.85354-11.0921 7.74684-11.0921 6.11197-11.0921 5.00526-9.85961 4.47708-8.45112L4.45192-8.45112 4.45192-11.0921 0.880324-10.8154 0.880324-9.98537C2.59067-9.98537 2.79188-9.80931 2.79188-8.57687L2.79188-1.96187C2.79188-0.83002 2.49006-0.83002 0.880324-0.83002L0.880324 0C1.86126-0.0754562 3.24461-0.0754562 3.84828-0.0754562 5.33224-0.0754562 5.38254-0.0754562 7.01743 0L7.01743-0.83002 6.5144-0.83002C4.67829-0.83002 4.62799-1.10669 4.62799-2.01217L4.62799-5.73469Z" fill="#FF0000" transform="matrix(1 0 0 1.00184 487.778 972.063)"/><path d="M4.90466-15.4937C4.90466-16.2231 4.32617-16.9022 3.49616-16.9022 2.76673-16.9022 2.11278-16.3237 2.11278-15.5189 2.11278-14.6385 2.84219-14.1103 3.49616-14.1103 4.37647-14.1103 4.90466-14.8398 4.90466-15.4937ZM1.13184-10.8154 1.13184-9.98537C2.74158-9.98537 2.96795-9.83446 2.96795-8.60203L2.96795-1.96187C2.96795-0.83002 2.66612-0.83002 1.05639-0.83002L1.05639 0C2.03732-0.0754562 3.44585-0.0754562 3.82313-0.0754562 4.1501-0.0754562 5.65924-0.0754562 6.53955 0L6.53955-0.83002C4.90466-0.83002 4.80405-0.955779 4.80405-1.93671L4.80405-11.0921 1.13184-10.8154Z" fill="#FF0000" transform="matrix(1 0 0 1.00184 498.154 972.063)"/><path d="M11.1424-8.2499C11.746-9.6584 12.6012-9.98537 13.5318-10.0105L13.5318-10.8406C12.6515-10.7651 12.6012-10.7651 11.57-10.7651 11.3436-10.7651 10.1615-10.7651 9.38173-10.8406L9.38173-10.0105C10.2621-9.96022 10.4884-9.40688 10.4884-8.9793 10.4884-8.72779 10.4381-8.60203 10.3375-8.37566L7.62108-2.03732 4.65314-8.85354C4.50223-9.18052 4.50223-9.33143 4.50223-9.38173 4.50223-10.0105 5.40769-10.0105 5.8353-10.0105L5.8353-10.8406C4.75375-10.7651 3.57161-10.7651 3.09371-10.7651 2.56551-10.7651 1.35821-10.7651 0.553345-10.8406L0.553345-10.0105C2.08762-10.0105 2.21339-9.85961 2.59067-9.00445L6.36349-0.301825C6.53955 0.0754562 6.69046 0.251521 7.04259 0.251521 7.39471 0.251521 7.57077 0.0503041 7.69653-0.251521L11.1424-8.2499Z" fill="#FF0000" transform="matrix(1 0 0 1.00184 505.548 972.063)"/><path d="M4.90466-15.4937C4.90466-16.2231 4.32617-16.9022 3.49616-16.9022 2.76673-16.9022 2.11278-16.3237 2.11278-15.5189 2.11278-14.6385 2.84219-14.1103 3.49616-14.1103 4.37647-14.1103 4.90466-14.8398 4.90466-15.4937ZM1.13184-10.8154 1.13184-9.98537C2.74158-9.98537 2.96795-9.83446 2.96795-8.60203L2.96795-1.96187C2.96795-0.83002 2.66612-0.83002 1.05639-0.83002L1.05639 0C2.03732-0.0754562 3.44585-0.0754562 3.82313-0.0754562 4.1501-0.0754562 5.65924-0.0754562 6.53955 0L6.53955-0.83002C4.90466-0.83002 4.80405-0.955779 4.80405-1.93671L4.80405-11.0921 1.13184-10.8154Z" fill="#FF0000" transform="matrix(1 0 0 1.00184 519.601 972.063)"/><path d="M12.2239-7.62108C12.2239-9.73386 11.2681-11.0921 8.62718-11.0921 6.13712-11.0921 5.00526-9.28112 4.70344-8.67748L4.67829-8.67748 4.67829-11.0921 1.03124-10.8154 1.03124-9.98537C2.74158-9.98537 2.9428-9.80931 2.9428-8.57687L2.9428-1.96187C2.9428-0.83002 2.64097-0.83002 1.03124-0.83002L1.03124 0C2.11278-0.0754562 3.21946-0.0754562 3.89859-0.0754562 4.62799-0.0754562 5.68439-0.0754562 6.76592 0L6.76592-0.83002C5.15617-0.83002 4.85435-0.83002 4.85435-1.96187L4.85435-6.5144C4.85435-9.15536 6.86652-10.3878 8.40081-10.3878 9.9351-10.3878 10.3124-9.30628 10.3124-7.72168L10.3124-1.96187C10.3124-0.83002 10.0105-0.83002 8.40081-0.83002L8.40081 0C9.48234-0.0754562 10.589-0.0754562 11.2681-0.0754562 11.9975-0.0754562 13.054-0.0754562 14.1355 0L14.1355-0.83002C12.5258-0.83002 12.2239-0.83002 12.2239-1.96187L12.2239-7.62108Z" fill="#FF0000" transform="matrix(1 0 0 1.00184 526.995 972.063)"/><path d="M4.35132-1.7355C3.57161-1.81095 2.9428-2.49006 2.9428-3.39555 2.9428-3.99919 3.09371-4.22556 3.26976-4.45192 4.32617-3.82313 5.30708-3.69737 5.91076-3.69737 8.40081-3.69737 10.2369-5.43284 10.2369-7.39471 10.2369-8.35051 9.80931-9.15536 9.20567-9.80931 9.55779-10.1112 10.3878-10.6394 11.6203-10.6645 11.5197-10.589 11.3939-10.4633 11.3939-10.0608 11.3939-9.6081 11.7209-9.28112 12.1736-9.28112 12.5258-9.28112 12.9533-9.50749 12.9533-10.086 12.9533-10.5136 12.6264-11.3688 11.5197-11.3688 11.0921-11.3688 9.88477-11.2681 8.72779-10.2118 8.09899-10.6645 7.11804-11.0921 5.93591-11.0921 3.44585-11.0921 1.60973-9.35658 1.60973-7.39471 1.60973-6.21258 2.26369-5.33224 2.79188-4.8292 2.23854-4.20041 2.03732-3.39555 2.03732-2.79188 2.03732-1.76065 2.54036-0.980931 3.09371-0.553345 1.7858-0.201217 0.754562 0.779714 0.754562 1.93671 0.754562 3.74767 3.34521 5.15617 6.66531 5.15617 9.80931 5.15617 12.5761 3.87343 12.5761 1.88641 12.5761 0.528193 11.7712-0.528193 10.9412-0.955779 9.45719-1.7355 8.22475-1.7355 5.75985-1.7355L4.35132-1.7355ZM5.93591-4.42677C3.59676-4.42677 3.59676-6.84137 3.59676-7.39471 3.59676-8.32536 3.72252-8.9793 4.0998-9.48234 4.52738-10.0608 5.23163-10.3627 5.91076-10.3627 8.2499-10.3627 8.2499-7.94808 8.2499-7.39471 8.2499-6.4641 8.12414-5.81015 7.74684-5.30708 7.1935-4.60283 6.38864-4.42677 5.93591-4.42677ZM7.11804-0.100608C7.79714-0.100608 11.0921-0.100608 11.0921 1.91156 11.0921 3.26976 9.15536 4.42677 6.66531 4.42677 4.1501 4.42677 2.23854 3.26976 2.23854 1.91156 2.23854 1.38337 2.64097-0.100608 4.70344-0.100608L7.11804-0.100608Z" fill="#FF0000" transform="matrix(1 0 0 1.00184 541.79 972.063)"/><path d="M4.80405-10.0105 7.82229-10.0105 7.82229-10.8406 4.72859-10.8406 4.72859-13.6827C4.72859-15.871 5.96106-17.0028 7.06774-17.0028 7.47017-17.0028 7.69653-16.9022 7.79714-16.8771 7.34441-16.6507 7.21865-16.2231 7.21865-15.8961 7.21865-15.2422 7.69653-14.7643 8.35051-14.7643 9.02961-14.7643 9.48234-15.2422 9.48234-15.8961 9.48234-16.9777 8.42596-17.7071 7.09289-17.7071 5.20648-17.7071 2.96795-16.3489 2.96795-13.6576L2.96795-10.8406 0.905476-10.8406 0.905476-10.0105 2.96795-10.0105 2.96795-1.96187C2.96795-0.83002 2.66612-0.83002 1.05639-0.83002L1.05639 0C2.03732-0.0754562 3.4207-0.0754562 4.02434-0.0754562 5.5083-0.0754562 5.5586-0.0754562 7.1935 0L7.1935-0.83002 6.69046-0.83002C4.85435-0.83002 4.80405-1.10669 4.80405-2.01217L4.80405-10.0105Z" fill="#FF0000" transform="matrix(1 0 0 1.00184 564.01 972.063)"/><path d="M12.5761-5.35739C12.5761-8.50142 9.98537-11.2178 6.66531-11.2178 3.34525-11.2178 0.754562-8.50142 0.754562-5.35739 0.754562-2.21335 3.44585 0.251521 6.66531 0.251521 9.90992 0.251521 12.5761-2.21339 12.5761-5.35739ZM6.66531-0.528193C5.30708-0.528193 4.25071-1.18215 3.69737-2.06247 3.06856-3.09371 2.9931-4.32617 2.9931-5.58375 2.9931-6.53955 2.9931-8.04869 3.77283-9.13021 4.42677-10.0105 5.48315-10.5136 6.66531-10.5136 7.97323-10.5136 9.05476-9.88477 9.63325-9.00445 10.3124-7.94808 10.3375-6.58985 10.3375-5.58375 10.3375-4.42677 10.2872-3.04341 9.58294-1.98702 8.90385-0.980931 7.77199-0.528193 6.66531-0.528193Z" fill="#FF0000" transform="matrix(1 0 0 1.00184 572.145 972.063)"/><path d="M4.62799-5.73469C4.62799-7.62108 5.40769-10.3375 7.82229-10.3878 7.67138-10.2872 7.41986-10.086 7.41986-9.50749 7.41986-8.72779 8.02354-8.37566 8.52657-8.37566 9.13021-8.37566 9.6584-8.77809 9.6584-9.50749 9.6584-10.3878 8.85354-11.0921 7.74684-11.0921 6.11197-11.0921 5.00526-9.85961 4.47708-8.45112L4.45192-8.45112 4.45192-11.0921 0.880324-10.8154 0.880324-9.98537C2.59067-9.98537 2.79188-9.80931 2.79188-8.57687L2.79188-1.96187C2.79188-0.83002 2.49006-0.83002 0.880324-0.83002L0.880324 0C1.86126-0.0754562 3.24461-0.0754562 3.84828-0.0754562 5.33224-0.0754562 5.38254-0.0754562 7.01743 0L7.01743-0.83002 6.5144-0.83002C4.67829-0.83002 4.62799-1.10669 4.62799-2.01217L4.62799-5.73469Z" fill="#FF0000" transform="matrix(1 0 0 1.00184 585.456 972.063)"/><path d="M9.25597-9.98537C8.55172-9.75901 8.45112-9.18052 8.45112-8.8787 8.45112-8.1996 8.929-7.69653 9.63325-7.69653 10.2872-7.69653 10.8154-8.14929 10.8154-8.90385 10.8154-10.4633 9.10506-11.2178 6.74076-11.2178 3.24461-11.2178 0.880324-8.42596 0.880324-5.43284 0.880324-2.23854 3.49616 0.251521 6.66531 0.251521 10.2118 0.251521 11.0921-2.71643 11.0921-3.01825 11.0921-3.32006 10.7651-3.32006 10.6897-3.32006 10.5136-3.32006 10.3878-3.29491 10.3124-3.04341 10.1363-2.51521 9.43203-0.528193 6.91683-0.528193 5.35739-0.528193 3.11886-1.7355 3.11886-5.45799 3.11886-9.07991 4.98011-10.4381 6.81622-10.4381 7.04259-10.4381 8.37566-10.4381 9.25597-9.98537Z" fill="#FF0000" transform="matrix(1 0 0 1.00184 595.833 972.063)"/><path d="M10.3878-5.73469C10.9412-5.73469 11.0921-5.73469 11.0921-6.31319 11.0921-8.55172 9.85961-11.2178 6.31319-11.2178 3.1943-11.2178 0.754562-8.62718 0.754562-5.5083 0.754562-2.26369 3.47101 0.251521 6.64016 0.251521 9.83446 0.251521 11.0921-2.43975 11.0921-3.01825 11.0921-3.11886 11.0166-3.3704 10.6897-3.3704 10.413-3.3704 10.3627-3.1943 10.3124-3.04341 9.40688-0.603652 7.2438-0.528193 6.79107-0.528193 5.65924-0.528193 4.50223-1.05639 3.74767-2.21339 2.99312-3.37037 2.9931-4.98011 2.9931-5.73469L10.3878-5.73469ZM3.01825-6.38864C3.24461-9.90992 5.38254-10.5136 6.31319-10.5136 9.25597-10.5136 9.35658-6.96713 9.38173-6.38864L3.01825-6.38864Z" fill="#FF0000" transform="matrix(1 0 0 1.00184 607.664 972.063)"/><path d="M539.873 356.457 652.262 356.457 652.262 360.985 539.873 360.985Z" fill="#FF0000" transform="matrix(1 0 0 1.00184 -125.559 577.166)"/><path d="M686.091 356.457 798.48 356.457 798.48 360.985 686.091 360.985Z" fill="#FF0000" transform="matrix(1 0 0 1.00184 -125.559 577.166)"/><path d="M24.8629-8.67748C25.5042-8.67748 26.1834-8.67748 26.1834-9.43203 26.1834-10.1866 25.5042-10.1866 24.8629-10.1866L4.45192-10.1866C3.81054-10.1866 3.13144-10.1866 3.13144-9.43203 3.13144-8.67745 3.81054-8.67748 4.45192-8.67748L24.8629-8.67748Z" transform="matrix(1 0 0 1.00184 698.472 901.894)"/><path d="M15.8836 20.1468 2.49006 36.7096C2.18823 37.0867 2.15051 37.1621 2.15051 37.3133 2.15051 37.7283 2.49006 37.7283 3.16915 37.7283L34.4459 37.7283 37.6904 28.3338 36.7471 28.3338C35.8042 31.1635 33.2764 33.4648 30.0693 34.5589 29.4657 34.7476 26.8625 35.653 21.3164 35.653L5.28193 35.653 18.3736 19.4677C18.6377 19.1282 18.7132 19.015 18.7132 18.8641 18.7132 18.7132 18.6754 18.6754 18.4491 18.3359L6.18743 1.50913 21.1278 1.50913C25.4288 1.50913 34.1063 1.77322 36.7471 8.82839L37.6904 8.82839 34.4459 0 3.16915 0C2.15051 0 2.11278 0.0377283 2.11278 1.2073L15.8836 20.1468Z" fill="#0070C0" transform="matrix(1 0 0 1.00184 739.864 835.869)"/><path d="M19.9205-14.4373C20.2223-15.6698 20.7756-16.2734 22.5866-16.3489 22.8381-16.3489 23.0393-16.4998 23.0393-16.8267 23.0393-16.9777 22.9136-17.1789 22.662-17.1789 22.486-17.1789 22.0081-17.1034 20.1468-17.1034 18.1347-17.1034 17.8077-17.1789 17.5813-17.1789 17.1789-17.1789 17.1034-16.9022 17.1034-16.701 17.1034-16.374 17.4304-16.3489 17.6568-16.3489 19.1911-16.2986 19.1911-15.6195 19.1911-15.2673 19.1911-15.1416 19.1911-15.0158 19.0905-14.6134L16.3237-3.59676 10.2621-16.7261C10.0608-17.1789 10.0105-17.1789 9.40688-17.1789L6.13712-17.1789C5.68439-17.1789 5.35739-17.1789 5.35739-16.701 5.35739-16.3489 5.65924-16.3489 6.18743-16.3489 6.38864-16.3489 7.14319-16.3489 7.72168-16.198L4.35132-2.69128C4.0495-1.43367 3.39555-0.880324 1.71034-0.83002 1.55943-0.83002 1.25761-0.804869 1.25761-0.352131 1.25761-0.201217 1.38337 0 1.63489 0 1.7355 0 2.31399-0.0754562 4.12495-0.0754562 6.11197-0.0754562 6.48925 0 6.71561 0 6.81622 0 7.1935 0 7.1935-0.47789 7.1935-0.779714 6.91683-0.83002 6.74076-0.83002 5.8353-0.855172 5.08072-1.00608 5.08072-1.88641 5.08072-2.01217 5.15617-2.3643 5.15617-2.38945L8.45112-15.5189 8.47627-15.5189 15.4685-0.452738C15.6446-0.0503041 15.6698 0 15.9464 0 16.2986 0 16.3237-0.100608 16.4243-0.528193L19.9205-14.4373Z" fill="#0070C0" transform="matrix(1 0 0 1.00184 779.69 845.843)"/><path d="M10.3878-15.6949C10.3878-16.1728 10.0105-16.6507 9.40688-16.6507 8.65233-16.6507 7.99838-15.9464 7.99838-15.2925 7.99838-14.8146 8.37566-14.3367 8.9793-14.3367 9.73386-14.3367 10.3878-15.041 10.3878-15.6949ZM5.13102 1.25761C4.75375 2.79188 3.52131 4.42677 1.98702 4.42677 1.58458 4.42677 1.2073 4.32617 1.157 4.30101 1.93671 3.92374 2.03732 3.24461 2.03732 3.01825 2.03732 2.4146 1.58458 2.08762 1.05639 2.08762 0.326976 2.08762-0.352131 2.71643-0.352131 3.54646-0.352131 4.50223 0.5785 5.13102 2.01217 5.13102 3.54646 5.13102 6.31319 4.17525 7.06774 1.157L9.33143-7.84744C9.40688-8.14929 9.45719-8.35051 9.45719-8.72779 9.45719-10.1112 8.35051-11.0921 6.89168-11.0921 4.22556-11.0921 2.66612-7.57077 2.66612-7.2438 2.66612-7.01743 2.84219-6.91683 3.04341-6.91683 3.32006-6.91683 3.34521-6.99228 3.52131-7.36956 4.27586-9.10506 5.5586-10.3878 6.81622-10.3878 7.34441-10.3878 7.64623-10.0357 7.64623-9.20567 7.64623-8.85354 7.57077-8.50142 7.49532-8.14929L5.13102 1.25761Z" fill="#0070C0" transform="matrix(1 0 0 1.00184 779.69 875.241)"/><path d="M18.3862-8.37566C18.7635-8.37566 19.2665-8.37566 19.2665-8.95415 19.2665-9.53264 18.6629-9.53264 18.2856-9.53264L2.46491-9.53264C2.08762-9.53264 1.48398-9.53264 1.48398-8.95415 1.48398-8.37566 1.98702-8.37566 2.3643-8.37566L18.3862-8.37566ZM18.2856-3.04341C18.6629-3.04341 19.2665-3.04341 19.2665-3.62192 19.2665-4.20044 18.7635-4.20041 18.3862-4.20041L2.3643-4.20041C1.98702-4.20041 1.48398-4.20041 1.48398-3.62192 1.48398-3.04343 2.08762-3.04341 2.46491-3.04341L18.2856-3.04341Z" fill="#0070C0" transform="matrix(1 0 0 1.00184 791.906 875.241)"/><path d="M7.89778-16.0219C7.89778-16.701 7.84744-16.7261 7.16834-16.7261 6.13712-15.7201 4.80405-15.1164 2.4146-15.1164L2.4146-14.2864C3.09371-14.2864 4.45192-14.2864 5.91076-14.9655L5.91076-2.06247C5.91076-1.13184 5.8353-0.83002 3.44585-0.83002L2.56551-0.83002 2.56551 0C3.59676-0.0754562 5.75985-0.0754562 6.89168-0.0754562 8.0235-0.0754562 10.2118-0.0754562 11.243 0L11.243-0.83002 10.3627-0.83002C7.97323-0.83002 7.89778-1.13184 7.89778-2.06247L7.89778-16.0219Z" fill="#0070C0" transform="matrix(1 0 0 1.00184 812.614 875.241)"/><path d="M29.428-24.9383C29.5034-25.0515 29.6166-25.3156 29.6166-25.4665 29.6166-25.7306 29.5789-25.7683 28.7111-25.7683L2.6787-25.7683C1.81095-25.7683 1.77322-25.7306 1.77322-25.4665 1.77322-25.3156 1.88641-25.0515 1.96187-24.9383L14.6763 0.528193C14.9404 1.01866 15.0535 1.24503 15.6949 1.24503 16.3363 1.24503 16.4495 1.01866 16.7136 0.528193L29.428-24.9383ZM6.4515-23.0519 27.1643-23.0519 16.8267-2.30142 6.4515-23.0519Z" fill="#0070C0" transform="matrix(1 0 0 1.00184 833.954 864.217)"/><path d="M14.4876-12.1736C14.4876-16.4746 11.9472-17.6819 9.98537-17.6819 8.1996-17.6819 5.785-16.6758 3.89859-13.884 1.7355-10.6645 1.23245-6.69046 1.23245-5.25678 1.23245-1.53428 3.26976 0.226369 5.75985 0.226369 7.36956 0.226369 9.6081-0.5785 11.4945-3.09371 13.7582-6.08682 14.4876-10.2118 14.4876-12.1736ZM5.23163-9.38173C5.73469-11.4191 6.23773-13.0791 7.14319-14.5379 7.74684-15.5189 8.82839-16.6255 9.93507-16.6255 11.243-16.6255 11.5951-15.1416 11.5951-13.9343 11.5951-12.6012 11.2178-10.9915 10.8406-9.38173L5.23163-9.38173ZM10.5136-8.07384C10.1112-6.53955 9.6081-4.65314 8.80324-3.29491 7.79714-1.55943 6.69046-0.83002 5.785-0.83002 4.95496-0.83002 4.1501-1.45882 4.1501-3.54646 4.1501-4.98011 4.50223-6.43894 4.90466-8.07384L10.5136-8.07384Z" fill="#0070C0" transform="matrix(1 0 0 1.00184 865.275 878.776)"/><path d="M7.50791 4.26327C5.43284 2.6787 3.73508-0.301825 3.73508-4.71603 3.73508-9.07363 5.39513-12.0919 7.50791-13.6953 7.50791-13.7142 7.56449-13.7896 7.56449-13.884 7.56449-13.9972 7.48904-14.1481 7.26267-14.1481 6.92311-14.1481 2.37688-11.1864 2.37688-4.71603 2.37688 1.7355 6.90427 4.71603 7.26267 4.71603 7.48904 4.71603 7.56449 4.56512 7.56449 4.45192 7.56449 4.3576 7.50791 4.28214 7.50791 4.26327Z" fill="#0070C0" transform="matrix(1 0 0 1.00184 881.042 865.372)"/><path d="M5.07444-7.37587 7.13063-7.37587C7.50791-7.37587 7.77199-7.37587 7.77199-7.84744 7.77199-8.13042 7.52678-8.13042 7.18722-8.13042L5.26309-8.13042 5.92332-10.7337C5.99877-11.0166 5.99877-11.1298 5.99877-11.1487 5.99877-11.6014 5.64037-11.7901 5.33855-11.7901 5.11218-11.7901 4.62171-11.658 4.45192-11.0543L3.71621-8.13042 1.6789-8.13042C1.28276-8.13042 1.26389-8.11155 1.18844-8.05497 1.09412-7.97951 1.01866-7.73427 1.01866-7.63995 1.07525-7.37587 1.24503-7.37587 1.62231-7.37587L3.52759-7.37587 2.4146-2.92393C2.30142-2.49006 2.15051-1.84868 2.15051-1.62231 2.15051-0.528193 3.13144 0.188641 4.28214 0.188641 6.4515 0.188641 7.73427-2.39574 7.73427-2.71643 7.73427-2.77302 7.69653-2.98052 7.37587-2.98052 7.13063-2.98052 7.09289-2.8862 6.99856-2.65983 6.35721-1.24503 5.28193-0.433873 4.3576-0.433873 3.65963-0.433873 3.64076-1.13184 3.64076-1.37708 3.64076-1.64118 3.64076-1.6789 3.73508-2.03732L5.07444-7.37587Z" fill="#0070C0" transform="matrix(1 0 0 1.00184 890.089 865.372)"/><path d="M6.67787-4.71603C6.67787-11.1675 2.15051-14.1481 1.79209-14.1481 1.56572-14.1481 1.50913-13.9783 1.50913-13.884 1.50913-13.7708 1.52799-13.7519 1.86754-13.4501 3.5653-11.9975 5.31968-9.20567 5.31968-4.71603 5.31968-0.716834 3.92374 2.28255 1.79209 4.07465 1.52799 4.31989 1.50913 4.33873 1.50913 4.45192 1.50913 4.54625 1.56572 4.71603 1.79209 4.71603 2.13164 4.71603 6.67787 1.75436 6.67787-4.71603Z" fill="#0070C0" transform="matrix(1 0 0 1.00184 899.052 865.372)"/><path d="M6.5647-11.7712C6.5647-12.2239 6.22514-12.5258 5.79128-12.5258 5.28193-12.5258 4.73487-12.0353 4.73487-11.4882 4.73487-11.0166 5.07444-10.7337 5.48946-10.7337 6.0931-10.7337 6.5647-11.2996 6.5647-11.7712ZM5.43284-5.18764C5.5083-5.37626 5.67808-5.82899 5.75354-5.99877 5.81015-6.16855 5.88561-6.35721 5.88561-6.67787 5.88561-7.73427 4.9424-8.31905 3.99919-8.31905 2.07505-8.31905 1.15071-5.82899 1.15071-5.414 1.15071-5.31968 1.22617-5.14989 1.49026-5.14989 1.75436-5.14989 1.81095-5.26309 1.86754-5.43284 2.39574-7.26267 3.39555-7.69653 3.92374-7.69653 4.30101-7.69653 4.43305-7.45133 4.43305-7.01743 4.43305-6.64016 4.31989-6.35721 4.28214-6.22514L3.30122-3.81054C3.07484-3.26348 3.07484-3.22577 2.82961-2.58438 2.58438-2.01846 2.49006-1.77322 2.49006-1.45253 2.49006-0.490466 3.35781 0.188641 4.39534 0.188641 6.30059 0.188641 7.2438-2.30142 7.2438-2.71643 7.2438-2.75415 7.22493-2.98052 6.8854-2.98052 6.62129-2.98052 6.60241-2.8862 6.48925-2.52779 6.18743-1.56572 5.414-0.433873 4.45192-0.433873 4.11236-0.433873 3.94261-0.660241 3.94261-1.11298 3.94261-1.49026 4.05578-1.77322 4.30101-2.35801L5.43284-5.18764Z" fill="#0070C0" transform="matrix(1 0 0 1.00184 881.042 887.153)"/><path d="M10.6016-25.2402C10.6394-25.3911 10.7148-25.6174 10.7148-25.806 10.7148-26.1834 10.3375-26.1834 10.2621-26.1834 10.2243-26.1834 8.8661-26.0702 8.18701-25.9947 7.54562-25.957 6.97972-25.8815 6.30059-25.8438 5.39513-25.7683 5.13102-25.7306 5.13102-25.0515 5.13102-24.6742 5.5083-24.6742 5.88561-24.6742 7.80973-24.6742 7.80973-24.3347 7.80973-23.9574 7.80973-23.8065 7.80973-23.731 7.62108-23.0519L2.22596-1.4714C2.07505-0.905476 2.07505-0.83002 2.07505-0.603652 2.07505 0.226369 2.71643 0.377283 3.09371 0.377283 4.1501 0.377283 4.37647-0.452738 4.67829-1.62231L6.4515-8.67748C9.16796-8.37566 10.7903-7.2438 10.7903-5.43284 10.7903-5.20648 10.7903-5.05557 10.6771-4.48967 10.5262-3.92374 10.5262-3.47101 10.5262-3.28235 10.5262-1.09412 11.9598 0.377283 13.884 0.377283 15.6195 0.377283 16.5249-1.2073 16.8267-1.7355 17.619-3.13144 18.1095-5.24422 18.1095-5.39513 18.1095-5.58375 17.9586-5.73469 17.7322-5.73469 17.3927-5.73469 17.355-5.58375 17.2041-4.98011 16.6758-3.01825 15.8836-0.377283 13.9594-0.377283 13.2049-0.377283 12.7144-0.754562 12.7144-2.18823 12.7144-2.90507 12.8653-3.73508 13.0162-4.30101 13.1671-4.98011 13.1671-5.01785 13.1671-5.47059 13.1671-7.69653 11.1675-8.94156 7.69653-9.39432 9.05476-10.2243 10.413-11.6957 10.9412-12.2617 13.0917-14.6763 14.5631-15.8836 16.2986-15.8836 17.1663-15.8836 17.3927-15.6572 17.6568-15.4308 16.2608-15.2799 15.7327-14.299 15.7327-13.5444 15.7327-12.6389 16.4495-12.3371 16.9777-12.3371 17.9963-12.3371 18.9018-13.2049 18.9018-14.4121 18.9018-15.5063 18.0341-16.6381 16.3363-16.6381 14.2612-16.6381 12.5635-15.1667 9.88477-12.1485 9.50749-11.6957 8.11155-10.2621 6.71561-9.73386L10.6016-25.2402Z" fill="#0070C0" transform="matrix(1 0 0 1.00184 911.344 864.217)"/><path d="M12.2617 9.16796C12.2617 9.05476 12.2617 8.9793 11.6203 8.33792 7.84744 4.52738 5.73469-1.69777 5.73469-9.39432 5.73469-16.7136 7.50791-23.0142 11.8844-27.4661 12.2617-27.8057 12.2617-27.8811 12.2617-27.9943 12.2617-28.2207 12.073-28.2961 11.9221-28.2961 11.4316-28.2961 8.33792-25.5797 6.48925-21.8823 4.56512-18.0718 3.69737-14.0349 3.69737-9.39432 3.69737-6.03652 4.22556-1.54685 6.18743 2.49006 8.41337 7.01743 11.5071 9.46978 11.9221 9.46978 12.073 9.46978 12.2617 9.39432 12.2617 9.16796Z" fill="#0070C0" transform="matrix(1 0 0 1.00184 931.752 864.217)"/><path d="M20.6373-18.4868C20.6373-25.127 16.7136-26.4852 14.4121-26.4852 11.4316-26.4852 7.65882-24.5233 4.8292-19.3923 2.90507-15.8458 1.7355-10.7148 1.7355-7.65882 1.7355-2.18823 4.60283 0.301825 7.99838 0.301825 10.5262 0.301825 13.8462-1.16957 16.4495-5.01785 19.6187-9.6584 20.6373-15.6572 20.6373-18.4868ZM7.47017-13.9972C7.99838-16.1854 8.9793-19.6187 10.1112-21.5805 10.9789-23.1274 12.5258-25.127 14.3367-25.127 15.9213-25.127 16.6004-23.4669 16.6004-21.241 16.6004-18.8641 15.7704-15.5817 15.3554-13.9972L7.47017-13.9972ZM14.9026-12.1862C12.5635-2.07505 9.39432-1.05639 8.07384-1.05639 7.54562-1.05639 6.75336-1.2073 6.22514-2.37688 5.77241-3.39555 5.77241-4.86694 5.77241-4.90466 5.77241-7.05518 6.60241-10.5639 7.01743-12.1862L14.9026-12.1862Z" fill="#0070C0" transform="matrix(1 0 0 1.00184 946.064 864.217)"/><path d="M8.37566 6.28803C8.57687 6.28803 8.8787 6.28803 8.8787 5.98621 8.8787 5.88561 8.85354 5.86045 8.52657 5.53345 5.08072 2.28884 4.22556-2.38945 4.22556-6.28803 4.22556-13.5318 7.21865-16.9274 8.50142-18.0844 8.85354-18.4113 8.8787-18.4365 8.8787-18.5622 8.8787-18.688 8.77809-18.8641 8.52657-18.8641 8.12414-18.8641 6.86652-17.5813 6.66531-17.355 3.29491-13.8337 2.59067-9.30628 2.59067-6.28803 2.59067-0.653955 4.95496 3.87343 8.37566 6.28803Z" fill="#0070C0" transform="matrix(1 0 0 1.00184 968.467 844.898)"/><path d="M5.5586-10.0105 8.02354-10.0105C8.50142-10.0105 8.80324-10.0105 8.80324-10.4884 8.80324-10.8406 8.47627-10.8406 8.04869-10.8406L5.75985-10.8406 6.66531-14.4121C6.76592-14.7895 6.76592-14.9152 6.76592-14.9404 6.76592-15.4685 6.36349-15.7201 5.93591-15.7201 5.08072-15.7201 4.90466-15.041 4.62799-13.9091L3.84828-10.8406 1.43367-10.8406C0.955779-10.8406 0.628803-10.8406 0.628803-10.3627 0.628803-10.0105 0.955779-10.0105 1.38337-10.0105L3.64707-10.0105 2.13793-3.97404C1.98702-3.34521 1.76065-2.46491 1.76065-2.11278 1.76065-0.603652 2.9931 0.251521 4.32617 0.251521 7.01743 0.251521 8.55172-3.29491 8.55172-3.59676 8.55172-3.87343 8.32536-3.92374 8.17445-3.92374 7.89778-3.92374 7.87263-3.82313 7.69653-3.44585 7.1935-2.23854 5.93591-0.452738 4.40162-0.452738 3.87343-0.452738 3.57161-0.804869 3.57161-1.63489 3.57161-2.11278 3.64707-2.38945 3.72252-2.71643L5.5586-10.0105Z" fill="#0070C0" transform="matrix(1 0 0 1.00184 978.821 844.898)"/><path d="M7.77199-6.28803C7.77199-8.67748 7.36956-11.5448 5.81015-14.5128 4.57768-16.8267 2.28884-18.8641 1.8361-18.8641 1.58458-18.8641 1.50913-18.688 1.50913-18.5622 1.50913-18.4616 1.50913-18.4113 1.81095-18.1095 5.33224-14.7643 6.13712-10.1615 6.13712-6.28803 6.13712 0.930628 3.14401 4.35132 1.86126 5.5083 1.53428 5.8353 1.50913 5.86045 1.50913 5.98621 1.50913 6.11197 1.58458 6.28803 1.8361 6.28803 2.23854 6.28803 3.49616 5.00526 3.69737 4.7789 7.06774 1.25761 7.77199-3.26976 7.77199-6.28803Z" fill="#0070C0" transform="matrix(1 0 0 1.00184 988.434 844.898)"/><path d="M7.49532-15.6949C7.49532-16.2483 7.09289-16.6507 6.5144-16.6507 5.86045-16.6507 5.13102-16.047 5.13102-15.2925 5.13102-14.7391 5.53345-14.3367 6.11197-14.3367 6.76592-14.3367 7.49532-14.9404 7.49532-15.6949ZM3.82313-6.4641 2.46491-2.9931C2.33914-2.61582 2.21339-2.31399 2.21339-1.88641 2.21339-0.653955 3.16915 0.251521 4.50223 0.251521 6.94198 0.251521 7.97323-3.26976 7.97323-3.59676 7.97323-3.84828 7.77199-3.92374 7.59592-3.92374 7.2941-3.92374 7.2438-3.74767 7.16834-3.49616 6.58985-1.48398 5.5586-0.452738 4.55253-0.452738 4.25071-0.452738 3.94889-0.5785 3.94889-1.25761 3.94889-1.86126 4.12495-2.31399 4.45192-3.09371 4.70344-3.77283 4.95496-4.45192 5.23163-5.13102L6.01136-7.16834C6.23773-7.74684 6.53955-8.52657 6.53955-8.95415 6.53955-10.2118 5.53345-11.0921 4.25071-11.0921 1.81095-11.0921 0.754562-7.57077 0.754562-7.2438 0.754562-7.01743 0.930628-6.91683 1.13184-6.91683 1.45882-6.91683 1.48398-7.06774 1.55943-7.31926 2.26369-9.7087 3.4207-10.3878 4.17525-10.3878 4.52738-10.3878 4.7789-10.2621 4.7789-9.55779 4.7789-9.30628 4.75375-8.95415 4.50223-8.1996L3.82313-6.4641Z" fill="#0070C0" transform="matrix(1 0 0 1.00184 968.467 873.904)"/><path d="M7.357 0.150913C7.357-2.03732 6.64016-3.65963 5.09331-3.65963 3.88599-3.65963 3.28235-2.6787 3.28235-1.84868 3.28235-1.01866 3.84828 0 5.13102 0 5.6215 0 6.03652-0.150913 6.37605-0.490466 6.4515-0.565924 6.48925-0.565924 6.52696-0.565924 6.60241-0.565924 6.60241-0.0377283 6.60241 0.150913 6.60241 1.39594 6.37605 3.84828 4.18781 6.30059 3.77283 6.75336 3.77283 6.82881 3.77283 6.90427 3.77283 7.09289 3.96145 7.28154 4.1501 7.28154 4.45192 7.28154 7.357 4.48967 7.357 0.150913Z" fill="#0070C0" transform="matrix(1 0 0 1.00184 1000.47 864.217)"/><path d="M20.6373-18.4868C20.6373-25.127 16.7136-26.4852 14.4121-26.4852 11.4316-26.4852 7.65882-24.5233 4.8292-19.3923 2.90507-15.8458 1.7355-10.7148 1.7355-7.65882 1.7355-2.18823 4.60283 0.301825 7.99838 0.301825 10.5262 0.301825 13.8462-1.16957 16.4495-5.01785 19.6187-9.6584 20.6373-15.6572 20.6373-18.4868ZM7.47017-13.9972C7.99838-16.1854 8.9793-19.6187 10.1112-21.5805 10.9789-23.1274 12.5258-25.127 14.3367-25.127 15.9213-25.127 16.6004-23.4669 16.6004-21.241 16.6004-18.8641 15.7704-15.5817 15.3554-13.9972L7.47017-13.9972ZM14.9026-12.1862C12.5635-2.07505 9.39432-1.05639 8.07384-1.05639 7.54562-1.05639 6.75336-1.2073 6.22514-2.37688 5.77241-3.39555 5.77241-4.86694 5.77241-4.90466 5.77241-7.05518 6.60241-10.5639 7.01743-12.1862L14.9026-12.1862Z" fill="#0070C0" transform="matrix(1 0 0 1.00184 1016.98 864.217)"/><path d="M8.37566 6.28803C8.57687 6.28803 8.8787 6.28803 8.8787 5.98621 8.8787 5.88561 8.85354 5.86045 8.52657 5.53345 5.08072 2.28884 4.22556-2.38945 4.22556-6.28803 4.22556-13.5318 7.21865-16.9274 8.50142-18.0844 8.85354-18.4113 8.8787-18.4365 8.8787-18.5622 8.8787-18.688 8.77809-18.8641 8.52657-18.8641 8.12414-18.8641 6.86652-17.5813 6.66531-17.355 3.29491-13.8337 2.59067-9.30628 2.59067-6.28803 2.59067-0.653955 4.95496 3.87343 8.37566 6.28803Z" fill="#0070C0" transform="matrix(1 0 0 1.00184 1039.39 844.898)"/><path d="M5.5586-10.0105 8.02354-10.0105C8.50142-10.0105 8.80324-10.0105 8.80324-10.4884 8.80324-10.8406 8.47627-10.8406 8.04869-10.8406L5.75985-10.8406 6.66531-14.4121C6.76592-14.7895 6.76592-14.9152 6.76592-14.9404 6.76592-15.4685 6.36349-15.7201 5.93591-15.7201 5.08072-15.7201 4.90466-15.041 4.62799-13.9091L3.84828-10.8406 1.43367-10.8406C0.955779-10.8406 0.628803-10.8406 0.628803-10.3627 0.628803-10.0105 0.955779-10.0105 1.38337-10.0105L3.64707-10.0105 2.13793-3.97404C1.98702-3.34521 1.76065-2.46491 1.76065-2.11278 1.76065-0.603652 2.9931 0.251521 4.32617 0.251521 7.01743 0.251521 8.55172-3.29491 8.55172-3.59676 8.55172-3.87343 8.32536-3.92374 8.17445-3.92374 7.89778-3.92374 7.87263-3.82313 7.69653-3.44585 7.1935-2.23854 5.93591-0.452738 4.40162-0.452738 3.87343-0.452738 3.57161-0.804869 3.57161-1.63489 3.57161-2.11278 3.64707-2.38945 3.72252-2.71643L5.5586-10.0105Z" fill="#0070C0" transform="matrix(1 0 0 1.00184 1049.74 844.898)"/><path d="M7.77199-6.28803C7.77199-8.67748 7.36956-11.5448 5.81015-14.5128 4.57768-16.8267 2.28884-18.8641 1.8361-18.8641 1.58458-18.8641 1.50913-18.688 1.50913-18.5622 1.50913-18.4616 1.50913-18.4113 1.81095-18.1095 5.33224-14.7643 6.13712-10.1615 6.13712-6.28803 6.13712 0.930628 3.14401 4.35132 1.86126 5.5083 1.53428 5.8353 1.50913 5.86045 1.50913 5.98621 1.50913 6.11197 1.58458 6.28803 1.8361 6.28803 2.23854 6.28803 3.49616 5.00526 3.69737 4.7789 7.06774 1.25761 7.77199-3.26976 7.77199-6.28803Z" fill="#0070C0" transform="matrix(1 0 0 1.00184 1059.35 844.898)"/><path d="M10.3878-15.6949C10.3878-16.1728 10.0105-16.6507 9.40688-16.6507 8.65233-16.6507 7.99838-15.9464 7.99838-15.2925 7.99838-14.8146 8.37566-14.3367 8.9793-14.3367 9.73386-14.3367 10.3878-15.041 10.3878-15.6949ZM5.13102 1.25761C4.75375 2.79188 3.52131 4.42677 1.98702 4.42677 1.58458 4.42677 1.2073 4.32617 1.157 4.30101 1.93671 3.92374 2.03732 3.24461 2.03732 3.01825 2.03732 2.4146 1.58458 2.08762 1.05639 2.08762 0.326976 2.08762-0.352131 2.71643-0.352131 3.54646-0.352131 4.50223 0.5785 5.13102 2.01217 5.13102 3.54646 5.13102 6.31319 4.17525 7.06774 1.157L9.33143-7.84744C9.40688-8.14929 9.45719-8.35051 9.45719-8.72779 9.45719-10.1112 8.35051-11.0921 6.89168-11.0921 4.22556-11.0921 2.66612-7.57077 2.66612-7.2438 2.66612-7.01743 2.84219-6.91683 3.04341-6.91683 3.32006-6.91683 3.34521-6.99228 3.52131-7.36956 4.27586-9.10506 5.5586-10.3878 6.81622-10.3878 7.34441-10.3878 7.64623-10.0357 7.64623-9.20567 7.64623-8.85354 7.57077-8.50142 7.49532-8.14929L5.13102 1.25761Z" fill="#0070C0" transform="matrix(1 0 0 1.00184 1039.39 873.904)"/><path d="M10.6394-9.39432C10.6394-12.2617 10.2621-16.9399 8.14929-21.3164 5.92332-25.8438 2.82961-28.2961 2.4146-28.2961 2.26369-28.2961 2.07505-28.2207 2.07505-27.9943 2.07505-27.8811 2.07505-27.8057 2.71643-27.1643 6.48925-23.3537 8.60203-17.1286 8.60203-9.43203 8.60203-2.11278 6.82881 4.18781 2.45233 8.63974 2.07505 8.9793 2.07505 9.05476 2.07505 9.16796 2.07505 9.39432 2.26369 9.46978 2.4146 9.46978 2.90507 9.46978 5.99877 6.75336 7.84744 3.05598 9.7716-0.792293 10.6394-4.86694 10.6394-9.39432Z" fill="#0070C0" transform="matrix(1 0 0 1.00184 1071.39 864.217)"/><path d="M15.8836 20.1468 2.49006 36.7096C2.18823 37.0867 2.15051 37.1621 2.15051 37.3133 2.15051 37.7283 2.49006 37.7283 3.16915 37.7283L34.4459 37.7283 37.6904 28.3338 36.7471 28.3338C35.8042 31.1635 33.2764 33.4648 30.0693 34.5589 29.4657 34.7476 26.8625 35.653 21.3164 35.653L5.28193 35.653 18.3736 19.4677C18.6377 19.1282 18.7132 19.015 18.7132 18.8641 18.7132 18.7132 18.6754 18.6754 18.4491 18.3359L6.18743 1.50913 21.1278 1.50913C25.4288 1.50913 34.1063 1.77322 36.7471 8.82839L37.6904 8.82839 34.4459 0 3.16915 0C2.15051 0 2.11278 0.0377283 2.11278 1.2073L15.8836 20.1468Z" fill="#0070C0" transform="matrix(1 0 0 1.00184 778.62 907.604)"/><path d="M19.9205-14.4373C20.2223-15.6698 20.7756-16.2734 22.5866-16.3489 22.8381-16.3489 23.0393-16.4998 23.0393-16.8267 23.0393-16.9777 22.9136-17.1789 22.662-17.1789 22.486-17.1789 22.0081-17.1034 20.1468-17.1034 18.1347-17.1034 17.8077-17.1789 17.5813-17.1789 17.1789-17.1789 17.1034-16.9022 17.1034-16.701 17.1034-16.374 17.4304-16.3489 17.6568-16.3489 19.1911-16.2986 19.1911-15.6195 19.1911-15.2673 19.1911-15.1416 19.1911-15.0158 19.0905-14.6134L16.3237-3.59676 10.2621-16.7261C10.0608-17.1789 10.0105-17.1789 9.40688-17.1789L6.13712-17.1789C5.68439-17.1789 5.35739-17.1789 5.35739-16.701 5.35739-16.3489 5.65924-16.3489 6.18743-16.3489 6.38864-16.3489 7.14319-16.3489 7.72168-16.198L4.35132-2.69128C4.0495-1.43367 3.39555-0.880324 1.71034-0.83002 1.55943-0.83002 1.25761-0.804869 1.25761-0.352131 1.25761-0.201217 1.38337 0 1.63489 0 1.7355 0 2.31399-0.0754562 4.12495-0.0754562 6.11197-0.0754562 6.48925 0 6.71561 0 6.81622 0 7.1935 0 7.1935-0.47789 7.1935-0.779714 6.91683-0.83002 6.74076-0.83002 5.8353-0.855172 5.08072-1.00608 5.08072-1.88641 5.08072-2.01217 5.15617-2.3643 5.15617-2.38945L8.45112-15.5189 8.47627-15.5189 15.4685-0.452738C15.6446-0.0503041 15.6698 0 15.9464 0 16.2986 0 16.3237-0.100608 16.4243-0.528193L19.9205-14.4373Z" fill="#0070C0" transform="matrix(1 0 0 1.00184 818.443 917.579)"/><path d="M10.3878-15.6949C10.3878-16.1728 10.0105-16.6507 9.40688-16.6507 8.65233-16.6507 7.99838-15.9464 7.99838-15.2925 7.99838-14.8146 8.37566-14.3367 8.9793-14.3367 9.73386-14.3367 10.3878-15.041 10.3878-15.6949ZM5.13102 1.25761C4.75375 2.79188 3.52131 4.42677 1.98702 4.42677 1.58458 4.42677 1.2073 4.32617 1.157 4.30101 1.93671 3.92374 2.03732 3.24461 2.03732 3.01825 2.03732 2.4146 1.58458 2.08762 1.05639 2.08762 0.326976 2.08762-0.352131 2.71643-0.352131 3.54646-0.352131 4.50223 0.5785 5.13102 2.01217 5.13102 3.54646 5.13102 6.31319 4.17525 7.06774 1.157L9.33143-7.84744C9.40688-8.14929 9.45719-8.35051 9.45719-8.72779 9.45719-10.1112 8.35051-11.0921 6.89168-11.0921 4.22556-11.0921 2.66612-7.57077 2.66612-7.2438 2.66612-7.01743 2.84219-6.91683 3.04341-6.91683 3.32006-6.91683 3.34521-6.99228 3.52131-7.36956 4.27586-9.10506 5.5586-10.3878 6.81622-10.3878 7.34441-10.3878 7.64623-10.0357 7.64623-9.20567 7.64623-8.85354 7.57077-8.50142 7.49532-8.14929L5.13102 1.25761Z" fill="#0070C0" transform="matrix(1 0 0 1.00184 818.443 946.979)"/><path d="M18.3862-8.37566C18.7635-8.37566 19.2665-8.37566 19.2665-8.95415 19.2665-9.53264 18.6629-9.53264 18.2856-9.53264L2.46491-9.53264C2.08762-9.53264 1.48398-9.53264 1.48398-8.95415 1.48398-8.37566 1.98702-8.37566 2.3643-8.37566L18.3862-8.37566ZM18.2856-3.04341C18.6629-3.04341 19.2665-3.04341 19.2665-3.62192 19.2665-4.20044 18.7635-4.20041 18.3862-4.20041L2.3643-4.20041C1.98702-4.20041 1.48398-4.20041 1.48398-3.62192 1.48398-3.04343 2.08762-3.04341 2.46491-3.04341L18.2856-3.04341Z" fill="#0070C0" transform="matrix(1 0 0 1.00184 830.659 946.979)"/><path d="M7.89778-16.0219C7.89778-16.701 7.84744-16.7261 7.16834-16.7261 6.13712-15.7201 4.80405-15.1164 2.4146-15.1164L2.4146-14.2864C3.09371-14.2864 4.45192-14.2864 5.91076-14.9655L5.91076-2.06247C5.91076-1.13184 5.8353-0.83002 3.44585-0.83002L2.56551-0.83002 2.56551 0C3.59676-0.0754562 5.75985-0.0754562 6.89168-0.0754562 8.0235-0.0754562 10.2118-0.0754562 11.243 0L11.243-0.83002 10.3627-0.83002C7.97323-0.83002 7.89778-1.13184 7.89778-2.06247L7.89778-16.0219Z" fill="#0070C0" transform="matrix(1 0 0 1.00184 851.368 946.979)"/><path d="M10.6016-25.2402C10.6394-25.3911 10.7148-25.6174 10.7148-25.806 10.7148-26.1834 10.3375-26.1834 10.2621-26.1834 10.2243-26.1834 8.8661-26.0702 8.18701-25.9947 7.54562-25.957 6.97972-25.8815 6.30059-25.8438 5.39513-25.7683 5.13102-25.7306 5.13102-25.0515 5.13102-24.6742 5.5083-24.6742 5.88561-24.6742 7.80973-24.6742 7.80973-24.3347 7.80973-23.9574 7.80973-23.8065 7.80973-23.731 7.62108-23.0519L2.22596-1.4714C2.07505-0.905476 2.07505-0.83002 2.07505-0.603652 2.07505 0.226369 2.71643 0.377283 3.09371 0.377283 4.1501 0.377283 4.37647-0.452738 4.67829-1.62231L6.4515-8.67748C9.16796-8.37566 10.7903-7.2438 10.7903-5.43284 10.7903-5.20648 10.7903-5.05557 10.6771-4.48967 10.5262-3.92374 10.5262-3.47101 10.5262-3.28235 10.5262-1.09412 11.9598 0.377283 13.884 0.377283 15.6195 0.377283 16.5249-1.2073 16.8267-1.7355 17.619-3.13144 18.1095-5.24422 18.1095-5.39513 18.1095-5.58375 17.9586-5.73469 17.7322-5.73469 17.3927-5.73469 17.355-5.58375 17.2041-4.98011 16.6758-3.01825 15.8836-0.377283 13.9594-0.377283 13.2049-0.377283 12.7144-0.754562 12.7144-2.18823 12.7144-2.90507 12.8653-3.73508 13.0162-4.30101 13.1671-4.98011 13.1671-5.01785 13.1671-5.47059 13.1671-7.69653 11.1675-8.94156 7.69653-9.39432 9.05476-10.2243 10.413-11.6957 10.9412-12.2617 13.0917-14.6763 14.5631-15.8836 16.2986-15.8836 17.1663-15.8836 17.3927-15.6572 17.6568-15.4308 16.2608-15.2799 15.7327-14.299 15.7327-13.5444 15.7327-12.6389 16.4495-12.3371 16.9777-12.3371 17.9963-12.3371 18.9018-13.2049 18.9018-14.4121 18.9018-15.5063 18.0341-16.6381 16.3363-16.6381 14.2612-16.6381 12.5635-15.1667 9.88477-12.1485 9.50749-11.6957 8.11155-10.2621 6.71561-9.73386L10.6016-25.2402Z" fill="#0070C0" transform="matrix(1 0 0 1.00184 872.707 935.954)"/><path d="M12.2617 9.16796C12.2617 9.05476 12.2617 8.9793 11.6203 8.33792 7.84744 4.52738 5.73469-1.69777 5.73469-9.39432 5.73469-16.7136 7.50791-23.0142 11.8844-27.4661 12.2617-27.8057 12.2617-27.8811 12.2617-27.9943 12.2617-28.2207 12.073-28.2961 11.9221-28.2961 11.4316-28.2961 8.33792-25.5797 6.48925-21.8823 4.56512-18.0718 3.69737-14.0349 3.69737-9.39432 3.69737-6.03652 4.22556-1.54685 6.18743 2.49006 8.41337 7.01743 11.5071 9.46978 11.9221 9.46978 12.073 9.46978 12.2617 9.39432 12.2617 9.16796Z" fill="#0070C0" transform="matrix(1 0 0 1.00184 893.116 935.954)"/><path d="M20.6373-18.4868C20.6373-25.127 16.7136-26.4852 14.4121-26.4852 11.4316-26.4852 7.65882-24.5233 4.8292-19.3923 2.90507-15.8458 1.7355-10.7148 1.7355-7.65882 1.7355-2.18823 4.60283 0.301825 7.99838 0.301825 10.5262 0.301825 13.8462-1.16957 16.4495-5.01785 19.6187-9.6584 20.6373-15.6572 20.6373-18.4868ZM7.47017-13.9972C7.99838-16.1854 8.9793-19.6187 10.1112-21.5805 10.9789-23.1274 12.5258-25.127 14.3367-25.127 15.9213-25.127 16.6004-23.4669 16.6004-21.241 16.6004-18.8641 15.7704-15.5817 15.3554-13.9972L7.47017-13.9972ZM14.9026-12.1862C12.5635-2.07505 9.39432-1.05639 8.07384-1.05639 7.54562-1.05639 6.75336-1.2073 6.22514-2.37688 5.77241-3.39555 5.77241-4.86694 5.77241-4.90466 5.77241-7.05518 6.60241-10.5639 7.01743-12.1862L14.9026-12.1862Z" fill="#0070C0" transform="matrix(1 0 0 1.00184 907.427 935.954)"/><path d="M8.37566 6.28803C8.57687 6.28803 8.8787 6.28803 8.8787 5.98621 8.8787 5.88561 8.85354 5.86045 8.52657 5.53345 5.08072 2.28884 4.22556-2.38945 4.22556-6.28803 4.22556-13.5318 7.21865-16.9274 8.50142-18.0844 8.85354-18.4113 8.8787-18.4365 8.8787-18.5622 8.8787-18.688 8.77809-18.8641 8.52657-18.8641 8.12414-18.8641 6.86652-17.5813 6.66531-17.355 3.29491-13.8337 2.59067-9.30628 2.59067-6.28803 2.59067-0.653955 4.95496 3.87343 8.37566 6.28803Z" fill="#0070C0" transform="matrix(1 0 0 1.00184 929.83 916.634)"/><path d="M5.5586-10.0105 8.02354-10.0105C8.50142-10.0105 8.80324-10.0105 8.80324-10.4884 8.80324-10.8406 8.47627-10.8406 8.04869-10.8406L5.75985-10.8406 6.66531-14.4121C6.76592-14.7895 6.76592-14.9152 6.76592-14.9404 6.76592-15.4685 6.36349-15.7201 5.93591-15.7201 5.08072-15.7201 4.90466-15.041 4.62799-13.9091L3.84828-10.8406 1.43367-10.8406C0.955779-10.8406 0.628803-10.8406 0.628803-10.3627 0.628803-10.0105 0.955779-10.0105 1.38337-10.0105L3.64707-10.0105 2.13793-3.97404C1.98702-3.34521 1.76065-2.46491 1.76065-2.11278 1.76065-0.603652 2.9931 0.251521 4.32617 0.251521 7.01743 0.251521 8.55172-3.29491 8.55172-3.59676 8.55172-3.87343 8.32536-3.92374 8.17445-3.92374 7.89778-3.92374 7.87263-3.82313 7.69653-3.44585 7.1935-2.23854 5.93591-0.452738 4.40162-0.452738 3.87343-0.452738 3.57161-0.804869 3.57161-1.63489 3.57161-2.11278 3.64707-2.38945 3.72252-2.71643L5.5586-10.0105Z" fill="#0070C0" transform="matrix(1 0 0 1.00184 940.185 916.634)"/><path d="M7.77199-6.28803C7.77199-8.67748 7.36956-11.5448 5.81015-14.5128 4.57768-16.8267 2.28884-18.8641 1.8361-18.8641 1.58458-18.8641 1.50913-18.688 1.50913-18.5622 1.50913-18.4616 1.50913-18.4113 1.81095-18.1095 5.33224-14.7643 6.13712-10.1615 6.13712-6.28803 6.13712 0.930628 3.14401 4.35132 1.86126 5.5083 1.53428 5.8353 1.50913 5.86045 1.50913 5.98621 1.50913 6.11197 1.58458 6.28803 1.8361 6.28803 2.23854 6.28803 3.49616 5.00526 3.69737 4.7789 7.06774 1.25761 7.77199-3.26976 7.77199-6.28803Z" fill="#0070C0" transform="matrix(1 0 0 1.00184 949.797 916.634)"/><path d="M7.49532-15.6949C7.49532-16.2483 7.09289-16.6507 6.5144-16.6507 5.86045-16.6507 5.13102-16.047 5.13102-15.2925 5.13102-14.7391 5.53345-14.3367 6.11197-14.3367 6.76592-14.3367 7.49532-14.9404 7.49532-15.6949ZM3.82313-6.4641 2.46491-2.9931C2.33914-2.61582 2.21339-2.31399 2.21339-1.88641 2.21339-0.653955 3.16915 0.251521 4.50223 0.251521 6.94198 0.251521 7.97323-3.26976 7.97323-3.59676 7.97323-3.84828 7.77199-3.92374 7.59592-3.92374 7.2941-3.92374 7.2438-3.74767 7.16834-3.49616 6.58985-1.48398 5.5586-0.452738 4.55253-0.452738 4.25071-0.452738 3.94889-0.5785 3.94889-1.25761 3.94889-1.86126 4.12495-2.31399 4.45192-3.09371 4.70344-3.77283 4.95496-4.45192 5.23163-5.13102L6.01136-7.16834C6.23773-7.74684 6.53955-8.52657 6.53955-8.95415 6.53955-10.2118 5.53345-11.0921 4.25071-11.0921 1.81095-11.0921 0.754562-7.57077 0.754562-7.2438 0.754562-7.01743 0.930628-6.91683 1.13184-6.91683 1.45882-6.91683 1.48398-7.06774 1.55943-7.31926 2.26369-9.7087 3.4207-10.3878 4.17525-10.3878 4.52738-10.3878 4.7789-10.2621 4.7789-9.55779 4.7789-9.30628 4.75375-8.95415 4.50223-8.1996L3.82313-6.4641Z" fill="#0070C0" transform="matrix(1 0 0 1.00184 929.83 945.641)"/><path d="M7.357 0.150913C7.357-2.03732 6.64016-3.65963 5.09331-3.65963 3.88599-3.65963 3.28235-2.6787 3.28235-1.84868 3.28235-1.01866 3.84828 0 5.13102 0 5.6215 0 6.03652-0.150913 6.37605-0.490466 6.4515-0.565924 6.48925-0.565924 6.52696-0.565924 6.60241-0.565924 6.60241-0.0377283 6.60241 0.150913 6.60241 1.39594 6.37605 3.84828 4.18781 6.30059 3.77283 6.75336 3.77283 6.82881 3.77283 6.90427 3.77283 7.09289 3.96145 7.28154 4.1501 7.28154 4.45192 7.28154 7.357 4.48967 7.357 0.150913Z" fill="#0070C0" transform="matrix(1 0 0 1.00184 961.837 935.954)"/><path d="M20.6373-18.4868C20.6373-25.127 16.7136-26.4852 14.4121-26.4852 11.4316-26.4852 7.65882-24.5233 4.8292-19.3923 2.90507-15.8458 1.7355-10.7148 1.7355-7.65882 1.7355-2.18823 4.60283 0.301825 7.99838 0.301825 10.5262 0.301825 13.8462-1.16957 16.4495-5.01785 19.6187-9.6584 20.6373-15.6572 20.6373-18.4868ZM7.47017-13.9972C7.99838-16.1854 8.9793-19.6187 10.1112-21.5805 10.9789-23.1274 12.5258-25.127 14.3367-25.127 15.9213-25.127 16.6004-23.4669 16.6004-21.241 16.6004-18.8641 15.7704-15.5817 15.3554-13.9972L7.47017-13.9972ZM14.9026-12.1862C12.5635-2.07505 9.39432-1.05639 8.07384-1.05639 7.54562-1.05639 6.75336-1.2073 6.22514-2.37688 5.77241-3.39555 5.77241-4.86694 5.77241-4.90466 5.77241-7.05518 6.60241-10.5639 7.01743-12.1862L14.9026-12.1862Z" fill="#0070C0" transform="matrix(1 0 0 1.00184 978.348 935.954)"/><path d="M8.37566 6.28803C8.57687 6.28803 8.8787 6.28803 8.8787 5.98621 8.8787 5.88561 8.85354 5.86045 8.52657 5.53345 5.08072 2.28884 4.22556-2.38945 4.22556-6.28803 4.22556-13.5318 7.21865-16.9274 8.50142-18.0844 8.85354-18.4113 8.8787-18.4365 8.8787-18.5622 8.8787-18.688 8.77809-18.8641 8.52657-18.8641 8.12414-18.8641 6.86652-17.5813 6.66531-17.355 3.29491-13.8337 2.59067-9.30628 2.59067-6.28803 2.59067-0.653955 4.95496 3.87343 8.37566 6.28803Z" fill="#0070C0" transform="matrix(1 0 0 1.00184 1000.75 916.634)"/><path d="M5.5586-10.0105 8.02354-10.0105C8.50142-10.0105 8.80324-10.0105 8.80324-10.4884 8.80324-10.8406 8.47627-10.8406 8.04869-10.8406L5.75985-10.8406 6.66531-14.4121C6.76592-14.7895 6.76592-14.9152 6.76592-14.9404 6.76592-15.4685 6.36349-15.7201 5.93591-15.7201 5.08072-15.7201 4.90466-15.041 4.62799-13.9091L3.84828-10.8406 1.43367-10.8406C0.955779-10.8406 0.628803-10.8406 0.628803-10.3627 0.628803-10.0105 0.955779-10.0105 1.38337-10.0105L3.64707-10.0105 2.13793-3.97404C1.98702-3.34521 1.76065-2.46491 1.76065-2.11278 1.76065-0.603652 2.9931 0.251521 4.32617 0.251521 7.01743 0.251521 8.55172-3.29491 8.55172-3.59676 8.55172-3.87343 8.32536-3.92374 8.17445-3.92374 7.89778-3.92374 7.87263-3.82313 7.69653-3.44585 7.1935-2.23854 5.93591-0.452738 4.40162-0.452738 3.87343-0.452738 3.57161-0.804869 3.57161-1.63489 3.57161-2.11278 3.64707-2.38945 3.72252-2.71643L5.5586-10.0105Z" fill="#0070C0" transform="matrix(1 0 0 1.00184 1011.1 916.634)"/><path d="M7.77199-6.28803C7.77199-8.67748 7.36956-11.5448 5.81015-14.5128 4.57768-16.8267 2.28884-18.8641 1.8361-18.8641 1.58458-18.8641 1.50913-18.688 1.50913-18.5622 1.50913-18.4616 1.50913-18.4113 1.81095-18.1095 5.33224-14.7643 6.13712-10.1615 6.13712-6.28803 6.13712 0.930628 3.14401 4.35132 1.86126 5.5083 1.53428 5.8353 1.50913 5.86045 1.50913 5.98621 1.50913 6.11197 1.58458 6.28803 1.8361 6.28803 2.23854 6.28803 3.49616 5.00526 3.69737 4.7789 7.06774 1.25761 7.77199-3.26976 7.77199-6.28803Z" fill="#0070C0" transform="matrix(1 0 0 1.00184 1020.72 916.634)"/><path d="M10.3878-15.6949C10.3878-16.1728 10.0105-16.6507 9.40688-16.6507 8.65233-16.6507 7.99838-15.9464 7.99838-15.2925 7.99838-14.8146 8.37566-14.3367 8.9793-14.3367 9.73386-14.3367 10.3878-15.041 10.3878-15.6949ZM5.13102 1.25761C4.75375 2.79188 3.52131 4.42677 1.98702 4.42677 1.58458 4.42677 1.2073 4.32617 1.157 4.30101 1.93671 3.92374 2.03732 3.24461 2.03732 3.01825 2.03732 2.4146 1.58458 2.08762 1.05639 2.08762 0.326976 2.08762-0.352131 2.71643-0.352131 3.54646-0.352131 4.50223 0.5785 5.13102 2.01217 5.13102 3.54646 5.13102 6.31319 4.17525 7.06774 1.157L9.33143-7.84744C9.40688-8.14929 9.45719-8.35051 9.45719-8.72779 9.45719-10.1112 8.35051-11.0921 6.89168-11.0921 4.22556-11.0921 2.66612-7.57077 2.66612-7.2438 2.66612-7.01743 2.84219-6.91683 3.04341-6.91683 3.32006-6.91683 3.34521-6.99228 3.52131-7.36956 4.27586-9.10506 5.5586-10.3878 6.81622-10.3878 7.34441-10.3878 7.64623-10.0357 7.64623-9.20567 7.64623-8.85354 7.57077-8.50142 7.49532-8.14929L5.13102 1.25761Z" fill="#0070C0" transform="matrix(1 0 0 1.00184 1000.75 945.641)"/><path d="M10.6394-9.39432C10.6394-12.2617 10.2621-16.9399 8.14929-21.3164 5.92332-25.8438 2.82961-28.2961 2.4146-28.2961 2.26369-28.2961 2.07505-28.2207 2.07505-27.9943 2.07505-27.8811 2.07505-27.8057 2.71643-27.1643 6.48925-23.3537 8.60203-17.1286 8.60203-9.43203 8.60203-2.11278 6.82881 4.18781 2.45233 8.63974 2.07505 8.9793 2.07505 9.05476 2.07505 9.16796 2.07505 9.39432 2.26369 9.46978 2.4146 9.46978 2.90507 9.46978 5.99877 6.75336 7.84744 3.05598 9.7716-0.792293 10.6394-4.86694 10.6394-9.39432Z" fill="#0070C0" transform="matrix(1 0 0 1.00184 1032.76 935.954)"/><path d="M17.355-3.47101C17.355-4.33873 17.355-4.52738 16.8267-4.52738 14.5253-4.56512 10.7903-4.86694 7.39471-6.52696 3.32006-8.56428 1.77322-10.9412 0.83002-12.4126 0.716834-12.6012 0.490466-12.6012 0-12.6012-0.867748-12.6012-0.905476-12.5635-0.905476-11.6203L-0.905476-11.0166C4.22556-1.77322 12.7144 0 16.5627 0 17.355 0 17.355-0.0377283 17.355-1.05639L17.355-3.47101Z" fill="#0070C0" transform="matrix(1 0 0 1.00184 736.092 965.863)"/><path d="M17.8832 6.48925C12.7521-2.75415 4.26327-4.52738 0.41501-4.52738-0.377283-4.52738-0.377283-4.48967-0.377283-3.47101L-0.377283-1.05639C-0.377283-0.188641-0.377283 0 0.150913 0 2.45233 0.0377283 6.18743 0.339555 9.58294 1.99959 13.6576 4.0369 15.2044 6.41379 16.1476 7.88519 16.2608 8.07384 16.4872 8.07384 16.9777 8.07384 17.8454 8.07384 17.8832 8.0361 17.8832 7.09289L17.8832 6.48925Z" fill="#0070C0" transform="matrix(1 0 0 1.00184 895.912 965.863)"/><path d="M17.355-3.47101C17.355-4.48967 17.355-4.52738 16.5627-4.52738 12.7144-4.52738 4.22556-2.71643-0.905476 6.48925L-0.905476 7.09289C-0.905476 8.0361-0.867748 8.07384 0 8.07384 0.716834 8.07384 0.754562 8.0361 0.943203 7.77199 4.0369 2.82961 9.24341 0.150913 16.9022 0 17.355 0 17.355-0.264097 17.355-1.05639L17.355-3.47101Z" fill="#0070C0" transform="matrix(1 0 0 1.00184 912.827 965.863)"/><path d="M17.8832-11.6203C17.8832-12.5635 17.8454-12.6012 16.9777-12.6012 16.2608-12.6012 16.2231-12.5635 16.0345-12.2994 12.9408-7.357 7.73427-4.67829 0.0754562-4.52738-0.377283-4.52738-0.377283-4.26327-0.377283-3.47101L-0.377283-1.05639C-0.377283-0.0377283-0.377283 0 0.41501 0 4.26327 0 12.7521-1.81095 17.8832-11.0166L17.8832-11.6203Z" fill="#0070C0" transform="matrix(1 0 0 1.00184 1072.65 965.863)"/><path d="M11.9221-8.55172C13.884-9.05476 16.2986-10.4884 16.2986-12.6515 16.2986-15.1416 13.1043-17.1789 9.35658-17.1789L1.157-17.1789 1.157-16.3489 1.71034-16.3489C3.64707-16.3489 3.69737-16.0722 3.69737-15.1416L3.69737-2.03732C3.69737-1.10669 3.64707-0.83002 1.71034-0.83002L1.157-0.83002 1.157 0C3.29491-0.0754562 3.34521-0.0754562 4.80405-0.0754562 6.28803-0.0754562 6.33834-0.0754562 8.47627 0L8.47627-0.83002 7.92293-0.83002C5.98621-0.83002 5.93591-1.10669 5.93591-2.03732L5.93591-8.2499 9.10506-8.2499C10.9663-8.2499 11.7963-7.31926 11.9724-7.11804 12.7018-6.31319 12.7018-5.8353 12.7018-4.12495 12.7018-2.54036 12.7018-1.45882 13.7582-0.528193 14.8398 0.402434 16.2483 0.528193 16.9777 0.528193 19.0653 0.528193 19.5683-1.53428 19.5683-2.28884 19.5683-2.43975 19.5683-2.76673 19.1659-2.76673 18.8138-2.76673 18.8138-2.49006 18.7886-2.31399 18.6629-0.72941 17.7825-0.176065 17.0783-0.176065 15.7201-0.176065 15.5692-1.33306 15.1164-4.52738 14.9404-5.96106 14.6888-7.69653 11.9221-8.55172ZM9.02961-8.95415 5.93591-8.95415 5.93591-15.3176C5.93591-15.9716 5.96106-16.2483 6.5647-16.3237 6.79107-16.3489 7.59592-16.3489 8.09899-16.3489 10.3627-16.3489 13.6827-16.3489 13.6827-12.6515 13.6827-9.85961 11.6706-8.95415 9.02961-8.95415Z" fill="#0070C0" transform="matrix(1 0 0 1.00184 823.237 999.111)"/><path d="M10.3878-5.73469C10.9412-5.73469 11.0921-5.73469 11.0921-6.31319 11.0921-8.55172 9.85961-11.2178 6.31319-11.2178 3.1943-11.2178 0.754562-8.62718 0.754562-5.5083 0.754562-2.26369 3.47101 0.251521 6.64016 0.251521 9.83446 0.251521 11.0921-2.43975 11.0921-3.01825 11.0921-3.11886 11.0166-3.3704 10.6897-3.3704 10.413-3.3704 10.3627-3.1943 10.3124-3.04341 9.40688-0.603652 7.2438-0.528193 6.79107-0.528193 5.65924-0.528193 4.50223-1.05639 3.74767-2.21339 2.99312-3.37037 2.9931-4.98011 2.9931-5.73469L10.3878-5.73469ZM3.01825-6.38864C3.24461-9.90992 5.38254-10.5136 6.31319-10.5136 9.25597-10.5136 9.35658-6.96713 9.38173-6.38864L3.01825-6.38864Z" fill="#0070C0" transform="matrix(1 0 0 1.00184 842.822 999.111)"/><path d="M6.61501 4.0495C5.00526 4.0495 4.70344 4.0495 4.70344 2.91764L4.70344-1.23245C5.88561 0.0503041 7.16834 0.251521 7.97323 0.251521 11.1675 0.251521 13.9343-2.21339 13.9343-5.43284 13.9343-8.57687 11.3939-11.0921 8.35051-11.0921 7.36956-11.0921 5.91076-10.8406 4.62799-9.53264L4.62799-11.0921 0.880324-10.8154 0.880324-9.98537C2.66612-9.98537 2.79188-9.83446 2.79188-8.77809L2.79188 2.91764C2.79188 4.0495 2.49006 4.0495 0.880324 4.0495L0.880324 4.8795C1.96187 4.80405 3.06856 4.80405 3.74767 4.80405 4.47708 4.80405 5.53345 4.80405 6.61501 4.8795L6.61501 4.0495ZM4.70344-8.37566C5.28193-9.38173 6.53955-10.3124 8.12414-10.3124 10.0608-10.3124 11.6957-8.17445 11.6957-5.43284 11.6957-2.54036 9.88477-0.452738 7.84744-0.452738 6.96713-0.452738 5.81015-0.83002 5.00526-2.08762 4.70344-2.51521 4.70344-2.54036 4.70344-3.01825L4.70344-8.37566Z" fill="#0070C0" transform="matrix(1 0 0 1.00184 854.656 999.111)"/><path d="M8.40081-10.8154 8.40081-9.98537C10.1112-9.98537 10.3124-9.80931 10.3124-8.57687L10.3124-4.20041C10.3124-2.03732 9.00445-0.452738 7.11804-0.452738 4.95496-0.452738 4.85435-1.53428 4.85435-2.79188L4.85435-11.0921 1.03124-10.8154 1.03124-9.98537C2.9428-9.98537 2.9428-9.90992 2.9428-7.67138L2.9428-3.89859C2.9428-2.08762 2.9428 0.251521 6.96713 0.251521 9.33143 0.251521 10.2369-1.55943 10.3627-1.7858L10.3878-1.7858 10.3878 0.251521 14.1355 0 14.1355-0.83002C12.4252-0.83002 12.2239-1.00608 12.2239-2.23854L12.2239-11.0921 8.40081-10.8154Z" fill="#0070C0" transform="matrix(1 0 0 1.00184 869.447 999.111)"/><path d="M4.80405-17.4556 1.05639-17.1789 1.05639-16.3489C2.76673-16.3489 2.96795-16.1728 2.96795-14.9404L2.96795-1.96187C2.96795-0.83002 2.66612-0.83002 1.05639-0.83002L1.05639 0C2.03732-0.0754562 3.44585-0.0754562 3.87343-0.0754562 4.37647-0.0754562 5.73469-0.0754562 6.71561 0L6.71561-0.83002C5.10587-0.83002 4.80405-0.83002 4.80405-1.96187L4.80405-17.4556Z" fill="#0070C0" transform="matrix(1 0 0 1.00184 884.239 999.111)"/><path d="M8.95415-10.5639C8.95415-10.9663 8.95415-11.2178 8.62718-11.2178 8.50142-11.2178 8.42596-11.2178 8.02354-10.8154 7.97323-10.7903 7.74684-10.5639 7.67138-10.5639 7.64623-10.5639 7.59592-10.5639 7.44501-10.6645 7.04259-10.9412 6.31319-11.2178 5.18132-11.2178 1.66004-11.2178 0.880324-9.30628 0.880324-8.09899 0.880324-6.84137 1.81095-6.11197 1.88641-6.03652 2.89249-5.28193 3.47101-5.18132 5.15617-4.8795 6.33834-4.65314 8.27505-4.30101 8.27505-2.59067 8.27505-1.60973 7.62108-0.452738 5.30708-0.452738 2.76673-0.452738 2.03732-2.4146 1.71034-3.74767 1.60973-4.07465 1.58458-4.20041 1.28276-4.20041 0.880324-4.20041 0.880324-3.99919 0.880324-3.52131L0.880324-0.402434C0.880324 0 0.880324 0.251521 1.2073 0.251521 1.35821 0.251521 1.38337 0.226369 1.8361-0.251521 1.96187-0.377283 2.23854-0.704259 2.3643-0.83002 3.49616 0.201217 4.67829 0.251521 5.33224 0.251521 8.52657 0.251521 9.63325-1.58458 9.63325-3.24461 9.63325-4.45192 8.90385-6.21258 5.91076-6.76592 5.70954-6.81622 4.30101-7.06774 4.20041-7.06774 3.4207-7.2438 2.23854-7.77199 2.23854-8.77809 2.23854-9.53264 2.79188-10.589 5.18132-10.589 7.99838-10.589 8.12414-8.52657 8.17445-7.82229 8.1996-7.62108 8.37566-7.54562 8.55172-7.54562 8.95415-7.54562 8.95415-7.72168 8.95415-8.1996L8.95415-10.5639Z" fill="#0070C0" transform="matrix(1 0 0 1.00184 891.633 999.111)"/><path d="M4.90466-15.4937C4.90466-16.2231 4.32617-16.9022 3.49616-16.9022 2.76673-16.9022 2.11278-16.3237 2.11278-15.5189 2.11278-14.6385 2.84219-14.1103 3.49616-14.1103 4.37647-14.1103 4.90466-14.8398 4.90466-15.4937ZM1.13184-10.8154 1.13184-9.98537C2.74158-9.98537 2.96795-9.83446 2.96795-8.60203L2.96795-1.96187C2.96795-0.83002 2.66612-0.83002 1.05639-0.83002L1.05639 0C2.03732-0.0754562 3.44585-0.0754562 3.82313-0.0754562 4.1501-0.0754562 5.65924-0.0754562 6.53955 0L6.53955-0.83002C4.90466-0.83002 4.80405-0.955779 4.80405-1.93671L4.80405-11.0921 1.13184-10.8154Z" fill="#0070C0" transform="matrix(1 0 0 1.00184 902.135 999.111)"/><path d="M12.5761-5.35739C12.5761-8.50142 9.98537-11.2178 6.66531-11.2178 3.34525-11.2178 0.754562-8.50142 0.754562-5.35739 0.754562-2.21335 3.44585 0.251521 6.66531 0.251521 9.90992 0.251521 12.5761-2.21339 12.5761-5.35739ZM6.66531-0.528193C5.30708-0.528193 4.25071-1.18215 3.69737-2.06247 3.06856-3.09371 2.9931-4.32617 2.9931-5.58375 2.9931-6.53955 2.9931-8.04869 3.77283-9.13021 4.42677-10.0105 5.48315-10.5136 6.66531-10.5136 7.97323-10.5136 9.05476-9.88477 9.63325-9.00445 10.3124-7.94808 10.3375-6.58985 10.3375-5.58375 10.3375-4.42677 10.2872-3.04341 9.58294-1.98702 8.90385-0.980931 7.77199-0.528193 6.66531-0.528193Z" fill="#0070C0" transform="matrix(1 0 0 1.00184 909.532 999.111)"/><path d="M12.2239-7.62108C12.2239-9.73386 11.2681-11.0921 8.62718-11.0921 6.13712-11.0921 5.00526-9.28112 4.70344-8.67748L4.67829-8.67748 4.67829-11.0921 1.03124-10.8154 1.03124-9.98537C2.74158-9.98537 2.9428-9.80931 2.9428-8.57687L2.9428-1.96187C2.9428-0.83002 2.64097-0.83002 1.03124-0.83002L1.03124 0C2.11278-0.0754562 3.21946-0.0754562 3.89859-0.0754562 4.62799-0.0754562 5.68439-0.0754562 6.76592 0L6.76592-0.83002C5.15617-0.83002 4.85435-0.83002 4.85435-1.96187L4.85435-6.5144C4.85435-9.15536 6.86652-10.3878 8.40081-10.3878 9.9351-10.3878 10.3124-9.30628 10.3124-7.72168L10.3124-1.96187C10.3124-0.83002 10.0105-0.83002 8.40081-0.83002L8.40081 0C9.48234-0.0754562 10.589-0.0754562 11.2681-0.0754562 11.9975-0.0754562 13.054-0.0754562 14.1355 0L14.1355-0.83002C12.5258-0.83002 12.2239-0.83002 12.2239-1.96187L12.2239-7.62108Z" fill="#0070C0" transform="matrix(1 0 0 1.00184 922.844 999.111)"/><path d="M4.80405-10.0105 7.82229-10.0105 7.82229-10.8406 4.72859-10.8406 4.72859-13.6827C4.72859-15.871 5.96106-17.0028 7.06774-17.0028 7.47017-17.0028 7.69653-16.9022 7.79714-16.8771 7.34441-16.6507 7.21865-16.2231 7.21865-15.8961 7.21865-15.2422 7.69653-14.7643 8.35051-14.7643 9.02961-14.7643 9.48234-15.2422 9.48234-15.8961 9.48234-16.9777 8.42596-17.7071 7.09289-17.7071 5.20648-17.7071 2.96795-16.3489 2.96795-13.6576L2.96795-10.8406 0.905476-10.8406 0.905476-10.0105 2.96795-10.0105 2.96795-1.96187C2.96795-0.83002 2.66612-0.83002 1.05639-0.83002L1.05639 0C2.03732-0.0754562 3.4207-0.0754562 4.02434-0.0754562 5.5083-0.0754562 5.5586-0.0754562 7.1935 0L7.1935-0.83002 6.69046-0.83002C4.85435-0.83002 4.80405-1.10669 4.80405-2.01217L4.80405-10.0105Z" fill="#0070C0" transform="matrix(1 0 0 1.00184 946.544 999.111)"/><path d="M12.5761-5.35739C12.5761-8.50142 9.98537-11.2178 6.66531-11.2178 3.34525-11.2178 0.754562-8.50142 0.754562-5.35739 0.754562-2.21335 3.44585 0.251521 6.66531 0.251521 9.90992 0.251521 12.5761-2.21339 12.5761-5.35739ZM6.66531-0.528193C5.30708-0.528193 4.25071-1.18215 3.69737-2.06247 3.06856-3.09371 2.9931-4.32617 2.9931-5.58375 2.9931-6.53955 2.9931-8.04869 3.77283-9.13021 4.42677-10.0105 5.48315-10.5136 6.66531-10.5136 7.97323-10.5136 9.05476-9.88477 9.63325-9.00445 10.3124-7.94808 10.3375-6.58985 10.3375-5.58375 10.3375-4.42677 10.2872-3.04341 9.58294-1.98702 8.90385-0.980931 7.77199-0.528193 6.66531-0.528193Z" fill="#0070C0" transform="matrix(1 0 0 1.00184 954.679 999.111)"/><path d="M4.62799-5.73469C4.62799-7.62108 5.40769-10.3375 7.82229-10.3878 7.67138-10.2872 7.41986-10.086 7.41986-9.50749 7.41986-8.72779 8.02354-8.37566 8.52657-8.37566 9.13021-8.37566 9.6584-8.77809 9.6584-9.50749 9.6584-10.3878 8.85354-11.0921 7.74684-11.0921 6.11197-11.0921 5.00526-9.85961 4.47708-8.45112L4.45192-8.45112 4.45192-11.0921 0.880324-10.8154 0.880324-9.98537C2.59067-9.98537 2.79188-9.80931 2.79188-8.57687L2.79188-1.96187C2.79188-0.83002 2.49006-0.83002 0.880324-0.83002L0.880324 0C1.86126-0.0754562 3.24461-0.0754562 3.84828-0.0754562 5.33224-0.0754562 5.38254-0.0754562 7.01743 0L7.01743-0.83002 6.5144-0.83002C4.67829-0.83002 4.62799-1.10669 4.62799-2.01217L4.62799-5.73469Z" fill="#0070C0" transform="matrix(1 0 0 1.00184 967.99 999.111)"/><path d="M9.25597-9.98537C8.55172-9.75901 8.45112-9.18052 8.45112-8.8787 8.45112-8.1996 8.929-7.69653 9.63325-7.69653 10.2872-7.69653 10.8154-8.14929 10.8154-8.90385 10.8154-10.4633 9.10506-11.2178 6.74076-11.2178 3.24461-11.2178 0.880324-8.42596 0.880324-5.43284 0.880324-2.23854 3.49616 0.251521 6.66531 0.251521 10.2118 0.251521 11.0921-2.71643 11.0921-3.01825 11.0921-3.32006 10.7651-3.32006 10.6897-3.32006 10.5136-3.32006 10.3878-3.29491 10.3124-3.04341 10.1363-2.51521 9.43203-0.528193 6.91683-0.528193 5.35739-0.528193 3.11886-1.7355 3.11886-5.45799 3.11886-9.07991 4.98011-10.4381 6.81622-10.4381 7.04259-10.4381 8.37566-10.4381 9.25597-9.98537Z" fill="#0070C0" transform="matrix(1 0 0 1.00184 978.367 999.111)"/><path d="M10.3878-5.73469C10.9412-5.73469 11.0921-5.73469 11.0921-6.31319 11.0921-8.55172 9.85961-11.2178 6.31319-11.2178 3.1943-11.2178 0.754562-8.62718 0.754562-5.5083 0.754562-2.26369 3.47101 0.251521 6.64016 0.251521 9.83446 0.251521 11.0921-2.43975 11.0921-3.01825 11.0921-3.11886 11.0166-3.3704 10.6897-3.3704 10.413-3.3704 10.3627-3.1943 10.3124-3.04341 9.40688-0.603652 7.2438-0.528193 6.79107-0.528193 5.65924-0.528193 4.50223-1.05639 3.74767-2.21339 2.99312-3.37037 2.9931-4.98011 2.9931-5.73469L10.3878-5.73469ZM3.01825-6.38864C3.24461-9.90992 5.38254-10.5136 6.31319-10.5136 9.25597-10.5136 9.35658-6.96713 9.38173-6.38864L3.01825-6.38864Z" fill="#0070C0" transform="matrix(1 0 0 1.00184 990.201 999.111)"/><path d="M865.422 313.946 1211.6 313.946 1211.6 315.455 865.422 315.455Z" fill="#0070C0" transform="matrix(1 0 0 1.00184 -125.559 577.166)"/><path d="M878.563 383.455 1021.47 383.455 1021.47 387.983 878.563 387.983Z" fill="#0070C0" transform="matrix(1 0 0 1.00184 -125.559 577.166)"/><path d="M1055.3 383.455 1198.21 383.455 1198.21 387.983 1055.3 387.983Z" fill="#0070C0" transform="matrix(1 0 0 1.00184 -125.559 577.166)"/><path d="M19.8827 43.7647C19.8827 28.9375 16.4872 13.9972 6.90427 2.71643 6.14968 1.84868 4.71603 0.301825 3.16915-1.05639 2.71643-1.50913 2.64097-1.50913 2.11278-1.50913 1.66004-1.50913 1.32049-1.50913 1.32049-1.13184 1.32049-0.980931 1.4714-0.83002 1.54685-0.754562 2.86734 0.603652 5.39513 3.13144 7.92293 7.20609 13.9972 16.9399 16.7513 29.2016 16.7513 43.7268 16.7513 53.8759 15.3931 66.9674 9.16796 78.2106 6.18743 83.5679 3.05598 86.6994 1.4714 88.2839 1.39594 88.3972 1.32049 88.5102 1.32049 88.6235 1.32049 89.0006 1.66004 89.0006 2.11278 89.0006 2.64097 89.0006 2.71643 89.0006 3.28235 88.4348 15.9213 76.9278 19.8827 59.6482 19.8827 43.7647Z" transform="matrix(1 0 0 1.00184 1089.81 848.599)"/></g></svg>