<svg width="908" height="276" xmlns="http://www.w3.org/2000/svg" xmlns:xlink="http://www.w3.org/1999/xlink" xml:space="preserve" overflow="hidden"><g transform="translate(-3546 -932)"><text font-family="Arial,Arial_MSFontService,sans-serif" font-weight="400" font-size="73" transform="matrix(0.225983 0 0 0.22623 3556.06 1129)">In </text><text fill="#156082" font-family="Arial,Arial_MSFontService,sans-serif" font-weight="400" font-size="73" transform="matrix(0.225983 0 0 0.22623 3574.58 1129)">high</text><text fill="#156082" font-family="Arial,Arial_MSFontService,sans-serif" font-weight="400" font-size="73" transform="matrix(0.225983 0 0 0.22623 3605.78 1129)">-</text><text fill="#156082" font-family="Arial,Arial_MSFontService,sans-serif" font-weight="400" font-size="73" transform="matrix(0.225983 0 0 0.22623 3611.35 1129)">variance data dimensions</text><text font-family="Arial,Arial_MSFontService,sans-serif" font-weight="400" font-size="73" transform="matrix(0.225983 0 0 0.22623 3799.08 1129)">, </text><text font-family="Arial,Arial_MSFontService,sans-serif" font-weight="400" font-size="73" transform="matrix(0.225983 0 0 0.22623 3808.12 1129)">distances between </text><text font-family="Arial,Arial_MSFontService,sans-serif" font-weight="400" font-size="73" transform="matrix(0.225983 0 0 0.22623 3556.06 1149)">data points are large</text><text font-family="Arial,Arial_MSFontService,sans-serif" font-weight="400" font-size="73" transform="matrix(0.225983 0 0 0.22623 3707.02 1149)">, </text><text font-family="Arial,Arial_MSFontService,sans-serif" font-weight="400" font-size="73" transform="matrix(0.225983 0 0 0.22623 3716.06 1149)">which lead to </text><text fill="#156082" font-family="Arial,Arial_MSFontService,sans-serif" font-weight="400" font-size="73" transform="matrix(0.225983 0 0 0.22623 3817.72 1149)">more in</text><text fill="#156082" font-family="Arial,Arial_MSFontService,sans-serif" font-weight="400" font-size="73" transform="matrix(0.225983 0 0 0.22623 3873.01 1149)">-</text><text fill="#156082" font-family="Arial,Arial_MSFontService,sans-serif" font-weight="400" font-size="73" transform="matrix(0.225983 0 0 0.22623 3878.57 1149)">between </text><text fill="#156082" font-family="Arial,Arial_MSFontService,sans-serif" font-weight="400" font-size="73" transform="matrix(0.225983 0 0 0.22623 3556.06 1169)">uncertainty</text><text font-family="Wingdings,Wingdings_MSFontService,sans-serif" font-weight="400" font-size="73" transform="matrix(0.225983 0 0 0.22623 3641.77 1169)"></text><text font-family="Arial,Arial_MSFontService,sans-serif" font-weight="400" font-size="73" transform="matrix(0.225983 0 0 0.22623 3664.17 1169)">we can apply </text><text fill="#156082" font-family="Arial,Arial_MSFontService,sans-serif" font-weight="400" font-size="73" transform="matrix(0.225983 0 0 0.22623 3765.42 1169)">strong repulsion</text><text font-family="Arial,Arial_MSFontService,sans-serif" font-weight="400" font-size="73" transform="matrix(0.225983 0 0 0.22623 3887.89 1169)">force to </text><text font-family="Arial,Arial_MSFontService,sans-serif" font-weight="400" font-size="73" transform="matrix(0.225983 0 0 0.22623 3556.06 1189)">push the input gradients far away from each other</text><text font-family="Arial,Arial_MSFontService,sans-serif" font-weight="400" font-size="73" transform="matrix(0.225983 0 0 0.22623 3920.35 1189)">.</text><path d="M117.059 357.695 360.411 357.695 360.411 360.027 117.059 360.027ZM359.248 353.035 370.899 358.861 359.248 364.687Z" fill="#156082" transform="matrix(1 0 0 1.00109 3500.8 730.203)"/><path d="M157.623 280.111C190.04 240.997 222.457 201.884 251.571 202.372 280.685 202.861 326.803 269.11 332.308 283.044" stroke="#C04F15" stroke-width="1.55363" stroke-miterlimit="8" stroke-opacity="0.701961" fill="none" fill-rule="evenodd" transform="matrix(1 0 0 1.00109 3500.8 730.203)"/><path d="M157.623 281.01C187.278 315.011 216.933 349.011 245.671 349.257 274.407 349.501 330.048 282.477 330.048 282.477" stroke="#00B0F0" stroke-width="1.55363" stroke-miterlimit="8" stroke-opacity="0.701961" fill="none" fill-rule="evenodd" transform="matrix(1 0 0 1.00109 3500.8 730.203)"/><path d="M321.235 282.366C321.235 277.749 324.979 274.004 329.596 274.004 334.213 274.004 337.958 277.749 337.958 282.366 337.958 286.983 334.213 290.727 329.596 290.727 324.979 290.727 321.235 286.983 321.235 282.366Z" stroke="#024059" stroke-width="1.55363" stroke-miterlimit="8" fill="#0F9ED5" fill-rule="evenodd" transform="matrix(1 0 0 1.00109 3500.8 730.203)"/><path d="M128.471 281.01C128.471 264.911 141.523 251.858 157.623 251.858 173.723 251.858 186.775 264.911 186.775 281.01 186.775 297.109 173.723 310.162 157.623 310.162 141.523 310.162 128.471 297.109 128.471 281.01Z" stroke="#000000" stroke-width="1.55363" stroke-miterlimit="8" stroke-dasharray="6.21453 4.6609" fill="none" fill-rule="evenodd" transform="matrix(1 0 0 1.00109 3500.8 730.203)"/><path d="M0.420191-0.302716 15.834 21.0928 14.9937 21.6982-0.420191 0.302716ZM17.3296 18.7389 18.441 25.5973 12.2873 22.3714Z" fill="#C04F15" transform="matrix(1 0 0 -1.00109 3657.07 1012.71)"/><path d="M160.973 283.86 173.795 300.661 172.972 301.29 160.149 284.488ZM175.225 298.266 176.525 305.093 170.285 302.038Z" fill="#00B0F0" transform="matrix(1 0 0 1.00109 3500.8 730.203)"/><path d="M149.714 282.366C149.714 277.749 153.457 274.004 158.075 274.004 162.693 274.004 166.437 277.749 166.437 282.366 166.437 286.983 162.693 290.727 158.075 290.727 153.457 290.727 149.714 286.983 149.714 282.366Z" stroke="#1C440D" stroke-width="1.55363" stroke-miterlimit="8" fill="#4EA72E" fill-rule="evenodd" transform="matrix(1 0 0 1.00109 3500.8 730.203)"/><text font-family="Arial,Arial_MSFontService,sans-serif" font-weight="400" font-size="73" transform="matrix(0.225983 0 0 0.22623 4027.41 1129)">In </text><text fill="#E97132" font-family="Arial,Arial_MSFontService,sans-serif" font-weight="400" font-size="73" transform="matrix(0.225983 0 0 0.22623 4045.93 1129)">low</text><text fill="#E97132" font-family="Arial,Arial_MSFontService,sans-serif" font-weight="400" font-size="73" transform="matrix(0.225983 0 0 0.22623 4070.66 1129)">-</text><text fill="#E97132" font-family="Arial,Arial_MSFontService,sans-serif" font-weight="400" font-size="73" transform="matrix(0.225983 0 0 0.22623 4076.22 1129)">variance data dimension</text><text font-family="Arial,Arial_MSFontService,sans-serif" font-weight="400" font-size="73" transform="matrix(0.225983 0 0 0.22623 4255.67 1129)">, </text><text font-family="Arial,Arial_MSFontService,sans-serif" font-weight="400" font-size="73" transform="matrix(0.225983 0 0 0.22623 4264.71 1129)">data points</text><text font-family="Arial,Arial_MSFontService,sans-serif" font-weight="400" font-size="73" transform="matrix(0.225983 0 0 0.22623 4350.7 1129)">lie</text><text fill="#E97132" font-family="Arial,Arial_MSFontService,sans-serif" font-weight="400" font-size="73" transform="matrix(0.225983 0 0 0.22623 4371.8 1129)">close to</text><text font-family="Arial,Arial_MSFontService,sans-serif" font-weight="400" font-size="73" transform="matrix(0.225983 0 0 0.22623 4027.41 1149)">each other</text><text font-family="Arial,Arial_MSFontService,sans-serif" font-weight="400" font-size="73" transform="matrix(0.225983 0 0 0.22623 4105.83 1149)">, </text><text font-family="Arial,Arial_MSFontService,sans-serif" font-weight="400" font-size="73" transform="matrix(0.225983 0 0 0.22623 4114.87 1149)">leading to </text><text fill="#E97132" font-family="Arial,Arial_MSFontService,sans-serif" font-weight="400" font-size="73" transform="matrix(0.225983 0 0 0.22623 4190.54 1149)">less in</text><text fill="#E97132" font-family="Arial,Arial_MSFontService,sans-serif" font-weight="400" font-size="73" transform="matrix(0.225983 0 0 0.22623 4237.4 1149)">-</text><text fill="#E97132" font-family="Arial,Arial_MSFontService,sans-serif" font-weight="400" font-size="73" transform="matrix(0.225983 0 0 0.22623 4242.97 1149)">between uncertainty </text><text font-family="Wingdings,Wingdings_MSFontService,sans-serif" font-weight="400" font-size="73" transform="matrix(0.225983 0 0 0.22623 4395.87 1149)"></text><text font-family="Arial,Arial_MSFontService,sans-serif" font-weight="400" font-size="73" transform="matrix(0.225983 0 0 0.22623 4418.27 1149)">we </text><text font-family="Arial,Arial_MSFontService,sans-serif" font-weight="400" font-size="73" transform="matrix(0.225983 0 0 0.22623 4027.41 1169)">need to use </text><text fill="#E97132" font-family="Arial,Arial_MSFontService,sans-serif" font-weight="400" font-size="73" transform="matrix(0.225983 0 0 0.22623 4118.69 1169)">weak repulsion </text><text font-family="Arial,Arial_MSFontService,sans-serif" font-weight="400" font-size="73" transform="matrix(0.225983 0 0 0.22623 4233.66 1169)">force</text><text font-family="Arial,Arial_MSFontService,sans-serif" font-weight="400" font-size="73" transform="matrix(0.225983 0 0 0.22623 4270.72 1169)">.</text><path d="M0 0 0.906246 259.268" stroke="#3A3A3A" stroke-width="1.55363" stroke-miterlimit="8" fill="none" fill-rule="evenodd" transform="matrix(-1 0 0 1.00109 3994.92 947.497)"/><path d="M588.46 357.695 831.812 357.695 831.812 360.027 588.46 360.027ZM830.648 353.035 842.3 358.861 830.648 364.687Z" fill="#E97132" transform="matrix(1 0 0 1.00109 3500.8 730.203)"/><path d="M757.382 282.818C757.382 278.201 761.127 274.456 765.744 274.456 770.36 274.456 774.105 278.201 774.105 282.818 774.105 287.435 770.36 291.179 765.744 291.179 761.127 291.179 757.382 287.435 757.382 282.818Z" stroke="#024059" stroke-width="1.55363" stroke-miterlimit="8" fill="#0F9ED5" fill-rule="evenodd" transform="matrix(1 0 0 1.00109 3500.8 730.203)"/><path d="M649.362 281.01C649.362 264.784 662.515 251.632 678.74 251.632 694.966 251.632 708.118 264.784 708.118 281.01 708.118 297.236 694.966 310.388 678.74 310.388 662.515 310.388 649.362 297.236 649.362 281.01Z" stroke="#000000" stroke-width="1.55363" stroke-miterlimit="8" stroke-dasharray="6.21453 4.6609" fill="none" fill-rule="evenodd" transform="matrix(1 0 0 1.00109 3500.8 730.203)"/><path d="M0.283021-0.4337 21.1682 13.1955 20.6022 14.0629-0.283021 0.4337ZM21.7159 10.4609 25.2222 16.4594 18.3197 15.6653Z" fill="#C04F15" transform="matrix(1 0 0 -1.00109 4178.19 1012.84)"/><path d="M681.967 283.744 698.728 295.003 698.152 295.864 681.389 284.603ZM699.314 292.277 702.74 298.32 695.847 297.434Z" fill="#00B0F0" transform="matrix(1 0 0 1.00109 3500.8 730.203)"/><path d="M670.831 282.366C670.831 277.749 674.575 274.004 679.192 274.004 683.809 274.004 687.554 277.749 687.554 282.366 687.554 286.983 683.809 290.727 679.192 290.727 674.575 290.727 670.831 286.983 670.831 282.366Z" stroke="#1C440D" stroke-width="1.55363" stroke-miterlimit="8" fill="#4EA72E" fill-rule="evenodd" transform="matrix(1 0 0 1.00109 3500.8 730.203)"/><path d="M679.418 282.14C693.675 272.875 707.933 263.609 722.283 263.609 736.633 263.609 751.075 272.875 765.518 282.14" stroke="#C04F15" stroke-width="1.55363" stroke-miterlimit="8" stroke-opacity="0.701961" fill="none" fill-rule="evenodd" transform="matrix(1 0 0 1.00109 3500.8 730.203)"/><path d="M679.418 282.14C692.548 290.553 705.68 298.964 720.104 299.086 734.531 299.211 750.25 291.044 765.97 282.877" stroke="#00B0F0" stroke-width="1.55363" stroke-miterlimit="8" stroke-opacity="0.701961" fill="none" fill-rule="evenodd" transform="matrix(1 0 0 1.00109 3500.8 730.203)"/></g></svg>